<svg width="120" height="32" viewBox="0 0 120 32" fill="none" xmlns="http://www.w3.org/2000/svg">
<path d="M5.9507 15.7838C6.11309 16.7167 6.23682 17.6497 6.23682 18.4603V28.1187H0V0.122314H6.23682V8.03716C6.23682 9.13453 6.15563 10.2701 5.9507 11.3637H8.37119L15.5515 0.122314H22.3219L15.0179 11.2834C14.4417 12.2966 13.7883 12.9046 12.9647 13.5164V13.677C13.7844 14.2429 14.7704 15.2179 15.3465 16.1547L22.8168 28.1263H15.8415L8.37119 15.7914H5.9507V15.7838Z" fill="white"/>
<path d="M52.775 27.8358C48.9162 28.2411 44.0326 28.2411 39.6441 28.2411C35.8703 28.2411 33.4459 26.0502 33.4072 22.6013V5.63981C33.4498 2.19092 35.8703 0 39.6441 0C44.0365 0 48.92 0 52.775 0.405301L52.4889 4.98979H41.616C40.2627 4.98979 39.6866 5.59775 39.6866 7.05836V11.3178H50.9732V15.78H39.6866V21.1789C39.6866 22.6816 40.2627 23.2895 41.616 23.2895H52.4889L52.775 27.8358Z" fill="white"/>
<path d="M78.2562 28.1225H71.9768V18.8694L62.6235 0.122314H69.1465L73.8676 10.3887C74.3587 11.486 74.6487 12.7822 74.9348 13.9179H75.3446C75.5921 12.7822 75.9208 11.4822 76.3693 10.3887L81.0904 0.122314H87.5322L78.2562 18.8694V28.1225Z" fill="white"/>
<path d="M106.737 20.6705L103.014 31.4072H110.349L106.737 20.6705Z" fill="#EA0029"/>
<path d="M111.826 1.74368C111.578 0.730428 110.716 0.118652 109.653 0.118652H103.745C102.72 0.118652 101.815 0.726604 101.568 1.74368L93.4016 28.1189H99.8047L104.63 10.4309L104.719 10.4232L105.554 7.42555C105.759 6.57289 105.964 5.63993 106.169 4.78726H107.275C107.399 5.63993 107.646 6.57289 107.851 7.42555L109.692 14.0518L111.578 20.7737H111.586L113.639 28.1189H120L111.834 1.74368H111.826Z" fill="white"/>
</svg>
