<svg width="214" height="56" viewBox="0 0 214 56" fill="none" xmlns="http://www.w3.org/2000/svg">
<path d="M10.6103 28.1431C10.8999 29.8066 11.1205 31.4701 11.1205 32.9154V50.1367H0V0.21814H11.1205V14.3306C11.1205 16.2872 10.9757 18.3121 10.6103 20.2619H14.9261L27.7288 0.21814H39.8007L26.7774 20.1187C25.7502 21.9254 24.585 23.0094 23.1165 24.1002V24.3866C24.5781 25.3956 26.3362 27.1341 27.3634 28.8044L40.6832 50.1503H28.2459L14.9261 28.1567H10.6103V28.1431Z" fill="white"/>
<path d="M94.0996 49.6322C87.2191 50.3549 78.5117 50.3549 70.6866 50.3549C63.9578 50.3549 59.6351 46.4484 59.5662 40.2989V10.056C59.642 3.90649 63.9578 0 70.6866 0C78.5186 0 87.226 0 94.0996 0.722667L93.5895 8.89698H74.2027C71.7897 8.89698 70.7625 9.98098 70.7625 12.5853V20.1801H90.8869V28.1363H70.7625V37.7627C70.7625 40.4421 71.7897 41.5261 74.2027 41.5261H93.5895L94.0996 49.6322Z" fill="white"/>
<path d="M139.533 50.1435H128.337V33.6449L111.66 0.21814H123.291L131.708 18.5234C132.584 20.4801 133.101 22.7913 133.611 24.8161H134.342C134.783 22.7913 135.369 20.4733 136.169 18.5234L144.587 0.21814H156.073L139.533 33.6449V50.1435Z" fill="white"/>
<path d="M190.317 36.8563L183.677 56.0002H196.756L190.317 36.8563Z" fill="#EA0029"/>
<path d="M199.39 3.10903C198.948 1.30237 197.411 0.211548 195.515 0.211548H184.981C183.154 0.211548 181.54 1.29555 181.099 3.10903L166.538 50.1369H177.955L186.559 18.5986L186.718 18.585L188.207 13.24C188.572 11.7197 188.938 10.0562 189.303 8.53585H191.275C191.496 10.0562 191.937 11.7197 192.302 13.24L195.584 25.0549L198.948 37.0403H198.962L202.623 50.1369H213.964L199.403 3.10903H199.39Z" fill="white"/>
</svg>
