<svg width="180" height="48" viewBox="0 0 180 48" fill="none" xmlns="http://www.w3.org/2000/svg">
<path d="M8.92605 23.6758C9.16965 25.0752 9.35525 26.4747 9.35525 27.6906V42.1782H0V0.183594H9.35525V12.0559C9.35525 13.7019 9.23345 15.4053 8.92605 17.0457H12.5568L23.3272 0.183594H33.4828L22.5268 16.9252C21.6626 18.4451 20.6825 19.357 19.4471 20.2747V20.5156C20.6767 21.3644 22.1556 22.827 23.0198 24.2321L34.2252 42.1897H23.7622L12.5568 23.6873H8.92605V23.6758Z" fill="white"/>
<path d="M79.1626 41.7537C73.3743 42.3617 66.049 42.3617 59.4661 42.3617C53.8054 42.3617 50.1688 39.0753 50.1108 33.902V8.45972C50.1746 3.28638 53.8054 0 59.4661 0C66.0548 0 73.3801 0 79.1626 0.607952L78.7334 7.4847H62.424C60.3941 7.4847 59.5299 8.39663 59.5299 10.5875V16.9768H76.4598V23.67H59.5299V31.7684C59.5299 34.0224 60.3941 34.9343 62.424 34.9343H78.7334L79.1626 41.7537Z" fill="white"/>
<path d="M117.384 42.1839H107.965V28.3043L93.9351 0.183594H103.719L110.801 15.5831C111.538 17.2292 111.973 19.1735 112.402 20.8769H113.017C113.388 19.1735 113.881 17.2235 114.554 15.5831L121.635 0.183594H131.298L117.384 28.3043V42.1839Z" fill="white"/>
<path d="M160.106 31.0059L154.521 47.1109H165.523L160.106 31.0059Z" fill="#EA0029"/>
<path d="M167.739 2.61552C167.368 1.09564 166.074 0.177979 164.479 0.177979H155.617C154.08 0.177979 152.723 1.08991 152.352 2.61552L140.102 42.1783H149.707L156.945 15.6464L157.079 15.6349L158.331 11.1383C158.639 9.85934 158.946 8.4599 159.254 7.1809H160.912C161.098 8.4599 161.469 9.85934 161.777 11.1383L164.537 21.0778L167.368 31.1606H167.379L170.459 42.1783H180L167.75 2.61552H167.739Z" fill="white"/>
</svg>
