<svg width="85" height="22" viewBox="0 0 85 22" fill="none" xmlns="http://www.w3.org/2000/svg">
<path d="M4.27014 11.0563C4.3839 11.7098 4.47057 12.3633 4.47057 12.9311V19.6966H0.101807V0.0857544H4.47057V5.62993C4.47057 6.39862 4.41369 7.19409 4.27014 7.96009H5.96564L10.9953 0.0857544H15.7378L10.6215 7.90385C10.2179 8.61361 9.7602 9.03947 9.1833 9.468V9.58049C9.7575 9.97689 10.4482 10.6599 10.8517 11.3161L16.0845 19.702H11.1984L5.96564 11.0616H4.27014V11.0563Z" fill="white"/>
<path d="M37.0697 19.4984C34.3666 19.7823 30.9458 19.7823 27.8717 19.7823C25.2282 19.7823 23.53 18.2476 23.503 15.8317V3.95056C23.5327 1.53469 25.2282 0 27.8717 0C30.9485 0 34.3693 0 37.0697 0.283905L36.8692 3.49524H29.253C28.3051 3.49524 27.9015 3.9211 27.9015 4.94423V7.92791H35.8075V11.0535H27.9015V14.8354C27.9015 15.888 28.3051 16.3138 29.253 16.3138H36.8692L37.0697 19.4984Z" fill="white"/>
<path d="M54.9185 19.6993H50.52V13.2177L43.9682 0.0857544H48.5374L51.8444 7.27712C52.1884 8.0458 52.3915 8.95376 52.5919 9.74923H52.879C53.0524 8.95376 53.2826 8.04312 53.5968 7.27712L56.9038 0.0857544H61.4161L54.9185 13.2177V19.6993Z" fill="white"/>
<path d="M74.8691 14.4792L72.2608 22H77.3988L74.8691 14.4792Z" fill="#EA0029"/>
<path d="M78.4335 1.2214C78.2602 0.511639 77.6562 0.0831032 76.9113 0.0831032H72.7728C72.0551 0.0831032 71.4213 0.50896 71.2479 1.2214L65.5276 19.6966H70.0129L73.393 7.30661L73.4553 7.30125L74.0404 5.20143C74.1839 4.60415 74.3275 3.95064 74.471 3.35337H75.2456C75.3323 3.95064 75.5057 4.60415 75.6492 5.20143L76.9384 9.843L78.2602 14.5515H78.2656L79.7038 19.6966H84.1592L78.4389 1.2214H78.4335Z" fill="white"/>
</svg>