<svg width="130" height="34" viewBox="0 0 130 34" fill="none" xmlns="http://www.w3.org/2000/svg">
<path d="M6.44197 17.0869C6.61777 18.0968 6.75172 19.1068 6.75172 19.9844V30.4401H0V0.132446H6.75172V8.70072C6.75172 9.88869 6.66382 11.1181 6.44197 12.3019H9.06229L16.8353 0.132446H24.1647L16.2577 12.215C15.634 13.3119 14.9266 13.97 14.035 14.6323V14.8061C14.9224 15.4187 15.9898 16.4743 16.6135 17.4884L24.7005 30.4484H17.1493L9.06229 17.0951H6.44197V17.0869Z" fill="#3B3B3B"/>
<path d="M57.132 30.1338C52.9546 30.5726 47.6679 30.5726 42.917 30.5726C38.8316 30.5726 36.2071 28.2008 36.1653 24.4672V6.10541C36.2113 2.3718 38.8316 0 42.917 0C47.6721 0 52.9588 0 57.132 0.438762L56.8223 5.40174H45.0518C43.5867 5.40174 42.9631 6.05988 42.9631 7.64108V12.2522H55.1814V17.0827H42.9631V22.9274C42.9631 24.5541 43.5867 25.2123 45.0518 25.2123H56.8223L57.132 30.1338Z" fill="#3B3B3B"/>
<path d="M84.7167 30.4443H77.9189V20.4273L67.7935 0.132446H74.8549L79.9658 11.2464C80.4974 12.4343 80.8113 13.8375 81.1211 15.0669H81.5648C81.8327 13.8375 82.1885 12.4302 82.674 11.2464L87.7849 0.132446H94.7585L84.7167 20.4273V30.4443Z" fill="#3B3B3B"/>
<path d="M115.549 22.3771L111.519 34.0001H119.459L115.549 22.3771Z" fill="#EA0029"/>
<path d="M121.058 1.88761C120.79 0.7907 119.857 0.128418 118.706 0.128418H112.31C111.2 0.128418 110.221 0.786561 109.953 1.88761L101.113 30.4402H108.044L113.268 11.292L113.364 11.2837L114.269 8.03855C114.49 7.1155 114.712 6.10551 114.934 5.18246H116.131C116.265 6.10551 116.533 7.1155 116.755 8.03855L118.747 15.2119L120.79 22.4887H120.798L123.021 30.4402H129.907L121.066 1.88761H121.058Z" fill="#3B3B3B"/>
</svg>
