<svg width="107" height="28" viewBox="0 0 107 28" fill="none" xmlns="http://www.w3.org/2000/svg">
<path d="M5.30515 14.0716C5.44993 14.9033 5.56024 15.7351 5.56024 16.4578V25.0684H0V0.109131H5.56024V7.16536C5.56024 8.14368 5.48785 9.1561 5.30515 10.131H7.46306L13.8644 0.109131H19.9004L13.3887 10.0594C12.8751 10.9628 12.2925 11.5048 11.5583 12.0502V12.1933C12.2891 12.6978 13.1681 13.5671 13.6817 14.4023L20.3416 25.0752H14.1229L7.46306 14.0784H5.30515V14.0716Z" fill="white"/>
<path d="M47.0499 24.8161C43.6097 25.1774 39.256 25.1774 35.3434 25.1774C31.979 25.1774 29.8177 23.2242 29.7832 20.1494V5.02799C29.8211 1.95325 31.979 0 35.3434 0C39.2594 0 43.6131 0 47.0499 0.361333L46.7949 4.44849H37.1015C35.895 4.44849 35.3814 4.99049 35.3814 6.29265V10.0901H45.4436V14.0681H35.3814V18.8814C35.3814 20.221 35.895 20.763 37.1015 20.763H46.7949L47.0499 24.8161Z" fill="white"/>
<path d="M69.7666 25.0718H64.1685V16.8225L55.8298 0.109131H61.6452L65.8541 9.26177C66.2919 10.2401 66.5504 11.3957 66.8055 12.4081H67.1709C67.3915 11.3957 67.6846 10.2367 68.0844 9.26177L72.2934 0.109131H78.0363L69.7666 16.8225V25.0718Z" fill="white"/>
<path d="M95.1585 18.4282L91.8389 28.0001H98.3781L95.1585 18.4282Z" fill="#EA0029"/>
<path d="M99.6947 1.55446C99.4741 0.651122 98.7054 0.105713 97.7574 0.105713H92.4902C91.5767 0.105713 90.77 0.647713 90.5494 1.55446L83.269 25.0684H88.9775L93.2795 9.29926L93.3588 9.29244L94.1034 6.61994C94.2861 5.85978 94.4688 5.02803 94.6515 4.26786H95.6374C95.7477 5.02803 95.9683 5.85978 96.151 6.61994L97.7919 12.5274L99.4741 18.5201H99.481L101.311 25.0684H106.982L99.7016 1.55446H99.6947Z" fill="white"/>
</svg>
