<svg width="100" height="26" viewBox="0 0 100 26" fill="none" xmlns="http://www.w3.org/2000/svg">
<path d="M4.92621 13.0665C5.06065 13.8388 5.16308 14.6111 5.16308 15.2822V23.2778H0V0.101318H5.16308V6.65353C5.16308 7.56198 5.09586 8.50207 4.92621 9.40736H6.92999L12.8741 0.101318H18.4789L12.4324 9.34088C11.9554 10.1797 11.4145 10.683 10.7327 11.1894V11.3224C11.4113 11.7908 12.2275 12.598 12.7044 13.3735L18.8886 23.2841H13.1142L6.92999 13.0728H4.92621V13.0665Z" fill="white"/>
<path d="M43.6892 23.0435C40.4946 23.379 36.4519 23.379 32.8188 23.379C29.6947 23.379 27.6878 21.5653 27.6558 18.7102V4.66885C27.691 1.81373 29.6947 0 32.8188 0C36.4551 0 40.4978 0 43.6892 0.335524L43.4523 4.13074H34.4513C33.331 4.13074 32.8541 4.63403 32.8541 5.84318V9.36934H42.1975V13.0633H32.8541V17.5327C32.8541 18.7767 33.331 19.28 34.4513 19.28H43.4523L43.6892 23.0435Z" fill="white"/>
<path d="M64.7833 23.281H59.5851V15.6209L51.842 0.101318H57.242L61.1503 8.6002C61.5568 9.50865 61.7969 10.5817 62.0338 11.5218H62.3731C62.5779 10.5817 62.85 9.50548 63.2213 8.6002L67.1296 0.101318H72.4624L64.7833 15.6209V23.281Z" fill="white"/>
<path d="M88.3613 17.1119L85.2788 26.0002H91.3509L88.3613 17.1119Z" fill="#EA0029"/>
<path d="M92.5737 1.44341C92.3688 0.604596 91.655 0.0981445 90.7748 0.0981445H85.8837C85.0355 0.0981445 84.2865 0.60143 84.0816 1.44341L77.3213 23.2778H82.622L86.6168 8.63501L86.6904 8.62868L87.3818 6.14707C87.5514 5.4412 87.7211 4.66887 87.8907 3.963H88.8062C88.9086 4.66887 89.1135 5.4412 89.2831 6.14707L90.8068 11.6326L92.3688 17.1972H92.3752L94.0749 23.2778H99.3404L92.5801 1.44341H92.5737Z" fill="white"/>
</svg>
