<svg width="214" height="56" viewBox="0 0 214 56" fill="none" xmlns="http://www.w3.org/2000/svg">
<path d="M10.6103 28.1432C10.8999 29.8067 11.1205 31.4702 11.1205 32.9155V50.1368H0V0.218262H11.1205V14.3307C11.1205 16.2874 10.9757 18.3122 10.6103 20.262H14.9261L27.7288 0.218262H39.8007L26.7774 20.1189C25.7502 21.9255 24.585 23.0095 23.1165 24.1003V24.3867C24.5781 25.3957 26.3362 27.1342 27.3634 28.8045L40.6832 50.1504H28.2459L14.9261 28.1568H10.6103V28.1432Z" fill="#848484"/>
<path d="M94.0999 49.6322C87.2194 50.3549 78.5119 50.3549 70.6869 50.3549C63.9581 50.3549 59.6353 46.4484 59.5664 40.2989V10.056C59.6422 3.90649 63.9581 0 70.6869 0C78.5188 0 87.2263 0 94.0999 0.722667L93.5897 8.89698H74.203C71.79 8.89698 70.7627 9.98098 70.7627 12.5853V20.1801H90.8871V28.1363H70.7627V37.7627C70.7627 40.4421 71.79 41.5261 74.203 41.5261H93.5897L94.0999 49.6322Z" fill="#848484"/>
<path d="M139.533 50.1436H128.337V33.645L111.66 0.218262H123.29L131.708 18.5235C132.584 20.4802 133.101 22.7914 133.611 24.8162H134.342C134.783 22.7914 135.369 20.4734 136.169 18.5235L144.587 0.218262H156.073L139.533 33.645V50.1436Z" fill="#848484"/>
<path d="M190.317 36.8564L183.678 56.0003H196.756L190.317 36.8564Z" fill="#EA0029"/>
<path d="M199.389 3.10891C198.948 1.30224 197.411 0.211426 195.515 0.211426H184.98C183.153 0.211426 181.54 1.29543 181.099 3.10891L166.538 50.1368H177.955L186.559 18.5985L186.718 18.5849L188.207 13.2399C188.572 11.7196 188.938 10.0561 189.303 8.53573H191.275C191.495 10.0561 191.937 11.7196 192.302 13.2399L195.584 25.0548L198.948 37.0402H198.962L202.623 50.1368H213.964L199.403 3.10891H199.389Z" fill="#848484"/>
</svg>
