<svg width="22" height="22" viewBox="0 0 22 22" fill="none" xmlns="http://www.w3.org/2000/svg">
<path opacity="0.16" d="M16.5136 20.8999H5.5135C4.93002 20.8999 4.37043 20.6682 3.95785 20.2556C3.54526 19.843 3.31348 19.2834 3.31348 18.6999V8.79981L11.0136 1.09973L18.7136 8.79981V18.6999C18.7136 19.2834 18.4819 19.843 18.0693 20.2556C17.6567 20.6682 17.0971 20.8999 16.5136 20.8999Z" fill="#525252"/>
<path d="M19.8137 8.79986C19.8137 8.50812 19.6978 8.22832 19.4915 8.02203C19.2853 7.81574 19.0055 7.69985 18.7137 7.69985C18.422 7.69985 18.1422 7.81574 17.9359 8.02203C17.7296 8.22832 17.6137 8.50812 17.6137 8.79986H19.8137ZM4.41356 8.79986C4.41356 8.50812 4.29767 8.22832 4.09138 8.02203C3.88509 7.81574 3.60529 7.69985 3.31355 7.69985C3.02181 7.69985 2.74202 7.81574 2.53573 8.02203C2.32943 8.22832 2.21354 8.50812 2.21354 8.79986H4.41356ZM20.136 11.7776C20.3435 11.978 20.6214 12.0888 20.9098 12.0863C21.1982 12.0838 21.4741 11.9681 21.6781 11.7642C21.882 11.5602 21.9977 11.2843 22.0002 10.9959C22.0027 10.7075 21.8918 10.4296 21.6915 10.2222L20.136 11.7776ZM11.0136 1.09978L11.7913 0.322068C11.5851 0.115848 11.3053 0 11.0136 0C10.722 0 10.4422 0.115848 10.2359 0.322068L11.0136 1.09978ZM0.335821 10.2222C0.230758 10.3236 0.146957 10.445 0.0893065 10.5792C0.031656 10.7134 0.00131074 10.8578 4.15328e-05 11.0038C-0.00122768 11.1499 0.0266045 11.2947 0.0819141 11.4299C0.137224 11.5651 0.218903 11.6879 0.322186 11.7912C0.425469 11.8945 0.548287 11.9762 0.683475 12.0315C0.818662 12.0868 0.963512 12.1146 1.10957 12.1134C1.25563 12.1121 1.39997 12.0818 1.53418 12.0241C1.66838 11.9665 1.78976 11.8827 1.89124 11.7776L0.335821 10.2222ZM5.51358 22H16.5137V19.8H5.51358V22ZM19.8137 18.7V8.79986H17.6137V18.7H19.8137ZM4.41356 18.7V8.79986H2.21354V18.7H4.41356ZM21.6915 10.2222L11.7913 0.322068L10.2359 1.87749L20.136 11.7776L21.6915 10.2222ZM10.2359 0.322068L0.335821 10.2222L1.89124 11.7776L11.7913 1.87749L10.2359 0.322068ZM16.5137 22C17.3889 22 18.2283 21.6523 18.8472 21.0334C19.466 20.4146 19.8137 19.5752 19.8137 18.7H17.6137C17.6137 18.9917 17.4978 19.2715 17.2915 19.4778C17.0852 19.6841 16.8054 19.8 16.5137 19.8V22ZM5.51358 19.8C5.22183 19.8 4.94204 19.6841 4.73575 19.4778C4.52946 19.2715 4.41356 18.9917 4.41356 18.7H2.21354C2.21354 19.5752 2.56122 20.4146 3.1801 21.0334C3.79898 21.6523 4.63835 22 5.51358 22V19.8Z" fill="#525252"/>
</svg>
