<svg width="22" height="22" viewBox="0 0 22 22" fill="none" xmlns="http://www.w3.org/2000/svg">
<path opacity="0.3" d="M2.4444 18.7123L6.11106 17.2945V2.99451L2.4444 4.22895V18.7123ZM15.8888 19.0056L19.5555 17.7712V3.28784L15.8888 4.71784V19.0056Z" fill="#525252"/>
<path d="M21.3889 0L21.1933 0.0366666L14.6667 2.56667L7.33333 0L0.44 2.32222C0.183333 2.40778 0 2.62778 0 2.90889V21.3889C0 21.7311 0.268889 22 0.611111 22L0.806667 21.9633L7.33333 19.4333L14.6667 22L21.56 19.6778C21.8167 19.5922 22 19.3722 22 19.0911V0.611111C22 0.268889 21.7311 0 21.3889 0ZM6.11111 17.2944L2.44444 18.7122V4.22889L6.11111 2.99444V17.2944ZM13.4444 18.9811L8.55556 17.27V3.01889L13.4444 4.73V18.9811ZM19.5556 17.7711L15.8889 19.0056V4.71778L19.5556 3.3V17.7711Z" fill="#525252"/>
</svg>
