<svg width="31" height="30" viewBox="0 0 31 30" fill="none" xmlns="http://www.w3.org/2000/svg">
<path opacity="0.4" d="M27.718 8.69977H3.17255C3.1613 8.69977 3.15381 8.70727 3.15381 8.71852V12.1385C3.15381 14.381 4.99003 16.1998 7.24971 16.1998C8.7749 16.1998 10.1052 15.3748 10.8135 14.1485C10.9222 13.9573 11.1283 13.8373 11.3494 13.8373C11.5705 13.8373 11.7728 13.9573 11.8852 14.1485C12.5898 15.3748 13.9201 16.1998 15.4453 16.1998C16.9742 16.1998 18.3083 15.371 19.009 14.141C19.1177 13.9535 19.3163 13.8373 19.5299 13.8373H19.5524C19.7698 13.8373 19.9646 13.9535 20.0733 14.141C20.7778 15.371 22.1119 16.1998 23.6408 16.1998C25.9005 16.1998 27.7367 14.381 27.7367 12.1385V8.71852C27.7367 8.70727 27.7292 8.69977 27.718 8.69977Z" fill="#F5F5F5"/>
<path d="M29.3081 6.00375V1.2C29.3081 0.53625 28.7722 0 28.1089 0H2.77653C2.11325 0 1.57737 0.53625 1.57737 1.2V6.00375C0.951552 6.04125 0.453148 6.5625 0.453148 7.2V12.1388C0.450748 13.0464 0.634408 13.9449 0.992773 14.7788C1.15391 15.1613 1.35252 15.5213 1.57737 15.8625V28.8C1.57737 29.46 2.11325 30 2.77653 30H28.1089C28.7722 30 29.3081 29.4638 29.3081 28.8V15.8625C29.5365 15.5204 29.7322 15.1575 29.8927 14.7788C30.2487 13.9425 30.4323 13.0538 30.4323 12.1388V7.2C30.4323 6.5625 29.9339 6.04125 29.3081 6.00375ZM4.27549 2.7H26.61V6H4.27549V2.7ZM17.8411 27.3038H13.0444V23.4H17.8411V27.3038ZM26.625 27.3038H20.2394V22.2C20.2394 21.5363 19.7035 21 19.0402 21H11.8452C11.1819 21 10.6461 21.5363 10.6461 22.2V27.3038H4.27549V18.2213C4.38417 18.2738 4.49659 18.3263 4.61276 18.3713C5.44843 18.7238 6.33656 18.9 7.25093 18.9C8.16529 18.9 9.04968 18.7238 9.88909 18.3713C10.4062 18.1538 10.8934 17.8762 11.3393 17.5425C11.3468 17.5387 11.3543 17.5387 11.3618 17.5425C11.8091 17.8777 12.2963 18.156 12.8121 18.3713C13.6477 18.7238 14.5359 18.9 15.4502 18.9C16.3646 18.9 17.249 18.7238 18.0884 18.3713C18.6055 18.1538 19.0927 17.8762 19.5386 17.5425C19.5461 17.5387 19.5536 17.5387 19.5611 17.5425C20.0085 17.8777 20.4956 18.156 21.0114 18.3713C21.847 18.7238 22.7352 18.9 23.6495 18.9C24.5639 18.9 25.4483 18.7238 26.2877 18.3713C26.4001 18.3225 26.5126 18.2738 26.625 18.2213V27.3038ZM27.7342 12.1388C27.7342 14.3813 25.898 16.2 23.6383 16.2C22.1094 16.2 20.7753 15.3713 20.0708 14.1413C19.9621 13.9538 19.7672 13.8375 19.5499 13.8375H19.5274C19.3138 13.8375 19.1152 13.9538 19.0065 14.1413C18.647 14.7687 18.1279 15.2897 17.5019 15.6513C16.876 16.0129 16.1655 16.2022 15.4427 16.2C13.9175 16.2 12.5872 15.375 11.8827 14.1488C11.7703 13.9575 11.5679 13.8375 11.3468 13.8375C11.1257 13.8375 10.9196 13.9575 10.811 14.1488C10.4493 14.7738 9.92955 15.2925 9.30392 15.6526C8.6783 16.0127 7.96891 16.2015 7.24718 16.2C4.9875 16.2 3.15127 14.3813 3.15127 12.1388V8.71875C3.15127 8.7075 3.15877 8.7 3.17001 8.7H27.7155C27.7267 8.7 27.7342 8.7075 27.7342 8.71875V12.1388Z" fill="#F5F5F5"/>
</svg>
