<svg width="35" height="27" viewBox="0 0 35 27" fill="none" xmlns="http://www.w3.org/2000/svg">
<path opacity="0.4" d="M3.94141 1.125H12.9352V25.875H3.94141V1.125ZM21.9289 7.875V25.875H30.9227V7.875H21.9289Z" fill="#F5F5F5"/>
<path d="M33.1712 24.75H32.047V7.875C32.047 7.57663 31.9285 7.29048 31.7177 7.0795C31.5069 6.86853 31.2209 6.75 30.9228 6.75H21.929C21.6309 6.75 21.3449 6.86853 21.1341 7.0795C20.9232 7.29048 20.8048 7.57663 20.8048 7.875V13.5H14.0595V1.125C14.0595 0.826631 13.941 0.540484 13.7302 0.329505C13.5194 0.118527 13.2334 0 12.9353 0H3.94151C3.64334 0 3.35739 0.118527 3.14656 0.329505C2.93573 0.540484 2.81729 0.826631 2.81729 1.125V24.75H1.69307C1.39491 24.75 1.10896 24.8685 0.898124 25.0795C0.687292 25.2905 0.568848 25.5766 0.568848 25.875C0.568848 26.1734 0.687292 26.4595 0.898124 26.6705C1.10896 26.8815 1.39491 27 1.69307 27H33.1712C33.4694 27 33.7553 26.8815 33.9662 26.6705C34.177 26.4595 34.2954 26.1734 34.2954 25.875C34.2954 25.5766 34.177 25.2905 33.9662 25.0795C33.7553 24.8685 33.4694 24.75 33.1712 24.75ZM23.0532 9H29.7985V24.75H23.0532V9ZM20.8048 15.75V24.75H14.0595V15.75H20.8048ZM5.06572 2.25H11.811V24.75H5.06572V2.25ZM9.5626 5.625V7.875C9.5626 8.17337 9.44416 8.45952 9.23333 8.6705C9.02249 8.88147 8.73654 9 8.43838 9C8.14022 9 7.85427 8.88147 7.64344 8.6705C7.43261 8.45952 7.31416 8.17337 7.31416 7.875V5.625C7.31416 5.32663 7.43261 5.04048 7.64344 4.8295C7.85427 4.61853 8.14022 4.5 8.43838 4.5C8.73654 4.5 9.02249 4.61853 9.23333 4.8295C9.44416 5.04048 9.5626 5.32663 9.5626 5.625ZM9.5626 12.375V14.625C9.5626 14.9234 9.44416 15.2095 9.23333 15.4205C9.02249 15.6315 8.73654 15.75 8.43838 15.75C8.14022 15.75 7.85427 15.6315 7.64344 15.4205C7.43261 15.2095 7.31416 14.9234 7.31416 14.625V12.375C7.31416 12.0766 7.43261 11.7905 7.64344 11.5795C7.85427 11.3685 8.14022 11.25 8.43838 11.25C8.73654 11.25 9.02249 11.3685 9.23333 11.5795C9.44416 11.7905 9.5626 12.0766 9.5626 12.375ZM9.5626 19.125V21.375C9.5626 21.6734 9.44416 21.9595 9.23333 22.1705C9.02249 22.3815 8.73654 22.5 8.43838 22.5C8.14022 22.5 7.85427 22.3815 7.64344 22.1705C7.43261 21.9595 7.31416 21.6734 7.31416 21.375V19.125C7.31416 18.8266 7.43261 18.5405 7.64344 18.3295C7.85427 18.1185 8.14022 18 8.43838 18C8.73654 18 9.02249 18.1185 9.23333 18.3295C9.44416 18.5405 9.5626 18.8266 9.5626 19.125ZM16.3079 21.375V19.125C16.3079 18.8266 16.4264 18.5405 16.6372 18.3295C16.848 18.1185 17.134 18 17.4321 18C17.7303 18 18.0162 18.1185 18.2271 18.3295C18.4379 18.5405 18.5564 18.8266 18.5564 19.125V21.375C18.5564 21.6734 18.4379 21.9595 18.2271 22.1705C18.0162 22.3815 17.7303 22.5 17.4321 22.5C17.134 22.5 16.848 22.3815 16.6372 22.1705C16.4264 21.9595 16.3079 21.6734 16.3079 21.375ZM25.3017 21.375V19.125C25.3017 18.8266 25.4201 18.5405 25.6309 18.3295C25.8418 18.1185 26.1277 18 26.4259 18C26.7241 18 27.01 18.1185 27.2208 18.3295C27.4317 18.5405 27.5501 18.8266 27.5501 19.125V21.375C27.5501 21.6734 27.4317 21.9595 27.2208 22.1705C27.01 22.3815 26.7241 22.5 26.4259 22.5C26.1277 22.5 25.8418 22.3815 25.6309 22.1705C25.4201 21.9595 25.3017 21.6734 25.3017 21.375ZM25.3017 14.625V12.375C25.3017 12.0766 25.4201 11.7905 25.6309 11.5795C25.8418 11.3685 26.1277 11.25 26.4259 11.25C26.7241 11.25 27.01 11.3685 27.2208 11.5795C27.4317 11.7905 27.5501 12.0766 27.5501 12.375V14.625C27.5501 14.9234 27.4317 15.2095 27.2208 15.4205C27.01 15.6315 26.7241 15.75 26.4259 15.75C26.1277 15.75 25.8418 15.6315 25.6309 15.4205C25.4201 15.2095 25.3017 14.9234 25.3017 14.625Z" fill="#F5F5F5"/>
</svg>
