<svg width="21" height="22" viewBox="0 0 21 22" fill="none" xmlns="http://www.w3.org/2000/svg">
<path opacity="0.2" d="M18.0708 3.92847V14.9281H2.35706V3.92847H18.0708Z" fill="#525252"/>
<path d="M6.28551 10.9996V9.42826C6.28551 9.21988 6.36828 9.02004 6.51563 8.87269C6.66297 8.72535 6.86282 8.64257 7.07119 8.64257C7.27957 8.64257 7.47941 8.72535 7.62676 8.87269C7.77411 9.02004 7.85688 9.21988 7.85688 9.42826V10.9996C7.85688 11.208 7.77411 11.4079 7.62676 11.5552C7.47941 11.7025 7.27957 11.7853 7.07119 11.7853C6.86282 11.7853 6.66297 11.7025 6.51563 11.5552C6.36828 11.4079 6.28551 11.208 6.28551 10.9996ZM10.2139 11.7853C10.4223 11.7853 10.6222 11.7025 10.7695 11.5552C10.9169 11.4079 10.9996 11.208 10.9996 10.9996V8.64257C10.9996 8.43419 10.9169 8.23435 10.7695 8.08701C10.6222 7.93966 10.4223 7.85688 10.2139 7.85688C10.0056 7.85688 9.80573 7.93966 9.65838 8.08701C9.51104 8.23435 9.42826 8.43419 9.42826 8.64257V10.9996C9.42826 11.208 9.51104 11.4079 9.65838 11.5552C9.80573 11.7025 10.0056 11.7853 10.2139 11.7853ZM13.3567 11.7853C13.5651 11.7853 13.7649 11.7025 13.9123 11.5552C14.0596 11.4079 14.1424 11.208 14.1424 10.9996V7.85688C14.1424 7.64851 14.0596 7.44866 13.9123 7.30132C13.7649 7.15397 13.5651 7.07119 13.3567 7.07119C13.1483 7.07119 12.9485 7.15397 12.8011 7.30132C12.6538 7.44866 12.571 7.64851 12.571 7.85688V10.9996C12.571 11.208 12.6538 11.4079 12.8011 11.5552C12.9485 11.7025 13.1483 11.7853 13.3567 11.7853ZM18.8565 4.71413V14.1424H19.6422C19.8506 14.1424 20.0504 14.2252 20.1978 14.3725C20.3451 14.5199 20.4279 14.7197 20.4279 14.9281C20.4279 15.1365 20.3451 15.3363 20.1978 15.4836C20.0504 15.631 19.8506 15.7138 19.6422 15.7138H10.9996V17.4207C11.5239 17.606 11.9657 17.9707 12.247 18.4503C12.5284 18.9299 12.6311 19.4935 12.5371 20.0415C12.443 20.5895 12.1583 21.0867 11.7332 21.4451C11.3081 21.8034 10.77 22 10.2139 22C9.65793 22 9.11981 21.8034 8.69469 21.4451C8.26958 21.0867 7.98485 20.5895 7.89083 20.0415C7.7968 19.4935 7.89954 18.9299 8.18088 18.4503C8.46221 17.9707 8.90404 17.606 9.42826 17.4207V15.7138H0.785688C0.577311 15.7138 0.377468 15.631 0.230123 15.4836C0.0827776 15.3363 0 15.1365 0 14.9281C0 14.7197 0.0827776 14.5199 0.230123 14.3725C0.377468 14.2252 0.577311 14.1424 0.785688 14.1424H1.57138V4.71413C1.15462 4.71413 0.754936 4.54857 0.460245 4.25388C0.165555 3.95919 0 3.55951 0 3.14275V1.57138C0 1.15462 0.165555 0.754936 0.460245 0.460245C0.754936 0.165555 1.15462 0 1.57138 0H18.8565C19.2733 0 19.673 0.165555 19.9676 0.460245C20.2623 0.754936 20.4279 1.15462 20.4279 1.57138V3.14275C20.4279 3.55951 20.2623 3.95919 19.9676 4.25388C19.673 4.54857 19.2733 4.71413 18.8565 4.71413ZM10.9996 19.6422C10.9996 19.4868 10.9536 19.3349 10.8672 19.2057C10.7809 19.0765 10.6582 18.9758 10.5146 18.9163C10.3711 18.8569 10.2131 18.8413 10.0607 18.8716C9.90826 18.9019 9.76826 18.9768 9.65838 19.0866C9.5485 19.1965 9.47367 19.3365 9.44336 19.4889C9.41304 19.6413 9.4286 19.7993 9.48807 19.9429C9.54753 20.0864 9.64824 20.2092 9.77744 20.2955C9.90665 20.3818 10.0586 20.4279 10.2139 20.4279C10.4223 20.4279 10.6222 20.3451 10.7695 20.1978C10.9169 20.0504 10.9996 19.8506 10.9996 19.6422ZM1.57138 3.14275H18.8565V1.57138H1.57138V3.14275ZM17.2851 4.71413H3.14275V14.1424H17.2851V4.71413Z" fill="#525252"/>
</svg>
