<svg width="27" height="28" viewBox="0 0 27 28" fill="none" xmlns="http://www.w3.org/2000/svg">
<path fill-rule="evenodd" clip-rule="evenodd" d="M11.9987 0.666626C10.0819 0.666834 8.19298 1.12623 6.49015 2.00635C4.78731 2.88647 3.3201 4.16171 2.21132 5.72532C1.10254 7.28893 0.384471 9.0954 0.117213 10.9935C-0.150044 12.8916 0.0412903 14.8261 0.6752 16.6351C1.30911 18.4441 2.36715 20.0749 3.76075 21.391C5.15434 22.7071 6.84294 23.6702 8.68519 24.1997C10.5274 24.7292 12.4697 24.8097 14.3495 24.4344C16.2292 24.0591 17.9917 23.2389 19.4894 22.0426L24.3894 26.9426C24.6408 27.1855 24.9776 27.3199 25.3272 27.3169C25.6768 27.3138 26.0113 27.1736 26.2585 26.9264C26.5057 26.6792 26.6459 26.3448 26.6489 25.9952C26.652 25.6456 26.5176 25.3088 26.2747 25.0573L21.3747 20.1573C22.7854 18.3918 23.6688 16.2638 23.9234 14.0183C24.1779 11.7728 23.7932 9.50111 22.8136 7.46462C21.8339 5.42813 20.2991 3.70966 18.3858 2.50702C16.4726 1.30437 14.2586 0.666431 11.9987 0.666626ZM3.9987 12.6666C3.9987 11.6161 4.20563 10.5758 4.60767 9.60516C5.0097 8.63455 5.59898 7.75264 6.34185 7.00977C7.08472 6.2669 7.96663 5.67763 8.93723 5.27559C9.90784 4.87355 10.9481 4.66663 11.9987 4.66663C13.0493 4.66663 14.0896 4.87355 15.0602 5.27559C16.0308 5.67763 16.9127 6.2669 17.6556 7.00977C18.3984 7.75264 18.9877 8.63455 19.3897 9.60516C19.7918 10.5758 19.9987 11.6161 19.9987 12.6666C19.9987 14.7884 19.1558 16.8232 17.6556 18.3235C16.1553 19.8238 14.1204 20.6666 11.9987 20.6666C9.87697 20.6666 7.84214 19.8238 6.34185 18.3235C4.84156 16.8232 3.9987 14.7884 3.9987 12.6666Z" fill="#525252"/>
</svg>
