<svg width="19" height="19" viewBox="0 0 19 19" fill="none" xmlns="http://www.w3.org/2000/svg">
<path opacity="0.16" d="M1.55278 4.20192L2.37228 2.15225C2.50839 1.81208 2.74331 1.5205 3.04672 1.31512C3.35014 1.10973 3.70813 0.999975 4.07453 1H14.4255C14.7919 0.999975 15.1499 1.10973 15.4533 1.31512C15.7567 1.5205 15.9917 1.81208 16.1278 2.15225L16.9473 4.20192C17.1036 4.59243 17.1208 5.02482 16.9962 5.42655C16.8715 5.82828 16.6125 6.17492 16.2625 6.40833L15.7675 6.73833C15.4662 6.93922 15.1122 7.04642 14.75 7.04642C14.3879 7.04642 14.0338 6.93922 13.7325 6.73833L12 5.58333L10.2675 6.73833C9.96625 6.93934 9.6122 7.04661 9.25003 7.04661C8.88786 7.04661 8.5338 6.93934 8.23253 6.73833L6.50003 5.58333L4.76753 6.73833C4.46625 6.93934 4.1122 7.04661 3.75003 7.04661C3.38786 7.04661 3.0338 6.93934 2.73253 6.73833L2.23753 6.40833C1.88759 6.17492 1.62857 5.82828 1.50389 5.42655C1.37922 5.02482 1.39648 4.59243 1.55278 4.20192Z" fill="#525252"/>
<path fill-rule="evenodd" clip-rule="evenodd" d="M16.1668 7.66661L16.1658 7.66721L16.1647 7.66781L15.6667 6.80067L16.1668 7.66661Z" fill="#525252"/>
<path fill-rule="evenodd" clip-rule="evenodd" d="M4.0745 2.66603e-09C3.50828 -2.45544e-05 2.95504 0.169601 2.48615 0.486996C2.01723 0.804404 1.65418 1.25503 1.44382 1.78075L0.62435 3.83033C0.38292 4.43377 0.356157 5.10221 0.548801 5.72295C0.741482 6.34381 1.1418 6.87953 1.6826 7.24025L1.83333 7.34074V16.5H1C0.447715 16.5 0 16.9477 0 17.5C0 18.0523 0.447715 18.5 1 18.5H17.5C18.0523 18.5 18.5 18.0523 18.5 17.5C18.5 16.9477 18.0523 16.5 17.5 16.5H16.6667V7.34074L16.8172 7.24038C17.358 6.87966 17.7585 6.34381 17.9512 5.72295C18.1438 5.10221 18.1172 4.4341 17.8758 3.83067L17.0563 1.781C16.8459 1.25529 16.4828 0.804404 16.0139 0.486996C15.545 0.1696 14.9917 -2.45544e-05 14.4255 2.66603e-09H4.0745ZM4.07443 2C3.90789 1.99999 3.74517 2.04988 3.60725 2.14323C3.46941 2.23654 3.36267 2.36898 3.30078 2.5235L2.48128 4.57316C2.41024 4.75067 2.40226 4.94755 2.45893 5.13015C2.5156 5.31276 2.63334 5.47032 2.7924 5.57642L3.28553 5.90517C3.30031 5.91496 3.31602 5.9247 3.33139 5.93353L3.33348 5.93472C3.46808 6.01246 3.62174 6.05101 3.7771 6.046C3.93246 6.041 4.08332 5.99264 4.21264 5.90639L5.9453 4.75128C6.2812 4.52735 6.7188 4.52735 7.0547 4.75128L8.7872 5.90628C8.92414 5.99765 9.08538 6.04661 9.25 6.04661C9.41462 6.04661 9.57556 5.99785 9.7125 5.90648L11.4453 4.75128C11.7812 4.52735 12.2188 4.52735 12.5547 4.75128L14.2872 5.90628C14.4165 5.99253 14.5675 6.041 14.7229 6.046C14.8783 6.05101 15.0319 6.01246 15.1665 5.93472L15.1686 5.93353C15.184 5.9247 15.199 5.91539 15.2138 5.90562L15.7076 5.57642C15.8666 5.47032 15.9844 5.31268 16.0411 5.13015C16.0977 4.94755 16.0899 4.75101 16.0188 4.5735L15.1993 2.52375C15.1374 2.36924 15.0306 2.23654 14.8927 2.14323C14.7548 2.04988 14.5921 1.99999 14.4256 2H4.07443ZM14.6667 16.5V8.04522L14.6585 8.04497C14.1303 8.02794 13.6173 7.86345 13.1776 7.57028L12 6.78518L10.8225 7.57018C10.3569 7.88083 9.80972 8.04661 9.25 8.04661C8.6904 8.04661 8.14304 7.8807 7.6775 7.57018L6.5 6.78518L5.3222 7.57038C4.88256 7.86356 4.36968 8.02794 3.84152 8.04497L3.83333 8.04522V16.5H14.6667ZM16.1668 7.66661L16.1658 7.66721L16.1647 7.66781L15.6667 6.80067L16.1668 7.66661Z" fill="#525252"/>
<path fill-rule="evenodd" clip-rule="evenodd" d="M7.24655 10.9132C7.7779 10.3818 8.49857 10.0833 9.25002 10.0833C10.0015 10.0833 10.7221 10.3818 11.2535 10.9132C11.7848 11.4445 12.0834 12.1652 12.0834 12.9166V17.5H10.0834V12.9166C10.0834 12.6956 9.99556 12.4837 9.83928 12.3274C9.68299 12.1711 9.47103 12.0833 9.25002 12.0833C9.02901 12.0833 8.81705 12.1711 8.66077 12.3274C8.50448 12.4837 8.41669 12.6956 8.41669 12.9166V17.5H6.41669V12.9166C6.41669 12.1652 6.7152 11.4445 7.24655 10.9132Z" fill="#525252"/>
</svg>
