<svg width="426" height="426" viewBox="0 0 426 426" fill="none" xmlns="http://www.w3.org/2000/svg">
<ellipse opacity="0.3" cx="213" cy="212.5" rx="213" ry="212.5" fill="url(#paint0_linear_550_1539)"/>
<path d="M174.451 343.633C174.451 343.633 177.252 324.372 177.019 313.165C176.786 301.958 177.033 289.351 177.033 289.351H175.742C175.742 289.351 176.616 311.595 175.665 325.01C174.714 338.416 172.209 343.633 172.209 343.633H174.451Z" fill="#4A4A4A"/>
<path d="M166.106 267.679C166.366 267.021 166.685 266.335 167.282 265.956C168.102 265.437 169.175 265.653 170.089 265.977C173.99 267.356 177.448 274.629 179.025 278.455L173.846 295.904C164.498 287.232 162.88 275.856 166.106 267.679Z" fill="white"/>
<path d="M167.584 266.663C167.577 266.666 167.603 266.745 167.659 266.891C167.726 267.057 167.81 267.268 167.912 267.526C168.139 268.075 168.457 268.873 168.839 269.865C169.601 271.846 170.573 274.617 171.442 277.737C172.307 280.86 172.902 283.735 173.27 285.826C173.454 286.872 173.593 287.72 173.682 288.307C173.727 288.581 173.763 288.805 173.792 288.983C173.82 289.137 173.837 289.218 173.845 289.217C173.853 289.216 173.849 289.134 173.835 288.977C173.816 288.798 173.793 288.573 173.764 288.296C173.701 287.705 173.584 286.852 173.419 285.801C173.089 283.7 172.515 280.811 171.647 277.68C170.776 274.55 169.78 271.78 168.979 269.81C168.58 268.823 168.239 268.032 167.989 267.494C167.871 267.241 167.774 267.037 167.698 266.874C167.63 266.733 167.591 266.66 167.584 266.663Z" fill="#4A4A4A"/>
<path d="M176.147 300.087C181.001 297.405 183.861 292.359 184.128 286.82C184.314 282.948 183.125 279.148 181.778 275.514C181.661 275.198 181.522 274.859 181.229 274.693C180.822 274.462 180.312 274.668 179.906 274.899C176.379 276.908 174.242 280.737 173.104 284.633C172.348 287.226 171.956 289.96 172.306 292.638C172.656 295.316 174.186 298.229 176.147 300.087Z" fill="white"/>
<path d="M176.147 300.088C176.154 300.088 176.161 300.007 176.166 299.854C176.169 299.677 176.173 299.456 176.179 299.184C176.181 298.602 176.204 297.761 176.252 296.724C176.345 294.648 176.617 291.788 177.152 288.663C177.691 285.537 178.344 282.739 178.826 280.716C179.063 279.727 179.258 278.915 179.4 278.321C179.46 278.057 179.51 277.841 179.549 277.668C179.581 277.518 179.594 277.438 179.587 277.437C179.58 277.435 179.552 277.511 179.507 277.657C179.458 277.826 179.395 278.039 179.319 278.3C179.16 278.86 178.939 279.673 178.679 280.68C178.16 282.695 177.481 285.493 176.942 288.628C176.405 291.761 176.156 294.636 176.1 296.719C176.072 297.76 176.071 298.603 176.095 299.185C176.107 299.457 176.115 299.679 176.123 299.856C176.132 300.008 176.14 300.088 176.147 300.088Z" fill="#4A4A4A"/>
<g opacity="0.3">
<path d="M176.147 300.087C181.001 297.405 183.861 292.359 184.128 286.82C184.314 282.948 183.125 279.148 181.778 275.514C181.661 275.198 181.522 274.859 181.229 274.693C180.822 274.462 180.312 274.668 179.906 274.899C176.379 276.908 174.242 280.737 173.104 284.633C172.348 287.226 171.956 289.96 172.306 292.638C172.656 295.316 174.186 298.229 176.147 300.087Z" fill="black"/>
</g>
<path d="M170.67 329.558C165.893 330.607 161.959 333.977 157.351 335.615C154.302 336.699 150.853 337.083 148.418 339.215C149.002 337.74 150.387 336.758 151.733 335.917C155.523 333.549 159.582 331.612 163.806 330.154C165.975 329.405 168.327 328.779 170.537 329.396" fill="white"/>
<path d="M177.577 333.815C183.56 333.719 189.86 328.625 195.815 328.321C189.584 326.309 180.66 327.953 177.577 333.815Z" fill="white"/>
<path d="M175.239 319.463C172.201 318.368 168.866 318.316 165.674 318.812C162.483 319.308 159.401 320.331 156.336 321.35C156.643 319.274 158.325 317.713 159.903 316.332C161.092 315.292 162.29 314.246 163.653 313.45C165.017 312.654 166.572 312.114 168.15 312.181C170.053 312.262 171.865 313.244 173.113 314.683C174.362 316.121 175.033 317.57 175.239 319.463Z" fill="white"/>
<path d="M187.519 312.857C191.286 309.642 196.99 309.956 201.94 310.068C194.33 313.707 186.129 318.695 179.575 324.005C179.373 320.506 182.761 316.919 187.519 312.857Z" fill="white"/>
<g opacity="0.3">
<path d="M187.519 312.856C191.286 309.641 196.99 309.955 201.94 310.067C194.33 313.706 186.129 318.694 179.575 324.004C179.373 320.505 182.761 316.918 187.519 312.856Z" fill="black"/>
</g>
<path d="M173.546 308.418C171.653 307.156 169.737 305.952 167.754 305.052C165.772 304.151 163.922 302.716 162.008 301.679C159.525 300.335 157.374 298.467 155.095 296.8C152.816 295.133 150.313 293.629 147.525 293.187C149.799 292.718 152.175 292.974 154.414 293.586C156.654 294.197 158.781 295.155 160.898 296.108C163.836 297.431 166.825 298.788 169.226 300.936C171.629 303.085 173.8 305.206 173.546 308.418Z" fill="white"/>
<path d="M157.46 333.814C157.464 333.821 157.528 333.792 157.649 333.733C157.79 333.659 157.963 333.571 158.171 333.462C158.622 333.223 159.268 332.867 160.083 332.458C160.486 332.245 160.933 332.022 161.417 331.795C161.897 331.556 162.419 331.322 162.971 331.083C164.076 330.611 165.31 330.118 166.655 329.799C167.996 329.47 169.333 329.398 170.493 329.702C171.078 329.843 171.629 329.983 172.119 330.188C172.611 330.387 173.05 330.62 173.432 330.862C174.199 331.345 174.734 331.856 175.082 332.225C175.428 332.596 175.597 332.823 175.612 332.812C175.618 332.808 175.581 332.747 175.505 332.636C175.43 332.524 175.309 332.365 175.144 332.17C174.811 331.78 174.285 331.244 173.514 330.736C173.13 330.482 172.687 330.236 172.187 330.025C171.688 329.808 171.125 329.659 170.538 329.512C169.353 329.188 167.964 329.257 166.607 329.592C165.24 329.917 164 330.418 162.893 330.903C162.34 331.148 161.819 331.39 161.341 331.637C160.857 331.872 160.413 332.103 160.014 332.325C159.206 332.752 158.569 333.129 158.131 333.391C157.93 333.513 157.764 333.613 157.628 333.696C157.514 333.767 157.457 333.808 157.46 333.814Z" fill="#4A4A4A"/>
<path d="M182.041 330.849C182.035 330.836 181.903 330.875 181.666 330.959C181.428 331.04 181.093 331.183 180.691 331.382C179.886 331.78 178.827 332.457 177.832 333.41C176.84 334.365 176.121 335.397 175.692 336.185C175.476 336.58 175.32 336.908 175.229 337.142C175.136 337.375 175.091 337.507 175.105 337.512C175.14 337.528 175.363 337.021 175.823 336.261C176.28 335.501 177.006 334.503 177.981 333.564C178.958 332.627 179.984 331.943 180.762 331.516C181.539 331.088 182.054 330.885 182.041 330.849Z" fill="#4A4A4A"/>
<path d="M195.277 312.555C195.275 312.548 195.187 312.574 195.022 312.63C194.837 312.696 194.599 312.781 194.304 312.886C193.985 313.003 193.606 313.143 193.172 313.303C192.731 313.467 192.252 313.709 191.709 313.948C189.555 314.926 186.688 316.572 183.92 318.911C182.555 320.099 181.32 321.307 180.288 322.488C179.259 323.671 178.389 324.784 177.71 325.755C177.027 326.722 176.509 327.529 176.154 328.086C175.986 328.35 175.85 328.562 175.744 328.728C175.652 328.875 175.606 328.954 175.612 328.959C175.618 328.963 175.676 328.892 175.78 328.753C175.885 328.613 176.036 328.405 176.222 328.133C176.599 327.588 177.135 326.797 177.832 325.843C178.524 324.887 179.404 323.789 180.435 322.619C181.47 321.452 182.702 320.256 184.058 319.074C186.809 316.75 189.644 315.095 191.774 314.086C192.309 313.839 192.782 313.589 193.218 313.415C193.646 313.243 194.019 313.092 194.334 312.965C194.622 312.845 194.856 312.748 195.037 312.673C195.197 312.602 195.28 312.562 195.277 312.555Z" fill="#4A4A4A"/>
<path d="M166.262 316.099C166.266 316.113 166.436 316.09 166.739 316.038C166.904 316.007 167.086 315.974 167.289 315.936C167.503 315.895 167.752 315.893 168.024 315.865C169.1 315.787 170.667 315.876 172.136 316.676C172.877 317.051 173.498 317.557 174.006 318.065C174.523 318.568 174.914 319.093 175.21 319.552C175.81 320.47 175.995 321.134 176.032 321.122C176.043 321.119 176.01 320.95 175.91 320.656C175.801 320.366 175.63 319.946 175.338 319.473C175.054 318.995 174.667 318.45 174.147 317.927C173.634 317.4 172.998 316.875 172.236 316.488C170.721 315.663 169.1 315.597 168.011 315.716C167.736 315.754 167.484 315.766 167.269 315.819C167.067 315.87 166.885 315.916 166.721 315.957C166.422 316.035 166.259 316.085 166.262 316.099Z" fill="#4A4A4A"/>
<path d="M160.249 297.445C160.246 297.452 160.324 297.5 160.476 297.585C160.649 297.678 160.87 297.798 161.144 297.947C161.724 298.26 162.559 298.722 163.574 299.32C164.585 299.926 165.774 300.67 167.04 301.575C168.302 302.483 169.658 303.536 170.91 304.818C171.528 305.462 172.096 306.135 172.493 306.867C172.885 307.619 173.26 308.347 173.604 309.045C174.296 310.44 174.86 311.725 175.266 312.829C175.672 313.934 175.925 314.853 176.075 315.494C176.228 316.134 176.283 316.495 176.305 316.492C176.312 316.491 176.304 316.4 176.28 316.227C176.259 316.055 176.222 315.801 176.156 315.477C176.03 314.827 175.798 313.896 175.409 312.778C175.018 311.662 174.465 310.363 173.781 308.959C173.441 308.255 173.069 307.525 172.68 306.77C172.268 306.005 171.69 305.323 171.065 304.669C169.798 303.372 168.43 302.317 167.155 301.415C165.877 300.514 164.674 299.781 163.652 299.19C162.624 298.607 161.776 298.165 161.183 297.874C160.902 297.739 160.674 297.631 160.497 297.547C160.337 297.473 160.253 297.439 160.249 297.445Z" fill="#4A4A4A"/>
<path d="M177.026 315.56C177.04 315.562 177.082 315.382 177.144 315.056C177.214 314.686 177.301 314.223 177.405 313.674C177.634 312.509 177.982 310.904 178.537 309.184C179.087 307.46 179.756 305.961 180.246 304.879C180.478 304.369 180.673 303.941 180.829 303.598C180.965 303.295 181.033 303.124 181.02 303.116C181.008 303.11 180.913 303.268 180.754 303.561C180.595 303.853 180.372 304.28 180.109 304.814C179.584 305.881 178.888 307.381 178.334 309.117C177.775 310.851 177.447 312.471 177.257 313.646C177.163 314.234 177.096 314.711 177.062 315.043C177.025 315.374 177.011 315.557 177.026 315.56Z" fill="#4A4A4A"/>
<path d="M177.459 301.948C177.609 299.688 178.345 297.491 179.404 295.489C182.308 289.999 187.766 285.929 193.856 284.712C189.396 291.359 184.936 298.007 180.476 304.655L178.748 308.214C177.57 306.279 177.309 304.209 177.459 301.948Z" fill="white"/>
<path d="M158.266 341.25H189.378V346.764H158.266V341.25Z" fill="#EA0029"/>
<path d="M187.055 345.671L184.406 362.781H163.751L160.589 345.671H187.055Z" fill="#EA0029"/>
<path d="M158.284 346.771C158.284 346.831 165.302 346.881 173.956 346.881C182.615 346.881 189.631 346.831 189.631 346.771C189.631 346.711 182.615 346.662 173.956 346.662C165.301 346.661 158.284 346.711 158.284 346.771Z" fill="#263238"/>
<path d="M176.263 89.9805H373.446V253.205H176.263V89.9805Z" fill="white"/>
<path d="M176.263 253.206C176.264 252.068 176.317 188.346 176.4 89.9811L176.263 90.1174C232.728 90.1246 300.554 90.1343 373.43 90.144H373.446L373.284 89.9819C373.291 149.07 373.297 204.832 373.302 253.207L373.446 253.062C256.067 253.147 177.525 253.205 176.263 253.206C177.525 253.207 256.067 253.265 373.446 253.35H373.592V253.205C373.597 204.83 373.603 149.068 373.609 89.9803V89.8174H373.446H373.43C300.555 89.8271 232.728 89.8359 176.263 89.844H176.127V89.9803C176.209 188.346 176.263 252.069 176.263 253.206Z" fill="#263238"/>
<path d="M197.922 193.474H261.292C262.385 193.474 263.271 192.589 263.271 191.496V190.993C263.271 189.9 262.385 189.015 261.292 189.015H197.922C196.829 189.015 195.944 189.9 195.944 190.993V191.496C195.944 192.589 196.83 193.474 197.922 193.474Z" fill="#E0E0E0"/>
<path d="M197.922 202.692H261.292C262.385 202.692 263.271 201.806 263.271 200.714V200.21C263.271 199.118 262.385 198.232 261.292 198.232H197.922C196.829 198.232 195.944 199.118 195.944 200.21V200.714C195.944 201.806 196.83 202.692 197.922 202.692Z" fill="#E0E0E0"/>
<path d="M197.978 211.224H231.262C232.355 211.224 233.24 210.339 233.24 209.246V208.743C233.24 207.65 232.355 206.765 231.262 206.765H197.978C196.885 206.765 196 207.65 196 208.743V209.246C196 210.339 196.885 211.224 197.978 211.224Z" fill="#E0E0E0"/>
<path d="M175.499 99.0304H374.147C377.095 99.0304 379.484 96.6411 379.484 93.6938V92.3366C379.484 89.3893 377.095 87 374.147 87H175.499C172.552 87 170.162 89.3893 170.162 92.3366V93.6938C170.162 96.6411 172.552 99.0304 175.499 99.0304Z" fill="#323232"/>
<path d="M352.421 190.918C352.421 190.965 334.133 191.002 311.578 191.002C289.017 191.002 270.732 190.964 270.732 190.918C270.732 190.872 289.016 190.834 311.578 190.834C334.133 190.834 352.421 190.871 352.421 190.918Z" fill="#E0E0E0"/>
<path d="M352.421 199.939C352.421 199.986 334.133 200.023 311.578 200.023C289.017 200.023 270.732 199.985 270.732 199.939C270.732 199.893 289.016 199.855 311.578 199.855C334.133 199.855 352.421 199.893 352.421 199.939Z" fill="#E0E0E0"/>
<path d="M352.421 208.958C352.421 209.005 334.133 209.042 311.578 209.042C289.017 209.042 270.732 209.004 270.732 208.958C270.732 208.912 289.016 208.874 311.578 208.874C334.133 208.874 352.421 208.911 352.421 208.958Z" fill="#E0E0E0"/>
<path d="M352.421 217.978C352.421 218.025 334.133 218.062 311.578 218.062C289.017 218.062 270.732 218.024 270.732 217.978C270.732 217.932 289.016 217.895 311.578 217.895C334.133 217.895 352.421 217.932 352.421 217.978Z" fill="#E0E0E0"/>
<path d="M352.421 227C352.421 227.047 334.133 227.084 311.578 227.084C289.017 227.084 270.732 227.046 270.732 227C270.732 226.953 289.016 226.916 311.578 226.916C334.133 226.915 352.421 226.953 352.421 227Z" fill="#E0E0E0"/>
<path d="M329.029 209.73H320.891V235.935H329.029V209.73Z" fill="#EA0029"/>
<path d="M344.397 201.074H336.259V235.934H344.397V201.074Z" fill="#EA0029"/>
<path d="M286.188 223.67H278.05V235.935H286.188V223.67Z" fill="#EA0029"/>
<path d="M299.652 220.01H291.514V235.934H299.652V220.01Z" fill="#EA0029"/>
<path d="M313.606 215.377H305.468V235.933H313.606V215.377Z" fill="#EA0029"/>
<path d="M353.163 235.945C353.163 235.945 353.036 235.95 352.788 235.952C352.538 235.954 352.17 235.956 351.69 235.959C350.721 235.963 349.298 235.967 347.466 235.973C343.795 235.979 338.488 235.986 331.931 235.997C318.81 236.002 300.69 236.009 280.677 236.017C277.207 236.017 273.794 236.017 270.548 236.017H270.465V235.945C270.476 220.762 270.486 207.348 270.493 197.726C270.504 192.919 270.512 189.059 270.518 186.398C270.525 185.071 270.529 184.044 270.533 183.345C270.536 182.999 270.538 182.734 270.54 182.554C270.542 182.375 270.548 182.284 270.548 182.284C270.548 182.284 270.554 182.375 270.556 182.554C270.558 182.735 270.56 182.999 270.563 183.345C270.566 184.044 270.571 185.071 270.578 186.398C270.583 189.059 270.592 192.919 270.603 197.726C270.61 207.348 270.62 220.762 270.631 235.945L270.548 235.873C273.794 235.873 277.207 235.872 280.677 235.872C300.69 235.88 318.81 235.888 331.931 235.893C338.487 235.903 343.794 235.911 347.466 235.916C349.298 235.922 350.721 235.926 351.69 235.93C352.171 235.933 352.538 235.935 352.788 235.937C353.036 235.94 353.163 235.945 353.163 235.945Z" fill="#263238"/>
<path d="M274.589 195.474C274.589 195.52 273.685 195.557 272.569 195.557C271.453 195.557 270.548 195.519 270.548 195.474C270.548 195.428 271.453 195.39 272.569 195.39C273.685 195.39 274.589 195.427 274.589 195.474Z" fill="#263238"/>
<path d="M274.589 204.057C274.589 204.103 273.685 204.14 272.569 204.14C271.453 204.14 270.548 204.102 270.548 204.057C270.548 204.011 271.453 203.973 272.569 203.973C273.685 203.972 274.589 204.01 274.589 204.057Z" fill="#263238"/>
<path d="M274.589 212.636C274.589 212.682 273.685 212.719 272.569 212.719C271.453 212.719 270.548 212.682 270.548 212.636C270.548 212.589 271.453 212.552 272.569 212.552C273.685 212.552 274.589 212.59 274.589 212.636Z" fill="#263238"/>
<path d="M274.589 221.219C274.589 221.265 273.685 221.302 272.569 221.302C271.453 221.302 270.548 221.265 270.548 221.219C270.548 221.172 271.453 221.135 272.569 221.135C273.685 221.135 274.589 221.172 274.589 221.219Z" fill="#263238"/>
<path d="M239.965 123.34H300.55C302.174 123.34 303.49 122.024 303.49 120.401V119.653C303.49 118.03 302.174 116.714 300.55 116.714H239.965C238.341 116.714 237.025 118.03 237.025 119.653V120.401C237.025 122.024 238.341 123.34 239.965 123.34Z" fill="#EA0029"/>
<path d="M198.03 140H350.97C352.092 140 353 139.206 353 138.226V137.774C353 136.794 352.092 136 350.97 136H198.03C196.908 136 196 136.794 196 137.774V138.226C196 139.206 196.909 140 198.03 140Z" fill="#E0E0E0"/>
<path d="M198.03 151H350.97C352.092 151 353 150.007 353 148.782V148.218C353 146.993 352.092 146 350.97 146H198.03C196.908 146 196 146.993 196 148.218V148.782C196 150.007 196.909 151 198.03 151Z" fill="#E0E0E0"/>
<path d="M198.03 161H350.97C352.092 161 353 160.206 353 159.226V158.774C353 157.794 352.092 157 350.97 157H198.03C196.908 157 196 157.794 196 158.774V159.226C196 160.206 196.909 161 198.03 161Z" fill="#E0E0E0"/>
<path d="M197.978 172.115H231.262C232.355 172.115 233.24 171.229 233.24 170.137V169.633C233.24 168.541 232.355 167.655 231.262 167.655H197.978C196.885 167.655 196 168.541 196 169.633V170.137C196 171.228 196.885 172.115 197.978 172.115Z" fill="#E0E0E0"/>
<path d="M130.471 340.939L130.232 354.458C130.232 354.458 143.892 359.24 144.091 361.743L117.864 362.221L117.371 341.143L130.471 340.939Z" fill="white"/>
<path d="M122.102 353.464C121.597 353.613 121.256 354.189 121.383 354.701C121.51 355.211 122.094 355.563 122.601 355.423C123.109 355.284 123.538 354.604 123.355 354.11C123.172 353.617 122.464 353.243 122.005 353.499" fill="#959595"/>
<path d="M117.864 362.217L117.898 360.091L143.032 360.427C143.032 360.427 144.208 360.914 144.091 361.738L117.864 362.217Z" fill="#959595"/>
<path d="M130.655 354.322C130.653 354.45 130.014 354.52 129.391 354.943C128.757 355.35 128.443 355.911 128.324 355.862C128.206 355.84 128.383 355.07 129.146 354.571C129.903 354.066 130.68 354.204 130.655 354.322Z" fill="#959595"/>
<path d="M133.426 355.399C133.458 355.522 132.907 355.751 132.482 356.3C132.041 356.837 131.942 357.425 131.814 357.421C131.694 357.444 131.593 356.696 132.134 356.022C132.668 355.344 133.422 355.277 133.426 355.399Z" fill="#959595"/>
<path d="M135.049 358.663C134.933 358.692 134.743 358.056 135.059 357.349C135.37 356.639 135.969 356.351 136.025 356.457C136.099 356.561 135.718 356.944 135.467 357.529C135.203 358.107 135.176 358.648 135.049 358.663Z" fill="#959595"/>
<path d="M130.367 351.235C130.315 351.353 129.724 351.187 129.002 351.25C128.278 351.297 127.719 351.551 127.649 351.442C127.574 351.351 128.115 350.866 128.968 350.805C129.82 350.737 130.428 351.134 130.367 351.235Z" fill="white"/>
<path d="M86.6489 340.939L86.8876 354.458C86.8876 354.458 73.2275 359.24 73.0283 361.743L99.2559 362.221L99.7486 341.143L86.6489 340.939Z" fill="white"/>
<path d="M95.0181 353.464C95.5229 353.613 95.8632 354.189 95.7366 354.701C95.6092 355.211 95.0254 355.563 94.5181 355.423C94.0109 355.284 93.5811 354.604 93.7642 354.11C93.9472 353.617 94.656 353.243 95.1149 353.499" fill="#959595"/>
<path d="M99.2558 362.217L99.2219 360.091L74.0878 360.427C74.0878 360.427 72.9113 360.914 73.0282 361.738L99.2558 362.217Z" fill="#959595"/>
<path d="M86.465 354.322C86.4666 354.45 87.106 354.52 87.7286 354.943C88.3624 355.35 88.6769 355.911 88.7954 355.862C88.914 355.84 88.7366 355.07 87.9737 354.571C87.2165 354.066 86.4392 354.204 86.465 354.322Z" fill="#959595"/>
<path d="M83.6937 355.399C83.6622 355.522 84.213 355.751 84.638 356.3C85.0791 356.837 85.1782 357.425 85.3056 357.421C85.4258 357.444 85.5274 356.696 84.9863 356.022C84.4517 355.344 83.6985 355.277 83.6937 355.399Z" fill="#959595"/>
<path d="M82.0709 358.663C82.187 358.692 82.3765 358.056 82.0604 357.349C81.7491 356.639 81.1508 356.351 81.0944 356.457C81.0202 356.561 81.4016 356.944 81.6524 357.529C81.9169 358.107 81.9435 358.648 82.0709 358.663Z" fill="#959595"/>
<path d="M86.7528 351.235C86.8044 351.353 87.3955 351.187 88.118 351.25C88.8421 351.297 89.4009 351.551 89.4703 351.442C89.5461 351.351 89.005 350.866 88.1519 350.805C87.2995 350.737 86.6915 351.134 86.7528 351.235Z" fill="#959595"/>
<path d="M95.5164 350.349C95.5374 350.351 95.5882 350.134 95.5785 349.733C95.568 349.335 95.4906 348.746 95.1914 348.085C95.0342 347.77 94.8761 347.369 94.4342 347.124C94.2149 347.001 93.8746 347.022 93.6674 347.225C93.4618 347.423 93.3843 347.687 93.3617 347.946C93.3126 348.983 94.1375 350.043 95.293 350.266C96.455 350.47 97.5582 349.869 98.0783 349.005C98.1944 348.78 98.2831 348.5 98.1742 348.216C98.0678 347.93 97.7428 347.798 97.5066 347.823C97.0171 347.864 96.6929 348.123 96.3954 348.313C95.8035 348.729 95.4253 349.182 95.2003 349.509C94.9737 349.839 94.8955 350.047 94.9132 350.057C94.9681 350.104 95.3777 349.282 96.5365 348.523C96.8276 348.351 97.1646 348.13 97.5154 348.12C97.6864 348.114 97.8291 348.191 97.8807 348.332C97.9347 348.468 97.8872 348.671 97.7872 348.847C97.3485 349.554 96.3389 350.1 95.3592 349.913C94.3834 349.734 93.6593 348.801 93.6908 347.967C93.7012 347.766 93.7674 347.568 93.8827 347.455C93.9956 347.344 94.1585 347.323 94.3052 347.393C94.6149 347.541 94.8052 347.898 94.9616 348.194C95.5737 349.437 95.443 350.36 95.5164 350.349Z" fill="white"/>
<path d="M143.218 228.058C143.218 228.058 145.207 235.759 144.486 245.14C144.207 248.77 131.956 349.198 131.956 349.198H115.416L120.066 254.81L118.712 255.103C118.712 255.103 109.683 295.36 108.947 301.878C108.285 307.737 100.67 350.298 100.67 350.298L85.5471 350.472L90.3773 294.175L95.9978 240.156L98.1122 224.432L143.218 228.058Z" fill="#EA0029"/>
<path d="M117.457 245.18C117.448 245.201 117.69 245.343 118.147 245.569C118.606 245.785 119.28 246.115 120.196 246.286C120.653 246.369 121.173 246.393 121.72 246.297C122.262 246.201 122.843 245.97 123.313 245.532C123.783 245.094 124.086 244.48 124.279 243.843C124.474 243.2 124.586 242.531 124.723 241.853C125.25 239.129 125.607 236.642 125.815 234.836C125.92 233.934 125.989 233.202 126.027 232.694C126.064 232.187 126.071 231.906 126.048 231.903C126.023 231.901 125.97 232.178 125.891 232.679C125.804 233.254 125.697 233.964 125.57 234.804C125.3 236.597 124.905 239.071 124.379 241.787C124.112 243.13 123.931 244.497 123.091 245.299C122.254 246.085 121.088 246.167 120.236 246.042C119.356 245.911 118.675 245.622 118.203 245.445C117.731 245.259 117.468 245.158 117.457 245.18Z" fill="#263238"/>
<path d="M122.436 232.38C122.442 232.364 122.329 232.293 122.096 232.279C121.866 232.262 121.515 232.332 121.17 232.576C120.839 232.82 120.488 233.257 120.473 233.854C120.446 234.458 120.918 235.053 121.533 235.274C122.142 235.512 122.888 235.374 123.266 234.901C123.647 234.442 123.671 233.881 123.581 233.48C123.482 233.069 123.264 232.786 123.079 232.647C122.895 232.505 122.763 232.484 122.757 232.5C122.712 232.545 123.222 232.777 123.338 233.526C123.388 233.879 123.33 234.349 123.023 234.687C122.728 235.034 122.161 235.137 121.655 234.945C121.15 234.757 120.79 234.308 120.796 233.852C120.788 233.395 121.052 233.004 121.322 232.771C121.903 232.282 122.44 232.443 122.436 232.38Z" fill="#263238"/>
<path d="M96.2253 239.188C96.2237 239.212 96.4237 239.242 96.7881 239.276C97.1526 239.315 97.684 239.325 98.3396 239.294C99.6492 239.236 101.464 238.918 103.32 238.14C105.175 237.355 106.67 236.278 107.626 235.382C108.106 234.935 108.471 234.548 108.697 234.259C108.927 233.975 109.046 233.811 109.027 233.795C108.981 233.754 108.45 234.363 107.462 235.196C106.479 236.03 104.997 237.049 103.184 237.816C101.368 238.577 99.604 238.926 98.3203 239.046C97.0349 239.171 96.2285 239.126 96.2253 239.188Z" fill="#263238"/>
<path d="M135.284 232.138C135.248 232.155 135.529 232.825 136.143 233.824C136.753 234.823 137.728 236.132 139.012 237.383C140.299 238.631 141.635 239.569 142.65 240.151C143.665 240.736 144.343 240.998 144.36 240.962C144.385 240.911 143.749 240.571 142.78 239.94C141.81 239.31 140.521 238.359 139.256 237.131C137.994 235.901 137.006 234.641 136.35 233.688C135.691 232.737 135.334 232.111 135.284 232.138Z" fill="#263238"/>
<path d="M120.644 117.125L121.305 117.087C127.952 116.705 133.778 121.492 134.693 128.088C135.544 134.221 136.406 141.005 136.555 144.313C136.864 151.162 130.08 152.621 130.08 152.621L130.323 155.405C130.726 160.004 127.312 164.053 122.711 164.432C118.169 164.806 114.171 161.461 113.736 156.925L111.304 131.511C110.283 124.439 113.546 117.95 120.644 117.125Z" fill="#FFBF9D"/>
<path d="M130.135 152.602C130.135 152.602 125.779 153.116 121.016 150.492C121.016 150.492 123.409 155.297 130.203 154.288L130.135 152.602Z" fill="#FF9A6C"/>
<path d="M132.776 134.44C132.825 134.955 132.428 135.42 131.891 135.48C131.355 135.54 130.881 135.172 130.833 134.657C130.785 134.141 131.181 133.675 131.718 133.616C132.255 133.556 132.729 133.925 132.776 134.44Z" fill="#323232"/>
<path d="M133.413 131.517C133.299 131.651 132.528 131.146 131.475 131.209C130.424 131.257 129.684 131.843 129.562 131.72C129.502 131.666 129.613 131.429 129.934 131.165C130.251 130.902 130.802 130.633 131.458 130.598C132.113 130.564 132.678 130.774 133.009 131.002C133.347 131.232 133.47 131.456 133.413 131.517Z" fill="#263238"/>
<path d="M123.68 135.093C123.728 135.609 123.332 136.074 122.795 136.134C122.258 136.193 121.784 135.825 121.736 135.31C121.688 134.796 122.085 134.33 122.62 134.269C123.158 134.209 123.632 134.578 123.68 135.093Z" fill="#323232"/>
<path d="M123.086 132.308C122.972 132.443 122.199 131.937 121.148 132.001C120.097 132.049 119.357 132.635 119.235 132.512C119.175 132.458 119.285 132.221 119.608 131.957C119.925 131.694 120.476 131.425 121.131 131.39C121.786 131.356 122.351 131.566 122.682 131.794C123.018 132.023 123.142 132.248 123.086 132.308Z" fill="#263238"/>
<path d="M127.351 139.89C127.343 139.83 127.99 139.679 129.042 139.483C129.309 139.44 129.56 139.372 129.595 139.186C129.647 138.989 129.518 138.706 129.37 138.4C129.08 137.765 128.776 137.099 128.458 136.4C127.187 133.551 126.251 131.203 126.366 131.153C126.481 131.103 127.605 133.372 128.875 136.22C129.181 136.922 129.475 137.592 129.754 138.233C129.873 138.532 130.067 138.869 129.954 139.279C129.892 139.484 129.704 139.641 129.534 139.698C129.365 139.76 129.214 139.772 129.082 139.787C128.02 139.906 127.359 139.948 127.351 139.89Z" fill="#263238"/>
<path d="M123.12 128.171C123.033 128.463 121.975 128.388 120.749 128.607C119.519 128.802 118.545 129.221 118.366 128.974C118.286 128.855 118.445 128.576 118.831 128.276C119.214 127.977 119.835 127.677 120.571 127.553C121.307 127.43 121.993 127.508 122.452 127.665C122.916 127.821 123.157 128.032 123.12 128.171Z" fill="#323232"/>
<path d="M132.852 128.495C132.681 128.745 131.942 128.539 131.07 128.577C130.196 128.585 129.47 128.83 129.286 128.59C129.205 128.473 129.307 128.227 129.617 127.982C129.922 127.738 130.442 127.524 131.042 127.507C131.642 127.491 132.174 127.678 132.491 127.905C132.812 128.134 132.927 128.374 132.852 128.495Z" fill="#323232"/>
<path d="M133.853 124.983C133.853 124.983 131.801 120.8 129.677 119.919C127.105 118.852 126.186 121.66 123.763 121.131C121.34 120.601 118.884 119.577 116.553 121.56C114.002 123.731 115.333 125.075 115.343 128.122C115.383 140.473 113.335 144.085 112.362 138.322C112.255 137.691 110.463 137.287 110.046 134.617C109.508 131.156 109.13 126.937 109.765 124.422C110.3 122.302 111.404 120.794 113.442 119.086C116.659 116.389 121.272 116.069 124.425 116.204C127.579 116.339 133.83 119.599 133.853 124.983Z" fill="#323232"/>
<path d="M112.788 138.11C112.684 137.056 111.726 136.274 110.679 136.435C109.41 136.63 108.031 137.437 108.266 140.07C108.685 144.741 113.288 143.356 113.284 143.223C113.281 143.131 112.98 140.063 112.788 138.11Z" fill="#FFBF9D"/>
<path d="M112.11 141.556C112.089 141.543 112.034 141.62 111.902 141.695C111.774 141.769 111.547 141.831 111.295 141.762C110.786 141.625 110.3 140.879 110.202 140.039C110.152 139.615 110.205 139.202 110.325 138.853C110.437 138.499 110.636 138.241 110.881 138.174C111.123 138.095 111.312 138.227 111.381 138.353C111.455 138.478 111.434 138.574 111.459 138.58C111.473 138.591 111.552 138.493 111.498 138.303C111.47 138.212 111.405 138.108 111.287 138.028C111.167 137.946 110.998 137.915 110.827 137.949C110.469 138.007 110.174 138.367 110.041 138.749C109.889 139.136 109.82 139.6 109.876 140.077C109.99 141.015 110.551 141.853 111.244 141.988C111.58 142.044 111.845 141.92 111.977 141.798C112.112 141.669 112.127 141.562 112.11 141.556Z" fill="#FF9A6C"/>
<path d="M134.846 119.918C134.128 119.377 133.138 119.299 132.424 118.753C131.124 117.757 131.069 115.492 129.543 114.899C128.638 114.547 127.62 114.98 126.654 114.88C125.093 114.717 124.489 113.538 122.117 113.531C119.036 113.522 118.046 115.82 118.046 115.82C118.046 115.82 116.35 114.902 114.498 116.154C113.103 117.096 113.012 118.987 113.012 118.987C113.012 118.987 112.524 118.741 111.044 119.91C110.103 120.653 109.335 122.256 108.993 123.405C108.484 125.118 109.228 126.926 109.957 128.557C110.352 129.44 110.841 130.411 111.757 130.719C112.875 131.096 114.104 130.223 114.54 129.127C114.976 128.031 115.667 126.929 116.198 125.876C117.118 124.048 118.061 122.343 117.287 121.173C118.351 120.83 119.515 120.802 120.578 121.153C121.651 121.508 122.587 122.197 123.652 122.573C124.717 122.95 126.068 122.928 126.793 122.061C127.33 123.361 129.277 123.784 130.305 122.823C131.14 124.202 133.117 124.839 134.497 124.005C135.878 123.173 136.135 120.887 134.846 119.918Z" fill="#323232"/>
<path d="M124.365 141.61C124.158 142.126 124.166 142.632 124.1 143.184C124.034 143.735 124.269 144.125 124.61 144.563C124.964 145.017 125.551 145.253 126.126 145.263C126.131 145.263 126.137 145.263 126.143 145.263C127.218 145.277 128.13 144.465 128.299 143.404L128.484 142.243C127.384 141.947 124.446 141.686 124.365 141.61Z" fill="#FF9A6C"/>
<path d="M127.243 144.926C127.236 144.904 127.105 144.933 126.869 144.965C126.634 144.996 126.288 145.039 125.88 144.972C125.475 144.909 125.012 144.695 124.676 144.27C124.341 143.858 124.165 143.249 124.203 142.626C124.222 142.283 124.312 141.956 124.454 141.677L124.309 141.749C125.361 141.907 126.281 142.034 126.939 142.113C127.597 142.192 127.994 142.222 127.998 142.189C128.004 142.155 127.617 142.063 126.966 141.935C126.316 141.808 125.402 141.647 124.352 141.474L124.253 141.458L124.207 141.546C124.039 141.863 123.938 142.229 123.916 142.61C123.875 143.297 124.075 143.972 124.473 144.439C124.862 144.909 125.407 145.133 125.852 145.173C126.302 145.218 126.657 145.141 126.891 145.075C127.128 145.006 127.248 144.942 127.243 144.926Z" fill="#263238"/>
<path d="M112.262 138.652C112.022 138.181 111.369 137.902 110.936 138.206C110.403 138.505 110.302 138.929 110.156 139.522C110.052 139.943 110.08 140.411 110.315 140.773C110.551 141.135 111.022 141.358 111.434 141.229C111.872 141.092 112.121 140.634 112.262 140.197C112.426 139.695 112.502 139.124 112.262 138.652Z" fill="#455A64"/>
<path d="M120.578 146.777C119.133 146.777 117.688 146.476 116.37 145.873C113.736 144.667 111.68 142.288 110.869 139.508L111.644 139.282C112.39 141.841 114.282 144.031 116.706 145.14C119.129 146.249 122.023 146.249 124.447 145.141L124.782 145.874C123.466 146.476 122.022 146.777 120.578 146.777Z" fill="#455A64"/>
<path d="M125.707 146.797L124.028 147.128C123.331 147.265 122.654 146.811 122.517 146.114L122.508 146.071C122.371 145.374 122.825 144.698 123.522 144.561L125.202 144.23C125.898 144.093 126.574 144.547 126.711 145.244L126.72 145.288C126.858 145.984 126.404 146.66 125.707 146.797Z" fill="#455A64"/>
<path d="M112.175 139.431C112.563 139.028 112.92 138.578 113.109 138.052C113.298 137.525 113.297 136.908 113 136.433C112.744 136.023 112.301 135.764 111.85 135.586C111.457 135.43 111.035 135.323 110.613 135.355C110.191 135.388 109.767 135.574 109.517 135.916C109.38 136.103 109.305 136.379 109.453 136.558C109.62 136.762 109.938 136.708 110.192 136.642C110.541 136.553 110.9 136.475 111.257 136.513C111.614 136.55 111.975 136.717 112.165 137.022C112.383 137.373 112.335 137.838 112.149 138.207C111.962 138.575 111.658 138.868 111.359 139.153" fill="#455A64"/>
<path d="M148.323 164.284C148.73 164.284 154.523 166.6 156.047 172.295C157.572 177.989 161.738 198.834 161.738 198.834L166.155 204.951C166.155 204.951 164.725 216.127 156.594 214.004C156.594 214.004 151.169 214.952 149.441 209.45C147.713 203.949 144.359 187.543 144.359 187.543L148.323 164.284Z" fill="white"/>
<path d="M131.407 154.739L134.477 159.385L148.324 164.284L144.36 204.432L145.842 225.474C146.039 228.273 143.78 230.632 140.975 230.555L97.4611 229.269C96.3717 229.239 95.8637 227.861 95.6823 226.374C95.5194 225.04 95.6621 223.687 96.0298 222.395L98.324 214.345C97.9837 219.354 99.4835 184.471 99.5416 183.201L96.1879 165.25L111.941 158.88L114.38 155.116L121.468 160.507L131.407 154.739Z" fill="white"/>
<path d="M96.1865 165.249C96.1865 165.249 93.0166 168.032 92.4852 170.152C91.9538 172.272 80.566 196.958 80.566 196.958L74.9052 198.486L73.3965 201.62C71.6079 205.334 72.578 209.863 75.8624 212.354C76.0688 212.51 76.2712 212.649 76.4688 212.767C79.5274 214.584 85.0245 214.513 88.2283 210.734C91.2627 207.155 100.14 194.28 100.14 194.28V178.531L96.1865 165.249Z" fill="white"/>
<path d="M77.6261 199.45L69.4865 194.646L65.5651 199.45L66.3763 201.776L76.8689 209.564C76.8689 209.564 78.8365 208.119 79.3026 205.345C79.7937 202.427 77.6261 199.45 77.6261 199.45Z" fill="#FFBF9D"/>
<path d="M80.2129 196.967C80.2137 197.043 80.9032 196.984 81.9241 197.311C82.9409 197.623 84.2513 198.405 85.3052 199.655C86.3592 200.909 87.0043 202.281 87.4567 203.266C87.9042 204.26 88.1695 204.886 88.2284 204.864C88.2792 204.845 88.1131 204.186 87.7316 203.153C87.3446 202.129 86.7293 200.698 85.6262 199.383C84.519 198.068 83.0982 197.279 82.0055 197.026C80.904 196.757 80.2016 196.929 80.2129 196.967Z" fill="#9C9C9C"/>
<path d="M69.625 197.312C69.7 197.162 70.3015 193.704 67.6703 191.448C65.0391 189.193 62.6715 188.404 61.2426 187.765C59.8145 187.126 56.8446 184.645 56.3189 185.247C55.7923 185.848 55.5673 186.75 56.3189 187.84C57.0704 188.93 61.3765 190.568 60.7757 191.949C60.5298 192.515 59.1759 192.614 59.1759 192.614C59.1759 192.614 53.9884 192.952 51.8087 192.764C49.6291 192.577 47.6744 192.99 47.7865 193.742C47.8994 194.493 48.3131 194.907 50.117 195.058C51.9208 195.208 54.8528 195.096 55.0036 195.509C55.1536 195.922 54.5529 196.185 53.4997 196.11C52.4474 196.035 47.4857 196.035 47.1471 196.599C46.8092 197.162 47.0721 198.027 47.7486 198.215L48.9138 198.628C48.9138 198.628 48.2373 199.568 48.801 200.095C49.3646 200.621 50.6427 200.432 50.6427 200.432L57.2204 200.244C57.2204 200.244 57.5962 200.641 57.4083 200.912C57.2204 201.184 52.0708 200.808 52.0329 201.372C51.995 201.935 51.5443 202.198 53.0853 202.575C54.6263 202.951 58.4977 202.951 59.8887 202.575C61.2797 202.199 67.1058 201.935 67.1058 201.935L69.625 197.312Z" fill="#FFBF9D"/>
<path d="M159.008 200.309L166.617 193.992L170.986 198.904L170.452 201.308L160.938 210.267C160.938 210.267 158.881 209.272 157.95 206.617C157.004 203.92 159.008 200.309 159.008 200.309Z" fill="#FFBF9D"/>
<path d="M166.705 197.253C166.614 197.113 165.613 193.749 167.963 191.201C170.314 188.655 172.573 187.594 173.918 186.794C175.262 185.993 177.922 183.183 178.515 183.719C179.108 184.255 179.437 185.124 178.817 186.294C178.198 187.465 175.239 188.835 175.344 190.337C175.421 191.425 176.536 191.368 176.536 191.368C176.536 191.368 181.728 191.1 183.871 190.659C186.014 190.218 188.004 190.401 187.979 191.16C187.955 191.92 187.592 192.379 185.818 192.738C184.044 193.098 181.119 193.328 181.018 193.756C180.917 194.184 181.544 194.375 182.581 194.178C183.618 193.98 188.546 193.402 188.948 193.923C189.349 194.444 189.189 195.332 188.539 195.598L187.43 196.145C187.43 196.145 188.212 197 187.713 197.588C187.215 198.177 185.923 198.139 185.923 198.139L179.368 198.718C179.368 198.718 179.041 199.156 179.259 199.404C179.478 199.651 184.548 198.678 184.651 199.234C184.755 199.789 185.233 199.998 183.747 200.551C182.26 201.104 178.415 201.555 176.99 201.344C175.565 201.133 169.748 201.55 169.748 201.55L166.705 197.253Z" fill="#FFBF9D"/>
<path d="M112.331 160.026C112.292 160.071 112.831 160.598 113.698 161.449C114.564 162.3 115.752 163.482 117.01 164.84C117.274 165.129 117.533 165.412 117.784 165.685L117.951 165.868L118.101 165.676C119.075 164.426 119.918 163.315 120.506 162.509C121.095 161.703 121.43 161.201 121.389 161.169C121.348 161.137 120.939 161.58 120.292 162.341C119.647 163.101 118.764 164.18 117.776 165.419L118.093 165.41C117.842 165.133 117.583 164.847 117.318 164.555C116.052 163.188 114.822 162.03 113.9 161.231C112.977 160.432 112.367 159.984 112.331 160.026Z" fill="#9C9C9C"/>
<path d="M147.422 174.93C147.394 174.925 147.315 175.227 147.198 175.78C147.078 176.333 146.933 177.137 146.773 178.134C146.451 180.127 146.111 182.897 145.828 185.963C145.545 189.029 145.337 191.806 145.181 193.815C145.114 194.748 145.057 195.542 145.01 196.196C144.975 196.759 144.969 197.072 144.998 197.075C145.027 197.079 145.087 196.771 145.172 196.213C145.258 195.655 145.361 194.845 145.477 193.843C145.709 191.839 145.964 189.064 146.246 186.001C146.529 182.94 146.821 180.174 147.067 178.175C147.181 177.247 147.279 176.457 147.359 175.806C147.427 175.247 147.451 174.935 147.422 174.93Z" fill="#9C9C9C"/>
<path d="M99.2864 173.53C99.2574 173.529 99.2058 173.909 99.1372 174.6C99.0671 175.29 98.9937 176.291 98.9284 177.531C98.7913 180.008 98.7195 183.435 98.7107 187.217C98.7107 190.956 98.7107 194.337 98.7107 196.9C98.7099 198.075 98.7082 199.059 98.7082 199.834C98.7107 200.527 98.726 200.912 98.755 200.913C98.7841 200.913 98.8244 200.532 98.8711 199.839C98.9203 199.147 98.9663 198.144 99.0074 196.905C99.0913 194.426 99.1219 191 99.13 187.219C99.1389 183.438 99.1639 180.018 99.2243 177.542C99.2542 176.368 99.2792 175.385 99.2993 174.61C99.3187 173.917 99.3155 173.532 99.2864 173.53Z" fill="#9C9C9C"/>
<path d="M153.67 209.03C153.734 209.037 153.844 208.211 154.095 206.899C154.352 205.595 154.766 203.776 155.738 202.008C156.712 200.243 158.131 199.002 159.295 198.399C160.462 197.777 161.31 197.701 161.294 197.622C161.291 197.597 161.079 197.591 160.703 197.647C160.325 197.701 159.786 197.846 159.162 198.133C157.913 198.692 156.387 199.962 155.371 201.804C154.36 203.643 153.987 205.52 153.802 206.85C153.624 208.19 153.619 209.025 153.67 209.03Z" fill="#9C9C9C"/>
<path d="M151.692 200.718C151.779 200.817 153.006 199.555 154.995 198.893C156.975 198.199 158.717 198.445 158.725 198.314C158.77 198.219 156.957 197.766 154.86 198.496C152.754 199.202 151.598 200.671 151.692 200.718Z" fill="#9C9C9C"/>
<path d="M120.472 229.308C120.487 229.308 120.502 229.071 120.518 228.62C120.529 228.131 120.545 227.474 120.564 226.647C120.599 224.894 120.648 222.427 120.708 219.395C120.852 213.236 121.051 204.794 121.269 195.469C121.483 186.121 121.61 177.657 121.599 171.53C121.601 168.466 121.567 165.986 121.528 164.274C121.504 163.447 121.484 162.79 121.469 162.301C121.451 161.851 121.434 161.614 121.42 161.614C121.405 161.614 121.393 161.851 121.384 162.302C121.38 162.791 121.372 163.448 121.364 164.275C121.349 166.028 121.328 168.495 121.301 171.527C121.236 177.652 121.062 186.111 120.848 195.458C120.634 204.802 120.459 213.263 120.41 219.39C120.381 222.453 120.383 224.933 120.4 226.646C120.414 227.472 120.424 228.13 120.432 228.619C120.445 229.071 120.458 229.308 120.472 229.308Z" fill="#9C9C9C"/>
<path d="M159.379 200.046C159.347 200.002 158.779 200.462 158.268 201.479C158.013 201.983 157.764 202.615 157.62 203.357C157.48 204.104 157.476 204.937 157.588 205.794C157.705 206.648 157.923 207.461 158.3 208.132C158.675 208.799 159.165 209.3 159.633 209.63C160.587 210.3 161.35 210.287 161.341 210.247C161.363 210.174 160.652 210.077 159.812 209.394C159.399 209.056 158.967 208.571 158.641 207.948C158.314 207.328 158.115 206.556 158.004 205.738C157.897 204.92 157.891 204.122 158.001 203.425C158.117 202.722 158.326 202.104 158.538 201.605C158.959 200.597 159.425 200.088 159.379 200.046Z" fill="#9C9C9C"/>
<path d="M75.3438 210.439C75.3535 210.463 75.5382 210.419 75.8526 210.287C76.1671 210.156 76.605 209.917 77.0913 209.542C78.0589 208.81 79.2032 207.4 79.5709 205.521C79.9297 203.64 79.3911 201.905 78.7661 200.866C78.4548 200.337 78.1371 199.952 77.8944 199.714C77.6517 199.473 77.4969 199.365 77.4791 199.384C77.4227 199.435 77.9726 199.955 78.5056 201.008C79.0403 202.041 79.4951 203.684 79.1596 205.442C78.8169 207.198 77.7831 208.554 76.9026 209.314C76.0147 210.092 75.3107 210.37 75.3438 210.439Z" fill="#9C9C9C"/>
<path d="M106.433 192.001C106.42 192.026 106.795 192.244 107.486 192.617C108.175 192.991 109.184 193.51 110.439 194.134C112.95 195.383 116.458 197.028 120.398 198.698C124.341 200.365 127.964 201.74 130.608 202.672C131.929 203.139 133.004 203.502 133.753 203.737C134.5 203.973 134.918 204.091 134.928 204.063C134.937 204.036 134.537 203.866 133.807 203.583C133.004 203.275 131.963 202.875 130.711 202.394C128.097 201.392 124.497 199.976 120.562 198.311C116.629 196.645 113.108 195.046 110.568 193.867C109.351 193.303 108.339 192.834 107.558 192.472C106.846 192.143 106.446 191.975 106.433 192.001Z" fill="#9C9C9C"/>
<path d="M59.7251 190.145C59.6759 190.193 60.0299 190.533 60.4815 191.13C60.7016 191.432 60.9129 191.81 61.0008 192.285C61.0992 192.758 61.0927 193.314 61.1734 193.92C61.3338 195.171 62.1023 196.108 62.7426 196.567C63.399 197.039 63.907 197.112 63.9159 197.069C63.9425 197.004 63.4885 196.831 62.9289 196.336C62.3789 195.848 61.7322 194.983 61.5887 193.861C61.5121 193.3 61.508 192.725 61.3774 192.2C61.2564 191.669 60.9766 191.237 60.7121 190.944C60.1694 190.358 59.7566 190.111 59.7251 190.145Z" fill="#FF9A6C"/>
<path d="M178.362 196.613C178.361 196.726 180.413 196.834 182.94 196.712C185.468 196.593 187.5 196.292 187.488 196.18C187.476 196.062 185.435 196.175 182.92 196.293C180.405 196.414 178.363 196.494 178.362 196.613Z" fill="#FF9A6C"/>
<path d="M173.704 196.267C173.714 196.309 174.192 196.23 174.771 195.739C175.337 195.269 175.971 194.306 175.929 193.113C175.903 192.529 175.748 192.016 175.644 191.562C175.533 191.108 175.475 190.707 175.489 190.365C175.503 189.676 175.797 189.321 175.745 189.283C175.72 189.236 175.294 189.566 175.193 190.339C175.138 190.713 175.171 191.17 175.266 191.642C175.354 192.115 175.488 192.615 175.509 193.129C175.548 194.161 175.036 195.039 174.567 195.524C174.091 196.026 173.674 196.203 173.704 196.267Z" fill="#FF9A6C"/>
<path d="M58.5532 197.721C58.5435 197.606 56.359 197.693 53.6746 197.916C50.9893 198.139 48.821 198.414 48.8306 198.53C48.8403 198.645 51.024 198.558 53.7093 198.334C56.3937 198.111 58.5621 197.836 58.5532 197.721Z" fill="#FF9A6C"/>
<path d="M121.888 160.771C121.836 160.795 122.194 161.704 122.817 163.153C122.979 163.527 123.15 163.921 123.33 164.336C123.536 164.766 123.672 165.202 123.977 165.706C124.124 165.948 124.475 166.202 124.844 166.127C125.195 166.063 125.428 165.858 125.659 165.71C126.128 165.387 126.612 165.056 127.107 164.716C129.089 163.349 130.87 162.093 132.146 161.166C133.424 160.24 134.197 159.643 134.164 159.595C134.131 159.547 133.298 160.058 131.978 160.921C130.658 161.786 128.851 163.003 126.869 164.369C126.375 164.711 125.893 165.046 125.425 165.37C125.189 165.534 124.975 165.698 124.779 165.731C124.589 165.767 124.425 165.668 124.292 165.481C123.826 164.632 123.438 163.716 123.087 163.028C122.396 161.612 121.942 160.746 121.888 160.771Z" fill="#9C9C9C"/>
<path d="M258.064 412.204L258.582 395.867H246.456L247.259 412.549L252.736 414.689L258.064 412.204Z" fill="#AE7461"/>
<path d="M253.474 412.454L258.064 412.204C258.064 412.204 265.126 417.92 265.806 421.055C266.049 422.172 265.806 423.457 265.806 423.457L255.083 423.768C252.923 423.768 247.259 423.777 247.259 423.777V412.549L253.474 412.454Z" fill="white"/>
<path d="M247.26 421.83H265.905V423.777H247.26V421.83Z" fill="#E0E0E0"/>
<path d="M257.16 413.076C257.042 413.11 257.535 415.025 257.921 417.423C258.317 419.82 258.458 421.791 258.581 421.787C258.69 421.786 258.737 419.785 258.336 417.355C257.944 414.925 257.264 413.041 257.16 413.076Z" fill="#959595"/>
<path d="M248.052 421.22C248.126 421.246 248.265 420.441 249.023 419.455C249.403 418.972 249.943 418.456 250.657 418.078C251.364 417.696 252.254 417.484 253.183 417.524C254.111 417.571 254.978 417.865 255.646 418.313C256.321 418.756 256.81 419.321 257.143 419.837C257.805 420.89 257.867 421.704 257.944 421.686C257.968 421.683 257.982 421.482 257.921 421.125C257.86 420.77 257.713 420.258 257.397 419.685C257.078 419.118 256.581 418.491 255.862 417.992C255.148 417.488 254.209 417.154 253.202 417.104C252.196 417.059 251.229 417.303 250.471 417.738C249.708 418.167 249.154 418.745 248.783 419.279C248.415 419.82 248.219 420.315 248.127 420.663C248.034 421.014 248.029 421.216 248.052 421.22Z" fill="#959595"/>
<path d="M226.508 412.701L224.09 396.537L236.132 395.123L237.28 411.785L232.09 414.549L226.508 412.701Z" fill="#AE7461"/>
<path d="M231.095 412.415L226.508 412.701C226.508 412.701 220.161 419.201 219.85 422.394C219.74 423.531 220.13 424.779 220.13 424.779L230.817 423.838C232.962 423.586 238.588 422.935 238.588 422.935L237.28 411.783L231.095 412.415Z" fill="white"/>
<path d="M238.578 422.922L220.06 425.096L219.833 423.162L238.351 420.988L238.578 422.922Z" fill="#E0E0E0"/>
<path d="M227.507 413.462C227.4 413.44 226.944 415.39 226.838 417.85C226.723 420.309 227.002 422.292 227.111 422.28C227.234 422.27 227.144 420.295 227.258 417.869C227.362 415.441 227.628 413.482 227.507 413.462Z" fill="#959595"/>
<path d="M237.503 420.488C237.525 420.481 237.497 420.281 237.362 419.945C237.229 419.609 236.977 419.141 236.549 418.646C236.118 418.159 235.501 417.65 234.693 417.312C233.89 416.968 232.902 416.839 231.907 417.001C230.913 417.167 230.019 417.609 229.369 418.192C228.713 418.772 228.292 419.453 228.041 420.054C227.795 420.659 227.708 421.185 227.689 421.545C227.671 421.907 227.708 422.104 227.732 422.104C227.811 422.114 227.778 421.298 228.312 420.175C228.583 419.624 229.003 419.005 229.621 418.486C230.233 417.963 231.058 417.571 231.976 417.415C232.894 417.267 233.801 417.373 234.549 417.671C235.302 417.963 235.898 418.413 236.332 418.848C237.2 419.739 237.431 420.522 237.503 420.488Z" fill="#959595"/>
<path d="M264.681 361.274C264.681 361.991 261.953 401.444 261.953 401.444H244.494L242.628 360.706L264.681 361.274Z" fill="#EA0029"/>
<path d="M217.583 360.764L222.166 402.362L239.257 400.98L238.145 359.602L217.583 360.764Z" fill="#EA0029"/>
<path d="M232.895 232.152L233.229 232.021C234.034 230.01 236.002 228.571 238.135 228.191C240.267 227.811 242.514 228.423 244.303 229.644C245.546 230.492 246.583 231.614 247.829 232.457C249.076 233.299 250.664 233.85 252.086 233.36C252.334 233.882 251.357 234.332 251.491 234.893C251.555 235.161 251.856 235.303 252.131 235.323C252.534 235.353 252.927 235.203 253.33 235.165C253.732 235.127 254.208 235.255 254.357 235.63C254.429 235.814 254.408 236.02 254.382 236.216C254.15 237.972 253.655 239.738 252.593 241.156C251.531 242.574 249.826 243.591 248.058 243.484C246.647 243.399 245.378 242.638 244.172 241.899C241.883 240.495 239.594 239.09 237.303 237.685C236.247 237.037 235.177 236.379 234.326 235.478C233.476 234.578 232.854 233.391 232.895 232.152Z" fill="#323232"/>
<path d="M234.241 232.333C233.301 231.761 232.252 231.333 231.155 231.26C230.057 231.188 228.907 231.501 228.103 232.25C227.353 232.947 226.967 233.937 226.491 234.842C226.016 235.748 225.349 236.658 224.363 236.931C224.189 236.978 223.996 237.014 223.882 237.152C223.68 237.398 223.899 237.8 224.203 237.894C224.506 237.988 224.832 237.877 225.13 237.768C224.707 238.41 224.052 238.897 223.313 239.116C223.571 239.836 224.5 240.226 225.196 239.907C225.054 241.122 224.911 242.352 225.071 243.565C225.23 244.778 225.725 245.991 226.662 246.778C227.695 247.645 229.241 248.008 229.798 249.235" fill="#323232"/>
<path d="M248.376 274.043L232.109 275.875L232.184 261.819C232.184 261.819 231.045 261.721 230.214 255.715C229.384 249.708 227.824 239.521 227.824 239.521C234.412 235.653 242.577 235.653 249.165 239.522L250.143 240.097L248.376 274.043Z" fill="#AE7461"/>
<path d="M249.188 247.732C249.285 247.674 253.168 245.99 253.554 250.119C253.939 254.249 249.714 253.784 249.695 253.666C249.677 253.549 249.188 247.732 249.188 247.732Z" fill="#AE7461"/>
<path d="M229.762 249.3C229.654 249.269 225.863 248.74 226.512 252.838C227.16 256.934 231.139 255.438 231.127 255.32C231.115 255.2 229.762 249.3 229.762 249.3Z" fill="#AE7461"/>
<path d="M250.464 247.104C250.282 250.628 250.631 252.423 250.352 254.797C249.91 258.553 248.452 261.573 245.398 263.805C242.345 266.036 237.902 266.561 234.772 264.438C232.599 262.965 230.969 261.198 230.353 258.646C229.738 256.095 228.365 251.331 228.019 248.729C227.396 244.038 227.024 239.807 227.024 239.807L240.135 235.693L248.34 239.274L250.464 247.104Z" fill="#323232"/>
<path d="M238.873 266.735C238.864 266.833 239.953 266.962 241.25 266.647C242.549 266.341 243.461 265.734 243.41 265.65C243.358 265.552 242.405 265.987 241.162 266.279C239.921 266.581 238.874 266.624 238.873 266.735Z" fill="#263238"/>
<path d="M250.552 253.046C250.501 249.464 250.249 245.393 250.332 241.601C250.364 240.177 250.609 238.101 250.307 236.709C250.005 235.312 249.674 235.791 248.891 234.595C247.91 233.095 244.795 232.404 243.007 232.272C241.22 232.141 240.814 230.66 239.623 232.001C238.464 230.663 236.45 230.143 234.789 230.754C233.127 231.365 231.929 233.065 231.913 234.835C230.845 234.047 229.248 234.075 228.208 234.9C227.168 235.726 226.778 237.274 227.303 238.494C226.36 238.775 225.581 239.553 225.3 240.496C225.018 241.438 225.243 242.517 225.878 243.269C226.62 244.148 227.807 244.534 228.607 245.361C229.528 246.312 229.805 247.831 229.279 249.047" fill="#323232"/>
<path d="M246.104 235.368C244.88 233.89 243.305 232.63 241.448 232.149C239.592 231.668 237.436 232.086 236.144 233.504" fill="#263238"/>
<path d="M238.345 233.471C238.024 233.006 237.481 232.722 236.922 232.633C236.363 232.545 235.788 232.635 235.248 232.803C233.925 233.214 232.755 234.103 232.003 235.267C231.832 235.533 231.698 235.927 231.942 236.129C232.071 236.236 232.255 236.235 232.422 236.229C234.464 236.143 236.495 235.815 238.46 235.252" fill="#263238"/>
<path d="M252.351 274.849C252.351 274.849 269.201 279.144 272.009 283.604C274.818 288.064 276.47 298.306 276.47 300.123C276.47 301.94 276.8 322.589 273.331 329.363C269.862 336.136 211.219 334.154 211.219 334.154C211.219 334.154 206.759 331.841 205.602 324.903C204.446 317.965 206.593 294.838 207.75 289.717C208.906 284.596 209.897 286.083 215.348 282.779C220.799 279.475 229.224 276.006 229.224 276.006L232.198 270.39C232.198 270.39 241.614 265.268 249.047 269.564L252.351 274.849Z" fill="white"/>
<path d="M215.919 296.496C215.802 296.498 215.769 300.985 215.842 306.518C215.916 312.052 216.069 316.536 216.185 316.535C216.302 316.533 216.335 312.047 216.262 306.512C216.188 300.98 216.035 296.495 215.919 296.496Z" fill="#9C9C9C"/>
<path d="M267.838 293.135C267.809 293.137 267.807 293.436 267.827 293.974C267.854 294.605 267.887 295.364 267.924 296.25C268.008 298.17 268.089 300.823 268.069 303.754C268.046 306.685 267.925 309.337 267.814 311.256C267.762 312.141 267.719 312.899 267.683 313.53C267.654 314.067 267.653 314.366 267.681 314.369C267.71 314.372 267.766 314.079 267.845 313.546C267.924 313.013 268.016 312.238 268.109 311.279C268.297 309.361 268.465 306.701 268.488 303.757C268.508 300.816 268.38 298.153 268.22 296.232C268.141 295.272 268.062 294.496 267.989 293.961C267.92 293.427 267.867 293.132 267.838 293.135Z" fill="#9C9C9C"/>
<path d="M221.826 284.741C221.829 284.756 221.975 284.749 222.252 284.722C222.576 284.686 222.975 284.641 223.46 284.587C224.57 284.458 226.071 284.286 227.899 284.075C231.648 283.666 236.84 283.217 242.591 283.015C248.343 282.819 253.555 282.907 257.324 283.056C259.162 283.14 260.672 283.208 261.788 283.26C262.275 283.281 262.677 283.298 263.002 283.312C263.28 283.319 263.427 283.316 263.428 283.301C263.429 283.287 263.284 283.262 263.008 283.227C262.684 283.192 262.285 283.149 261.799 283.096C260.748 282.988 259.224 282.871 257.338 282.759C253.567 282.534 248.342 282.398 242.576 282.595C236.812 282.797 231.61 283.294 227.864 283.779C225.99 284.02 224.478 284.244 223.437 284.424C222.955 284.511 222.56 284.581 222.239 284.638C221.966 284.692 221.824 284.727 221.826 284.741Z" fill="#9C9C9C"/>
<path d="M230.15 275.873C230.164 275.937 231.404 275.698 233.419 275.401C235.432 275.103 238.228 274.782 241.33 274.662C244.433 274.546 247.245 274.656 249.276 274.801C251.307 274.945 252.561 275.091 252.57 275.025C252.574 274.996 252.265 274.928 251.702 274.829C251.139 274.728 250.319 274.615 249.302 274.505C247.269 274.284 244.439 274.126 241.314 274.242C238.191 274.363 235.381 274.734 233.37 275.108C232.365 275.295 231.555 275.47 231.002 275.613C230.448 275.754 230.145 275.845 230.15 275.873Z" fill="#9C9C9C"/>
<g opacity="0.3">
<path d="M212.225 313.274C213.8 312.352 215.691 312.19 217.512 312.065C228.084 311.333 238.685 311.104 249.28 310.875C255.369 310.744 261.481 310.612 267.53 311.327C269.431 311.552 271.442 311.914 272.855 313.206C274.757 314.943 275.019 317.844 274.718 320.402C274.418 322.96 273.687 325.527 274.092 328.07L210.518 334.08C210.61 330.377 209.194 326.814 208.711 323.141C208.228 319.47 209.028 315.145 212.225 313.274Z" fill="#8A8A8A"/>
</g>
<path d="M262.795 364.06C268.609 364.06 273.412 359.455 273.571 353.644C273.869 342.737 273.878 325.842 273.865 318.517C273.862 316.53 272.25 314.926 270.264 314.926H214.217C212.193 314.926 210.568 316.586 210.617 318.609C210.801 326.213 211.23 343.852 211.496 354.784C211.622 359.948 215.843 364.061 221.007 364.061H262.795V364.06Z" fill="white"/>
<path d="M275.538 423.802L278.74 423.412L272.142 369.427C271.76 366.259 269.107 363.869 265.971 363.869H218.71C215.585 363.869 212.933 366.249 212.542 369.405C210.961 382.167 206.559 423.023 206.515 423.434L209.722 423.779C209.766 423.368 214.165 382.538 215.743 369.802C215.934 368.258 217.21 367.095 218.71 367.095H265.971C267.477 367.095 268.752 368.264 268.939 369.815L275.538 423.802Z" fill="#E0E0E0"/>
<path d="M217.118 354.285C217.111 354.285 217.104 354.365 217.096 354.527C217.107 354.685 217.033 354.934 217.133 355.239C217.213 355.867 217.716 356.751 218.709 357.436C220.686 358.842 224.111 359.712 228.308 360.253C236.746 361.296 248.519 361.162 261.402 359.948C263.009 359.773 264.654 359.504 266.074 358.681C267.514 357.875 268.455 356.417 268.892 354.937C269.36 353.449 269.492 351.932 269.639 350.477C269.774 349.016 269.906 347.585 270.035 346.189C270.514 340.603 270.795 335.56 270.949 331.324C271.108 327.088 271.142 323.657 271.143 321.287C271.143 320.101 271.134 319.181 271.119 318.557C271.111 318.264 271.105 318.03 271.1 317.847C271.093 317.688 271.086 317.605 271.079 317.605C271.072 317.605 271.064 317.688 271.057 317.847C271.051 318.03 271.044 318.264 271.035 318.557C271.021 319.21 271.002 320.123 270.979 321.285C270.927 323.653 270.848 327.081 270.651 331.312C270.46 335.543 270.148 340.579 269.649 346.156C269.515 347.55 269.378 348.979 269.239 350.437C269.09 351.894 268.952 353.385 268.499 354.813C268.071 356.238 267.202 357.57 265.863 358.321C264.537 359.09 262.946 359.359 261.357 359.53C248.507 360.741 236.748 360.921 228.343 359.957C224.161 359.458 220.757 358.633 218.803 357.301C217.821 356.652 217.32 355.822 217.216 355.22C217.104 354.927 217.163 354.684 217.138 354.527C217.132 354.369 217.125 354.286 217.118 354.285Z" fill="#9C9C9C"/>
<path d="M312.879 300.424C312.879 300.911 308.333 318.445 308.333 324.127C308.333 329.81 313.691 334.518 313.691 334.518L319.535 321.854L321.971 306.106L312.879 300.424Z" fill="#FFBF9D"/>
<path d="M368.459 298.736C368.51 299.235 367.511 321.042 367.511 321.042L358.744 320.23L360.692 305.619L368.459 298.736Z" fill="#FFBF9D"/>
<path d="M356.471 280.455C356.564 280.502 356.838 280.588 357.241 280.726C359.651 281.548 367.742 284.3 368.742 291.373L369.846 301.432L360.692 305.62L359.556 316.822L319.942 317.634L320.916 308.218L307.465 305.26C307.465 305.26 310.001 293.117 314.919 286.62C316.503 284.529 318.819 283.114 321.391 282.6L341.86 278.506L356.471 280.455Z" fill="#EA0029"/>
<path d="M337.229 240.562C340.077 240.112 343.012 241.305 345.136 243.19C347.26 245.077 348.677 247.587 349.815 250.148C352.031 255.137 353.319 260.456 354.597 265.743C356.48 273.535 358.37 281.372 358.873 289.358C359.375 297.345 356.901 302.06 353.333 309.282L340.718 307.595L340.74 305.287L339.033 307.595L334.137 306.863C334.137 306.863 332.668 294.498 332.668 294.535C332.668 294.572 330.332 306.312 330.332 306.312L326.251 305.947C322.191 290.409 326.784 280.184 324.475 264.315C323.926 260.54 323.056 256.786 323.072 252.974C323.088 249.163 324.106 245.18 326.828 242.419C329.55 239.659 334.247 238.53 337.591 240.558" fill="#323232"/>
<path d="M362.566 293.299C362.508 293.292 362.35 294.204 362.121 295.68C361.874 297.286 361.571 299.262 361.235 301.447C360.888 303.63 360.575 305.604 360.32 307.209C360.088 308.685 359.96 309.601 360.018 309.612C360.074 309.623 360.305 308.726 360.612 307.262C360.919 305.799 361.297 303.767 361.65 301.511C362.001 299.256 362.261 297.206 362.415 295.718C362.569 294.23 362.622 293.306 362.566 293.299Z" fill="black"/>
<path d="M320.124 296.387C320.008 296.394 320.135 299.745 320.406 303.87C320.676 307.996 320.99 311.334 321.106 311.326C321.222 311.319 321.096 307.968 320.825 303.842C320.553 299.717 320.239 296.379 320.124 296.387Z" fill="black"/>
<path d="M325.402 389.56L329.94 375.106C329.94 375.106 319.437 371.92 319.507 371.941C319.577 371.961 316.062 390.079 316.062 390.079L321.133 392.127L325.402 389.56Z" fill="#FFBF9D"/>
<path d="M305.897 391.389L309.68 390.117L316.571 387.453L325.882 388.428L324.484 396.811L316.712 396.184L303.504 395.359L303.768 394.226C304.047 393.015 304.823 391.983 305.897 391.389Z" fill="white"/>
<path d="M315.241 395.475C315.355 395.495 315.748 393.709 316.117 391.489C316.485 389.277 316.696 387.433 316.57 387.452C316.467 387.396 316.071 389.208 315.703 391.421C315.335 393.641 315.127 395.456 315.241 395.475Z" fill="#959595"/>
<path d="M324.483 396.811L324.721 395.382L303.843 393.893L303.503 395.359L324.483 396.811Z" fill="#E0E0E0"/>
<path d="M352.737 412.034V398.1L341.211 397.373L341.933 412.379L347.41 414.52L352.737 412.034Z" fill="#FFBF9D"/>
<path d="M348.148 412.283L352.737 412.033C352.737 412.033 359.798 417.749 360.479 420.884C360.722 422.001 360.479 423.286 360.479 423.286L349.756 423.598C347.596 423.598 341.932 423.606 341.932 423.606V412.378L348.148 412.283Z" fill="white"/>
<path d="M337.71 363.809C337.485 364.355 334.434 380.072 334.434 380.072L315.792 375.875L318.191 365.238L337.71 363.809Z" fill="white"/>
<path d="M356.956 365.398C356.956 366.049 356.956 397.919 356.956 397.919L338.658 398.7L337.862 365.398H356.956Z" fill="white"/>
<path d="M341.932 421.659H360.578V423.606H341.932V421.659Z" fill="#E0E0E0"/>
<path d="M351.834 412.905C351.716 412.939 352.209 414.854 352.595 417.252C352.991 419.649 353.132 421.62 353.255 421.616C353.364 421.615 353.411 419.614 353.01 417.184C352.618 414.755 351.938 412.871 351.834 412.905Z" fill="#959595"/>
<path d="M342.725 421.05C342.8 421.075 342.939 420.271 343.697 419.285C344.077 418.801 344.617 418.285 345.33 417.907C346.037 417.525 346.927 417.313 347.856 417.353C348.785 417.4 349.651 417.694 350.319 418.142C350.994 418.585 351.483 419.151 351.816 419.667C352.478 420.72 352.54 421.533 352.618 421.515C352.641 421.513 352.655 421.311 352.594 420.955C352.534 420.599 352.386 420.088 352.071 419.514C351.751 418.947 351.255 418.32 350.535 417.821C349.822 417.317 348.882 416.983 347.875 416.933C346.869 416.888 345.902 417.131 345.144 417.567C344.382 417.997 343.827 418.574 343.456 419.108C343.089 419.649 342.893 420.144 342.8 420.492C342.707 420.843 342.701 421.045 342.725 421.05Z" fill="#959595"/>
<path d="M359.425 364.059C365.239 364.059 370.043 359.454 370.202 353.643C370.499 342.736 370.508 325.841 370.495 318.516C370.492 316.53 368.881 314.925 366.894 314.925H310.846C308.824 314.925 307.197 316.585 307.246 318.608C307.43 326.212 307.859 343.851 308.125 354.784C308.251 359.947 312.473 364.06 317.637 364.06H359.425V364.059Z" fill="white"/>
<path d="M372.168 423.801L375.371 423.411L368.772 369.426C368.391 366.258 365.738 363.868 362.602 363.868H315.34C312.215 363.868 309.563 366.248 309.172 369.404C307.591 382.166 303.19 423.022 303.145 423.433L306.352 423.778C306.397 423.367 310.795 382.537 312.374 369.801C312.565 368.257 313.84 367.094 315.34 367.094H362.602C364.107 367.094 365.383 368.263 365.57 369.814L372.168 423.801Z" fill="#E0E0E0"/>
<path d="M313.748 354.284C313.741 354.284 313.734 354.364 313.726 354.526C313.737 354.684 313.663 354.933 313.764 355.238C313.843 355.866 314.346 356.75 315.339 357.435C317.317 358.841 320.741 359.711 324.938 360.252C333.377 361.295 345.149 361.161 358.032 359.947C359.639 359.772 361.285 359.503 362.705 358.68C364.144 357.874 365.085 356.416 365.522 354.936C365.991 353.448 366.122 351.931 366.269 350.476C366.404 349.015 366.537 347.584 366.666 346.188C367.145 340.602 367.425 335.559 367.578 331.323C367.737 327.087 367.771 323.656 367.772 321.286C367.772 320.1 367.763 319.18 367.749 318.556C367.741 318.263 367.735 318.029 367.73 317.846C367.724 317.687 367.716 317.604 367.709 317.604C367.702 317.604 367.695 317.687 367.687 317.846C367.682 318.029 367.674 318.263 367.665 318.556C367.651 319.209 367.632 320.122 367.609 321.284C367.557 323.652 367.479 327.08 367.282 331.311C367.09 335.542 366.779 340.578 366.279 346.155C366.146 347.549 366.008 348.978 365.869 350.436C365.719 351.893 365.583 353.385 365.129 354.812C364.701 356.237 363.832 357.569 362.493 358.32C361.167 359.089 359.576 359.358 357.987 359.529C345.137 360.74 333.378 360.92 324.973 359.957C320.791 359.457 317.388 358.632 315.433 357.3C314.451 356.651 313.95 355.821 313.846 355.219C313.734 354.926 313.793 354.683 313.768 354.526C313.762 354.368 313.756 354.285 313.748 354.284Z" fill="#9C9C9C"/>
<defs>
<linearGradient id="paint0_linear_550_1539" x1="213" y1="0" x2="213" y2="425" gradientUnits="userSpaceOnUse">
<stop stop-color="#1B1B1B"/>
<stop offset="1" stop-color="#0E0E0E"/>
</linearGradient>
</defs>
</svg>
