<svg width="427" height="425" viewBox="0 0 427 425" fill="none" xmlns="http://www.w3.org/2000/svg">
<ellipse opacity="0.3" cx="213" cy="212.5" rx="213" ry="212.5" fill="url(#paint0_linear_550_2318)"/>
<path d="M303.262 72.7163C303.262 73.9691 302.752 75.1107 301.92 75.9378C301.099 76.7699 299.957 77.2795 298.704 77.2795H201.154C198.649 77.2795 196.596 75.2269 196.596 72.7163C196.596 71.4635 197.107 70.3219 197.938 69.4958C198.759 68.6636 199.902 68.153 201.154 68.153H205.765C207.586 63.9214 211.792 60.9638 216.686 60.9638C219.981 60.9638 222.961 62.3056 225.118 64.4694C227.992 59.5957 233.292 56.3217 239.361 56.3217C241.03 56.3217 242.635 56.5745 244.151 57.0325C247.325 51.0638 253.599 47 260.831 47C269.515 47 276.821 52.8636 279.026 60.8425C280.626 60.0427 282.432 59.5846 284.347 59.5846C289.762 59.5846 294.332 63.2005 295.769 68.153H298.706C301.21 68.153 303.262 70.2066 303.262 72.7163Z" fill="white"/>
<path d="M361.524 153.201C361.524 154.376 361.045 155.448 360.265 156.223C359.495 157.004 358.423 157.482 357.248 157.482H265.717C263.366 157.482 261.439 155.556 261.439 153.2C261.439 152.024 261.919 150.953 262.699 150.178C263.47 149.397 264.542 148.918 265.717 148.918H270.043C271.752 144.947 275.698 142.173 280.291 142.173C283.382 142.173 286.178 143.432 288.202 145.462C290.899 140.888 295.872 137.817 301.565 137.817C303.131 137.817 304.637 138.053 306.06 138.483C309.038 132.883 314.925 129.07 321.71 129.07C329.859 129.07 336.714 134.572 338.783 142.059C340.285 141.309 341.979 140.879 343.776 140.879C348.858 140.879 353.145 144.272 354.493 148.919H357.249C359.598 148.919 361.524 150.845 361.524 153.201Z" fill="white"/>
<path d="M38.3015 115.773C38.3015 116.948 38.7808 118.02 39.5604 118.796C40.3309 119.576 41.4027 120.055 42.5776 120.055H134.109C136.46 120.055 138.386 118.128 138.386 115.772C138.386 114.596 137.907 113.526 137.126 112.75C136.356 111.969 135.284 111.49 134.109 111.49H129.782C128.073 107.519 124.128 104.745 119.534 104.745C116.443 104.745 113.647 106.004 111.623 108.034C108.926 103.461 103.954 100.389 98.26 100.389C96.6947 100.389 95.1881 100.626 93.7655 101.055C90.7877 95.4556 84.9008 91.6426 78.1151 91.6426C69.9663 91.6426 63.1118 97.1442 61.042 104.632C59.5405 103.881 57.8468 103.452 56.049 103.452C50.967 103.452 46.6808 106.844 45.3319 111.491H42.5766C40.2277 111.491 38.3015 113.417 38.3015 115.773Z" fill="white"/>
<path d="M223.696 362.13C223.873 359.188 224.04 356.388 224.193 353.792C224.817 343.18 225.219 335.938 225.219 335.938L221.063 335.752L218.72 335.645L190.466 334.391C190.466 334.391 189.951 342.492 189.346 354.388C189.221 356.823 189.094 359.416 188.965 362.131H223.696V362.13Z" fill="white"/>
<path d="M221.062 335.752L225.218 335.938C225.218 335.938 224.816 343.181 224.192 353.792C213.337 354.697 201.484 355.065 189.344 354.387C189.949 342.491 190.464 334.39 190.464 334.39L218.718 335.644L221.062 335.752Z" fill="white"/>
<path d="M219.579 362.13C220.234 350.794 220.772 341.084 221.064 335.752L218.721 335.646C218.428 341.002 217.888 350.757 217.231 362.13H219.579Z" fill="white"/>
<path d="M232.802 362.13H267.534C267.405 359.415 267.277 356.821 267.153 354.387C266.548 342.491 266.033 334.39 266.033 334.39L237.778 335.644L235.435 335.751L231.279 335.937C231.279 335.937 231.681 343.18 232.305 353.791C232.457 356.388 232.624 359.189 232.802 362.13Z" fill="white"/>
<path d="M235.435 335.752L231.279 335.938C231.279 335.938 231.681 343.181 232.305 353.792C243.16 354.697 255.013 355.065 267.153 354.387C266.548 342.491 266.033 334.39 266.033 334.39L237.778 335.644L235.435 335.752Z" fill="white"/>
<path d="M239.267 362.13C238.61 350.757 238.07 341.002 237.777 335.646L235.434 335.752C235.726 341.083 236.264 350.794 236.919 362.13H239.267Z" fill="white"/>
<path d="M270.046 330.467C270.046 333.805 270.038 336.452 270.016 338.239C262.11 340.367 254.208 341.911 246.307 342.856C246.098 342.881 245.885 342.907 245.674 342.932C245.322 342.973 244.972 343.016 244.625 343.055C244.536 343.063 244.449 343.073 244.361 343.08C242.987 343.228 241.624 343.361 240.251 343.475C237.403 343.71 233.26 343.912 230.412 343.991L228.203 330.832L225.992 343.991C224.359 343.966 221.504 343.914 219.87 343.84C219.27 343.81 218.678 343.782 218.083 343.743C217.552 343.718 217.011 343.682 216.477 343.644C216.235 343.631 215.992 343.616 215.75 343.599C215.296 343.565 214.849 343.532 214.395 343.497C204.408 342.69 194.43 340.942 184.449 338.239C184.398 334.305 184.346 326.299 184.333 315.965C184.333 315.399 184.331 314.825 184.333 314.242C184.32 302.847 184.364 288.864 184.499 274.461C184.512 273.323 184.524 272.182 184.538 271.039C184.551 269.497 184.568 267.945 184.589 266.388C184.594 266.075 184.597 265.763 184.602 265.449C184.607 264.824 184.615 264.196 184.628 263.57C184.641 262.659 184.653 261.75 184.666 260.844C184.696 258.78 184.725 256.718 184.76 254.668C185.24 226.079 186.205 199.802 188.045 193.115C188.216 192.5 188.395 192.048 188.576 191.78C188.772 191.484 189.015 191.181 189.286 190.872C189.628 190.482 190.026 190.081 190.473 189.673C193.533 186.855 198.846 183.584 204.231 180.475C204.856 180.115 205.489 179.753 206.115 179.395C206.209 179.343 220.749 174.438 220.843 174.383L236.052 175.448C237.879 176.522 252.269 181.412 254.032 182.512C254.555 182.839 255.07 183.166 255.576 183.49C259.716 186.16 263.23 188.807 264.766 191.06C266.979 194.316 268.318 223.506 269.092 255.262C269.112 255.992 269.13 256.724 269.149 257.454C269.227 260.813 269.301 264.192 269.368 267.565C269.437 270.899 269.495 274.227 269.552 277.527C269.641 282.93 269.718 288.251 269.782 293.374C269.79 293.956 269.795 294.532 269.802 295.112C269.863 300.107 269.909 304.896 269.947 309.368C269.952 309.954 269.955 310.532 269.961 311.106C270.011 317.823 270.042 323.764 270.044 328.537V328.542C270.046 329.209 270.046 329.847 270.046 330.467Z" fill="white"/>
<path d="M228.964 197.286L237.812 271.96L228.237 290.441L218.409 271.96L227.784 197.308L228.964 197.286Z" fill="#EA0029"/>
<path d="M234.45 194.313L228.298 204.185L221.952 194.4L228.201 182.463L234.45 194.313Z" fill="#EA0029"/>
<path d="M219.465 173.188C219.465 173.188 213.995 173.129 212.142 177.542C212.142 177.542 211.581 191.074 221.953 194.4L228.201 182.463C228.201 182.463 220.414 180.06 219.465 173.188Z" fill="#DCDCDC"/>
<path d="M236.367 173.188C236.367 173.188 241.057 173.873 242.91 178.287C242.91 178.287 244.809 191.074 234.437 194.4L228.2 182.463C228.2 182.463 235.418 180.06 236.367 173.188Z" fill="#DCDCDC"/>
<path d="M230.411 298.138C230.411 299.359 229.421 300.348 228.201 300.348C226.98 300.348 225.99 299.359 225.99 298.138C225.99 296.918 226.98 295.928 228.201 295.928C229.421 295.928 230.411 296.917 230.411 298.138Z" fill="#C8C8C8"/>
<path d="M230.411 315.752C230.411 316.973 229.421 317.963 228.201 317.963C226.98 317.963 225.99 316.973 225.99 315.752C225.99 314.532 226.98 313.542 228.201 313.542C229.421 313.543 230.411 314.532 230.411 315.752Z" fill="#C8C8C8"/>
<path d="M248.862 238.88H247.958C243.047 238.88 239.065 234.899 239.065 229.988V218.566H257.755V229.988C257.755 234.898 253.773 238.88 248.862 238.88Z" fill="#C8C8C8"/>
<path d="M207.266 135.607C207.266 135.607 207.609 127.502 206.517 124.275C204.584 118.568 205.514 114.184 209.784 112.819C214.671 111.257 210.652 107.856 215.367 106.367C220.082 104.877 221.228 108.893 224.087 107.36C226.948 105.827 227.917 104.722 230.752 104.34C235.059 103.761 235.331 107.865 238.303 107.318C243.241 106.408 246.001 109.593 247.005 112.819C248.008 116.044 247.243 116.959 249.525 117.906C252.919 119.312 252.298 124.895 250.436 127.253C248.576 129.61 248.881 130.544 248.749 134.275C248.617 138.005 207.266 135.607 207.266 135.607Z" fill="#323232"/>
<path d="M246.639 142.845C246.639 142.845 250.209 138.087 252.862 142.022C255.516 145.957 251.764 157.579 245.266 154.742L246.639 142.845Z" fill="#FB9E82"/>
<path d="M246.686 151.149C246.926 151.149 247.146 150.991 247.215 150.749C248.222 147.16 251.939 145.706 251.976 145.692C252.259 145.584 252.402 145.268 252.294 144.985C252.187 144.701 251.87 144.559 251.587 144.665C251.413 144.731 247.317 146.32 246.157 150.453C246.075 150.745 246.246 151.047 246.537 151.129C246.587 151.142 246.636 151.149 246.686 151.149Z" fill="#FC7972"/>
<path d="M250.437 149.343C250.54 149.343 250.643 149.315 250.735 149.255C250.989 149.09 251.063 148.752 250.898 148.496C250.871 148.453 250.214 147.45 248.838 146.834C248.563 146.71 248.236 146.834 248.113 147.111C247.989 147.388 248.113 147.713 248.39 147.836C249.454 148.313 249.97 149.082 249.975 149.09C250.08 149.254 250.257 149.343 250.437 149.343Z" fill="#FC7972"/>
<path d="M209.86 142.845C209.86 142.845 206.292 138.087 203.638 142.022C200.984 145.957 204.736 157.579 211.234 154.742L209.86 142.845Z" fill="#FB9E82"/>
<path d="M209.814 151.149C209.574 151.149 209.354 150.991 209.285 150.749C208.278 147.16 204.561 145.706 204.524 145.692C204.24 145.584 204.098 145.268 204.205 144.985C204.312 144.701 204.63 144.559 204.912 144.665C205.086 144.731 209.182 146.32 210.342 150.453C210.424 150.745 210.254 151.047 209.961 151.129C209.913 151.142 209.863 151.149 209.814 151.149Z" fill="#FC7972"/>
<path d="M206.061 149.343C205.959 149.343 205.857 149.315 205.764 149.255C205.509 149.09 205.436 148.752 205.6 148.496C205.628 148.453 206.285 147.45 207.661 146.834C207.937 146.71 208.263 146.834 208.386 147.111C208.51 147.388 208.386 147.713 208.109 147.836C207.045 148.313 206.528 149.082 206.524 149.09C206.419 149.254 206.242 149.343 206.061 149.343Z" fill="#FC7972"/>
<path d="M219.465 164.6V176.157C219.465 176.157 222.912 182.043 227.574 182.444C232.23 182.851 236.369 177.376 236.369 177.376V165.413L219.465 164.6Z" fill="#FDBEAB"/>
<path d="M219.465 164.6V169.728C222.593 173.198 228.148 174.066 236.368 172.853V165.413L219.465 164.6Z" fill="#FB9E82"/>
<path d="M207.282 134.919C207.494 139.411 207.921 145.029 208.78 149.516V149.529C208.78 149.543 208.784 149.556 208.789 149.573C208.789 149.577 208.793 149.577 208.793 149.582C209.004 150.678 209.242 151.709 209.501 152.637C209.656 153.181 209.824 153.75 210.014 154.332C212.754 162.927 219.1 175.366 235.052 169.675C241.77 167.281 245.27 160.343 247.051 152.818C247.154 152.369 247.255 151.925 247.34 151.497C247.401 151.212 247.457 150.936 247.508 150.664L247.586 150.262C247.599 150.194 247.607 150.146 247.612 150.116C247.617 150.099 247.617 150.09 247.617 150.09C248.669 144.304 248.829 138.453 248.751 134.272C248.669 130.009 246.339 126.109 242.629 124.008C232.58 118.308 221.97 120.436 214.985 123.119C210.134 124.978 207.031 129.737 207.282 134.919Z" fill="#FDBEAB"/>
<path d="M208.774 149.515C208.774 149.515 208.774 149.519 208.778 149.528C208.778 149.541 208.783 149.554 208.788 149.571C208.788 149.575 208.792 149.575 208.792 149.58C208.895 149.956 209.456 152.013 210.013 154.331C212.753 162.925 219.099 175.364 235.051 169.674C241.769 167.279 245.268 160.341 247.05 152.816C247.153 152.367 247.253 151.923 247.339 151.496C247.4 151.21 247.456 150.934 247.507 150.662L247.585 150.261C247.598 150.192 247.606 150.145 247.611 150.114C247.615 150.097 247.615 150.088 247.615 150.088L245.268 149.614C244.819 151.836 243.828 153.928 242.61 155.788C240.625 151.033 230.555 154.191 230.555 154.191L230.508 154.208C229.895 154.399 229.265 154.498 228.631 154.498C227.98 154.498 227.333 154.394 226.703 154.191C226.703 154.191 216.753 150.895 214.691 155.43C212.628 152.237 211.23 149.342 211.23 149.342L208.779 149.515H208.774ZM228.605 156.345C239.991 154.809 238.201 160.94 238.201 160.94C236.937 162.091 235.78 162.933 235.003 163.368C232.518 164.754 230.072 165.279 228.298 165.193C226.551 165.12 226.072 165.479 221.654 163.088C220.874 162.67 220.084 162.049 219.311 161.311C219.311 161.311 219.311 161.311 219.307 161.311V161.307C219.116 160.107 217.188 154.381 228.605 156.345Z" fill="#323232"/>
<path d="M218.286 143.277C218.286 144.51 218.922 145.51 219.707 145.51C220.491 145.51 221.127 144.51 221.127 143.277C221.127 142.043 220.491 141.043 219.707 141.043C218.922 141.043 218.286 142.043 218.286 143.277Z" fill="#323232"/>
<path d="M236.041 143.277C236.041 144.51 236.677 145.51 237.46 145.51C238.245 145.51 238.881 144.51 238.881 143.277C238.881 142.043 238.245 141.043 237.46 141.043C236.676 141.043 236.041 142.043 236.041 143.277Z" fill="#323232"/>
<path d="M214.65 135.745C214.65 135.745 220.519 133.425 225.038 135.378L224.586 137.89C224.586 137.89 217.954 137.329 214.612 138.683C214.314 137.716 214.269 136.739 214.65 135.745Z" fill="#323232"/>
<path d="M242.555 135.755C242.555 135.755 236.642 133.418 232.091 135.385L232.546 137.917C232.546 137.917 239.227 137.352 242.593 138.716C242.894 137.742 242.939 136.757 242.555 135.755Z" fill="#323232"/>
<path d="M228.059 153.261C227.133 153.261 226.214 152.901 226.072 152.842C225.792 152.728 225.657 152.407 225.772 152.126C225.886 151.845 226.206 151.711 226.487 151.825C226.983 152.026 228.173 152.342 228.689 152.033C228.788 151.974 228.924 151.855 228.959 151.522C229.157 149.605 228.632 143.178 228.627 143.113C228.602 142.811 228.827 142.546 229.13 142.52C229.433 142.495 229.697 142.721 229.722 143.023C229.744 143.291 230.261 149.617 230.052 151.635C229.973 152.394 229.575 152.784 229.253 152.976C228.902 153.187 228.48 153.261 228.059 153.261Z" fill="#FB9E82"/>
<path d="M235.059 157.442C234.642 159.539 233.256 163.398 228.59 163.398C223.911 163.398 222.599 159.872 222.149 157.442H235.059Z" fill="white"/>
<path d="M207.28 134.917C207.494 139.408 207.922 145.025 208.779 149.516L211.233 149.342C211.233 149.342 210.639 145.549 210.364 143.079C210.09 140.608 209.623 135.99 211.732 135.413C213.834 134.842 212.601 129.574 215.527 127.29C218.453 125.001 224.999 124.373 229.315 127.03C233.63 129.682 238.494 126.829 240.482 127.29C242.475 127.746 245.176 130.491 244.446 133.055C243.71 135.614 245.906 137.174 246.439 139.825C246.972 142.477 245.269 149.615 245.269 149.615L247.614 150.087C248.669 144.3 248.828 138.452 248.751 134.274C248.669 130.008 246.34 126.109 242.628 124.007C232.575 118.308 221.968 120.432 214.984 123.117C210.134 124.978 207.032 129.739 207.28 134.917Z" fill="#323232"/>
<path d="M191.717 188.6C191.717 188.6 177.278 198.237 167.996 201.102L174.212 227.147C174.212 227.147 175.069 226.791 185.601 222.316L191.717 188.6Z" fill="white"/>
<path d="M262.52 188.6C262.52 188.6 290.122 202.747 299.403 205.613C295.853 212.016 293.587 217.968 290.564 226.551C290.564 226.551 277.303 223.042 266.77 218.567L262.52 188.6Z" fill="white"/>
<path d="M374.674 362.304C374.163 352.641 373.762 346.328 373.762 346.328L345.432 347.587L343.083 347.693L338.916 347.879C338.916 347.879 339.233 353.592 339.74 362.304H374.674Z" fill="#375BC7"/>
<path d="M374.674 362.304C374.163 352.641 373.762 346.328 373.762 346.328L345.432 347.587L343.083 347.693L338.916 347.879C338.916 347.879 339.233 353.592 339.74 362.304H374.674Z" fill="white"/>
<path d="M346.249 362.304C345.899 356.112 345.616 350.973 345.431 347.588L343.082 347.694C343.266 351.056 343.548 356.155 343.895 362.304H346.249Z" fill="#C8C8C8"/>
<path d="M330.823 362.304C331.334 353.591 331.649 347.879 331.649 347.879L327.127 347.678L324.781 347.572L296.799 346.328C296.799 346.328 296.491 351.168 296.071 358.863C296.011 359.953 295.949 361.105 295.887 362.304H330.823Z" fill="white"/>
<path d="M326.313 362.305C326.661 356.147 326.942 351.041 327.125 347.678L324.779 347.572C324.594 350.958 324.31 356.102 323.96 362.304H326.313V362.305Z" fill="#C8C8C8"/>
<path d="M313.143 140.117C313.143 152.886 321.004 161.684 333.767 161.684C346.536 161.684 355.437 152.224 355.437 139.456C355.437 135.934 354.863 132.646 353.757 129.737C353.693 129.564 353.627 129.39 353.557 129.222C353.422 128.891 353.281 128.561 353.13 128.241C352.907 127.748 352.658 127.267 352.398 126.8C349.072 120.82 343.113 117.017 335.106 117.017C319.796 117.017 313.143 127.347 313.143 140.117Z" fill="#323232"/>
<path d="M320.907 120.421C320.907 127.815 326.901 133.81 334.296 133.81C341.691 133.81 347.685 127.816 347.685 120.421C347.685 113.026 341.691 107.031 334.296 107.031C326.902 107.031 320.907 113.026 320.907 120.421Z" fill="#323232"/>
<path d="M316.01 145.615C316.01 145.615 312.463 140.885 309.825 144.796C307.187 148.707 310.916 160.258 317.374 157.439L316.01 145.615Z" fill="#FB9E82"/>
<path d="M315.964 153.868C315.726 153.868 315.507 153.711 315.438 153.47C314.437 149.904 310.743 148.458 310.705 148.444C310.424 148.336 310.283 148.021 310.389 147.74C310.495 147.459 310.81 147.316 311.092 147.423C311.264 147.489 315.335 149.068 316.489 153.176C316.57 153.466 316.401 153.767 316.111 153.848C316.063 153.861 316.013 153.868 315.964 153.868Z" fill="#FC7972"/>
<path d="M312.235 152.072C312.134 152.072 312.032 152.043 311.94 151.985C311.687 151.822 311.613 151.484 311.776 151.23C311.803 151.189 312.456 150.191 313.825 149.579C314.099 149.456 314.422 149.579 314.545 149.854C314.669 150.129 314.545 150.452 314.27 150.575C313.213 151.048 312.699 151.814 312.694 151.822C312.59 151.984 312.414 152.072 312.235 152.072Z" fill="#FC7972"/>
<path d="M352.567 145.615C352.567 145.615 356.114 140.885 358.752 144.796C361.39 148.707 357.66 160.258 351.203 157.439L352.567 145.615Z" fill="#FB9E82"/>
<path d="M352.613 153.868C352.852 153.868 353.07 153.711 353.138 153.47C354.139 149.904 357.834 148.458 357.871 148.444C358.152 148.336 358.294 148.021 358.187 147.74C358.081 147.459 357.765 147.316 357.484 147.423C357.311 147.489 353.24 149.068 352.087 153.176C352.006 153.466 352.175 153.767 352.465 153.848C352.514 153.861 352.565 153.868 352.613 153.868Z" fill="#FC7972"/>
<path d="M356.342 152.072C356.443 152.072 356.546 152.043 356.637 151.985C356.891 151.822 356.964 151.484 356.801 151.23C356.774 151.189 356.121 150.191 354.753 149.579C354.479 149.456 354.155 149.579 354.032 149.854C353.908 150.129 354.032 150.452 354.307 150.575C355.364 151.048 355.878 151.814 355.883 151.822C355.987 151.984 356.163 152.072 356.342 152.072Z" fill="#FC7972"/>
<path d="M343.02 167.235V178.723C343.02 178.723 339.595 184.573 334.961 184.972C330.334 185.375 326.22 179.934 326.22 179.934V168.043L343.02 167.235Z" fill="#FDBEAB"/>
<path d="M343.02 167.235V172.332C339.912 175.783 334.39 176.644 326.22 175.438V168.043L343.02 167.235Z" fill="#FB9E82"/>
<path d="M313.913 140.658C313.917 140.867 313.922 141.08 313.926 141.298C313.94 141.856 313.958 142.424 313.985 143.009C313.998 143.304 314.012 143.6 314.03 143.894C314.048 144.193 314.061 144.493 314.085 144.797C314.085 144.81 314.085 144.846 314.09 144.897C314.108 145.165 314.13 145.433 314.148 145.71C314.321 147.957 314.593 150.313 315.015 152.658C315.024 152.708 315.033 152.763 315.042 152.813C315.11 153.194 315.188 153.576 315.265 153.957C316.908 162.022 320.389 169.734 327.528 172.28C344.457 178.325 350.503 163.81 352.921 155.346C353.14 154.579 353.344 153.734 353.52 152.846C353.562 152.65 353.602 152.45 353.638 152.247C353.647 152.197 353.657 152.147 353.666 152.092C354.492 147.695 354.914 142.252 355.127 137.863C355.127 137.818 355.131 137.778 355.131 137.736C355.376 132.589 352.289 127.855 347.474 126.008C340.53 123.339 329.987 121.224 319.998 126.889C316.308 128.981 313.993 132.857 313.912 137.096C313.895 138.18 313.891 139.378 313.913 140.658Z" fill="#FDBEAB"/>
<path d="M315.016 152.659C315.025 152.708 315.034 152.763 315.043 152.813C316.586 161.283 320.053 169.61 327.528 172.28C344.458 178.325 350.504 163.81 352.922 155.346C353.19 154.407 353.431 153.358 353.639 152.246C353.648 152.196 353.657 152.146 353.666 152.091L351.846 151.964C351.846 151.964 350.417 154.923 348.31 158.181C346.204 153.552 336.038 156.919 336.038 156.919C335.398 157.124 334.736 157.228 334.069 157.228C333.424 157.228 332.779 157.128 332.153 156.933L332.104 156.919C332.104 156.919 321.82 153.693 319.79 158.548C318.547 156.646 317.534 154.509 317.076 152.24L315.016 152.659ZM334.096 159.117C345.76 157.111 343.791 162.961 343.595 164.187V164.191C343.591 164.191 343.591 164.191 343.591 164.191C342.802 164.944 341.994 165.58 341.199 166.006C336.683 168.447 336.193 168.079 334.409 168.157C332.598 168.243 330.098 167.708 327.561 166.292C326.767 165.847 325.586 164.989 324.293 163.809C324.293 163.809 322.464 157.546 334.096 159.117Z" fill="#323232"/>
<path d="M327.03 147.113C327.03 148.34 326.398 149.333 325.619 149.333C324.839 149.333 324.207 148.34 324.207 147.113C324.207 145.887 324.839 144.893 325.619 144.893C326.398 144.893 327.03 145.888 327.03 147.113Z" fill="#323232"/>
<path d="M343.667 147.067C343.667 148.294 343.035 149.288 342.256 149.288C341.476 149.288 340.844 148.294 340.844 147.067C340.844 145.841 341.476 144.847 342.256 144.847C343.036 144.847 343.667 145.842 343.667 147.067Z" fill="#323232"/>
<path d="M346.857 139.438C346.857 139.438 342.403 137.677 338.975 139.158L339.317 141.065C339.317 141.065 344.351 140.64 346.887 141.668C347.114 140.934 347.148 140.192 346.857 139.438Z" fill="#323232"/>
<path d="M320.908 139.438C320.908 139.438 325.362 137.677 328.791 139.158L328.448 141.065C328.448 141.065 323.414 140.64 320.878 141.668C320.652 140.934 320.619 140.192 320.908 139.438Z" fill="#323232"/>
<path d="M334.965 156.419C335.885 156.419 336.798 156.061 336.94 156.003C337.219 155.889 337.353 155.571 337.239 155.292C337.125 155.013 336.806 154.88 336.528 154.993C336.034 155.193 334.851 155.507 334.339 155.2C334.24 155.141 334.105 155.023 334.071 154.692C333.874 152.786 334.395 146.398 334.4 146.334C334.425 146.033 334.202 145.769 333.901 145.745C333.6 145.72 333.338 145.944 333.312 146.245C333.29 146.512 332.778 152.799 332.985 154.804C333.063 155.559 333.459 155.945 333.779 156.137C334.127 156.345 334.547 156.419 334.965 156.419Z" fill="#FB9E82"/>
<path d="M327.15 160.587C328.057 163.736 330.637 166.877 334.189 166.92C337.738 166.877 340.316 163.735 341.224 160.587H327.15Z" fill="white"/>
<path d="M313.913 140.658C313.917 140.867 313.922 141.08 313.926 141.298C313.94 141.856 313.962 142.429 313.984 143.009C313.998 143.304 314.012 143.6 314.03 143.894C314.048 144.193 314.061 144.493 314.085 144.797C314.085 144.81 314.085 144.846 314.09 144.897C314.108 145.165 314.13 145.433 314.148 145.71C314.321 147.957 314.593 150.313 315.015 152.658C315.024 152.708 315.033 152.763 315.042 152.813C315.11 153.194 315.188 153.576 315.265 153.957L317.143 152.554C317.025 151.338 316.058 143.368 316.209 142.615C316.74 139.978 319.899 137.16 319.169 134.618C318.443 132.067 317.358 128.781 319.336 128.327C321.311 127.869 329.453 127.797 334.523 127.959C339.556 128.123 346.795 127.146 349.704 129.426C352.613 131.695 344.262 136.247 350.707 138.226C352.744 138.852 352.042 149.482 351.769 151.965L353.521 152.846C353.562 152.65 353.603 152.45 353.639 152.247C353.648 152.197 353.657 152.147 353.667 152.092C354.493 147.695 354.915 142.252 355.128 137.863C355.128 137.818 355.132 137.778 355.132 137.736C355.377 132.589 352.29 127.855 347.475 126.008C340.531 123.339 329.988 121.224 319.999 126.889C316.309 128.981 313.994 132.857 313.913 137.096C313.894 138.18 313.89 139.378 313.913 140.658Z" fill="#323232"/>
<path d="M343.358 178.964C344.783 179.967 346.618 181.142 349.263 182.572C350.611 183.303 352.073 184.079 353.598 184.886C355.954 186.125 358.459 187.442 360.942 188.785L360.946 188.789C364.627 190.777 368.248 192.833 371.257 194.79C374.262 196.755 376.649 198.63 377.83 200.254C379.532 202.605 380.635 217.818 381.343 237.843C381.37 238.542 381.392 239.254 381.419 239.971C381.424 240.057 381.423 240.139 381.423 240.23C381.451 240.961 381.473 241.705 381.496 242.455C381.564 244.705 381.633 247.007 381.695 249.349C381.714 249.843 381.723 250.338 381.732 250.837C381.745 251.209 381.754 251.581 381.759 251.953C381.832 254.822 381.896 257.744 381.954 260.7C381.995 262.724 382.036 264.761 382.068 266.809C382.689 302.51 382.54 341.23 382.394 351.759C374.678 353.71 366.958 355.18 359.242 356.175H359.238C357.227 356.434 355.212 356.661 353.207 356.856C352.535 356.92 351.863 356.978 351.196 357.033C347.579 357.341 343.961 357.55 340.344 357.655C334.367 357.822 328.389 357.7 322.407 357.296C318.3 357.019 314.188 356.606 310.081 356.057C302.629 355.063 295.175 353.628 287.718 351.759C287.582 339.2 287.877 285.517 289.38 245.364C289.407 244.72 289.43 244.084 289.452 243.449C290.351 220.32 291.658 202.079 293.532 199.506C295.792 196.41 301.92 192.588 308.401 188.944C311.038 187.46 313.734 186.008 316.254 184.646C320.411 182.399 324.092 180.389 326.216 178.901C326.216 178.901 330.333 185.377 334.963 184.973C339.179 184.61 342.462 179.614 343.02 178.725L343.358 178.964Z" fill="white"/>
<path d="M359.651 326.739H359.648C344.102 326.671 330.832 319.597 322.439 313.674C313.361 307.269 307.859 300.779 307.805 300.715C307.539 300.399 307.579 299.927 307.896 299.661C308.212 299.395 308.684 299.436 308.949 299.751C309.003 299.815 314.404 306.181 323.336 312.476C331.547 318.264 344.514 325.177 359.655 325.243C360.068 325.245 360.401 325.582 360.4 325.994C360.397 326.407 360.062 326.739 359.651 326.739Z" fill="#C8C8C8"/>
<path d="M343.449 332.021C329.96 332.021 316.507 324.335 315.896 323.98C315.539 323.772 315.416 323.315 315.623 322.957C315.829 322.599 316.287 322.478 316.644 322.684C316.802 322.775 332.631 331.815 346.666 330.363C347.082 330.315 347.444 330.62 347.487 331.03C347.529 331.441 347.231 331.809 346.819 331.851C345.701 331.968 344.575 332.021 343.449 332.021Z" fill="#C8C8C8"/>
<path d="M323.111 204.51C322.758 204.51 322.445 204.261 322.377 203.902C322.3 203.496 322.566 203.104 322.973 203.027C341.926 199.431 347.638 187.238 347.694 187.115C347.864 186.739 348.307 186.571 348.684 186.742C349.06 186.912 349.227 187.354 349.057 187.732C348.817 188.261 342.962 200.757 323.252 204.497C323.204 204.506 323.157 204.51 323.111 204.51Z" fill="#C8C8C8"/>
<path d="M361 243.216H360.096C355.184 243.216 351.203 239.235 351.203 234.324V222.902H369.892V234.324C369.893 239.235 365.911 243.216 361 243.216Z" fill="#C8C8C8"/>
<path d="M263.48 362.305C263.473 362.264 263.469 362.226 263.462 362.186C262.021 353.689 266.114 345.995 267.88 346.241C269.649 346.491 266.417 355.52 267.99 358.774C269.557 362.028 271.586 355.704 273.607 351.871C275.702 347.888 275.578 339.197 274.626 332.997C273.673 326.793 284.915 289.119 284.972 278.202L286.342 273.573L291.357 256.628L299.209 230.09C299.209 230.09 294.506 210.004 286.574 211.73C286.574 211.73 282.376 225.721 277.889 241.499C277.129 244.178 276.361 246.909 275.601 249.632C272.403 261.072 269.4 272.366 268.004 279.067C264.315 296.76 264.03 333.537 264.03 333.537C264.03 333.537 257.522 347.049 257.369 353.061C257.282 356.499 258.209 359.56 259.028 362.306H263.48V362.305Z" fill="#FDBEAB"/>
<path d="M275.6 249.63L286.341 273.571L291.356 256.626L277.888 241.498C277.128 244.177 276.36 246.908 275.6 249.63Z" fill="#FB9E82"/>
<path d="M275.068 242.499C279.78 250.579 284.571 258.615 289.344 266.665C290.916 261.4 292.545 256.345 294.073 251.699C294.077 251.686 294.082 251.677 294.086 251.664C294.697 249.806 295.294 248.015 295.865 246.302C295.874 246.27 295.883 246.24 295.896 246.214C296.093 245.612 296.287 245.02 296.485 244.439V244.435C298.764 237.545 300.529 232.069 301.034 228.877C302.395 220.283 299.209 205.035 294.481 200.7L293.943 200.291C293.637 200.109 293.52 199.836 293.177 200.189C291.566 201.845 287.671 207.426 285.654 212.529C285.396 213.179 285.133 213.855 284.86 214.544C281.941 222.048 278.37 231.81 275.068 242.499Z" fill="white"/>
<path d="M288.626 271.413C290.18 264.989 292.135 257.849 294.071 251.696C294.075 251.683 294.08 251.674 294.084 251.661C294.682 249.76 295.278 247.955 295.863 246.299C295.872 246.268 295.88 246.237 295.893 246.211C296.073 245.688 296.258 245.184 296.437 244.691C296.463 244.603 296.481 244.52 296.481 244.436V244.432C296.481 244.138 296.296 243.862 296.002 243.752C295.62 243.615 295.198 243.808 295.062 244.191C293.077 249.601 290.732 257.391 288.721 265.032C288.688 267.149 288.656 269.28 288.626 271.413Z" fill="#C8C8C8"/>
<path d="M375.365 244.435V244.439C375.365 244.521 375.383 244.603 375.411 244.693C375.593 245.183 375.774 245.687 375.955 246.209C375.969 246.236 375.978 246.267 375.987 246.3C376.573 247.956 377.167 249.758 377.766 251.66C377.77 251.674 377.775 251.683 377.779 251.696C379.258 256.407 380.756 261.703 382.068 266.81C382.037 264.763 381.995 262.725 381.955 260.7C380.244 254.532 378.393 248.578 376.786 244.188C376.649 243.807 376.228 243.617 375.847 243.753C375.551 243.863 375.365 244.14 375.365 244.435Z" fill="#C8C8C8"/>
<path d="M410.777 261.203C406.622 252.333 378.102 200.749 378.102 200.749C372.722 203.951 381.827 254.694 381.827 254.694L393.141 283.579C395.734 290.4 403.811 293.27 410.133 289.628C410.241 289.566 410.35 289.503 410.459 289.438C421.366 282.96 410.777 261.203 410.777 261.203Z" fill="#FDBEAB"/>
<path d="M378.1 200.749L404.452 238.426C404.452 238.426 393.976 261.265 381.949 260.397C381.949 260.397 367.12 208.475 378.1 200.749Z" fill="white"/>
<path d="M411.438 237.529L411.107 241.338L410.543 247.76L410.434 248.992L409.961 254.455L409.436 260.397L409.414 260.677L408.82 267.486L408.296 273.554L407.64 281.082H386.716L386.562 279.359L385.929 272.037L385.542 267.623L384.914 260.397L384.903 260.278L384.515 255.875L383.922 248.992L383.877 248.496L383.494 244.116L382.918 237.529H411.438Z" fill="#EA0029"/>
<path d="M410.434 248.991L409.961 254.454L409.436 260.397H384.914L384.903 260.278L384.514 255.875L383.922 248.991H410.434Z" fill="white"/>
<path d="M412.902 231.959H381.455V237.527H412.902V231.959Z" fill="#FF7991"/>
<path d="M410.532 231.96H383.824V228.725C383.824 227.9 384.493 227.23 385.318 227.23H409.037C409.863 227.23 410.532 227.9 410.532 228.725V231.96Z" fill="#EA0029"/>
<path d="M412.152 241.515C412.152 241.515 408.187 241.781 402.505 243.109C399.62 243.784 393.349 247.564 396.025 248.955C398.138 250.052 407.632 247.396 409.509 248.259C409.509 248.259 405.02 249.179 401.196 249.769C397.738 250.302 392.396 252.319 394.475 253.422C396.44 254.464 401.365 254.038 403.119 254.084C405.449 254.145 408.397 254.104 408.397 254.104C408.397 254.104 404.679 254.723 400.298 256.046C398.294 256.651 392.509 257.235 394.347 259.848C395.27 261.159 403.079 260.213 407.001 260.563C407.001 260.563 399.776 261.787 397.681 263.752C396.024 265.305 398.281 265.515 401.197 265.723C404.958 265.992 406.112 265.723 408.396 265.723C410.68 265.723 414.523 264.105 414.604 261.762C414.686 259.419 413.377 258.438 413.786 256.966C414.195 255.494 415.145 253.243 414.607 251.951C414.069 250.659 414.231 249.574 414.767 247.891C415.296 246.24 414.358 242.197 412.152 241.515Z" fill="#FDBEAB"/>
<path d="M336.627 147.929C336.627 144.178 339.679 141.126 343.43 141.126C347.181 141.126 350.233 144.178 350.233 147.929C350.233 151.68 347.181 154.732 343.43 154.732C339.68 154.732 336.627 151.68 336.627 147.929ZM337.688 147.929C337.688 151.096 340.263 153.672 343.43 153.672C346.597 153.672 349.172 151.096 349.172 147.929C349.172 144.762 346.596 142.187 343.43 142.187C340.263 142.186 337.688 144.762 337.688 147.929Z" fill="white"/>
<path d="M318.032 147.929C318.032 144.178 321.084 141.126 324.835 141.126C328.587 141.126 331.638 144.178 331.638 147.929C331.638 151.68 328.587 154.732 324.835 154.732C321.084 154.732 318.032 151.68 318.032 147.929ZM319.093 147.929C319.093 151.096 321.669 153.672 324.835 153.672C328.002 153.672 330.577 151.096 330.577 147.929C330.577 144.762 328.001 142.187 324.835 142.187C321.668 142.186 319.093 144.762 319.093 147.929Z" fill="white"/>
<path d="M355.602 142.786C355.602 142.494 355.366 142.253 355.075 142.251C351.384 142.218 348.832 144.709 348.709 144.831C348.502 145.037 348.501 145.373 348.707 145.581C348.81 145.685 348.946 145.737 349.083 145.737C349.217 145.737 349.353 145.685 349.456 145.583C349.482 145.557 351.805 143.305 355.062 143.318C355.359 143.319 355.602 143.083 355.602 142.786Z" fill="white"/>
<path d="M319.346 144.763C319.194 144.663 316.423 142.876 313.314 142.29C312.987 142.228 312.684 142.481 312.684 142.813C312.684 143.066 312.861 143.286 313.109 143.333C316.027 143.886 318.731 145.627 318.766 145.651C318.855 145.709 318.956 145.737 319.055 145.737C319.228 145.737 319.398 145.652 319.5 145.496C319.661 145.252 319.592 144.924 319.346 144.763Z" fill="white"/>
<path d="M331.264 146.4C331.276 146.384 332.536 144.68 334.192 144.68C335.832 144.68 336.971 146.381 336.982 146.398L337.87 145.817C337.811 145.727 336.412 143.619 334.192 143.619C331.988 143.619 330.467 145.691 330.403 145.78L331.264 146.4Z" fill="white"/>
<path d="M155.994 220.986L169.46 269.951L169.725 270.844C169.725 271.066 169.733 271.295 169.742 271.54C170.232 283.409 181.144 320.174 180.199 326.326C179.234 332.608 179.112 341.405 181.23 345.437C183.275 349.32 185.33 355.72 186.92 352.427C188.509 349.13 185.239 339.989 187.027 339.739C188.818 339.486 192.961 347.279 191.498 355.882C190.039 364.485 195.21 366.79 194.819 362.544C194.432 358.295 197.839 353.131 197.673 346.643C197.516 340.554 190.928 326.875 190.928 326.875C190.928 326.875 190.64 289.635 186.908 271.722C183.172 253.809 168.333 197.545 168.333 197.545C159.95 206.432 155.994 220.986 155.994 220.986Z" fill="#FDBEAB"/>
<path d="M169.469 269.979L169.726 270.844C169.726 271.058 169.733 271.28 169.741 271.517C172.344 270.622 174.845 269.865 176.688 269.517C177.101 269.44 177.381 269.039 177.3 268.622C177.223 268.198 176.822 267.923 176.405 268.011C174.532 268.365 172.05 269.1 169.469 269.979Z" fill="#FB9E82"/>
<path d="M173.383 362.101C172.865 358.772 172.359 355.424 171.869 352.109C171.543 349.887 171.226 347.685 170.911 345.511C169.722 337.194 168.66 329.329 167.807 322.803C167.482 320.324 167.19 318.034 166.924 315.993C166.098 309.478 165.612 305.432 165.612 305.432L129.017 306.815L92.3095 305.432C92.3095 305.432 91.3631 313.439 89.8484 325.048C89.5713 327.161 89.2761 329.39 88.9657 331.716C88.1507 337.808 87.2194 344.536 86.2174 351.425C86.2022 351.526 86.1871 351.628 86.1719 351.729C85.8574 353.875 85.5399 356.037 85.2103 358.199C85.2063 358.228 85.2032 358.255 85.1951 358.285V358.289C85.004 359.562 84.8099 360.834 84.6147 362.103H173.383V362.101Z" fill="white"/>
<path d="M100.746 316.423C100.746 318.328 99.2016 319.872 97.2967 319.872C95.3917 319.872 93.8477 318.328 93.8477 316.423C93.8477 314.518 95.3917 312.974 97.2967 312.974C99.2016 312.974 100.746 314.518 100.746 316.423Z" fill="#EA0029"/>
<path d="M109.305 329.785C109.305 331.69 107.761 333.234 105.856 333.234C103.951 333.234 102.407 331.69 102.407 329.785C102.407 327.88 103.951 326.336 105.856 326.336C107.76 326.336 109.305 327.88 109.305 329.785Z" fill="#EA0029"/>
<path d="M126.143 322.886C126.143 324.791 124.599 326.335 122.694 326.335C120.789 326.335 119.245 324.791 119.245 322.886C119.245 320.981 120.789 319.438 122.694 319.438C124.599 319.438 126.143 320.981 126.143 322.886Z" fill="#EA0029"/>
<path d="M99.5664 343.975C99.5664 345.88 98.0224 347.424 96.1175 347.424C94.2125 347.424 92.6685 345.88 92.6685 343.975C92.6685 342.07 94.2125 340.526 96.1175 340.526C98.0214 340.526 99.5664 342.07 99.5664 343.975Z" fill="#EA0029"/>
<path d="M120.608 342.501C120.608 344.406 119.064 345.95 117.159 345.95C115.254 345.95 113.71 344.406 113.71 342.501C113.71 340.596 115.254 339.052 117.159 339.052C119.064 339.051 120.608 340.596 120.608 342.501Z" fill="#EA0029"/>
<path d="M92.0932 328.282C92.0932 330.077 90.7242 331.554 88.9668 331.716C89.2772 329.39 89.5725 327.161 89.8495 325.048C91.162 325.537 92.0932 326.798 92.0932 328.282Z" fill="#EA0029"/>
<path d="M154.833 362.101C154.524 360.514 153.127 359.315 151.449 359.315C149.77 359.315 148.374 360.514 148.065 362.101H154.833Z" fill="#EA0029"/>
<path d="M149.82 347.424C151.725 347.424 153.269 345.88 153.269 343.975C153.269 342.071 151.725 340.526 149.82 340.526C147.915 340.526 146.371 342.071 146.371 343.975C146.371 345.88 147.915 347.424 149.82 347.424Z" fill="#EA0029"/>
<path d="M171.869 352.109C171.453 352.285 170.994 352.382 170.515 352.382C168.611 352.382 167.067 350.837 167.067 348.934C167.067 347.03 168.612 345.486 170.515 345.486C170.65 345.486 170.78 345.493 170.911 345.513C171.226 347.686 171.543 349.888 171.869 352.109Z" fill="#EA0029"/>
<path d="M88.1963 354.869C88.1963 356.619 86.8909 358.066 85.1973 358.284C85.2043 358.253 85.2084 358.227 85.2124 358.198C85.5421 356.036 85.8596 353.874 86.174 351.728C87.3662 352.274 88.1963 353.474 88.1963 354.869Z" fill="#EA0029"/>
<path d="M111.071 358.332C111.071 360.237 109.527 361.781 107.622 361.781C105.717 361.781 104.173 360.237 104.173 358.332C104.173 356.427 105.717 354.883 107.622 354.883C109.527 354.883 111.071 356.427 111.071 358.332Z" fill="#EA0029"/>
<path d="M129.592 354.883C129.592 356.788 128.048 358.332 126.143 358.332C124.238 358.332 122.694 356.788 122.694 354.883C122.694 352.978 124.238 351.434 126.143 351.434C128.048 351.434 129.592 352.979 129.592 354.883Z" fill="#EA0029"/>
<path d="M137.93 336.683C137.93 338.588 136.386 340.132 134.481 340.132C132.576 340.132 131.032 338.588 131.032 336.683C131.032 334.778 132.576 333.234 134.481 333.234C136.385 333.234 137.93 334.778 137.93 336.683Z" fill="#EA0029"/>
<path d="M167.807 322.803C167.568 322.86 167.321 322.886 167.067 322.886C165.16 322.886 163.619 321.341 163.619 319.438C163.619 317.583 165.085 316.065 166.926 315.994C167.19 318.035 167.483 320.324 167.807 322.803Z" fill="#EA0029"/>
<path d="M149.82 322.886C149.82 324.791 148.276 326.335 146.371 326.335C144.466 326.335 142.922 324.791 142.922 322.886C142.922 320.981 144.466 319.438 146.371 319.438C148.275 319.438 149.82 320.981 149.82 322.886Z" fill="#EA0029"/>
<path d="M162.452 335.178C162.452 337.083 160.908 338.627 159.003 338.627C157.098 338.627 155.554 337.083 155.554 335.178C155.554 333.274 157.098 331.729 159.003 331.729C160.908 331.729 162.452 333.274 162.452 335.178Z" fill="#EA0029"/>
<path d="M167.245 306.337C147.939 318.941 112.493 317.953 90.2185 306.337C92.346 293.083 95.1478 279.814 94.5452 262.172C94.4774 260.239 94.3955 258.317 94.2985 256.413C94.2125 254.757 94.1155 253.11 94.0103 251.483C92.0881 222.136 87.08 198.141 89.5411 195.041C90.6149 193.683 92.4056 192.218 94.616 190.717C95.4835 190.127 96.4107 189.528 97.3905 188.929C99.702 187.52 102.271 186.098 104.852 184.715C110.974 181.446 117.19 178.414 120.305 176.342C123.394 177.688 125.855 178.425 128.506 178.41C128.577 178.41 128.656 178.41 128.735 178.402C128.806 178.41 128.884 178.41 128.955 178.41C131.606 178.425 134.068 177.688 137.161 176.342C140.051 178.264 145.493 180.946 151.047 183.87C155.127 186.02 159.267 188.302 162.491 190.516C164.6 191.964 166.324 193.385 167.378 194.716C168.598 196.253 168.085 202.992 167.042 212.978C166.009 222.803 164.465 235.776 163.53 250.038C163.272 253.998 163.059 258.056 162.916 262.173C162.319 279.814 165.117 293.083 167.245 306.337Z" fill="white"/>
<path d="M153.694 292.526H153.691C138.145 292.458 124.875 285.383 116.482 279.461C107.404 273.055 101.902 266.566 101.848 266.501C101.582 266.185 101.622 265.713 101.939 265.447C102.255 265.181 102.727 265.222 102.992 265.537C103.046 265.601 108.447 271.967 117.379 278.262C125.59 284.05 138.557 290.963 153.698 291.029C154.111 291.031 154.444 291.368 154.442 291.78C154.44 292.193 154.105 292.526 153.694 292.526Z" fill="#C8C8C8"/>
<path d="M137.493 297.808C124.004 297.808 110.551 290.12 109.94 289.766C109.582 289.559 109.46 289.102 109.667 288.744C109.873 288.386 110.331 288.266 110.688 288.471C110.847 288.562 126.675 297.602 140.71 296.15C141.126 296.102 141.488 296.405 141.531 296.817C141.573 297.228 141.275 297.596 140.863 297.638C139.745 297.754 138.619 297.808 137.493 297.808Z" fill="#C8C8C8"/>
<path d="M125.55 214.147C125.197 214.147 124.883 213.897 124.815 213.538C124.739 213.133 125.005 212.742 125.411 212.664C144.365 209.067 150.077 196.875 150.132 196.752C150.302 196.375 150.745 196.208 151.122 196.378C151.498 196.548 151.665 196.991 151.495 197.368C151.256 197.898 145.4 210.394 125.69 214.134C125.643 214.143 125.595 214.147 125.55 214.147Z" fill="#C8C8C8"/>
<path d="M151.046 183.871C147.283 192.451 138.446 204.09 126.419 202.013C114.773 199.999 108.839 191.086 104.852 184.715C110.975 181.445 117.191 178.416 120.305 176.343C123.395 177.688 125.856 178.424 128.505 178.412C128.577 178.412 128.657 178.412 128.734 178.403C128.806 178.412 128.886 178.412 128.957 178.412C131.607 178.424 134.069 177.688 137.162 176.343C140.052 178.263 145.495 180.944 151.046 183.871Z" fill="#FDBEAB"/>
<path d="M128.957 178.712V178.723C128.885 178.723 128.807 178.723 128.734 178.717C128.807 178.717 128.886 178.712 128.957 178.712Z" fill="#01305A"/>
<path d="M148.189 116.682C148.189 116.682 157.288 130.776 156.291 145.458C155.294 160.139 157.632 177.087 144.495 176.342C131.359 175.597 107.927 181.609 100.479 170.174C93.0305 158.74 148.189 116.682 148.189 116.682Z" fill="#323232"/>
<path d="M109.616 142.499C109.616 142.499 105.99 137.664 103.295 141.662C100.598 145.66 104.41 157.468 111.012 154.586L109.616 142.499Z" fill="#FB9E82"/>
<path d="M109.57 150.937C109.326 150.937 109.102 150.776 109.033 150.529C108.009 146.884 104.233 145.406 104.195 145.392C103.908 145.283 103.763 144.96 103.873 144.673C103.982 144.386 104.304 144.24 104.591 144.348C104.768 144.415 108.929 146.03 110.107 150.228C110.19 150.524 110.017 150.833 109.721 150.916C109.67 150.93 109.619 150.937 109.57 150.937Z" fill="#FC7972"/>
<path d="M105.758 149.1C105.654 149.1 105.549 149.072 105.456 149.011C105.197 148.844 105.123 148.498 105.289 148.24C105.318 148.196 105.985 147.178 107.383 146.552C107.664 146.426 107.994 146.552 108.121 146.833C108.246 147.114 108.121 147.444 107.839 147.57C106.759 148.055 106.234 148.836 106.229 148.844C106.12 149.009 105.941 149.1 105.758 149.1Z" fill="#FC7972"/>
<path d="M146.984 142.499C146.984 142.499 150.61 137.664 153.305 141.662C156.001 145.66 152.19 157.468 145.588 154.586L146.984 142.499Z" fill="#FB9E82"/>
<path d="M147.03 150.937C147.274 150.937 147.498 150.776 147.567 150.529C148.591 146.884 152.367 145.406 152.405 145.392C152.692 145.283 152.836 144.96 152.728 144.673C152.619 144.386 152.297 144.24 152.01 144.348C151.834 144.415 147.671 146.03 146.493 150.228C146.41 150.524 146.583 150.833 146.88 150.916C146.93 150.93 146.981 150.937 147.03 150.937Z" fill="#FC7972"/>
<path d="M150.842 149.1C150.945 149.1 151.051 149.072 151.144 149.011C151.402 148.844 151.477 148.498 151.31 148.24C151.283 148.196 150.615 147.178 149.216 146.552C148.936 146.426 148.606 146.552 148.479 146.833C148.354 147.114 148.479 147.444 148.76 147.57C149.841 148.055 150.367 148.836 150.371 148.844C150.479 149.009 150.659 149.1 150.842 149.1Z" fill="#FC7972"/>
<path d="M137.225 164.6V176.342C137.225 176.342 133.724 182.322 128.987 182.729C124.256 183.142 120.052 177.581 120.052 177.581V165.426L137.225 164.6Z" fill="#FDBEAB"/>
<path d="M137.225 164.6V169.81C134.047 173.336 128.405 174.586 120.054 173.353L120.052 165.426L137.225 164.6Z" fill="#FB9E82"/>
<path d="M149.606 134.444C149.388 139.007 148.954 144.714 148.083 149.276C147.866 150.414 147.62 151.485 147.347 152.444C144.876 161.096 138.695 175.935 121.391 169.754C113.749 167.026 110.207 158.514 108.627 149.857C107.557 143.977 107.395 138.036 107.473 133.791C107.557 129.456 109.922 125.495 113.692 123.36C123.906 117.569 134.683 119.728 141.779 122.456C146.705 124.347 149.856 129.184 149.606 134.444Z" fill="#FDBEAB"/>
<path d="M120.679 143.188C120.679 144.442 120.033 145.457 119.236 145.457C118.439 145.457 117.793 144.441 117.793 143.188C117.793 141.934 118.439 140.918 119.236 140.918C120.034 140.918 120.679 141.934 120.679 143.188Z" fill="#323232"/>
<path d="M138.497 143.188C138.497 144.442 137.851 145.457 137.054 145.457C136.258 145.457 135.612 144.441 135.612 143.188C135.612 141.934 136.258 140.918 137.054 140.918C137.851 140.918 138.497 141.934 138.497 143.188Z" fill="#323232"/>
<path d="M116.379 136.431C117.578 136.092 119.997 135.514 122.552 135.507C123.223 135.505 123.738 136.102 123.619 136.764L123.616 136.78C123.521 137.308 123.049 137.682 122.513 137.657C120.776 137.576 116.215 137.819 114.062 138.693C114.018 138.319 114.239 137.908 114.552 137.544C115.027 136.993 115.678 136.629 116.379 136.431Z" fill="#323232"/>
<path d="M139.693 136.477C138.493 136.138 136.074 135.56 133.52 135.553C132.848 135.551 132.334 136.148 132.452 136.81L132.455 136.826C132.55 137.354 133.022 137.728 133.558 137.702C135.295 137.622 139.856 137.865 142.01 138.739C142.054 138.365 141.832 137.954 141.519 137.59C141.044 137.039 140.392 136.675 139.693 136.477Z" fill="#323232"/>
<path d="M128.494 153.543C128.068 153.543 127.639 153.467 127.281 153.254C126.954 153.059 126.55 152.663 126.47 151.892C126.258 149.841 126.782 143.414 126.805 143.142C126.83 142.836 127.099 142.607 127.406 142.632C127.713 142.657 127.942 142.927 127.917 143.233C127.912 143.299 127.378 149.829 127.58 151.777C127.616 152.115 127.753 152.236 127.854 152.296C128.378 152.61 129.587 152.289 130.092 152.085C130.377 151.968 130.703 152.106 130.819 152.39C130.935 152.675 130.799 153.001 130.513 153.117C130.368 153.177 129.435 153.543 128.494 153.543Z" fill="#FB9E82"/>
<path d="M121.41 157.065C121.832 159.188 123.233 163.091 127.955 163.091C132.689 163.091 134.016 159.524 134.472 157.065H121.41Z" fill="white"/>
<path d="M127.887 166.346C126.524 166.346 125.322 165.612 125.271 165.581C125.009 165.419 124.927 165.075 125.09 164.812C125.251 164.551 125.594 164.47 125.856 164.63C125.866 164.637 126.847 165.23 127.886 165.23C129.012 165.23 130.019 164.635 130.029 164.628C130.293 164.471 130.636 164.556 130.794 164.819C130.953 165.081 130.869 165.424 130.606 165.583C130.555 165.614 129.331 166.346 127.887 166.346Z" fill="#FB9E82"/>
<path d="M151.851 133.535C151.671 134.044 151.175 134.369 150.509 134.563C150.557 135.794 150.428 137.273 150.306 138.692C149.618 146.755 147.584 148.17 147.124 146.176C146.821 144.853 146.839 137.259 146.985 134.783C145.391 134.678 144.03 134.413 144.03 134.413L142.161 126.584L141.506 134.315C138.702 135.29 132.156 133.727 132.156 133.727L129.961 126.012L128.604 133.436C124.397 135.486 119.139 134.12 119.139 134.12L117.931 126.113L115.141 134.12C115.141 134.12 106.165 137.34 106.068 134.12C106.008 132.247 107.38 126.97 108.54 122.882C109.804 118.424 112.732 114.658 116.693 112.534C127.827 106.558 139.599 109.736 143.639 112.148C152.203 117.262 151.851 133.535 151.851 133.535Z" fill="#323232"/>
<path d="M111.269 117.277C111.269 117.277 103.622 126.065 101.191 141.762C98.7606 157.459 95.3945 169.056 104.853 174.239C115.089 179.849 117.062 170.296 116.914 167.169C116.766 164.042 105.201 153.543 111.012 129.472C112.887 121.7 111.269 117.277 111.269 117.277Z" fill="#323232"/>
<path d="M149.739 154.849C149.739 155.571 149.154 156.157 148.432 156.157C147.71 156.157 147.124 155.571 147.124 154.849C147.124 154.127 147.71 153.542 148.432 153.542C149.154 153.543 149.739 154.127 149.739 154.849Z" fill="white"/>
<path d="M94.0103 251.483C92.0881 222.136 87.08 198.141 89.5411 195.04C90.6149 193.682 92.4056 192.217 94.616 190.717C96.8678 201.275 102.552 233.049 94.0103 251.483Z" fill="#FDBEAB"/>
<path d="M167.043 212.977C166.01 222.801 164.466 235.775 163.531 250.036C155.962 231.647 160.244 201.189 162.492 190.516C164.601 191.964 166.325 193.384 167.379 194.716C168.599 196.253 168.086 202.992 167.043 212.977Z" fill="#FDBEAB"/>
<path d="M98.1974 226.3L89.6826 253.65L80.3589 279.652C78.8594 285.095 72.8502 287.897 67.7176 285.553C67.6276 285.512 67.5386 285.472 67.4487 285.432C58.58 281.237 63.4698 263.845 63.4698 263.845L65.1443 263.714C65.8268 261.805 67.6681 256.947 70.0119 250.845C70.295 250.094 70.5913 249.322 70.8926 248.541C71.3911 247.244 71.9078 245.905 72.4326 244.531C73.1828 242.591 73.9553 240.589 74.7359 238.571C80.4842 223.662 85.2457 207.483 85.2457 207.483L89.2144 195.701L98.1974 226.3Z" fill="#FDBEAB"/>
<path d="M74.281 269.413C74.2435 269.418 74.2112 269.418 74.1738 269.418C73.833 269.42 73.5327 269.175 73.4791 268.83C72.1828 260.586 70.8775 254.496 70.0129 250.843C70.2971 250.095 70.5954 249.323 70.8936 248.542C71.7036 251.76 73.289 258.618 74.8634 268.611C74.922 268.993 74.6632 269.349 74.281 269.413Z" fill="#FB9E82"/>
<path d="M73.0109 269.817C73.0109 269.817 71.7894 250.003 67.5619 245.789C63.3343 241.574 59.4748 239.968 55.5091 240.111C51.5444 240.255 47.8143 240.746 48.059 242.377C48.059 242.377 38.9517 241.001 34.8849 243.361C30.8181 245.721 46.9296 247.788 51.7123 247.912C56.496 248.037 59.0218 250.709 59.2159 253.56C59.4091 256.412 62.1695 275.294 62.1695 275.294L73.0109 269.817Z" fill="#FDBEAB"/>
<path d="M77.835 243.658L17.4671 244.063C15.197 244.078 13.3436 242.25 13.3285 239.98V239.945C13.3133 237.675 15.1414 235.821 17.4114 235.806L77.7794 235.401C80.0494 235.386 81.9028 237.214 81.918 239.484V239.52C81.9332 241.791 80.105 243.643 77.835 243.658Z" fill="#99021C"/>
<path d="M13.37 244.09L0.154444 195.893C-0.587732 193.187 1.43758 190.511 4.24551 190.493L32.615 190.303C34.5291 190.29 36.2177 191.552 36.7475 193.392L51.2826 243.837L13.37 244.09Z" fill="#EA0029"/>
<path d="M36.7495 193.393L51.1633 243.422L54.405 243.401L39.9912 193.371C39.4574 191.531 37.7718 190.267 35.8567 190.28L32.615 190.302C34.5291 190.288 36.2157 191.552 36.7495 193.393Z" fill="#99021C"/>
<path d="M426.348 369.41V370.111C426.348 374.148 423.074 377.423 419.034 377.423H39.6565C35.616 377.423 32.344 374.148 32.344 370.111V369.41C32.344 365.373 35.616 362.098 39.6565 362.098H419.034C423.074 362.098 426.348 365.373 426.348 369.41Z" fill="#EA0029"/>
<defs>
<linearGradient id="paint0_linear_550_2318" x1="213" y1="0" x2="213" y2="425" gradientUnits="userSpaceOnUse">
<stop stop-color="#1B1B1B"/>
<stop offset="1" stop-color="#0E0E0E"/>
</linearGradient>
</defs>
</svg>
