<svg width="426" height="488" viewBox="0 0 426 488" fill="none" xmlns="http://www.w3.org/2000/svg">
<ellipse opacity="0.3" cx="213" cy="275.5" rx="213" ry="212.5" fill="url(#paint0_linear_202_2855)"/>
<path d="M125.177 298.035L73.3463 327.969C71.3862 329.104 71.3862 331.919 73.3463 333.054L164.334 385.598C167.016 387.146 170.052 387.956 173.132 387.956H192.806L125.177 298.049V298.035Z" fill="#ECECEC"/>
<path d="M340.045 285.757L199.099 367.676C195.518 369.754 189.682 369.754 186.071 367.676L93.3741 314.159C91.5614 313.112 90.6477 311.727 90.6477 310.356L90.5888 329.045C90.5888 330.416 91.4878 331.801 93.3152 332.848L186.012 386.365C189.623 388.443 195.459 388.443 199.04 386.365L339.986 304.446C341.769 303.414 342.654 302.058 342.668 300.702L342.727 282.013C342.727 283.369 341.828 284.725 340.045 285.757Z" fill="url(#paint1_linear_202_2855)"/>
<path d="M340.001 278.211L247.304 224.694C243.693 222.616 237.858 222.616 234.276 224.694L93.33 306.613C89.7489 308.691 89.7635 312.081 93.3741 314.159L186.071 367.676C189.682 369.754 195.518 369.754 199.099 367.676L340.045 285.757C343.626 283.679 343.612 280.289 340.001 278.211Z" fill="#ECECEC"/>
<path d="M291.663 296.885L240.54 326.437V326.51L217.741 339.731C216.312 340.556 214.396 341.028 212.377 341.013H200.263C198.244 341.013 196.299 341.485 194.869 342.31L188.635 345.936C185.658 347.675 180.839 347.675 177.862 345.936L127.741 316.989C126.238 316.119 125.472 314.984 125.486 313.835V316.945C125.486 318.08 126.223 319.214 127.741 320.099L177.862 349.046C180.839 350.77 185.658 350.77 188.635 349.046L194.869 345.42C196.299 344.595 198.244 344.138 200.263 344.123H212.377C214.396 344.123 216.312 343.666 217.741 342.841L291.663 299.995C302.981 293.421 308.655 284.799 308.684 276.177V273.067C308.67 281.689 302.996 290.312 291.678 296.885H291.663Z" fill="url(#paint2_linear_202_2855)"/>
<path d="M291.398 248.925C268.452 235.675 231.344 235.675 208.56 248.925L160.973 276.649L151.026 282.515C149.596 283.34 148.83 284.475 148.83 285.625L148.889 296.635C148.889 297.814 148.093 298.934 146.664 299.759L127.712 310.769C124.735 312.508 124.749 315.294 127.741 317.018L177.862 345.966C180.839 347.69 185.658 347.69 188.635 345.966L194.869 342.34C196.299 341.514 198.244 341.058 200.263 341.043H212.377C214.396 341.043 216.312 340.586 217.741 339.76L291.648 296.915C314.432 283.679 314.329 262.19 291.383 248.94L291.398 248.925Z" fill="#ECECEC"/>
<path d="M269.395 260.215C259.58 254.54 243.664 254.54 233.849 260.215C224.034 265.889 224.034 275.071 233.849 280.746C243.664 286.42 259.58 286.42 269.395 280.746C279.21 275.071 279.21 265.889 269.395 260.215ZM267.759 280.982C258.828 286.14 244.357 286.14 235.426 280.982C226.495 275.823 226.495 267.466 235.426 262.308C244.357 257.149 258.828 257.149 267.759 262.308C276.69 267.466 276.69 275.823 267.759 280.982Z" fill="url(#paint3_linear_202_2855)"/>
<path d="M252.418 293.554H272.313L267.479 269.795H239.626L228.573 276.177H221.028L200.705 287.909L209.223 292.817H173.471L192.585 265.314H164.732L110.381 296.693L131.219 308.735C131.219 308.735 127.491 310.798 127.004 311.241L136.51 316.723L157.289 328.78H162.963L161.475 323.061H185.364L184.037 316.576H233.879L230.489 299.936H253.729L252.433 293.554H252.418Z" fill="#B1A2A2"/>
<path d="M287.934 220.331L273.138 228.88C269.292 243.663 270.235 276.029 272.313 293.569L287.109 285.02C286.859 261.939 287.934 220.331 287.934 220.331Z" fill="#EADCDB"/>
<path d="M273.138 228.865L252.005 216.661C252.005 216.661 251.696 251.268 251.18 281.35L272.313 293.554C271.223 265.167 273.138 228.865 273.138 228.865Z" fill="url(#paint4_linear_202_2855)"/>
<path d="M252.668 99.2221L237.872 107.771L216.739 95.5668L231.535 87.0183L252.668 99.2221Z" fill="#FFF8F8"/>
<path d="M252.668 99.2221L237.872 107.771C229.649 135.494 230.135 223.839 236.973 254.923L251.769 246.375C251.769 195.644 252.668 99.2221 252.668 99.2221Z" fill="#EADCDB"/>
<path d="M237.872 107.771L216.739 95.5668C216.739 95.5668 215.84 192.799 215.84 242.72L236.973 254.923C235.794 202.969 237.872 107.771 237.872 107.771Z" fill="url(#paint5_linear_202_2855)"/>
<path d="M200.808 192.504L186.012 201.038L164.879 188.834L179.675 180.301L200.808 192.504Z" fill="#B1A2A2"/>
<path d="M200.808 192.504L186.012 201.053C190.787 216.219 188.709 272.345 190.787 289.869L205.583 281.321C205.332 258.24 200.808 192.504 200.808 192.504Z" fill="#B1A2A2"/>
<path d="M186.012 201.038L164.879 188.834C164.879 188.834 170.184 247.569 169.654 277.651L190.787 289.855C189.696 261.468 186.012 201.038 186.012 201.038Z" fill="#B1A2A2"/>
<path d="M273.138 228.865C273.138 228.865 256.972 220.67 252.654 213.507L267.376 205.003C271.252 211.93 281.435 216.926 287.89 220.346L273.138 228.865Z" fill="#FAEEED"/>
<path d="M274.022 224.723C274.022 224.723 260.921 225.092 252.668 212.372L267.391 203.868C272.46 214.76 288.745 216.219 288.745 216.219L274.022 224.723Z" fill="#FFF8F8"/>
<path d="M269.321 202.881L254.525 211.414L233.392 199.211L248.188 190.677L269.321 202.881Z" fill="#CABCBB"/>
<path d="M269.321 202.881L254.525 211.429C248.91 205.136 241.778 201.186 233.392 199.225L248.188 190.677C255.306 191.62 262.351 195.629 269.321 202.881Z" fill="#FFF8F8"/>
<path d="M269.321 202.881L254.525 211.429C246.302 239.153 246.906 268.852 253.729 299.936L268.526 291.387C268.526 240.656 269.321 202.881 269.321 202.881Z" fill="#EADCDB"/>
<path d="M254.525 211.414L233.392 199.211C233.392 199.211 232.596 237.812 232.596 287.717L253.729 299.921C252.55 247.967 254.525 211.414 254.525 211.414Z" fill="url(#paint6_linear_202_2855)"/>
<path d="M230.445 20.03L215.649 28.5785L194.515 16.3747L209.312 7.8262L230.445 20.03Z" fill="#CABCBB"/>
<path d="M230.445 20.03L215.649 28.5785L222.885 298.948L237.681 290.4C237.681 225.961 234.866 67.0028 230.445 20.03Z" fill="#EADCDB"/>
<path d="M215.649 28.5785L194.515 16.3747C194.515 16.3747 204.625 209.351 201.751 286.745L222.885 298.948C222.885 237.045 219.009 62.4485 215.649 28.5785Z" fill="url(#paint7_linear_202_2855)"/>
<path d="M236.782 201.171L226.849 218.106C226.849 218.106 226.068 257.326 229.148 275.823C230.636 284.755 234.276 281.675 237.651 276.118C237.548 255.616 237.253 229.307 236.782 201.186V201.171Z" fill="url(#paint8_linear_202_2855)"/>
<path d="M217.668 161.508L202.871 170.057L181.738 157.853L196.534 149.305L217.668 161.508Z" fill="#FFF8F8"/>
<path d="M217.004 161.125L196.534 149.305L181.738 157.853L187.412 161.125H217.004Z" fill="url(#paint9_linear_202_2855)"/>
<path d="M217.668 161.508L202.871 170.057L207.293 307.482L222.089 298.933C222.089 234.495 222.089 208.481 217.668 161.508Z" fill="#EADCDB"/>
<path d="M202.871 170.057L181.738 157.853C181.738 157.853 189.033 217.884 186.159 295.278L207.293 307.482C207.293 245.579 206.231 203.927 202.871 170.057Z" fill="url(#paint10_linear_202_2855)"/>
<path d="M193.219 253.7L178.423 262.249L157.289 250.045L172.086 241.496L193.219 253.7Z" fill="#FFF8F8"/>
<path d="M188.68 256.324L193.219 253.7L172.086 241.496L157.289 250.045L168.165 256.324H188.68Z" fill="#B1A2A2"/>
<path d="M193.219 253.7L178.423 262.249L182.844 310.474L197.64 301.926C197.389 278.845 193.219 253.7 193.219 253.7Z" fill="#EADCDB"/>
<path d="M193.219 253.7L188.532 256.412C188.532 256.412 192.703 281.557 192.953 304.638L197.64 301.926C197.389 278.845 193.219 253.7 193.219 253.7Z" fill="#B1A2A2"/>
<path d="M178.423 262.249L157.289 250.045C157.289 250.045 162.241 268.188 161.711 298.271L182.844 310.474C181.753 282.087 178.423 262.249 178.423 262.249Z" fill="url(#paint11_linear_202_2855)"/>
<path d="M213.571 269.883L206.394 279.169L207.293 307.467L220.365 299.936L213.571 269.883Z" fill="#B1A2A2"/>
<path d="M249.5 273.553L234.704 282.087L213.571 269.883L228.367 261.35L249.5 273.553Z" fill="#B1A2A2"/>
<path d="M249.5 273.553L234.704 282.102C229.885 288.69 231.801 299.066 233.878 316.591L248.675 308.042C248.424 284.961 249.5 273.553 249.5 273.553Z" fill="#EADCDB"/>
<path d="M234.704 282.087L213.571 269.883C213.571 269.883 213.261 274.29 212.745 304.372L233.879 316.576C233.422 291.048 234.704 282.087 234.704 282.087Z" fill="#B1A2A2"/>
<path d="M184.877 301.041L163.744 288.837V310.784L184.877 322.987V301.041Z" fill="url(#paint12_linear_202_2855)"/>
<path d="M199.747 314.409L184.877 322.987V301.041L199.747 292.463V314.409Z" fill="#EADCDB"/>
<path d="M184.877 301.041L163.744 288.837L178.614 280.26L199.747 292.463L184.877 301.041Z" fill="#FFF8F8"/>
<path d="M162.963 323.385L141.83 311.182V316.576L162.963 328.78L162.963 323.385Z" fill="url(#paint13_linear_202_2855)"/>
<path d="M177.833 320.202L162.963 328.78L162.963 323.385L177.833 314.807V320.202Z" fill="#EADCDB"/>
<path d="M162.963 323.385L141.83 311.182L156.685 302.604L177.833 314.807L162.963 323.385Z" fill="#FFF8F8"/>
<path d="M177.833 314.807L156.685 302.604L141.83 311.182L141.83 312.597L151.173 317.593H172.999V322.988L177.833 320.202V314.807Z" fill="url(#paint14_linear_202_2855)"/>
<path d="M268.526 291.387C268.526 265.226 268.732 242.528 268.938 226.669C268.938 226.595 268.938 226.743 268.938 226.669L264.782 235.527V293.554L268.526 291.387Z" fill="url(#paint15_linear_202_2855)"/>
<path d="M234.704 282.117C229.752 279.287 224.977 276.192 220.379 272.831L213.865 268.365L228.676 259.817C232.655 266.921 239.095 267.967 249.515 273.568L234.704 282.117Z" fill="#C0B1B1"/>
<path d="M234.704 282.117C234.704 282.117 222 275.735 214.529 266.538L229.34 257.989C234.984 265.403 249.515 273.568 249.515 273.568L234.704 282.117Z" fill="#FFF8F8"/>
<path d="M215.678 28.5785C204.463 23.0662 199.924 19.8089 195.37 12.2478L210.152 3.71403C214.234 11.0098 219.76 14.2965 230.459 20.0447L215.678 28.5785Z" fill="#EADCDB"/>
<path d="M215.678 28.5785C204.92 23.1988 201.692 16.0948 197.139 8.53381L211.92 0C216.002 7.29574 218.036 11.8499 230.459 20.0447L215.678 28.5785Z" fill="#FFF8F8"/>
<path d="M90.1762 275.764C89.793 275.573 89.4836 275.278 89.1299 275.042L63.5314 360.292L65.123 359.363L90.2204 275.764C90.2204 275.764 90.1909 275.764 90.1762 275.75V275.764Z" fill="#B1A2A2"/>
<path d="M98.0901 279.449C97.4859 279.449 96.8522 279.346 96.2185 279.095L121.272 393.646L122.863 392.717L98.0901 279.449Z" fill="#FFF8F8"/>
<path d="M96.2331 279.095C95.9383 278.977 95.6436 278.874 95.3489 278.683C94.9068 278.417 94.5236 278.064 94.1404 277.725L119.238 392.437L121.301 393.631L96.2478 279.081L96.2331 279.095Z" fill="#B1A2A2"/>
<path d="M87.1846 273.45L61.4829 359.113L63.5462 360.306L89.1446 275.057C88.452 274.585 87.7888 274.069 87.1993 273.465L87.1846 273.45Z" fill="#B1A2A2"/>
<path d="M69.942 307.851L56.1038 298.521L102.069 287.968V289.309L69.942 307.851Z" fill="#EADCDB"/>
<path d="M53.4806 297.003L85.6077 278.462L88.6141 280.186L102.069 287.968L69.9568 306.51L53.4806 297.003Z" fill="#FFF8F8"/>
<path d="M53.4806 298.344L53.4806 297.003L69.9568 306.51L69.942 307.851L53.4806 298.344Z" fill="#B1A2A2"/>
<path d="M74.8641 326.024L68.5861 321.057L106.991 306.141V307.482L74.8641 326.024Z" fill="#EADCDB"/>
<path d="M65.9774 319.554L98.0898 300.997L101.553 303.002L106.991 306.141L74.864 324.683L65.9774 319.554Z" fill="#FFF8F8"/>
<path d="M65.963 320.895L65.9774 319.554L74.864 324.683L74.8641 326.024L65.963 320.895Z" fill="#B1A2A2"/>
<path d="M78.9464 344.875L72.6683 339.908L111.073 324.992V326.333L78.9464 344.875Z" fill="#EADCDB"/>
<path d="M70.0596 338.405L102.172 319.848L105.635 321.853L111.073 324.992L78.9461 343.534L70.0596 338.405Z" fill="#FFF8F8"/>
<path d="M70.0452 339.746L70.0596 338.405L78.9461 343.534L78.9464 344.875L70.0452 339.746Z" fill="#B1A2A2"/>
<path d="M83.0728 363.755L76.78 358.788L115.2 343.858L115.185 345.199L83.0728 363.755Z" fill="#EADCDB"/>
<path d="M74.1715 357.27L106.299 338.729L109.762 340.719L115.2 343.858L83.0728 362.414L74.1715 357.27Z" fill="#FFF8F8"/>
<path d="M74.1715 358.611L74.1715 357.27L83.0728 362.414L83.0728 363.755L74.1715 358.611Z" fill="#B1A2A2"/>
<path d="M87.1845 382.621L80.9065 377.654L119.312 362.738V364.08L87.1845 382.621Z" fill="#EADCDB"/>
<path d="M78.2832 376.151L110.41 357.595L113.874 359.599L119.312 362.738L87.1845 381.28L78.2832 376.151Z" fill="#FFF8F8"/>
<path d="M78.2832 377.492L78.2832 376.151L87.1845 381.28L87.1845 382.621L78.2832 377.492Z" fill="#B1A2A2"/>
<path d="M91.2962 401.502L85.0182 396.52L123.423 381.604V382.945L91.2962 401.502Z" fill="#EADCDB"/>
<path d="M82.4097 395.017L114.537 376.46L117.985 378.465L123.423 381.604L91.3109 400.16L82.4097 395.017Z" fill="#FFF8F8"/>
<path d="M82.4097 396.358L82.4097 395.017L91.3109 400.16L91.2962 401.502L82.4097 396.358Z" fill="#B1A2A2"/>
<path d="M66.4198 345.494C66.2577 345.406 66.125 345.391 66.0219 345.45L33.4232 364.271C33.3201 364.33 33.2611 364.463 33.2611 364.64C33.2611 364.993 33.5116 365.436 33.8211 365.627C33.9832 365.716 34.1306 365.73 34.2338 365.657L66.8324 346.835C66.9356 346.776 66.9945 346.644 66.9945 346.467C66.9945 346.098 66.744 345.671 66.4345 345.479L66.4198 345.494Z" fill="#B1A2A2"/>
<path d="M55.5143 294.836L30.0484 379.629L31.64 378.701L56.6048 295.573C56.2511 295.308 55.8679 295.102 55.5143 294.822V294.836Z" fill="#B1A2A2"/>
<path d="M64.7103 299.229C64.0618 299.066 63.4134 298.904 62.8092 298.698L87.8034 412.968L89.3951 412.04L64.725 299.214L64.7103 299.229Z" fill="#FFF8F8"/>
<path d="M53.6427 292.979L28 378.435L30.0632 379.629L55.5291 294.836C54.8806 294.291 54.2617 293.628 53.6574 292.994L53.6427 292.979Z" fill="#B1A2A2"/>
<path d="M62.8092 298.713C62.1313 298.492 61.4828 298.226 60.8491 297.961L85.7402 411.789L87.8034 412.983L62.8092 298.713Z" fill="#B1A2A2"/>
<path d="M63.3988 301.366L55.5586 295.5L64.9904 297.283V300.452L63.3988 301.366Z" fill="#EADCDB"/>
<path d="M52.9499 292.169L54.5415 291.255L64.9904 297.283L63.3985 298.212L52.9499 292.169Z" fill="#FFF8F8"/>
<path d="M52.9354 295.337L52.9499 292.169L63.3985 298.212L63.3988 301.366L52.9354 295.337Z" fill="#B1A2A2"/>
<path d="M96.8815 282.028L89.0413 276.162L98.4731 277.96V281.114L96.8815 282.028Z" fill="#EADCDB"/>
<path d="M86.4182 272.846L88.0098 271.917L98.4731 277.96L96.8816 278.874L86.4182 272.846Z" fill="#FFF8F8"/>
<path d="M86.4182 276L86.4182 272.846L96.8816 278.874L96.8815 282.028L86.4182 276Z" fill="#B1A2A2"/>
<path d="M396.547 236.146C395.133 241.128 390.181 241.467 389.356 244.577C389.282 244.857 389.208 245.181 388.958 245.284C388.221 245.594 384.979 242.027 385.495 239.197C385.657 238.298 386.025 237.885 386.364 237.03C387.101 235.173 389.798 230.177 392.863 230.516C395.516 230.811 397.27 233.611 396.547 236.146Z" fill="#EA0029"/>
<path d="M385.141 310.062L386.895 309.811C387.499 309.9 387.646 310.032 387.941 310.578C388.147 310.961 388.25 310.975 388.516 311.506C388.663 311.786 389.002 311.698 388.987 312.007C388.987 312.022 388.987 312.995 388.987 313.024C388.987 313.068 388.987 313.113 388.987 313.142C388.958 313.393 388.869 313.643 388.707 313.85C387.705 315.235 385.937 314.675 384.743 314.881C382.65 315.235 382.93 315.353 380.852 315.618C378.244 315.957 377.33 315.043 377.286 314.189C377.286 314.115 377.286 313.231 377.286 313.157C377.345 312.759 377.581 313.216 377.934 313.039C379.128 312.331 384.006 311.58 385.141 310.047V310.062Z" fill="#EADCDB"/>
<path d="M380.779 314.41L382.753 313.658C383.328 313.658 383.564 314.174 383.77 314.719C384.05 315.441 384.183 315.294 384.212 315.692C384.212 315.825 384.212 316.606 384.212 316.724C384.168 317.49 383.726 317.785 383.682 318.655C383.638 319.642 383.004 322.87 382.65 323.415C381.265 325.582 377.979 325.169 377.522 325.022C376.947 324.83 376.711 324.55 376.682 324.182C376.682 324.093 376.682 323.253 376.682 323.165C376.711 322.944 379.644 316.547 380.764 314.41H380.779Z" fill="#EADCDB"/>
<path d="M385.141 309.074L386.895 308.824C387.499 308.912 387.646 309.045 387.941 309.59C388.147 309.973 388.516 310.519 388.796 311.064C389.09 311.639 389.09 312.346 388.707 312.877C387.705 314.262 385.937 313.702 384.743 313.909C382.65 314.262 382.93 314.38 380.852 314.646C376.77 315.176 376.829 312.626 377.949 312.066C379.143 311.359 384.021 310.607 385.156 309.074H385.141Z" fill="#EA0029"/>
<path d="M375.149 272.227C375.4 277.813 376.755 282.589 377.758 284.519C379.6 288.101 377.419 286.892 380.425 291.255C381.368 292.626 383.417 299.185 384.065 302.796C384.301 304.107 385.362 308.028 384.463 309.428C384.124 309.959 381.707 310.651 381.854 311.374C382.046 312.258 384.507 311.565 385.067 311.491C385.583 311.433 386.335 311.3 386.939 311.035C387.484 310.784 387.764 310.15 387.602 309.561C387.528 309.266 387.44 308.927 387.425 308.529C387.204 301.41 389.871 297.829 385.819 292.169C385.17 291.255 384.758 290.194 384.699 289.074C384.64 288.116 384.551 287.172 384.728 286.214C385.273 283.208 385.73 275.75 385.701 274.408C385.598 270.134 380.955 267.437 376.976 267.629C376.534 267.643 376.077 267.747 375.65 267.805C373.867 268.071 375.075 270.989 375.134 272.227H375.149Z" fill="#FCBE9F"/>
<path d="M376.903 322.206C378.524 317.903 379.673 315.559 380.779 313.422L382.753 312.67C383.328 312.67 383.564 313.186 383.77 313.732C384.817 316.37 383.77 316.296 383.697 317.667C383.652 318.654 383.019 321.882 382.665 322.428C381.28 324.594 377.993 324.182 377.536 324.034C376.52 323.695 376.564 323.061 376.888 322.192L376.903 322.206Z" fill="#EA0029"/>
<path d="M383.343 271.181C384.714 269.338 391.655 270.532 391.714 272.094C392.053 280.82 387.97 287.644 387.808 290.798C387.749 292.036 388.177 292.906 388.368 294.011C388.634 295.5 388.486 297.121 388.088 298.61C387.145 302.235 385.111 305.404 384.036 308.897C383.726 309.914 383.092 311.359 383.092 312.42C383.092 312.995 383.166 313.481 383.21 313.997C383.328 315.088 383.063 316.208 382.356 317.033C382.164 317.254 381.958 317.446 381.722 317.608C381.236 317.932 380.543 317.991 380.16 317.549C379.614 316.93 379.732 315.751 380.13 314.749C382.179 309.708 380.911 304.771 381.442 299.008C381.56 297.696 381.987 296.001 382.061 294.66C382.193 292.036 381.28 289.501 381.265 286.863C381.236 283.178 381.648 279.14 382.385 275.558C382.68 274.128 383.078 272.596 383.328 271.181H383.343Z" fill="#FCBE9F"/>
<path d="M374.397 265.506C375.075 263.457 377.006 260.244 376.859 257.341L387.425 258.255C387.425 258.255 387.425 260.009 387.69 260.745C388.442 262.883 391.817 265.167 392.539 270.252C393.453 276.693 389.96 285.669 389.871 286.332C389.606 288.219 378.73 288.027 377.816 285.522C377.286 284.062 372.349 271.755 374.412 265.506H374.397Z" fill="#EA0029"/>
<path d="M366.543 258.991C367.751 257.046 372.01 252.005 373.543 249.249C373.985 248.055 375.355 239.993 376.932 237.635C377.492 236.795 378.598 236.294 379.585 236.544C381.206 237.104 381.132 238.106 380.897 239.507C380.646 240.907 378.347 250.266 377.551 251.519C375.989 253.98 369.269 260.819 369.107 260.981C368.016 262.146 365.629 260.274 366.543 258.991Z" fill="#FFF8F8"/>
<path d="M360.898 265.034C361.001 264.563 361.252 263.973 361.326 263.752C361.635 262.838 361.974 261.983 362.711 261.335C363.418 260.716 367.161 258.417 368.119 259.404C368.532 259.832 368.9 260.627 368.444 261.143C367.147 262.632 367.471 262.204 365.717 263.443C365.437 263.634 365.408 263.737 365.423 264.062C365.467 264.784 365.732 266.965 365.098 266.611C364.7 266.39 364.583 264.091 364.583 263.649C363.345 263.988 363.905 266.272 362.726 266.7C361.827 267.039 363.02 264.268 363.374 263.384C362.667 263.885 362.328 264.165 361.738 265.359C361.591 265.639 361.193 265.86 360.957 265.653C360.839 265.55 360.839 265.3 360.898 265.02V265.034Z" fill="#FCBE9F"/>
<path d="M376.873 257.989C376.814 257.37 376.313 255.911 376.313 255.911C374.162 253.096 372.762 251.74 375.016 249.072C376.195 247.672 376.844 246.95 377.198 244.429C377.492 242.278 376.77 240.258 377.551 237.944C378.612 235.1 382.621 237.414 386.069 239.462C389.135 241.275 390.594 241.791 392.2 243.118C392.981 243.766 392.804 244.533 392.907 245.55C393.261 249.337 388.987 253.641 387.484 258.77C386.821 261.526 376.932 260.642 376.873 258.004V257.989Z" fill="#FFF8F8"/>
<path d="M383.697 238.637L381.221 242.838L378.981 242.587C378.981 242.587 380.071 241.423 381.545 239.846C381.987 239.359 383.593 238.607 383.697 238.637Z" fill="#FFF8F8"/>
<path d="M386.806 237.296C385.583 237.93 381.132 239.241 381.132 239.241C381.132 239.241 380.764 241.172 380.793 242.337C380.793 242.838 381.191 243.044 381.191 243.044L381.132 243.973L381.766 243.427C383.092 243.634 385.288 242.676 385.922 242.189C386.57 241.688 387.322 240.789 387.352 239.905C387.352 239.521 387.16 239.153 386.983 238.74C386.777 238.298 386.762 237.797 386.791 237.281L386.806 237.296Z" fill="#F2A883"/>
<path d="M387.013 238.843C387.794 239.477 388 240.258 387.985 240.907C387.985 241.379 387.366 242.572 384.33 245.756L381.781 243.427C384.036 242.867 388.147 241.025 387.027 238.843H387.013Z" fill="#FFF8F8"/>
<path d="M383.151 240.656C381.987 240.597 379.703 240.391 379.32 239.3C379.054 238.534 379.939 237.429 379.615 236.677C379.467 236.323 379.334 236.249 379.732 235.822C380.263 235.247 380.572 234.82 380.823 234.083C381.206 232.918 380.882 232.064 383.417 229.956C384.08 229.396 384.375 229.204 387.573 229.617C388.309 229.705 388.53 229.823 389.09 230.472C390.063 231.577 390.225 231.99 390.196 233.567C390.196 234.392 390.166 235.232 389.931 236.028C389.636 237.06 389.267 238.092 388.354 238.726C387.293 239.463 384.625 240.745 383.137 240.671L383.151 240.656Z" fill="#FCBE9F"/>
<path d="M385.495 239.197C386.084 238.416 388.678 238.74 388.722 238.858C388.796 239.065 387.469 240.037 386.806 240.273C387.572 240.671 394.366 238.549 393.335 232.565C392.627 228.512 388.678 227.141 385.745 227.834C384.345 228.173 382.93 229.352 382.532 230.737C382.812 230.457 382.857 231.002 383.078 231.43C383.505 232.226 384.124 233.641 384.61 235.409C384.772 236.014 385.023 238.593 385.495 239.197Z" fill="#EA0029"/>
<path d="M386.732 238.416C385.686 238.667 384.935 239.3 385.052 239.801C385.17 240.317 386.128 240.524 387.175 240.258C388.221 240.008 388.973 239.374 388.855 238.873C388.737 238.357 387.779 238.151 386.732 238.416Z" fill="#FCBE9F"/>
<path d="M351.717 210.957L359.646 217.973L373.97 213.168L366.042 206.152L351.717 210.957Z" fill="#FFF8F8"/>
<path d="M351.717 210.957L359.646 217.973C371.406 233.876 372.555 255.292 368.326 279.493L359.38 273.833C359.321 233.626 351.717 210.957 351.717 210.957Z" fill="#C9BBBA"/>
<path d="M359.646 217.973L373.97 213.183C373.97 213.183 381.457 240.892 381.707 272.477L368.326 279.493C366.027 232.049 359.646 217.973 359.646 217.973Z" fill="#EADCDB"/>
<path d="M333.738 251.799C341.298 253.39 344.776 253.538 349.875 251.592L345.925 241.791C341.15 243.795 337.201 243.28 329.788 241.997L333.738 251.799Z" fill="#FFF8F8"/>
<path d="M366.454 252.993C360.353 257.739 357.995 260.288 356.197 265.447L366.233 268.763C367.795 263.826 370.728 261.143 376.49 256.309L366.454 252.993Z" fill="#FFF8F8"/>
<path d="M353.206 219.757C358.585 214.613 359.204 209.808 360.515 204.516L350.214 202.158C349.123 207.228 348.755 210.294 342.904 217.398L353.206 219.757Z" fill="#FFF8F8"/>
<path d="M381.545 267.776C383.387 265.182 388.884 257.252 388.884 257.252C388.103 252.182 386.232 242.587 390.947 242.602C392.436 242.602 393.173 244.194 393.556 245.623C393.821 246.67 393.91 258.048 393.394 259.139C392.274 261.527 387.912 265.948 384.183 269.987C383.255 271.048 380.676 269.102 381.545 267.761V267.776Z" fill="#FFF8F8"/>
<path d="M379.452 272.463C379.732 272.773 379.762 273.2 379.261 273.598L377.242 274.792C377.905 274.924 379.732 274.954 380.337 274.718C380.941 274.482 381.692 273.966 382.208 273.465C382.724 272.964 383.328 270.532 383.726 270.075C384.33 269.368 382.238 267.467 381.486 268.1C379.585 268.601 378.377 269.884 377.065 271.254C376.962 271.358 376.859 271.461 376.814 271.593C376.755 271.726 376.77 271.888 376.873 271.991C376.932 272.05 377.021 272.08 377.109 272.095C377.551 272.183 377.993 272.065 378.45 272.05C378.848 272.05 379.246 272.212 379.467 272.463H379.452Z" fill="#FCBE9F"/>
<path d="M60.2302 257.532C62.0723 262.602 67.2304 262.588 68.3209 265.756C68.4093 266.036 68.5125 266.375 68.7925 266.464C69.5736 266.744 72.6831 262.779 71.9315 259.876C71.6957 258.947 71.2831 258.549 70.8557 257.679C69.9567 255.808 66.7882 250.811 63.6345 251.401C60.8934 251.917 59.287 254.938 60.2302 257.532Z" fill="#EA0029"/>
<path d="M94.7152 329.841C94.5826 329.576 93.5805 326.952 93.3447 324.977C93.2415 324.152 93.3152 322.943 93.3152 321.926C93.3152 321.484 90.1909 322.029 90.1909 322.029C90.1762 322.619 90.1909 323.061 89.9846 323.4C89.4688 323.592 88.9972 324.004 88.7909 324.579C88.5404 325.228 88.6288 325.965 88.8498 326.628C89.0709 327.291 89.4246 327.895 89.7046 328.529C89.9699 329.104 90.1909 329.694 90.353 330.298C90.5741 331.094 90.7215 331.919 91.0309 332.686C91.5025 333.85 93.551 334.675 94.8037 334.528C95.7026 334.425 96.8669 334.027 96.7195 332.921C96.5132 331.492 95.3784 331.123 94.7152 329.841Z" fill="#EADCDB"/>
<path d="M95.6142 303.871C95.7615 302.721 95.8205 301.513 95.4815 300.407C93.9341 295.249 86.1971 287.761 82.7191 284.74C82.1002 284.195 81.5696 283.561 81.2896 282.78L80.3759 280.215C67.8198 282.603 72.6094 290.238 79.0201 295.396C86.0497 301.071 88.7171 304.136 88.7171 304.136C88.7171 304.136 86.3003 308.985 87.8919 315.058C88.2456 316.384 88.7614 317.667 89.0414 319.023C89.3803 320.673 89.7782 322.707 89.8224 323.371C89.9109 324.55 93.3741 324.933 93.3594 323.621C93.3594 323.621 94.4499 312.876 95.6289 303.886L95.6142 303.871Z" fill="#EA0029"/>
<path d="M108.937 315.176C108.701 314.999 106.638 313.098 105.532 311.432C105.075 310.739 104.589 309.619 104.147 308.72C103.955 308.322 101.406 310.209 101.406 310.209C101.656 310.754 101.863 311.137 101.833 311.535C101.45 311.948 101.229 312.523 101.288 313.127C101.362 313.82 101.76 314.439 102.261 314.925C102.747 315.412 103.336 315.81 103.882 316.237C104.368 316.635 104.84 317.062 105.267 317.534C105.827 318.153 106.313 318.816 106.947 319.376C107.89 320.202 110.086 320.025 111.147 319.347C111.899 318.86 112.783 317.976 112.135 317.048C111.324 315.868 110.13 316.031 108.966 315.19L108.937 315.176Z" fill="#EADCDB"/>
<path d="M98.4143 291.741C97.8838 291.225 97.2501 290.783 96.5132 290.621C95.9532 290.503 83.1466 290.96 79.0496 290.075L70.2368 285.256C68.542 284.931 66.9209 284.386 66.5083 287.997C66.0809 291.829 67.4957 295.676 70.5315 298.049C72.8158 299.803 75.6306 300.746 78.4454 300.732C80.5528 300.717 92.6521 298.609 93.7279 298.845C94.8037 299.081 95.7027 303.414 101.126 311.402C101.995 312.685 105.636 311.476 105.061 309.796C101.863 302.633 100.006 293.274 98.3848 291.726L98.4143 291.741Z" fill="#EA0029"/>
<path d="M93.0352 285.079C93.4625 284.342 93.4625 283.413 93.5509 282.588C93.6394 281.792 93.3888 281.129 92.6078 280.922C92.0478 280.775 91.3699 280.525 89.8519 279.213C86.6687 276.471 81.658 271.681 81.658 271.681C80.8622 267.599 81.8791 264.4 80.5085 260.48C80.0664 259.212 78.5927 258.313 77.1927 259.153L77.3695 262.823C78.4896 266.419 77.8411 270.944 78.5485 275.248C78.7843 276.663 85.5634 280.023 87.7887 281.144C89.7782 282.146 90.1025 282.721 92.1509 284.578C92.4457 284.843 92.7551 284.99 93.0499 285.094L93.0352 285.079Z" fill="#875744"/>
<path d="M64.5187 266.125C63.5903 266.98 63.2513 268.409 63.6935 269.574C64.3419 271.284 68.0409 275.455 68.8957 279.198C69.1609 280.377 69.2052 281.217 67.0535 284.622C63.8261 289.751 83.4708 289.368 81.5254 283.03C79.2412 275.587 83.4707 273.936 83.4707 271.49C83.4707 269.677 81.6433 269.028 80.9949 267.525C79.9928 265.182 81.3781 261.644 79.6686 259.625C77.1043 256.589 64.8429 265.801 64.5187 266.11V266.125Z" fill="white"/>
<path d="M76.1906 262.145C75.5127 260.848 75.0853 259.419 75.1443 257.959L68.6452 257.444C69.6031 259.271 69.6768 260.996 69.2789 262.808C68.6452 265.683 77.7527 265.122 76.1906 262.13V262.145Z" fill="#704637"/>
<path d="M79.6243 291.432L83.5592 285.094C83.6181 284.991 83.7508 284.858 83.8834 284.755C83.9571 284.696 84.0308 284.652 84.1045 284.608L94.671 278.506C94.8036 278.432 94.8773 278.417 94.9068 278.447L95.0542 278.623C95.0542 278.623 94.951 278.624 94.8479 278.668C94.8331 278.668 84.2666 284.784 84.2666 284.784C84.1929 284.829 84.1192 284.873 84.0455 284.932C83.9129 285.05 83.7802 285.168 83.7213 285.271L79.7865 291.608C79.7865 291.608 79.7423 291.712 79.757 291.726L79.6096 291.549C79.6096 291.549 79.6096 291.491 79.6391 291.432H79.6243Z" fill="#FFF8F8"/>
<path d="M94.8187 278.683L84.2521 284.785C84.0458 284.902 83.81 285.124 83.7068 285.271L79.772 291.609C79.6836 291.756 79.772 291.786 79.9783 291.668L90.5449 285.566C90.7512 285.448 90.987 285.227 91.0902 285.079L95.025 278.742C95.1134 278.594 95.025 278.565 94.8187 278.683Z" fill="#E3DDDA"/>
<path d="M86.0939 287.275C86.5361 285.787 83.4413 287.894 82.4244 288.012C81.7612 288.086 81.776 287.703 82.1149 287.437L83.2349 285.639C83.2349 285.639 83.1465 285.669 83.1023 285.698C82.5275 285.963 82.1444 285.919 81.0833 286.42C80.1254 286.877 79.477 287.924 78.5927 288.012C78.519 287.983 78.2685 288.056 77.9295 287.806C75.5274 285.58 69.5588 280.628 69.5588 280.628C69.5588 280.628 68.7778 270.945 68.1588 268.97C66.6556 264.15 62.7355 266.464 62.9124 269.603C62.9713 270.591 64.5777 278.889 65.4324 282.161C66.184 285.005 72.4768 286.98 77.4285 290.65C79.4033 292.109 80.8622 292.08 81.3633 291.992C82.0707 291.844 83.4118 291.432 84.8118 290.65C85.6518 290.193 85.9171 289.663 85.7992 289.53C86.3887 288.97 86.3297 288.292 85.976 288.395C86.7276 287.747 86.654 287.172 86.0792 287.26L86.0939 287.275Z" fill="#875744"/>
<path d="M89.7634 284.77C89.6897 284.519 89.7929 284.195 89.955 283.959C90.3234 283.414 90.8687 283.237 91.3698 282.986C92.0182 282.662 92.5046 282.367 93.094 281.837L93.5804 281.085C93.993 281.557 93.9193 282.013 93.8014 282.765C93.6541 283.723 93.433 285.035 92.873 285.58C92.1509 286.288 90.8982 287.01 90.574 286.42C90.4413 286.524 90.2792 286.583 90.1319 286.583C89.8076 286.583 89.7192 286.126 89.8224 286.096C89.5866 286.185 89.3655 286.022 89.3361 285.772C89.2624 285.182 89.7634 284.77 89.7634 284.77Z" fill="#875744"/>
<path d="M89.2625 284.475C89.1151 284.74 88.673 285.153 88.2751 285.403C87.8772 285.654 87.6856 285.654 87.833 285.403C87.9803 285.138 88.4225 284.725 88.8204 284.475C89.2183 284.224 89.4098 284.224 89.2625 284.475Z" fill="#C2BCBA"/>
<path d="M74.4811 261.217C75.6895 261.069 78.0475 260.686 78.357 259.522C78.578 258.696 77.5759 257.62 77.8559 256.81C77.9885 256.427 78.1064 256.338 77.6643 255.94C77.0601 255.38 76.7211 254.967 76.3969 254.216C75.9106 253.037 76.1759 252.123 73.4053 250.118C72.6684 249.588 72.3589 249.411 69.0725 250.074C68.3209 250.222 68.0851 250.354 67.5546 251.062C66.6262 252.285 66.4788 252.727 66.6262 254.363C66.6998 255.218 66.7883 256.088 67.083 256.898C67.4662 257.945 67.923 258.991 68.9252 259.581C70.0894 260.259 72.9484 261.394 74.4811 261.202V261.217Z" fill="#875744"/>
<path d="M71.9315 259.876C71.2536 259.109 68.5862 259.64 68.5567 259.758C68.4978 259.979 69.9568 260.893 70.6494 261.084C69.8831 261.556 62.6618 259.846 63.2955 253.567C63.7229 249.308 67.7314 247.583 70.8262 248.099C72.3 248.35 73.8621 249.47 74.3779 250.87C74.0684 250.59 74.0684 251.18 73.8621 251.622C73.4789 252.477 72.9337 253.995 72.5652 255.881C72.4326 256.53 72.3736 259.212 71.9315 259.876Z" fill="#EA0029"/>
<path d="M70.5905 259.168C71.6958 259.36 72.5211 259.949 72.4327 260.48C72.3443 261.025 71.3716 261.305 70.2516 261.113C69.1463 260.922 68.321 260.332 68.4094 259.802C68.4978 259.256 69.4705 258.976 70.5905 259.168Z" fill="#875744"/>
<path d="M288.539 415.341C289.703 417.11 295.082 420.441 295.981 420.913C298.516 422.283 301.581 420.706 301.449 419.011C301.419 418.731 301.449 418.495 301.404 418.068C301.345 417.582 293.888 413.027 293.815 412.762C293.653 412.158 293.815 411.716 293.594 411.126C293.151 410.006 288.657 410.345 288.775 411.273C288.937 412.541 288.598 412.983 288.421 413.587C288.303 414 288.318 414.663 288.391 414.988C288.421 415.106 288.465 415.223 288.553 415.341H288.539Z" fill="#2F2C37"/>
<path d="M288.539 414.413C289.703 416.182 295.082 419.513 295.981 419.984C298.516 421.355 301.773 419.63 301.404 418.068C300.889 415.857 293.903 412.128 293.815 411.834C293.653 411.229 293.815 410.787 293.594 410.198C293.152 409.077 288.657 409.417 288.775 410.345C289.069 412.792 287.935 413.484 288.539 414.413Z" fill="#EA0029"/>
<path d="M267.759 417.464C268.319 418.702 268.643 419.66 269.145 420.736C269.999 422.608 271.105 423.006 272.932 423.256C274.332 423.448 275.85 423.271 276.602 422.534C277.117 422.033 277.044 421.178 277.044 420.427C277.044 419.247 275.629 418.555 274.936 417.597C274.303 416.712 272.74 413.588 272.652 413.131C272.578 412.733 272.652 411.598 272.681 411.185C272.681 410.935 269.056 409.8 268.29 410.994C267.995 411.436 267.597 411.922 267.302 412.409C266.551 413.647 266.403 413.956 266.477 414.619C266.536 415.165 267.14 416.137 267.745 417.464H267.759Z" fill="#2F2C37"/>
<path d="M268.025 416.241C268.585 417.479 269.027 418.746 269.631 419.763C270.736 421.635 271.09 422.033 272.932 422.284C274.332 422.475 275.85 422.298 276.602 421.561C277.117 421.06 277.147 420.22 276.882 419.542C276.454 418.437 275.629 417.582 274.936 416.624C274.303 415.74 272.74 412.615 272.652 412.158C272.578 411.76 272.652 410.625 272.681 410.213C272.681 409.962 269.056 408.827 268.29 410.021C267.995 410.463 268.054 411.112 267.73 411.583C266.418 413.514 266.654 413.278 268.025 416.241Z" fill="#EA0029"/>
<path d="M271.827 386.453C271.827 388.738 271.517 392.143 271.517 392.143C271.517 392.143 271.075 393.322 270.206 394.633C267.612 398.539 267.509 405.953 267.7 410.64C267.789 412.777 272.873 413.47 273.286 411.156C273.477 410.094 275.835 402.872 276.086 401.826C276.484 400.161 278.724 395.65 279.313 394.044C280.905 389.666 283.219 382.459 283.764 377.772C284.398 380.175 287.036 390.492 287.183 391.037C287.433 392.01 286.697 398.127 286.977 400.175C287.463 403.801 288.067 407.088 288.495 410.64C288.495 412.571 294.095 412.659 293.903 410.714C294.478 406.837 294.846 403.55 295.421 399.674C295.568 398.672 295.716 397.655 295.76 396.638C295.834 394.884 295.598 391.229 295.583 389.49C295.495 382.017 294.684 378.612 294.021 374.913C293.829 373.822 292.783 368.899 292.606 367.809C292.429 366.733 292.046 365.111 292.046 365.111C291.869 364.227 291.324 362.827 290.469 362.797C289.865 362.783 288.657 362.827 288.052 362.797C285.724 362.724 283.499 363.667 281.214 364.021C278.517 364.434 274.332 363.372 272.799 366.276C272.343 367.145 272.357 369.548 272.269 370.845C272.121 372.982 271.841 381 271.841 386.439L271.827 386.453Z" fill="#EA0029"/>
<path d="M246.567 372.614L256.397 371.228C252.624 365.804 251.018 360.307 251.652 354.75L241.94 356.136C240.761 360.174 243.237 366.202 246.567 372.614Z" fill="#FFF8F8"/>
<path d="M318.735 380.057L322.508 389.313C322.788 396.83 316.215 395.96 310.379 400.116L306.606 390.86C312.428 386.704 319.015 387.574 318.735 380.057Z" fill="#FFF8F8"/>
<path d="M297.13 357.506C296.29 356.563 289.865 347.852 289.865 347.852C289.865 347.852 287.699 334.735 285.075 334.794C282.275 334.867 281.686 338.464 279.755 339.259C279.755 339.259 282.614 348.132 283.617 350.874C284.088 352.156 293.652 361.324 294.021 361.589C295.642 362.753 298.56 359.113 297.13 357.506Z" fill="#EA0029"/>
<path d="M297.514 358.273C296.438 357.049 292.916 359.938 294.419 361.353C295.657 362.709 298.943 359.319 297.514 358.273Z" fill="#FFF8F8"/>
<path d="M305.619 364.316C305.619 364.316 305.472 364.212 305.413 364.183C305.015 363.947 304.632 363.697 304.249 363.446C303.762 363.122 303.291 362.797 302.819 362.458C302.819 362.458 301.463 360.719 301.39 360.439C301.272 360.262 301.154 360.144 301.051 360.041C300.609 359.599 300.24 359.496 299.96 358.818C299.253 358.906 298.206 358.847 297.617 358.671C296.644 357.845 293.785 360.233 295.097 361.427C296.467 362.694 296.438 362.621 297.499 363.667C298.133 364.286 301.787 366.63 302.613 366.305C302.731 366.261 302.834 366.173 302.952 366.143C303.497 366.202 303.659 366.173 304.086 365.922C304.823 366.173 305.089 365.789 305.177 365.672C305.28 365.554 305.31 365.362 305.192 365.244C305.398 365.244 305.619 365.244 305.781 365.126C306.194 364.831 305.899 364.522 305.604 364.301L305.619 364.316Z" fill="#FCBE9F"/>
<path d="M303.615 359.599C302.569 359.481 301.419 358.464 300.491 358.685C300.166 358.759 299.857 358.818 299.547 358.847L301.124 360.439L301.286 360.366C301.375 360.366 301.714 360.542 302.126 360.646C303.246 360.94 304.308 360.675 304.455 360.174C304.543 359.864 304.381 359.688 303.615 359.599Z" fill="#FCBE9F"/>
<path d="M273.242 361.206C273.389 362.739 272.785 364.463 272.726 364.949C271.886 370.668 292.253 368.678 290.69 362.031C290.41 360.852 289.32 344.079 287.021 338.552C286.505 337.299 286.402 335.811 285.385 334.926C283.617 333.393 264.34 339.451 266.359 343.74C268.85 349.017 272.667 355.148 273.256 361.191L273.242 361.206Z" fill="#EA0029"/>
<path d="M274.479 341.131C277.486 344.58 281.936 346.939 281.936 346.939C281.936 346.939 284.103 338.272 281.096 336.223C279.903 335.398 276.307 335.472 274.98 336.503C273.934 337.314 274.111 339.156 274.479 341.131Z" fill="#FFF8F8"/>
<path d="M274.509 336.43C271.208 339.289 276.381 343.667 276.381 343.667L278.842 340.896L279.564 339.009C279.564 339.009 278.061 333.349 274.524 336.43H274.509Z" fill="#FFF8F8"/>
<path d="M279.431 334.809L280.448 339.835L283.749 339.555C283.749 339.555 282.423 336.813 279.431 334.809Z" fill="#FFF8F8"/>
<path d="M278.842 340.896L280.581 342.826L280.861 339.805C281.318 337.52 279.682 334.411 278.65 332.745C278.414 332.362 278.149 331.993 277.781 331.743C277.309 331.433 276.72 331.389 276.16 331.389C275.364 331.389 274.553 331.536 273.875 331.949C273.566 332.126 273.286 332.406 273.227 332.745C273.183 332.996 273.271 333.246 273.345 333.482C273.846 335 273.993 335.516 274.258 337.093C274.76 340.159 277.162 340.763 278.856 340.866L278.842 340.896Z" fill="#F2A883"/>
<path d="M273.654 330.372C273.625 331.035 273.492 331.61 273.389 332.244C273.286 332.937 273.743 333.674 273.934 334.322C274.185 335.118 274.701 335.796 275.334 336.327C276.101 336.975 277.044 337.388 277.987 337.727C279.063 338.11 280.183 338.405 281.318 338.449C282.334 338.493 283.543 338.611 283.882 337.417C284.029 336.916 283.955 336.386 283.867 335.87C283.779 335.354 283.646 334.853 283.675 334.322C283.705 333.88 283.838 333.438 283.779 332.981C283.72 332.524 283.469 332.111 283.307 331.669C283.145 331.227 283.057 330.77 283.057 330.298C283.057 330.063 283.086 329.827 283.027 329.591C282.983 329.414 282.894 329.252 282.806 329.09C282.555 328.648 282.305 328.206 282.069 327.778C281.892 327.454 281.701 327.13 281.421 326.864C281.008 326.466 280.433 326.289 279.859 326.186C278.65 325.95 277.353 325.965 276.218 326.437C275.069 326.909 274.111 327.881 273.816 329.075C273.713 329.488 273.698 329.915 273.684 330.343L273.654 330.372Z" fill="#FABC9D"/>
<path d="M281.229 324.476C281.008 324.417 280.315 324.285 280.139 324.137C279.888 323.946 279.254 323.15 278.812 323.135C278.267 323.12 277.81 323.4 277.28 323.327C276.896 323.283 276.557 322.988 276.174 322.958C275.717 322.929 275.32 323.253 274.863 323.342C274.244 323.474 273.463 323.194 273.065 323.68C272.667 324.167 272.991 324.049 272.254 324.196C271.429 324.359 271.665 325.479 270.869 325.862C270.176 326.201 270.5 326.378 270.368 327.041C270.279 327.527 269.793 327.852 269.749 328.367C269.69 328.987 269.778 329.517 270.014 330.077C270.324 330.799 269.94 331.581 270.589 332.2C270.839 332.435 271.061 332.627 271.119 332.981C271.267 333.968 271.223 333.703 272.018 334.204C272.475 334.484 272.343 334.97 272.608 335.368C272.844 335.707 273.256 335.87 273.507 336.194C273.595 336.297 274.288 337.078 274.244 337.196C274.612 336.356 274.877 335.472 274.73 335.147C274.347 334.278 274.082 333.246 274.951 333.777C275.305 333.998 275.467 334.116 275.57 334.145C275.791 334.189 275.894 333.953 275.953 333.688C276.13 332.774 276.513 331.905 277.088 331.183C278.311 329.635 280.242 327.911 281.509 327.66C281.745 327.616 282.025 327.807 282.158 327.999C282.128 327.999 282.379 326.82 282.393 326.731C282.541 325.479 282.217 324.727 281.214 324.476H281.229Z" fill="#EA0029"/>
<path d="M275.039 333.88C274.185 332.922 273.168 332.45 272.755 332.819C272.343 333.187 272.696 334.263 273.551 335.221C274.406 336.179 275.6 336.459 275.835 336.282C276.248 335.914 275.894 334.838 275.039 333.88Z" fill="#FABC9D"/>
<path d="M305.84 296.767L297.926 303.768L283.587 298.978L291.516 291.962L305.84 296.767Z" fill="#FFF8F8"/>
<path d="M305.84 296.767L297.911 303.783C286.151 319.686 294.728 349.96 298.943 374.161L307.889 368.501C310.762 324.034 305.84 296.767 305.84 296.767Z" fill="#EADCDB"/>
<path d="M297.926 303.768L283.602 298.978C283.602 298.978 291.884 332.244 285.591 367.131L298.973 374.146C301.272 326.702 297.941 303.768 297.941 303.768L297.926 303.768Z" fill="#C9BBBA"/>
<path d="M287.861 324.948C287.831 317.21 288.376 313.791 291.324 309.192L300.122 315.029C297.204 319.303 296.895 323.268 296.659 330.784L287.861 324.933V324.948Z" fill="#FFF8F8"/>
<path d="M300.903 300.761C295.524 295.618 294.905 290.813 293.594 285.521L303.895 283.163C304.985 288.233 305.354 291.299 311.204 298.403L300.903 300.761Z" fill="#FFF8F8"/>
<path d="M288.671 364.492C287.817 363.741 279.181 357.565 279.181 357.565L272.387 342.738C270.382 338.478 263.942 340.763 265.151 346.187C265.342 347.056 270.471 357.624 272.711 360.822C273.536 362.001 285.075 368.177 285.355 368.398C286.918 369.636 290.116 365.745 288.671 364.478V364.492Z" fill="#EA0029"/>
<path d="M288.745 365.023L288.435 364.861C287.08 364.153 284.383 367.573 285.886 368.442L286.21 368.619C287.566 369.327 290.248 365.893 288.745 365.038V365.023Z" fill="#FFF8F8"/>
<path d="M293.859 371.272C293.093 370.815 292.533 369.99 292.503 369.091C292.503 368.781 292.474 368.487 292.503 368.192C292.606 367.411 293.107 366.689 293.874 366.453C294.876 366.158 295.554 365.45 295.436 365.008C295.362 364.728 295.156 364.669 294.522 364.964C293.372 365.509 292.768 365.509 291.855 365.391C291.015 365.288 289.718 365.524 289.276 365.642C289.276 365.642 289.025 365.701 288.848 365.509C288.141 364.846 285.798 367.838 286.579 368.442C287.92 369.739 287.89 369.666 288.922 370.742C289.541 371.375 293.137 373.822 293.962 373.513C294.08 373.468 294.183 373.38 294.301 373.35C294.566 373.38 295.76 373.203 295.981 372.54L293.844 371.272H293.859Z" fill="#FCBE9F"/>
<defs>
<linearGradient id="paint0_linear_202_2855" x1="213" y1="63" x2="213" y2="488" gradientUnits="userSpaceOnUse">
<stop stop-color="#1B1B1B"/>
<stop offset="1" stop-color="#0E0E0E"/>
</linearGradient>
<linearGradient id="paint1_linear_202_2855" x1="188.423" y1="211.671" x2="165.17" y2="211.671" gradientUnits="userSpaceOnUse">
<stop stop-color="#EADCDB"/>
<stop offset="1" stop-color="#B1A2A2"/>
</linearGradient>
<linearGradient id="paint2_linear_202_2855" x1="250.069" y1="211.714" x2="119.029" y2="211.714" gradientUnits="userSpaceOnUse">
<stop stop-color="#EADCDB"/>
<stop offset="0.22" stop-color="#EADCDB"/>
<stop offset="0.25" stop-color="#E5D7D6"/>
<stop offset="0.29" stop-color="#D8CAC9"/>
<stop offset="0.32" stop-color="#C3B4B4"/>
<stop offset="0.35" stop-color="#B1A2A2"/>
<stop offset="0.58" stop-color="#B1A2A2"/>
<stop offset="0.6" stop-color="#C6B8B7"/>
<stop offset="0.63" stop-color="#DACCCB"/>
<stop offset="0.65" stop-color="#E6D8D7"/>
<stop offset="0.68" stop-color="#EADCDB"/>
<stop offset="0.77" stop-color="#EADCDB"/>
<stop offset="0.88" stop-color="#B1A2A2"/>
</linearGradient>
<linearGradient id="paint3_linear_202_2855" x1="27.946" y1="211.771" x2="396.657" y2="211.771" gradientUnits="userSpaceOnUse">
<stop stop-color="#EADCDB"/>
<stop offset="1" stop-color="#B1A2A2"/>
</linearGradient>
<linearGradient id="paint4_linear_202_2855" x1="199.24" y1="374.317" x2="201.876" y2="71.541" gradientUnits="userSpaceOnUse">
<stop stop-color="#B1A2A2"/>
<stop offset="1" stop-color="#CABCBB"/>
</linearGradient>
<linearGradient id="paint5_linear_202_2855" x1="192.008" y1="278.695" x2="193.927" y2="27.4294" gradientUnits="userSpaceOnUse">
<stop stop-color="#B1A2A2"/>
<stop offset="1" stop-color="#CABCBB"/>
</linearGradient>
<linearGradient id="paint6_linear_202_2855" x1="231.931" y1="290.748" x2="227.827" y2="25.3203" gradientUnits="userSpaceOnUse">
<stop stop-color="#B1A2A2"/>
<stop offset="1" stop-color="#CABCBB"/>
</linearGradient>
<linearGradient id="paint7_linear_202_2855" x1="209.003" y1="207.844" x2="206.712" y2="12.7504" gradientUnits="userSpaceOnUse">
<stop stop-color="#B1A2A2"/>
<stop offset="1" stop-color="#CABCBB"/>
</linearGradient>
<linearGradient id="paint8_linear_202_2855" x1="270.98" y1="404.212" x2="268.846" y2="47.9829" gradientUnits="userSpaceOnUse">
<stop stop-color="#B1A2A2"/>
<stop offset="1" stop-color="#CABCBB"/>
</linearGradient>
<linearGradient id="paint9_linear_202_2855" x1="28" y1="211.664" x2="396.711" y2="211.664" gradientUnits="userSpaceOnUse">
<stop stop-color="#CABCBB"/>
<stop offset="1" stop-color="#B1A2A2"/>
</linearGradient>
<linearGradient id="paint10_linear_202_2855" x1="217.246" y1="278.007" x2="216.706" y2="-3.69536" gradientUnits="userSpaceOnUse">
<stop stop-color="#B1A2A2"/>
<stop offset="1" stop-color="#C1B2B2"/>
</linearGradient>
<linearGradient id="paint11_linear_202_2855" x1="162.173" y1="35.002" x2="194.068" y2="508.731" gradientUnits="userSpaceOnUse">
<stop stop-color="#B1A2A2"/>
<stop offset="1" stop-color="#CABCBB"/>
</linearGradient>
<linearGradient id="paint12_linear_202_2855" x1="171.216" y1="285.934" x2="264.525" y2="-47.7321" gradientUnits="userSpaceOnUse">
<stop stop-color="#B1A2A2"/>
<stop offset="1" stop-color="#CABCBB"/>
</linearGradient>
<linearGradient id="paint13_linear_202_2855" x1="648.174" y1="264.491" x2="-143.791" y2="214.15" gradientUnits="userSpaceOnUse">
<stop stop-color="#B1A2A2"/>
<stop offset="1" stop-color="#CABCBB"/>
</linearGradient>
<linearGradient id="paint14_linear_202_2855" x1="399.427" y1="235.692" x2="-66.451" y2="215.558" gradientUnits="userSpaceOnUse">
<stop stop-color="#B1A2A2"/>
<stop offset="1" stop-color="#CABCBB"/>
</linearGradient>
<linearGradient id="paint15_linear_202_2855" x1="212.355" y1="400.947" x2="212.355" y2="19.252" gradientUnits="userSpaceOnUse">
<stop stop-color="#B1A2A2"/>
<stop offset="1" stop-color="#CABCBB"/>
</linearGradient>
</defs>
</svg>