<svg width="150" height="150" viewBox="0 0 150 150" fill="none" xmlns="http://www.w3.org/2000/svg">
<rect width="150" height="150" rx="15" fill="#1A1A1A"/>
<path d="M75.1523 88.2651L65.0879 117.285H84.9137L75.1523 88.2651Z" fill="#EA0029"/>
<path d="M88.9061 37.1071C88.2373 34.3683 85.9067 32.7147 83.0326 32.7147H67.0633C64.2937 32.7147 61.8481 34.358 61.1793 37.1071L39.1064 108.397H56.4135L69.4566 60.588L69.6969 60.5673L71.9544 52.4648C72.5083 50.1601 73.0622 47.6384 73.6161 45.3337H76.6052C76.9396 47.6384 77.6085 50.1601 78.1624 52.4648L83.1371 70.3752L88.2373 88.5439H88.2582L93.8077 108.397H111L88.927 37.1071H88.9061Z" fill="white"/>
</svg>
