<?xml version="1.0" standalone="no"?>
<!DOCTYPE svg PUBLIC "-//W3C//DTD SVG 1.1//EN" "http://www.w3.org/Graphics/SVG/1.1/DTD/svg11.dtd" >
<svg xmlns="http://www.w3.org/2000/svg" xmlns:xlink="http://www.w3.org/1999/xlink" version="1.1">
<metadata>
Created by FontForge 20201107 at Sun Jul  7 19:38:36 2024
 By 
Copyright 2004 Process Type Foundry. All rights reserved.
</metadata>
<defs>
<font id="Klavika-Medium" horiz-adv-x="1075" >
  <font-face 
    font-family="Klavika Md"
    font-weight="500"
    font-stretch="normal"
    units-per-em="2048"
    panose-1="2 0 0 0 0 0 0 0 0 0"
    ascent="1536"
    descent="-512"
    x-height="997"
    cap-height="1364"
    bbox="-41 -604 2464 2064"
    underline-thickness="40"
    underline-position="-271"
    unicode-range="U+0020-FB02"
  />
<missing-glyph horiz-adv-x="1302" 
d="M174 0v1364h954v-1364h-954zM1028 1262h-696l696 -1080v1080zM274 1180v-1080h695z" />
    <glyph glyph-name="fi" unicode="fi" horiz-adv-x="1280" 
d="M1137 0h-250v799h-426v-799h-250v799h-160v198h160v140q0 157 76.5 233t240.5 76q86 0 197 -27l-27 -192q-60 14 -125 14q-69 0 -90.5 -28t-21.5 -91v-125h676v-997zM1137 1139h-250v288h250v-288z" />
    <glyph glyph-name="fl" unicode="fl" horiz-adv-x="1280" 
d="M725 1419l-27 -192q-72 14 -125 14q-69 0 -90.5 -28t-21.5 -91v-125h254l-15 -198h-239v-799h-250v799h-160v198h160v140q0 157 76.5 233t240.5 76q102 0 197 -27zM1137 0h-250v1405l250 35v-1440z" />
    <glyph glyph-name="f_f" unicode="ff" horiz-adv-x="1486" 
d="M1487 1417l-27 -192q-75 16 -143 16q-69 0 -91 -28t-22 -91v-125h254l-14 -198h-240v-799h-250v799h-493v-799h-250v799h-160v198h160v140q0 157 76.5 233t240.5 76q125 0 246 -33l-29 -192q-105 20 -172 20q-69 0 -90.5 -28t-21.5 -91v-125h493v140q0 157 77 233t241 76
q109 0 215 -29z" />
    <glyph glyph-name="f_f_i" unicode="ffi" horiz-adv-x="2023" 
d="M1880 0h-250v799h-426v-799h-250v799h-493v-799h-250v799h-160v198h160v140q0 157 76.5 233t240.5 76q135 0 258 -33l-28 -192q-110 20 -185 20q-69 0 -90.5 -28t-21.5 -91v-125h493v140q0 157 77 233t241 76q91 0 188 -25l-26 -192q-62 12 -117 12q-69 0 -91 -28
t-22 -91v-125h676v-997zM1880 1139h-250v288h250v-288z" />
    <glyph glyph-name="f_j" unicode="fj" horiz-adv-x="1269" 
d="M461 997h676v-1050q0 -94 -48.5 -163t-211.5 -208l-146 160q103 96 124 123q29 38 31 93q1 11 1 28v819h-426v-799h-250v799h-160v198h160v140q0 157 76.5 233t240.5 76q86 0 197 -27l-27 -192q-60 14 -125 14q-69 0 -90.5 -28t-21.5 -91v-125zM1137 1139h-250v288h250
v-288z" />
    <glyph glyph-name="f_f_j" unicode="ffj" horiz-adv-x="2013" 
d="M1204 997h676v-1050q0 -94 -48.5 -163t-211.5 -208l-145 160q47 44 62.5 58t40.5 40.5t29.5 35.5t13 30t9 36.5t0.5 43.5v819h-426v-799h-250v799h-493v-799h-250v799h-160v198h160v140q0 157 76.5 233t240.5 76q135 0 258 -33l-28 -192q-110 20 -185 20q-69 0 -90.5 -28
t-21.5 -91v-125h493v140q0 157 77 233t241 76q91 0 188 -25l-26 -192q-62 12 -117 12q-69 0 -91 -28t-22 -91v-125zM1880 1139h-250v288h250v-288z" />
    <glyph glyph-name="f_f_l" unicode="ffl" horiz-adv-x="2023" 
d="M1468 1419l-26 -192q-72 14 -125 14q-69 0 -91 -28t-22 -91v-125h254l-14 -198h-240v-799h-250v799h-493v-799h-250v799h-160v198h160v140q0 157 76.5 233t240.5 76q125 0 246 -33l-29 -192q-105 20 -172 20q-69 0 -90.5 -28t-21.5 -91v-125h493v140q0 157 77 233t241 76
q102 0 196 -27zM1880 0h-250v1405l250 35v-1440z" />
    <glyph glyph-name=".notdef" horiz-adv-x="1302" 
d="M174 0v1364h954v-1364h-954zM1028 1262h-696l696 -1080v1080zM274 1180v-1080h695z" />
    <glyph glyph-name=".null" horiz-adv-x="0" 
 />
    <glyph glyph-name="nonmarkingreturn" horiz-adv-x="682" 
 />
    <glyph glyph-name="space" unicode=" " horiz-adv-x="430" 
 />
    <glyph glyph-name="exclam" unicode="!" horiz-adv-x="581" 
d="M365 442h-148l-51 355v608h250v-608zM164 0v287h254v-287h-254z" />
    <glyph glyph-name="quotedbl" unicode="&#x22;" horiz-adv-x="792" 
d="M301 899h-178v506h178v-506zM670 899h-178v506h178v-506z" />
    <glyph glyph-name="numbersign" unicode="#" horiz-adv-x="1429" 
d="M1292 334h-248l-16 -334h-184l16 334h-317l-19 -334h-184l16 334h-254l11 172h252l16 325h-258l10 173h256l17 319h186l-17 -319h318l16 319h187l-19 -319h246l-10 -173h-244l-16 -325h250zM565 831l-16 -325h319l15 325h-318z" />
    <glyph glyph-name="dollar" unicode="$" horiz-adv-x="1036" 
d="M610 -242h-204v226q-164 10 -304 63l45 205q174 -55 332 -55q65 0 103.5 8t59.5 29.5t27.5 51t6.5 81.5q0 37 -1.5 56.5t-9 41t-20 32.5t-39 24.5t-60.5 23t-89 22.5q-79 19 -133 37.5t-94 44t-62 52t-35.5 69.5t-17.5 88t-4 115q0 179 77.5 265t266.5 101v230h207v-230
q129 -7 241 -34l-26 -215q-167 34 -334 34q-109 0 -146 -29.5t-37 -127.5q0 -37 0.5 -56t9.5 -39.5t17.5 -28.5t37 -21t55 -20.5t83.5 -23.5q67 -19 116 -35.5t88 -36t64.5 -36t44 -43t28 -47.5t15 -58.5t6.5 -68.5t1 -84q0 -184 -69 -273.5t-247 -109.5v-228z" />
    <glyph glyph-name="percent" unicode="%" horiz-adv-x="1796" 
d="M1243 1321l-551 -1341l-157 63l550 1341zM741 930q0 -139 -72.5 -215t-246.5 -76t-247 76.5t-73 214.5v164q0 138 73 214t247 76t246.5 -76t72.5 -214v-164zM545 1108q0 57 -27 81.5t-96 24.5t-96 -24.5t-27 -81.5v-193q0 -57 27 -81.5t96 -24.5t96 24.5t27 81.5v193z
M1683 270q0 -138 -72.5 -214t-246.5 -76t-247 76t-73 214v164q0 138 73 214.5t247 76.5t246.5 -76t72.5 -215v-164zM1487 449q0 57 -27 81.5t-96 24.5t-96 -24.5t-27 -81.5v-193q0 -57 27 -81.5t96 -24.5t96 24.5t27 81.5v193z" />
    <glyph glyph-name="ampersand" unicode="&#x26;" horiz-adv-x="1341" 
d="M1249 575h-198v-528q-204 -67 -476 -67q-233 0 -332.5 87t-99.5 248v115q0 210 166 270q-141 69 -141 248v107q0 77 22 135.5t71 103t134 67.5t205 23q221 0 406 -41l-23 -204q-174 32 -393 32q-93 0 -131.5 -30t-38.5 -97v-122q0 -136 141 -136h688v-211zM582 186
q125 0 231 19v370h-231q-187 0 -187 -147v-86q0 -83 39.5 -119.5t147.5 -36.5z" />
    <glyph glyph-name="quotesingle" unicode="'" horiz-adv-x="423" 
d="M301 899h-178v506h178v-506z" />
    <glyph glyph-name="parenleft" unicode="(" horiz-adv-x="686" 
d="M645 -209l-184 -106q-318 413 -318 938t318 938l184 -107q-131 -212 -190.5 -401.5t-59.5 -429.5t60 -430t190 -402z" />
    <glyph glyph-name="parenright" unicode=")" horiz-adv-x="686" 
d="M225 -315l-184 106q130 212 190 402t60 430t-59.5 429.5t-190.5 401.5l184 107q318 -413 318 -938t-318 -938z" />
    <glyph glyph-name="asterisk" unicode="*" horiz-adv-x="1028" 
d="M248 768l149 231h-274v121h278l-151 240l100 65l162 -249l162 249l102 -65l-155 -240h284v-121h-278l149 -231l-104 -66l-160 248l-160 -248z" />
    <glyph glyph-name="plus" unicode="+" horiz-adv-x="1081" 
d="M123 399v197h315v317h205v-317h315v-197h-315v-317h-205v317h-315z" />
    <glyph glyph-name="comma" unicode="," horiz-adv-x="561" 
d="M154 0v287h254v-303l-160 -269l-115 64l115 221h-94z" />
    <glyph glyph-name="hyphen" unicode="-" horiz-adv-x="761" 
d="M123 469v209h516v-209h-516z" />
    <glyph glyph-name="period" unicode="." horiz-adv-x="561" 
d="M154 0v287h254v-287h-254z" />
    <glyph glyph-name="slash" unicode="/" horiz-adv-x="940" 
d="M848 1384l-510 -1624h-225l508 1624h227z" />
    <glyph glyph-name="zero" unicode="0" horiz-adv-x="1150" 
d="M1018 977v-631q0 -80 -23 -144t-72.5 -115t-138 -79t-209.5 -28t-209 28t-138 79t-72.5 115t-22.5 144v631q0 80 22.5 144t72.5 115t138 79t209 28t209.5 -28t138 -79t72.5 -115t23 -144zM383 952v-581q0 -94 39 -133t153 -39t153.5 39t39.5 133v581q0 94 -39.5 133
t-153.5 39t-153 -39t-39 -133z" />
    <glyph glyph-name="one" unicode="1" horiz-adv-x="786" 
d="M373 1047l-248 -138l-105 197l377 217h226v-1323h-250v1047z" />
    <glyph glyph-name="two" unicode="2" horiz-adv-x="1026" 
d="M109 0v215q200 218 317 354q62 71 85 98t57.5 71t43 61t21 47.5t14.5 53.5t2 58v35q0 75 -39 102t-151 27q-140 0 -322 -41l-35 209q181 53 371 53q230 0 328 -78t98 -243v-47q0 -77 -5 -119.5t-28.5 -96.5t-60.5 -105t-113 -144q-152 -186 -243 -291h454v-219h-794z" />
    <glyph glyph-name="three" unicode="3" horiz-adv-x="1007" 
d="M102 23l27 206q150 -30 293 -30q131 0 172 30t41 113v80q0 73 -34.5 102t-113.5 29h-292v223h247q98 0 133 33.5t35 110.5v79q0 73 -40 99t-148 26q-132 0 -283 -28l-26 211q141 36 331 36q119 0 200.5 -19t128.5 -59t67 -93.5t20 -129.5v-127q0 -99 -33.5 -155.5
t-113.5 -91.5q89 -30 130.5 -88t41.5 -160v-117q0 -80 -21.5 -137.5t-72.5 -100.5t-140.5 -64t-220.5 -21q-75 0 -173 12t-155 31z" />
    <glyph glyph-name="four" unicode="4" horiz-adv-x="1157" 
d="M1096 291h-174v-291h-246v291h-619v231l531 801h334v-819h174v-213zM307 504h369v571z" />
    <glyph glyph-name="five" unicode="5" horiz-adv-x="1028" 
d="M164 571v752h729v-217h-479v-330q59 -2 184 -8q171 -9 244 -89t73 -224v-125q0 -69 -11 -119.5t-40 -96t-78 -74t-128 -44.5t-187 -16q-186 0 -348 49l31 204q148 -34 313 -34q69 0 109.5 7.5t60 29t24.5 45.5t5 71v66q0 75 -36 107t-141 36q-180 7 -325 10z" />
    <glyph glyph-name="six" unicode="6" horiz-adv-x="1077" 
d="M373 879v-127q104 36 243 36q185 0 267 -79.5t82 -257.5v-99q0 -84 -21 -148.5t-68 -116.5t-130.5 -79.5t-200.5 -27.5q-104 0 -179 18.5t-121.5 50.5t-74 83t-37.5 107t-10 132v497q0 134 35 226t108.5 146.5t175.5 78.5t246 24q131 0 236 -24l-17 -209q-89 18 -192 18
q-97 0 -156.5 -9.5t-104 -36.5t-63 -76t-18.5 -127zM578 573q-107 0 -205 -43v-186q0 -84 37.5 -116.5t134.5 -32.5q95 0 132.5 34.5t37.5 114.5v100q0 71 -33.5 100t-103.5 29z" />
    <glyph glyph-name="seven" unicode="7" horiz-adv-x="942" 
d="M51 1104v219h830v-211l-473 -1112h-261l471 1104h-567z" />
    <glyph glyph-name="eight" unicode="8" horiz-adv-x="1118" 
d="M963 928q0 -81 -35 -141t-127 -113q111 -55 152.5 -116.5t41.5 -151.5v-87q0 -183 -99 -261t-337 -78t-337 78t-99 261v87q0 89 42 151t152 117q-90 53 -125.5 113.5t-35.5 140.5v92q0 157 95 240t308 83t308.5 -83t95.5 -240v-92zM754 379q0 47 -12.5 74t-54 54.5
t-128.5 61.5q-66 -26 -104 -46t-58 -43t-26 -44.5t-6 -56.5v-55q0 -76 42.5 -107t151.5 -31t152 31t43 107v55zM397 928q0 -59 29.5 -89.5t132.5 -70.5q103 40 132.5 70.5t29.5 89.5v86q0 65 -34.5 95t-127.5 30t-127.5 -30t-34.5 -95v-86z" />
    <glyph glyph-name="nine" unicode="9" horiz-adv-x="1067" 
d="M694 444v127q-104 -36 -243 -36q-185 0 -267 79.5t-82 257.5v99q0 181 98 276.5t322 95.5q104 0 179 -18.5t121.5 -50.5t74 -83t37.5 -107t10 -132v-497q0 -134 -35 -226t-108.5 -146.5t-175.5 -78.5t-246 -24q-131 0 -236 24l23 209q88 -18 186 -18q197 0 269.5 53.5
t72.5 195.5zM489 750q107 0 205 43v186q0 85 -37.5 117t-134.5 32q-95 0 -132.5 -34.5t-37.5 -114.5v-100q0 -71 33.5 -100t103.5 -29z" />
    <glyph glyph-name="colon" unicode=":" horiz-adv-x="561" 
d="M154 0v287h254v-287h-254zM154 623v286h254v-286h-254z" />
    <glyph glyph-name="semicolon" unicode=";" horiz-adv-x="561" 
d="M154 623v286h254v-286h-254zM154 0v287h254v-303l-160 -269l-115 64l115 221h-94z" />
    <glyph glyph-name="less" unicode="&#x3c;" horiz-adv-x="1200" 
d="M102 432v135l885 451l78 -152l-727 -366l729 -367l-80 -153z" />
    <glyph glyph-name="equal" unicode="=" horiz-adv-x="1103" 
d="M143 618v173h818v-173h-818zM143 233v173h818v-173h-818z" />
    <glyph glyph-name="greater" unicode="&#x3e;" horiz-adv-x="1200" 
d="M1098 567v-135l-885 -452l-80 153l729 367l-727 366l78 152z" />
    <glyph glyph-name="question" unicode="?" horiz-adv-x="1005" 
d="M469 446l-141 191q36 28 188 149q62 49 87.5 81t32.5 63.5t7 99.5q0 100 -41.5 136t-169.5 36q-148 0 -293 -37l-37 215q170 45 357 45q132 0 217 -22.5t133 -72.5t66 -117t18 -169q0 -68 -2 -105t-10.5 -80.5t-27 -73.5t-48.5 -64.5t-78 -73.5q-81 -67 -258 -201zM301 0
v287h254v-287h-254z" />
    <glyph glyph-name="at" unicode="@" horiz-adv-x="1511" 
d="M842 602l47 270q-58 23 -111 23q-46 0 -68 -19t-30 -61q-4 -23 -35 -201q-6 -34 5.5 -48.5t41.5 -14.5t73.5 14t76.5 37zM502 616q9 52 19.5 110t17.5 99q20 109 77.5 151t167.5 42q60 0 138 -20.5t127 -49.5l-76 -424q38 -10 71 -10q63 0 106 25t65 70t31 95.5t9 114.5
q0 87 -29.5 161.5t-85.5 131t-145.5 89t-203.5 32.5q-226 0 -372.5 -154.5t-146.5 -396.5q0 -257 147 -403t421 -146q162 0 317 60l47 -138q-153 -75 -362 -75q-180 0 -321.5 51.5t-232.5 145t-138.5 221.5t-47.5 284q0 199 86.5 359t244.5 251.5t358 91.5
q147 0 267.5 -44.5t198.5 -121.5t120 -178.5t42 -216.5q0 -71 -10 -131.5t-35.5 -118.5t-66.5 -99t-106.5 -66t-151.5 -25q-70 0 -127 25.5t-78 70.5q-84 -51 -201 -51q-89 0 -122 55t-19 133z" />
    <glyph glyph-name="A" unicode="A" horiz-adv-x="1323" 
d="M1001 0l-88 283h-505l-86 -283h-271l430 1364h361l430 -1364h-271zM662 1151l-191 -645h377z" />
    <glyph glyph-name="B" unicode="B" horiz-adv-x="1181" 
d="M727 0h-573v1364h536q363 0 363 -291v-141q0 -83 -36.5 -135t-115.5 -86q94 -20 146.5 -86.5t52.5 -165.5v-146q0 -148 -95 -230.5t-278 -82.5zM842 346v103q0 70 -34 103.5t-110 33.5h-286v-373h264q89 0 127.5 29.5t38.5 103.5zM795 920v120q0 57 -33 84t-103 27h-247
v-358h245q138 0 138 127z" />
    <glyph glyph-name="C" unicode="C" horiz-adv-x="1071" 
d="M123 375v614q0 395 485 395q196 0 371 -45l-29 -223q-194 35 -334 35q-131 0 -183 -48t-52 -159v-524q0 -111 52 -159t183 -48q140 0 334 35l29 -223q-175 -45 -371 -45q-485 0 -485 395z" />
    <glyph glyph-name="D" unicode="D" horiz-adv-x="1236" 
d="M154 1364h508q122 0 212 -29t141 -81t75 -116t24 -141v-630q0 -76 -24 -140t-75 -116t-141 -81.5t-212 -29.5h-508v1364zM412 1137v-910h223q125 0 173 48.5t48 152.5v508q0 104 -48 152.5t-173 48.5h-223z" />
    <glyph glyph-name="E" unicode="E" horiz-adv-x="1101" 
d="M154 0v1364h835v-227h-577v-330h532v-227h-532v-353h577v-227h-835z" />
    <glyph glyph-name="F" unicode="F" horiz-adv-x="1069" 
d="M412 0h-258v1364h843v-227h-585v-363h540v-227h-540v-547z" />
    <glyph glyph-name="G" unicode="G" horiz-adv-x="1196" 
d="M381 938v-516q0 -105 54 -158t183 -53q99 0 211 16v414h244v-600q-213 -61 -457 -61q-493 0 -493 411v582q0 211 126 311t392 100q223 0 391 -45l-28 -225q-171 37 -383 37q-131 0 -185.5 -52.5t-54.5 -160.5z" />
    <glyph glyph-name="H" unicode="H" horiz-adv-x="1329" 
d="M1176 0h-258v575h-506v-575h-258v1364h258v-561h506v561h258v-1364z" />
    <glyph glyph-name="I" unicode="I" horiz-adv-x="585" 
d="M422 1364v-1364h-258v1364h258z" />
    <glyph glyph-name="J" unicode="J" horiz-adv-x="555" 
d="M154 1364h258v-1387q0 -103 -54 -178.5t-225 -220.5l-153 174q119 114 140 141q31 39 34 88v19v1364z" />
    <glyph glyph-name="K" unicode="K" horiz-adv-x="1253" 
d="M412 1364v-1364h-258v1364h258zM1163 1364l-430 -674l459 -690h-297l-446 690l421 674h293z" />
    <glyph glyph-name="L" unicode="L" horiz-adv-x="1034" 
d="M412 1364v-1137h561v-227h-819v1364h258z" />
    <glyph glyph-name="M" unicode="M" horiz-adv-x="1671" 
d="M1251 883l-252 -707h-327l-252 707l-23 -883h-264l62 1364h288l353 -969l352 969h289l61 -1364h-264z" />
    <glyph glyph-name="N" unicode="N" horiz-adv-x="1421" 
d="M924 0l-518 1034v-1034h-252v1364h344l518 -1036v1036h252v-1364h-344z" />
    <glyph glyph-name="O" unicode="O" horiz-adv-x="1277" 
d="M1155 965v-566q0 -89 -27.5 -162t-85.5 -132t-160.5 -92t-242.5 -33t-242.5 33t-160.5 92t-85.5 132t-27.5 162v566q0 89 27.5 162t85.5 132t160.5 92t242.5 33t242.5 -33t160.5 -92t85.5 -132t27.5 -162zM381 950v-536q0 -102 59.5 -154.5t198.5 -52.5t198.5 52.5
t59.5 154.5v536q0 102 -59.5 154.5t-198.5 52.5t-198.5 -52.5t-59.5 -154.5z" />
    <glyph glyph-name="P" unicode="P" horiz-adv-x="1179" 
d="M154 0v1364h532q230 0 331 -91.5t101 -277.5v-186q0 -183 -106 -275t-338 -92h-262v-442h-258zM860 975q0 86 -42 124t-146 38h-260v-467h260q106 0 147 39t41 127v139z" />
    <glyph glyph-name="Q" unicode="Q" horiz-adv-x="1277" 
d="M702 -354l-143 338q-118 8 -204.5 44t-136 93.5t-72.5 126.5t-23 151v566q0 89 27.5 162t85.5 132t160.5 92t242.5 33t242.5 -33t160.5 -92t85.5 -132t27.5 -162v-566q0 -150 -79 -256.5t-251 -144.5l109 -256zM381 950v-536q0 -102 59.5 -154.5t198.5 -52.5t198.5 52.5
t59.5 154.5v536q0 102 -59.5 154.5t-198.5 52.5t-198.5 -52.5t-59.5 -154.5z" />
    <glyph glyph-name="R" unicode="R" horiz-adv-x="1331" 
d="M1280 0h-309l-314 451h-245v-451h-258v1364h559q231 0 332.5 -91.5t101.5 -277.5v-178q0 -257 -205 -330zM889 975q0 87 -42.5 124.5t-144.5 37.5h-290v-463h290q104 0 145.5 39t41.5 127v135z" />
    <glyph glyph-name="S" unicode="S" horiz-adv-x="1105" 
d="M1004 371q0 -68 -7.5 -119t-27 -97t-54.5 -76.5t-87.5 -54t-128 -34t-175.5 -10.5q-114 0 -235 24t-191 57l45 203q205 -63 385 -63q94 0 140 16t61.5 50t15.5 104q0 46 -0.5 66t-10 45.5t-21.5 35t-44 24t-68.5 23t-104.5 23.5q-86 19 -142.5 36.5t-101 43t-68 52.5
t-39 72t-20 95t-4.5 127q0 128 42 207t144 121t273 42q201 0 397 -45l-29 -217q-185 41 -364 41q-88 0 -131.5 -15t-58.5 -46t-15 -94v-52t4.5 -39.5t8 -31t19 -23t27.5 -19.5t43.5 -16t58 -17t78.5 -19q71 -17 122 -31.5t93 -33.5t68.5 -34.5t47 -42t30.5 -49t16 -62
t7.5 -74.5t1.5 -93z" />
    <glyph glyph-name="T" unicode="T" horiz-adv-x="1122" 
d="M432 0v1137h-381v227h1020v-227h-381v-1137h-258z" />
    <glyph glyph-name="U" unicode="U" horiz-adv-x="1294" 
d="M893 1364h258v-969q0 -67 -15.5 -126t-52 -113t-93 -92t-144.5 -61t-199 -23t-199 23t-144.5 61t-93 92t-52 113t-15.5 126v969h258v-948q0 -104 57 -156.5t189 -52.5t189 52.5t57 156.5v948z" />
    <glyph glyph-name="V" unicode="V" horiz-adv-x="1228" 
d="M614 227l330 1137h268l-407 -1364h-381l-408 1364h269z" />
    <glyph glyph-name="W" unicode="W" horiz-adv-x="1933" 
d="M1139 1364l247 -1057l261 1057h256l-338 -1364h-348l-250 1098l-250 -1098h-348l-338 1364h256l260 -1057l248 1057h344z" />
    <glyph glyph-name="X" unicode="X" horiz-adv-x="1253" 
d="M774 686l428 -686h-278l-297 483l-297 -483h-279l428 686l-411 678h276l283 -475l282 475h277z" />
    <glyph glyph-name="Y" unicode="Y" horiz-adv-x="1159" 
d="M580 676l294 688h275l-440 -969v-395h-258v395l-441 969h275z" />
    <glyph glyph-name="Z" unicode="Z" horiz-adv-x="1177" 
d="M1049 1145l-627 -926h633v-219h-922v217l631 928h-606v219h891v-219z" />
    <glyph glyph-name="bracketleft" unicode="[" horiz-adv-x="671" 
d="M610 -258h-436v1876h436v-205h-186v-1466h186v-205z" />
    <glyph glyph-name="backslash" unicode="\" horiz-adv-x="940" 
d="M602 -240l-510 1624h227l508 -1624h-225z" />
    <glyph glyph-name="bracketright" unicode="]" horiz-adv-x="671" 
d="M498 -258h-437v205h187v1466h-187v205h437v-1876z" />
    <glyph glyph-name="asciicircum" unicode="^" horiz-adv-x="972" 
d="M244 760l-152 92l305 553h174l310 -553l-156 -92l-240 436z" />
    <glyph glyph-name="underscore" unicode="_" horiz-adv-x="899" 
d="M901 -152h-903v132h903v-132z" />
    <glyph glyph-name="grave" unicode="`" horiz-adv-x="643" 
d="M520 1243l-92 -139q-130 72 -305 188l98 152q132 -98 299 -201z" />
    <glyph glyph-name="a" unicode="a" horiz-adv-x="1005" 
d="M883 657v-657h-205l-19 68q-134 -88 -297 -88q-131 0 -195.5 80t-64.5 216q0 151 68.5 216t222.5 65h240v105q0 86 -37.5 117.5t-153.5 31.5q-124 0 -276 -31l-31 191q152 47 342 47q117 0 195.5 -20.5t125 -66.5t66 -111.5t19.5 -162.5zM633 229v148h-184
q-61 0 -83 -20.5t-22 -77.5q0 -54 21.5 -77.5t78.5 -23.5q100 0 189 51z" />
    <glyph glyph-name="b" unicode="b" horiz-adv-x="1081" 
d="M989 676v-293q0 -78 -10.5 -135.5t-40.5 -110.5t-80 -85.5t-132.5 -52t-195.5 -19.5q-217 0 -387 34v1391l250 35v-482q143 60 295 60q301 0 301 -342zM393 748v-547q60 -8 150 -8q116 0 156 43.5t40 138.5v307q0 62 -30 92.5t-97 30.5q-99 0 -219 -57z" />
    <glyph glyph-name="c" unicode="c" horiz-adv-x="858" 
d="M528 -20q-233 0 -331.5 89.5t-98.5 292.5v273q0 203 99 293t331 90q134 0 244 -37l-31 -205q-102 27 -206 27q-106 0 -146.5 -36.5t-40.5 -129.5v-277q0 -93 40 -129t147 -36q102 0 206 26l31 -205q-103 -36 -244 -36z" />
    <glyph glyph-name="d" unicode="d" horiz-adv-x="1091" 
d="M102 326v340q0 352 330 352q125 0 266 -29v416l250 35v-1440h-198l-25 84q-145 -104 -315 -104q-151 0 -229.5 88t-78.5 258zM698 283v495q-127 27 -221 27q-66 0 -95.5 -32t-29.5 -101v-353q0 -64 28 -95t95 -31q59 0 120 25.5t103 64.5z" />
    <glyph glyph-name="e" unicode="e" horiz-adv-x="985" 
d="M348 352q0 -93 41.5 -130.5t153.5 -37.5q150 0 305 47l39 -188q-166 -63 -367 -63q-226 0 -324 98t-98 287v264q0 84 20.5 150.5t66 122t128.5 86t199 30.5q93 0 163 -21.5t113 -57.5t69 -89t36 -109t10 -125v-213h-555v-51zM348 653v-49h318v49q0 78 -33 119t-119 41
q-166 0 -166 -160z" />
    <glyph glyph-name="f" unicode="f" horiz-adv-x="743" 
d="M743 1417l-26 -192q-75 16 -144 16t-90.5 -28t-21.5 -91v-125h254l-15 -198h-239v-799h-250v799h-160v198h160v140q0 157 76.5 233t240.5 76q109 0 215 -29z" />
    <glyph glyph-name="g" unicode="g" horiz-adv-x="1001" 
d="M483 266q-39 0 -57 2q-59 -36 -59 -80q0 -20 13 -30t42 -13q65 -7 289 -30q117 -13 165 -71.5t48 -170.5q0 -84 -18 -137t-67.5 -91t-137.5 -53.5t-228 -15.5q-220 0 -385 51l31 187q169 -43 336 -43q149 0 193 14.5t44 64.5q0 45 -18 59.5t-76 20.5q-62 7 -148 17
t-141 16q-107 12 -151.5 54.5t-44.5 136.5q0 96 104 170q-135 81 -135 268v94q3 162 97.5 247t303.5 85q84 0 170 -21h308v-125q-18 -5 -55.5 -15t-55.5 -15q35 -65 35 -156v-94q0 -157 -99 -241.5t-303 -84.5zM651 678q0 72 -38 105.5t-130 33.5q-90 0 -128 -33.5
t-38 -105.5v-76q0 -73 39 -104t127 -31q89 0 128.5 31.5t39.5 103.5v76z" />
    <glyph glyph-name="h" unicode="h" horiz-adv-x="1116" 
d="M983 0h-250v696q0 80 -80 80q-45 0 -118 -24t-142 -60v-692h-250v1405l250 35v-518q83 43 184.5 69.5t180.5 26.5q225 0 225 -295v-723z" />
    <glyph glyph-name="i" unicode="i" horiz-adv-x="536" 
d="M393 0h-250v997h250v-997zM393 1139h-250v288h250v-288z" />
    <glyph glyph-name="j" unicode="j" horiz-adv-x="522" 
d="M139 997h250v-1050q0 -94 -48.5 -163t-211.5 -208l-145 160q47 44 62.5 58t40.5 40.5t29.5 35.5t13 30t9 36.5t0.5 43.5v1017zM389 1139h-250v288h250v-288z" />
    <glyph glyph-name="k" unicode="k" horiz-adv-x="1040" 
d="M393 0h-250v1405l250 35v-1440zM713 997h278l-293 -493l306 -504h-275l-301 504z" />
    <glyph glyph-name="l" unicode="l" horiz-adv-x="536" 
d="M393 0h-250v1405l250 35v-1440z" />
    <glyph glyph-name="m" unicode="m" horiz-adv-x="1705" 
d="M983 0h-250v696q0 80 -80 80q-45 0 -118 -24t-142 -60v-692h-250v997h191l24 -84q96 47 205 76t195 29q136 0 188 -107q93 47 203 77t199 30q225 0 225 -295v-723h-250v696q0 80 -80 80q-46 0 -124 -25t-136 -59v-692z" />
    <glyph glyph-name="n" unicode="n" horiz-adv-x="1116" 
d="M983 0h-250v696q0 80 -80 80q-45 0 -118 -24t-142 -60v-692h-250v997h191l24 -84q96 47 205 76t195 29q225 0 225 -295v-723z" />
    <glyph glyph-name="o" unicode="o" horiz-adv-x="1064" 
d="M967 373q0 -82 -20.5 -148.5t-68 -124t-135.5 -89t-211 -31.5q-99 0 -176 21.5t-125 57.5t-78.5 87.5t-42.5 106.5t-12 120v252q0 65 12 120t42.5 106.5t78.5 87.5t125 57.5t176 21.5q123 0 211 -31.5t135.5 -89t68 -124t20.5 -148.5v-252zM717 633q0 87 -43.5 129.5
t-141.5 42.5q-97 0 -140.5 -42.5t-43.5 -129.5v-268q0 -87 43.5 -129.5t140.5 -42.5q98 0 141.5 42.5t43.5 129.5v268z" />
    <glyph glyph-name="p" unicode="p" horiz-adv-x="1091" 
d="M989 672v-340q0 -352 -330 -352q-129 0 -266 28v-411l-250 -35v1435h199l25 -84q147 105 315 105q151 0 229 -88t78 -258zM393 715v-496q123 -26 221 -26q66 0 95.5 32t29.5 101v352q0 64 -28 95.5t-95 31.5q-59 0 -120 -25.5t-103 -64.5z" />
    <glyph glyph-name="q" unicode="q" horiz-adv-x="1081" 
d="M102 322v292q0 78 10.5 135.5t40.5 110.5t80 86t132.5 52.5t195.5 19.5q212 0 387 -35v-1386l-250 -35v477q-141 -59 -295 -59q-301 0 -301 342zM698 250v547q-60 8 -149 8q-116 0 -156.5 -43.5t-40.5 -138.5v-308q0 -62 30 -92t97 -30q99 0 219 57z" />
    <glyph glyph-name="r" unicode="r" horiz-adv-x="681" 
d="M633 1018l24 -230q-120 -54 -264 -145v-643h-250v997h211l17 -110q52 35 127.5 74.5t134.5 56.5z" />
    <glyph glyph-name="s" unicode="s" horiz-adv-x="915" 
d="M813 291q0 -62 -8.5 -107t-31.5 -85.5t-63 -65t-104 -39t-153 -14.5q-80 0 -177.5 16t-166.5 41l34 190q144 -43 297 -43q80 0 103.5 20.5t23.5 80.5q0 35 -9 53.5t-47.5 38.5t-117.5 39q-75 18 -122.5 37.5t-78.5 42t-46 58t-20 74t-5 101.5q0 155 82 222t291 67
q168 0 299 -35l-25 -199q-157 29 -274 29q-78 0 -102.5 -18.5t-24.5 -67.5q0 -34 2 -48.5t18.5 -28.5t40.5 -21.5t80 -22.5q74 -20 120 -34.5t83 -35t55 -38.5t29.5 -51t14.5 -66.5t3 -89.5z" />
    <glyph glyph-name="t" unicode="t" horiz-adv-x="727" 
d="M645 209l29 -191q-38 -16 -103.5 -27t-115.5 -11q-275 0 -275 264v555h-149v198h149v248l250 35v-283h256l-16 -198h-240v-523q0 -88 90 -88q50 0 125 21z" />
    <glyph glyph-name="u" unicode="u" horiz-adv-x="1116" 
d="M133 997h250v-696q0 -80 80 -80q45 0 118 24t142 60v692h250v-997h-191l-24 84q-95 -46 -204.5 -75t-195.5 -29q-225 0 -225 294v723z" />
    <glyph glyph-name="v" unicode="v" horiz-adv-x="989" 
d="M979 997l-320 -997h-329l-320 997h256l228 -757l229 757h256z" />
    <glyph glyph-name="w" unicode="w" horiz-adv-x="1441" 
d="M510 0h-289l-184 997h233l123 -667l199 667h260l197 -667l122 667h234l-184 -997h-289l-211 717z" />
    <glyph glyph-name="x" unicode="x" horiz-adv-x="958" 
d="M279 0h-254l321 502l-315 495h250l198 -303l197 303h250l-316 -495l324 -502h-256l-199 309z" />
    <glyph glyph-name="y" unicode="y" horiz-adv-x="978" 
d="M979 997l-320 -997l-133 -403h-237l125 403h-88l-316 997h256l228 -757l229 757h256z" />
    <glyph glyph-name="z" unicode="z" horiz-adv-x="942" 
d="M119 805v192h727v-192l-445 -612h459v-193h-747v193l444 612h-438z" />
    <glyph glyph-name="braceleft" unicode="{" horiz-adv-x="696" 
d="M133 567h-41v193h41q47 0 66.5 20.5t19.5 61.5v475q0 151 63 226t203 75h170v-201h-104q-42 0 -62 -19.5t-20 -64.5v-434q0 -107 -36 -168t-132 -67q96 -6 132 -67.5t36 -168.5v-434q0 -45 20 -64.5t62 -19.5h104v-201h-170q-140 0 -203 75t-63 226v475q0 41 -19.5 61.5
t-66.5 20.5z" />
    <glyph glyph-name="bar" unicode="|" horiz-adv-x="522" 
d="M338 1618v-2048h-154v2048h154z" />
    <glyph glyph-name="braceright" unicode="}" horiz-adv-x="696" 
d="M604 567h-41q-47 0 -66.5 -20.5t-19.5 -61.5v-475q0 -151 -63 -226t-203 -75h-170v201h104q42 0 62 19.5t20 64.5v434q0 107 36 168.5t132 67.5q-96 6 -132 67t-36 168v434q0 45 -20 64.5t-62 19.5h-104v201h170q140 0 203 -75t63 -226v-475q0 -41 19.5 -61.5t66.5 -20.5
h41v-193z" />
    <glyph glyph-name="asciitilde" unicode="~" horiz-adv-x="987" 
d="M784 725l142 -78q-19 -55 -40.5 -96.5t-54 -78.5t-78.5 -57t-104 -20q-42 0 -89 21t-81 46.5t-71 46.5t-62 21q-19 0 -34.5 -6t-25.5 -11.5t-22 -23t-16 -25t-17.5 -35t-17.5 -36.5l-141 78q18 46 29.5 73t29 60t35 51.5t42 36t55 24.5t69.5 7q48 0 107.5 -34.5
t115 -68.5t94.5 -34q28 0 51 12t38.5 35t25 42.5t20.5 49.5z" />
    <glyph glyph-name="nbspace" unicode="&#xa0;" horiz-adv-x="430" 
 />
    <glyph glyph-name="exclamdown" unicode="&#xa1;" horiz-adv-x="581" 
d="M217 559h148l51 -354v-608h-250v608zM164 711v286h254v-286h-254z" />
    <glyph glyph-name="cent" unicode="&#xa2;" horiz-adv-x="899" 
d="M416 -20v190q-162 23 -232.5 113t-70.5 264v272q0 173 70.5 263.5t232.5 111.5v190h172v-184q105 -7 198 -35l-30 -204q-98 26 -207 26q-106 0 -146.5 -36.5t-40.5 -129.5v-276q0 -93 40.5 -129.5t146.5 -36.5q99 0 207 27l30 -205q-95 -31 -198 -37v-184h-172z" />
    <glyph glyph-name="sterling" unicode="&#xa3;" horiz-adv-x="1110" 
d="M123 567v199h166q-58 150 -58 246q0 91 30.5 156.5t88.5 103t133.5 54.5t173.5 17q173 0 340 -47l-30 -206q-150 34 -318 34q-88 0 -128 -28t-40 -101q0 -36 10.5 -79.5t20.5 -70.5t31 -79h385l-15 -199h-335q2 -16 2 -39q0 -86 -30 -159.5t-97 -149.5h524v-219h-834v219
q84 55 135.5 138.5t51.5 172.5v37h-207z" />
    <glyph glyph-name="currency" unicode="&#xa4;" horiz-adv-x="1153" 
d="M930 825v-278q0 -67 -27 -119l137 -137l-149 -150l-154 154q-74 -23 -159 -23q-90 0 -164 23l-152 -154l-149 150l137 137q-25 55 -25 119v278q0 64 25 119l-137 137l149 150l152 -154q74 23 164 23q85 0 159 -23l154 154l149 -150l-137 -137q27 -52 27 -119zM715 795
q0 64 -32.5 88t-104.5 24q-73 0 -105.5 -23.5t-32.5 -88.5v-217q0 -65 32.5 -89t105.5 -24q71 0 104 24t33 89v217z" />
    <glyph glyph-name="yen" unicode="&#xa5;" horiz-adv-x="1142" 
d="M113 580v165h170l-263 578h275l276 -647l277 647h274l-262 -578h170v-165h-246l-84 -185h330v-159h-330v-236h-258v236h-329v159h329l-84 185h-245z" />
    <glyph glyph-name="brokenbar" unicode="&#xa6;" horiz-adv-x="522" 
d="M338 1618v-854h-154v854h154zM338 -430h-154v854h154v-854z" />
    <glyph glyph-name="section" unicode="&#xa7;" horiz-adv-x="1122" 
d="M541 59l-195 -59q-233 705 -233 1130q0 254 297 254q167 0 350 -57l-33 -168q-198 45 -293 45q-58 0 -82 -20.5t-24 -73.5q0 -356 213 -1051zM592 942l194 59q234 -708 234 -1130q0 -254 -297 -254q-167 0 -350 57l33 168q198 -45 292 -45q58 0 82.5 20.5t24.5 73.5
q0 356 -213 1051z" />
    <glyph glyph-name="dieresis" unicode="&#xa8;" horiz-adv-x="839" 
d="M123 1135v215h207v-215h-207zM510 1135v215h207v-215h-207z" />
    <glyph glyph-name="copyright" unicode="&#xa9;" horiz-adv-x="1630" 
d="M113 682q0 194 86 353.5t247.5 254t368.5 94.5q156 0 288.5 -55t222.5 -150t141 -223.5t51 -273.5q0 -144 -51 -272.5t-141 -223.5t-223 -150.5t-288 -55.5q-207 0 -368.5 95t-247.5 254t-86 353zM287 682q0 -150 64 -272t185.5 -194.5t278.5 -72.5q158 0 279.5 72.5
t185 194.5t63.5 272q0 151 -63.5 273t-185 194t-279.5 72q-157 0 -278.5 -72t-185.5 -194t-64 -273zM739 580q0 -55 22.5 -75t94.5 -20q76 0 166 23l22 -150q-88 -32 -206 -32q-152 0 -217.5 57t-65.5 180v238q0 123 65.5 180t217.5 57q118 0 206 -32l-22 -150
q-90 23 -166 23q-72 0 -94.5 -20t-22.5 -75v-204z" />
    <glyph glyph-name="ordfeminine" unicode="&#xaa;" horiz-adv-x="788" 
d="M645 1198v-416h-129l-10 43q-85 -55 -189 -55q-83 0 -123 51t-40 137q0 95 43.5 136t140.5 41h149v65q0 55 -22.5 74.5t-95.5 19.5q-75 0 -174 -18l-21 119q98 30 217 30q144 0 199 -52.5t55 -174.5zM487 928v92h-114q-40 0 -54 -12.5t-14 -49.5q0 -33 14 -48t50 -15
q58 0 118 33z" />
    <glyph glyph-name="guillemotleft" unicode="&#xab;" horiz-adv-x="1032" 
d="M72 500l260 395l166 -104l-191 -291l191 -291l-166 -105zM494 500l260 395l166 -104l-191 -291l191 -291l-166 -105z" />
    <glyph glyph-name="logicalnot" unicode="&#xac;" horiz-adv-x="1112" 
d="M123 506v196h835v-522h-204v326h-631z" />
    <glyph glyph-name="registered" unicode="&#xae;" horiz-adv-x="964" 
d="M113 1055q0 159 100.5 264.5t267.5 105.5t269 -105.5t102 -264.5q0 -158 -102.5 -265.5t-268.5 -107.5t-267 107.5t-101 265.5zM221 1055q0 -116 67 -194.5t193 -78.5t194 78.5t68 194.5t-68 193t-194 77t-193 -77t-67 -193zM565 893l-80 111h-51v-111h-74v340h140
q110 0 110 -96v-37q0 -61 -47 -82l88 -125h-86zM537 1130q0 20 -9 27.5t-32 7.5h-62v-94h62q24 0 32.5 8.5t8.5 26.5v24z" />
    <glyph glyph-name="macron" unicode="&#xaf;" horiz-adv-x="737" 
d="M113 1141v166h512v-166h-512z" />
    <glyph glyph-name="degree" unicode="&#xb0;" horiz-adv-x="731" 
d="M629 1083q0 -111 -71 -184.5t-191 -73.5q-121 0 -193 73.5t-72 184.5q0 110 72.5 185t192.5 75t191 -74.5t71 -185.5zM492 1083q0 62 -32 101t-93 39q-62 0 -94.5 -39t-32.5 -101q0 -59 33.5 -98t93.5 -39q59 0 92 39.5t33 97.5z" />
    <glyph glyph-name="plusminus" unicode="&#xb1;" horiz-adv-x="1142" 
d="M989 188v-188h-835v188h835zM154 625v196h315v318h205v-318h315v-196h-315v-318h-205v318h-315z" />
    <glyph glyph-name="twosuperior" unicode="&#xb2;" horiz-adv-x="819" 
d="M147 498v141q53 56 195 211q66 72 94.5 110.5t33.5 54.5t5 44v37q0 45 -19 61.5t-75 16.5q-93 0 -215 -31l-33 160q115 40 266 40q143 0 203 -54.5t60 -168.5v-35q0 -49 -4 -75.5t-26 -70.5t-69 -99q-32 -36 -64 -73.5t-52.5 -60.5t-43.5 -49h273v-159h-529z" />
    <glyph glyph-name="threesuperior" unicode="&#xb3;" horiz-adv-x="811" 
d="M154 510l14 141q109 -16 229 -16q54 0 72 18t18 56v63q0 39 -19.5 55.5t-61.5 16.5h-203v141h192q44 0 61 17.5t17 50.5v63q0 44 -21.5 60t-86.5 16q-85 0 -185 -14l-16 141q106 24 209 24q152 0 216 -51t64 -155v-62q0 -60 -17.5 -93t-74.5 -62q62 -21 84.5 -57.5
t22.5 -106.5v-54q0 -111 -60.5 -166t-220.5 -55q-137 0 -233 29z" />
    <glyph glyph-name="acute" unicode="&#xb4;" horiz-adv-x="643" 
d="M213 1104l-90 139q151 93 299 201l98 -152q-183 -121 -307 -188z" />
    <glyph glyph-name="mu" unicode="&#xb5;" horiz-adv-x="1116" 
d="M133 -403v1400h250v-696q0 -80 80 -80q45 0 118 24t142 60v692h250v-997h-191l-24 84q-194 -94 -375 -104v-383h-250z" />
    <glyph glyph-name="paragraph" unicode="&#xb6;" horiz-adv-x="1077" 
d="M705 1364h198v-1387q0 -32 -2 -51.5t-16 -47t-26 -45t-53 -59t-75.5 -73t-112.5 -103.5q-16 -14 -24 -22l-121 137q76 71 111.5 106t66 66t39 48.5t12 31t3.5 37.5v1362zM92 915q0 192 129.5 320.5t321.5 128.5v-895q-193 0 -322 127t-129 319z" />
    <glyph glyph-name="periodcentered" unicode="&#xb7;" horiz-adv-x="561" 
d="M154 524v287h254v-287h-254z" />
    <glyph glyph-name="cedilla" unicode="&#xb8;" horiz-adv-x="614" 
d="M502 -244q0 -77 -54.5 -121.5t-164.5 -44.5q-89 0 -170 31l20 96q63 -18 133 -18q59 0 80 14t21 45q0 26 -17.5 37.5t-60.5 11.5q-28 0 -64 -4l-59 29l43 199h117l-27 -140q40 5 57 5q71 1 108.5 -37.5t37.5 -102.5z" />
    <glyph glyph-name="onesuperior" unicode="&#xb9;" horiz-adv-x="710" 
d="M160 1026l-68 145l277 152h147v-829h-186v616z" />
    <glyph glyph-name="ordmasculine" unicode="&#xba;" horiz-adv-x="792" 
d="M670 1018q0 -248 -275 -248q-272 0 -272 248v160q0 247 272 247q275 0 275 -247v-160zM512 1182q0 55 -27.5 81.5t-89.5 26.5q-61 0 -87.5 -26t-26.5 -82v-168q0 -56 26.5 -82.5t87.5 -26.5q62 0 89.5 27t27.5 82v168z" />
    <glyph glyph-name="guillemotright" unicode="&#xbb;" horiz-adv-x="1032" 
d="M700 895l261 -395l-261 -396l-165 105l190 291l-190 291zM279 895l260 -395l-260 -396l-166 105l190 291l-190 291z" />
    <glyph glyph-name="onequarter" unicode="&#xbc;" horiz-adv-x="1757" 
d="M1634 166h-121v-166h-178v166h-374v135l299 528h253v-518h121v-145zM1145 311h190v361zM1208 1343l-610 -1425l-143 62l612 1425zM170 1026l-68 145l277 152h147v-829h-186v616z" />
    <glyph glyph-name="onehalf" unicode="&#xbd;" horiz-adv-x="1810" 
d="M1208 1343l-610 -1425l-143 62l612 1425zM170 1026l-68 145l277 152h147v-829h-186v616zM1118 0v141q53 56 195 211q66 72 94.5 110.5t33.5 54.5t5 44v37q0 45 -19 61.5t-75 16.5q-93 0 -215 -31l-33 160q118 41 266 41q143 0 202.5 -54.5t59.5 -168.5v-35
q0 -50 -3.5 -76t-25.5 -70.5t-69 -99.5q-131 -150 -160 -182h273v-160h-529z" />
    <glyph glyph-name="threequarters" unicode="&#xbe;" horiz-adv-x="1824" 
d="M154 510l14 141q109 -16 229 -16q54 0 72 18t18 56v63q0 39 -19.5 55.5t-61.5 16.5h-203v141h192q44 0 61 17.5t17 50.5v63q0 44 -21.5 60t-86.5 16q-85 0 -185 -14l-16 141q106 24 209 24q152 0 216 -51t64 -155v-62q0 -60 -17.5 -93t-74.5 -62q62 -21 84.5 -57.5
t22.5 -106.5v-54q0 -111 -60.5 -166t-220.5 -55q-137 0 -233 29zM1702 166h-121v-166h-178v166h-375v135l299 528h254v-518h121v-145zM1212 311h191v361zM1276 1343l-610 -1425l-144 62l613 1425z" />
    <glyph glyph-name="questiondown" unicode="&#xbf;" horiz-adv-x="1005" 
d="M537 555l141 -190q-28 -22 -189 -150q-62 -49 -87.5 -81t-32.5 -63.5t-7 -99.5q0 -100 41.5 -136t169.5 -36q148 0 293 37l37 -215q-170 -45 -356 -45q-132 0 -217 22.5t-133 72.5t-66 117t-18 169q0 68 2 105t10.5 80.5t27 73.5t48.5 64.5t78 73.5q81 67 258 201z
M705 997v-286h-254v286h254z" />
    <glyph glyph-name="Agrave" unicode="&#xc0;" horiz-adv-x="1323" 
d="M1001 0l-88 283h-505l-86 -283h-271l430 1364h361l430 -1364h-271zM662 1151l-191 -645h377zM778 1591l-90 -139q-164 86 -278 170l98 152q99 -78 270 -183z" />
    <glyph glyph-name="Aacute" unicode="&#xc1;" horiz-adv-x="1323" 
d="M1001 0l-88 283h-505l-86 -283h-271l430 1364h361l430 -1364h-271zM662 1151l-191 -645h377zM651 1452l-90 139q174 107 273 183l96 -152q-118 -88 -279 -170z" />
    <glyph glyph-name="Acircumflex" unicode="&#xc2;" horiz-adv-x="1323" 
d="M1001 0l-88 283h-505l-86 -283h-271l430 1364h361l430 -1364h-271zM662 1151l-191 -645h377zM473 1452l-72 115q145 97 261 186q125 -95 260 -186l-70 -115q-92 42 -190 100q-92 -53 -189 -100z" />
    <glyph glyph-name="Atilde" unicode="&#xc3;" horiz-adv-x="1323" 
d="M1001 0l-88 283h-505l-86 -283h-271l430 1364h361l430 -1364h-271zM662 1151l-191 -645h377zM647 1513q-2 1 -13.5 8.5t-13.5 9t-11.5 7t-12.5 6.5t-11 4.5t-12.5 4.5t-11.5 2t-14 1q-22 0 -43.5 -15.5t-31 -27.5t-30.5 -40l-102 83q37 70 90 115t113 45t129 -41
q76 -45 106 -45q31 0 50.5 18.5t33.5 57.5l119 -61q-27 -81 -79.5 -126.5t-123.5 -45.5q-72 0 -131 40z" />
    <glyph glyph-name="Adieresis" unicode="&#xc4;" horiz-adv-x="1323" 
d="M1001 0l-88 283h-505l-86 -283h-271l430 1364h361l430 -1364h-271zM662 1151l-191 -645h377zM360 1487v199h209v-199h-209zM756 1487v199h209v-199h-209z" />
    <glyph glyph-name="Aring" unicode="&#xc5;" horiz-adv-x="1323" 
d="M1001 0l-88 283h-505l-86 -283h-271l430 1364h361l430 -1364h-271zM662 1151l-191 -645h377zM829 1602q0 -68 -45.5 -114t-121.5 -46q-77 0 -122.5 44.5t-45.5 115.5q0 69 46 115t122 46t121.5 -46t45.5 -115zM729 1602q0 34 -17.5 52.5t-49.5 18.5t-50 -18.5t-18 -52.5
q0 -31 18 -50.5t50 -19.5t49.5 19.5t17.5 50.5z" />
    <glyph glyph-name="AE" unicode="&#xc6;" horiz-adv-x="1765" 
d="M1001 0l-88 283h-505l-86 -283h-271l430 1364h1172v-227h-740l105 -330h590v-227h-518l110 -353h453v-227h-652zM662 1151l-191 -645h377z" />
    <glyph glyph-name="Ccedilla" unicode="&#xc7;" horiz-adv-x="1071" 
d="M825 -244q0 -77 -54.5 -121.5t-164.5 -44.5q-89 0 -170 31l21 96q63 -18 133 -18q59 0 79.5 14t20.5 45q0 26 -18 37.5t-60 11.5q-27 0 -63 -4l-60 29l33 152q-399 33 -399 391v614q0 395 485 395q196 0 371 -45l-29 -223q-194 35 -334 35q-131 0 -183 -48t-52 -159v-524
q0 -111 52 -159t183 -48q140 0 334 35l29 -223q-162 -42 -340 -45l-16 -89q40 5 57 5q71 1 108 -37.5t37 -102.5z" />
    <glyph glyph-name="Egrave" unicode="&#xc8;" horiz-adv-x="1101" 
d="M154 0v1364h835v-227h-577v-330h532v-227h-532v-353h577v-227h-835zM702 1591l-90 -139q-164 86 -278 170l98 152q99 -78 270 -183z" />
    <glyph glyph-name="Eacute" unicode="&#xc9;" horiz-adv-x="1101" 
d="M154 0v1364h835v-227h-577v-330h532v-227h-532v-353h577v-227h-835zM528 1452l-90 139q174 107 273 183l96 -152q-118 -88 -279 -170z" />
    <glyph glyph-name="Ecircumflex" unicode="&#xca;" horiz-adv-x="1101" 
d="M154 0v1364h835v-227h-577v-330h532v-227h-532v-353h577v-227h-835zM395 1452l-71 115q137 92 260 186q125 -95 260 -186l-70 -115q-92 42 -190 100q-92 -53 -189 -100z" />
    <glyph glyph-name="Edieresis" unicode="&#xcb;" horiz-adv-x="1101" 
d="M154 0v1364h835v-227h-577v-330h532v-227h-532v-353h577v-227h-835zM256 1487v199h209v-199h-209zM651 1487v199h209v-199h-209z" />
    <glyph glyph-name="Igrave" unicode="&#xcc;" horiz-adv-x="585" 
d="M422 1364v-1364h-258v1364h258zM395 1591l-90 -139q-164 86 -278 170l98 152q99 -78 270 -183z" />
    <glyph glyph-name="Iacute" unicode="&#xcd;" horiz-adv-x="585" 
d="M422 1364v-1364h-258v1364h258zM281 1452l-91 139q174 107 273 183l96 -152q-121 -89 -278 -170z" />
    <glyph glyph-name="Icircumflex" unicode="&#xce;" horiz-adv-x="585" 
d="M422 1364v-1364h-258v1364h258zM104 1452l-71 115q137 92 260 186q125 -95 260 -186l-70 -115q-92 42 -190 100q-92 -53 -189 -100z" />
    <glyph glyph-name="Idieresis" unicode="&#xcf;" horiz-adv-x="585" 
d="M422 1364v-1364h-258v1364h258zM-8 1487v199h209v-199h-209zM387 1487v199h209v-199h-209z" />
    <glyph glyph-name="Eth" unicode="&#xd0;" horiz-adv-x="1306" 
d="M82 586v207h141v571h508q122 0 212 -29t141.5 -81t75.5 -116t24 -141v-630q0 -76 -24.5 -140t-75.5 -116t-141 -81.5t-212 -29.5h-508v586h-141zM481 1137v-344h209v-207h-209v-359h224q125 0 173 48.5t48 152.5v508q0 104 -48 152.5t-173 48.5h-224z" />
    <glyph glyph-name="Ntilde" unicode="&#xd1;" horiz-adv-x="1421" 
d="M924 0l-518 1034v-1034h-252v1364h344l518 -1036v1036h252v-1364h-344zM694 1513q-2 1 -13.5 8.5t-13.5 9t-11.5 7t-12.5 6.5t-11 4.5t-12.5 4.5t-11.5 2t-14 1q-22 0 -43.5 -15.5t-31 -27.5t-30.5 -40l-102 83q37 70 90 115t113 45t129 -41q76 -45 106 -45
q31 0 50.5 18.5t33.5 57.5l119 -61q-27 -81 -79.5 -126.5t-123.5 -45.5q-72 0 -131 40z" />
    <glyph glyph-name="Ograve" unicode="&#xd2;" horiz-adv-x="1277" 
d="M1155 965v-566q0 -89 -27.5 -162t-85.5 -132t-160.5 -92t-242.5 -33t-242.5 33t-160.5 92t-85.5 132t-27.5 162v566q0 89 27.5 162t85.5 132t160.5 92t242.5 33t242.5 -33t160.5 -92t85.5 -132t27.5 -162zM381 950v-536q0 -102 59.5 -154.5t198.5 -52.5t198.5 52.5
t59.5 154.5v536q0 102 -59.5 154.5t-198.5 52.5t-198.5 -52.5t-59.5 -154.5zM729 1591l-90 -139q-168 88 -279 170l99 152q99 -78 270 -183z" />
    <glyph glyph-name="Oacute" unicode="&#xd3;" horiz-adv-x="1277" 
d="M1155 965v-566q0 -89 -27.5 -162t-85.5 -132t-160.5 -92t-242.5 -33t-242.5 33t-160.5 92t-85.5 132t-27.5 162v566q0 89 27.5 162t85.5 132t160.5 92t242.5 33t242.5 -33t160.5 -92t85.5 -132t27.5 -162zM381 950v-536q0 -102 59.5 -154.5t198.5 -52.5t198.5 52.5
t59.5 154.5v536q0 102 -59.5 154.5t-198.5 52.5t-198.5 -52.5t-59.5 -154.5zM602 1452l-90 139q169 104 272 183l97 -152q-118 -88 -279 -170z" />
    <glyph glyph-name="Ocircumflex" unicode="&#xd4;" horiz-adv-x="1277" 
d="M1155 965v-566q0 -89 -27.5 -162t-85.5 -132t-160.5 -92t-242.5 -33t-242.5 33t-160.5 92t-85.5 132t-27.5 162v566q0 89 27.5 162t85.5 132t160.5 92t242.5 33t242.5 -33t160.5 -92t85.5 -132t27.5 -162zM381 950v-536q0 -102 59.5 -154.5t198.5 -52.5t198.5 52.5
t59.5 154.5v536q0 102 -59.5 154.5t-198.5 52.5t-198.5 -52.5t-59.5 -154.5zM451 1452l-72 115q137 92 260 186q125 -95 260 -186l-70 -115q-92 42 -190 100q-98 -56 -188 -100z" />
    <glyph glyph-name="Otilde" unicode="&#xd5;" horiz-adv-x="1277" 
d="M1155 965v-566q0 -89 -27.5 -162t-85.5 -132t-160.5 -92t-242.5 -33t-242.5 33t-160.5 92t-85.5 132t-27.5 162v566q0 89 27.5 162t85.5 132t160.5 92t242.5 33t242.5 -33t160.5 -92t85.5 -132t27.5 -162zM381 950v-536q0 -102 59.5 -154.5t198.5 -52.5t198.5 52.5
t59.5 154.5v536q0 102 -59.5 154.5t-198.5 52.5t-198.5 -52.5t-59.5 -154.5zM614 1513q-2 1 -13.5 8.5t-13.5 9t-11.5 7t-12.5 6.5t-11 4.5t-12.5 4.5t-11.5 2t-14 1q-17 0 -31 -6t-30 -23.5t-20.5 -23.5l-22.5 -30l-103 83q37 70 90 115t113 45t129 -41q76 -45 106 -45
q31 0 50.5 18.5t33.5 57.5l119 -61q-27 -81 -79.5 -126.5t-123.5 -45.5q-72 0 -131 40z" />
    <glyph glyph-name="Odieresis" unicode="&#xd6;" horiz-adv-x="1277" 
d="M1155 965v-566q0 -89 -27.5 -162t-85.5 -132t-160.5 -92t-242.5 -33t-242.5 33t-160.5 92t-85.5 132t-27.5 162v566q0 89 27.5 162t85.5 132t160.5 92t242.5 33t242.5 -33t160.5 -92t85.5 -132t27.5 -162zM381 950v-536q0 -102 59.5 -154.5t198.5 -52.5t198.5 52.5
t59.5 154.5v536q0 102 -59.5 154.5t-198.5 52.5t-198.5 -52.5t-59.5 -154.5zM336 1487v199h209v-199h-209zM731 1487v199h209v-199h-209z" />
    <glyph glyph-name="multiply" unicode="&#xd7;" horiz-adv-x="1013" 
d="M745 874l146 -145l-240 -237l240 -240l-146 -146l-239 240l-238 -240l-145 146l239 240l-239 237l145 145l238 -239z" />
    <glyph glyph-name="Oslash" unicode="&#xd8;" horiz-adv-x="1277" 
d="M123 -61l104 174q-104 107 -104 286v566q0 89 27.5 162t85.5 132t160.5 92t242.5 33q189 0 311 -61l99 164l106 -62l-104 -176q104 -107 104 -284v-566q0 -89 -27.5 -162t-85.5 -132t-160.5 -92t-242.5 -33q-192 0 -311 61l-99 -164zM897 950q0 27 -2 39l-442 -739
q61 -43 186 -43q139 0 198.5 52.5t59.5 154.5v536zM381 950v-536q0 -27 2 -39l442 739q-65 43 -186 43q-139 0 -198.5 -52.5t-59.5 -154.5z" />
    <glyph glyph-name="Ugrave" unicode="&#xd9;" horiz-adv-x="1294" 
d="M893 1364h258v-969q0 -67 -15.5 -126t-52 -113t-93 -92t-144.5 -61t-199 -23t-199 23t-144.5 61t-93 92t-52 113t-15.5 126v969h258v-948q0 -104 57 -156.5t189 -52.5t189 52.5t57 156.5v948zM766 1591l-90 -139q-168 88 -279 170l99 152q99 -78 270 -183z" />
    <glyph glyph-name="Uacute" unicode="&#xda;" horiz-adv-x="1294" 
d="M893 1364h258v-969q0 -67 -15.5 -126t-52 -113t-93 -92t-144.5 -61t-199 -23t-199 23t-144.5 61t-93 92t-52 113t-15.5 126v969h258v-948q0 -104 57 -156.5t189 -52.5t189 52.5t57 156.5v948zM594 1452l-90 139q169 104 272 183l96 -152q-121 -89 -278 -170z" />
    <glyph glyph-name="Ucircumflex" unicode="&#xdb;" horiz-adv-x="1294" 
d="M893 1364h258v-969q0 -67 -15.5 -126t-52 -113t-93 -92t-144.5 -61t-199 -23t-199 23t-144.5 61t-93 92t-52 113t-15.5 126v969h258v-948q0 -104 57 -156.5t189 -52.5t189 52.5t57 156.5v948zM459 1452l-72 115q137 92 260 186q125 -95 260 -186l-69 -115
q-96 45 -191 100q-98 -56 -188 -100z" />
    <glyph glyph-name="Udieresis" unicode="&#xdc;" horiz-adv-x="1294" 
d="M893 1364h258v-969q0 -67 -15.5 -126t-52 -113t-93 -92t-144.5 -61t-199 -23t-199 23t-144.5 61t-93 92t-52 113t-15.5 126v969h258v-948q0 -104 57 -156.5t189 -52.5t189 52.5t57 156.5v948zM346 1487v199h209v-199h-209zM741 1487v199h209v-199h-209z" />
    <glyph glyph-name="Yacute" unicode="&#xdd;" horiz-adv-x="1159" 
d="M580 676l294 688h275l-440 -969v-395h-258v395l-441 969h275zM543 1452l-90 139q169 104 272 183l96 -152q-121 -89 -278 -170z" />
    <glyph glyph-name="Thorn" unicode="&#xde;" horiz-adv-x="1179" 
d="M154 0v1364h258v-217h274q230 0 331 -91.5t101 -277.5v-186q0 -183 -106 -275t-338 -92h-262v-225h-258zM860 758q0 86 -42 124t-146 38h-260v-467h260q106 0 147 38.5t41 126.5v140z" />
    <glyph glyph-name="germandbls" unicode="&#xdf;" horiz-adv-x="1253" 
d="M612 684q0 50 15 90t59 115q54 93 68 132t14 83q0 62 -47 97.5t-135 35.5q-193 0 -193 -180v-1057h-250v1067q0 185 114.5 282t324.5 97q213 0 324.5 -90t111.5 -248q0 -60 -16.5 -114.5t-63.5 -131.5q-49 -80 -62.5 -110.5t-13.5 -55.5q0 -26 23 -57t102 -94
q127 -106 155.5 -150t28.5 -141q0 -144 -70 -209t-249 -65q-53 0 -127.5 9.5t-126.5 26.5l29 191q36 -10 99 -17.5t99 -7.5q55 0 76 16t21 56q0 38 -19 59t-127 107q-103 84 -133.5 134.5t-30.5 129.5z" />
    <glyph glyph-name="agrave" unicode="&#xe0;" horiz-adv-x="1005" 
d="M883 657v-657h-205l-19 68q-134 -88 -297 -88q-131 0 -195.5 80t-64.5 216q0 151 68.5 216t222.5 65h240v105q0 86 -37.5 117.5t-153.5 31.5q-124 0 -276 -31l-31 191q152 47 342 47q117 0 195.5 -20.5t125 -66.5t66 -111.5t19.5 -162.5zM633 229v148h-184
q-61 0 -83 -20.5t-22 -77.5q0 -54 21.5 -77.5t78.5 -23.5q100 0 189 51zM666 1243l-93 -139q-130 72 -305 188l99 152q132 -98 299 -201z" />
    <glyph glyph-name="aacute" unicode="&#xe1;" horiz-adv-x="1005" 
d="M883 657v-657h-205l-19 68q-134 -88 -297 -88q-131 0 -195.5 80t-64.5 216q0 151 68.5 216t222.5 65h240v105q0 86 -37.5 117.5t-153.5 31.5q-124 0 -276 -31l-31 191q152 47 342 47q117 0 195.5 -20.5t125 -66.5t66 -111.5t19.5 -162.5zM633 229v148h-184
q-61 0 -83 -20.5t-22 -77.5q0 -54 21.5 -77.5t78.5 -23.5q100 0 189 51zM434 1104l-90 139q151 93 299 201l98 -152q-183 -121 -307 -188z" />
    <glyph glyph-name="acircumflex" unicode="&#xe2;" horiz-adv-x="1005" 
d="M883 657v-657h-205l-19 68q-134 -88 -297 -88q-131 0 -195.5 80t-64.5 216q0 151 68.5 216t222.5 65h240v105q0 86 -37.5 117.5t-153.5 31.5q-124 0 -276 -31l-31 191q152 47 342 47q117 0 195.5 -20.5t125 -66.5t66 -111.5t19.5 -162.5zM633 229v148h-184
q-61 0 -83 -20.5t-22 -77.5q0 -54 21.5 -77.5t78.5 -23.5q100 0 189 51zM311 1092l-80 110q157 115 287 223q142 -117 285 -223l-78 -110q-96 55 -207 133q-100 -70 -207 -133z" />
    <glyph glyph-name="atilde" unicode="&#xe3;" horiz-adv-x="1005" 
d="M883 657v-657h-205l-19 68q-134 -88 -297 -88q-131 0 -195.5 80t-64.5 216q0 151 68.5 216t222.5 65h240v105q0 86 -37.5 117.5t-153.5 31.5q-124 0 -276 -31l-31 191q152 47 342 47q117 0 195.5 -20.5t125 -66.5t66 -111.5t19.5 -162.5zM633 229v148h-184
q-61 0 -83 -20.5t-22 -77.5q0 -54 21.5 -77.5t78.5 -23.5q100 0 189 51zM496 1161q-34 24 -55 33.5t-46 9.5q-10 0 -19 -2t-18 -8.5t-15 -10.5t-15 -14.5t-12.5 -14.5t-13 -17t-11.5 -15l-103 84q38 68 90.5 113t112.5 45q64 0 129 -41q73 -43 107 -43q31 0 50.5 18.5
t33.5 57.5l118 -62q-27 -81 -79 -126.5t-123 -45.5q-69 0 -131 39z" />
    <glyph glyph-name="adieresis" unicode="&#xe4;" horiz-adv-x="1005" 
d="M883 657v-657h-205l-19 68q-134 -88 -297 -88q-131 0 -195.5 80t-64.5 216q0 151 68.5 216t222.5 65h240v105q0 86 -37.5 117.5t-153.5 31.5q-124 0 -276 -31l-31 191q152 47 342 47q117 0 195.5 -20.5t125 -66.5t66 -111.5t19.5 -162.5zM633 229v148h-184
q-61 0 -83 -20.5t-22 -77.5q0 -54 21.5 -77.5t78.5 -23.5q100 0 189 51zM221 1135v215h207v-215h-207zM608 1135v215h207v-215h-207z" />
    <glyph glyph-name="aring" unicode="&#xe5;" horiz-adv-x="1005" 
d="M883 657v-657h-205l-19 68q-134 -88 -297 -88q-131 0 -195.5 80t-64.5 216q0 151 68.5 216t222.5 65h240v105q0 86 -37.5 117.5t-153.5 31.5q-124 0 -276 -31l-31 191q152 47 342 47q117 0 195.5 -20.5t125 -66.5t66 -111.5t19.5 -162.5zM633 229v148h-184
q-61 0 -83 -20.5t-22 -77.5q0 -54 21.5 -77.5t78.5 -23.5q100 0 189 51zM686 1270q0 -76 -48 -126t-134 -50t-134 48.5t-48 127.5q0 75 48.5 124.5t133.5 49.5q86 0 134 -49.5t48 -124.5zM578 1270q0 35 -20 56.5t-54 21.5t-54 -21.5t-20 -56.5q0 -36 20.5 -58t53.5 -22
t53.5 22t20.5 58z" />
    <glyph glyph-name="ae" unicode="&#xe6;" horiz-adv-x="1519" 
d="M883 352q0 -93 41 -130.5t153 -37.5q150 0 305 47l39 -188q-166 -63 -366 -63q-225 0 -328 100q-158 -100 -342 -100q-143 0 -213 80t-70 216q0 151 68.5 216t222.5 65h240v105q0 86 -37.5 117.5t-153.5 31.5q-124 0 -276 -31l-31 191q152 47 342 47q97 0 164.5 -23
t132.5 -69q128 92 273 92q93 0 163 -21.5t113 -57.5t69 -89t36 -109t10 -125v-213h-555v-51zM883 653v-49h317v49q0 78 -32.5 119t-118.5 41q-166 0 -166 -160zM444 178q109 0 201 53q-12 58 -12 134v12h-184q-61 0 -83 -20.5t-22 -77.5q0 -54 21.5 -77.5t78.5 -23.5z" />
    <glyph glyph-name="ccedilla" unicode="&#xe7;" horiz-adv-x="858" 
d="M709 -244q0 -77 -55 -121.5t-165 -44.5q-89 0 -170 31l21 96q63 -18 133 -18q59 0 79.5 14t20.5 45q0 27 -17.5 38t-59.5 11q-28 0 -64 -4l-59 29l33 156q-164 20 -236 109.5t-72 264.5v273q0 203 99 293t331 90q134 0 244 -37l-31 -205q-102 27 -206 27
q-106 0 -146.5 -36.5t-40.5 -129.5v-277q0 -93 40 -129t147 -36q102 0 206 26l31 -205q-103 -36 -244 -36h-6l-16 -89q40 5 57 5q71 1 108.5 -37.5t37.5 -102.5z" />
    <glyph glyph-name="egrave" unicode="&#xe8;" horiz-adv-x="985" 
d="M348 352q0 -93 41.5 -130.5t153.5 -37.5q150 0 305 47l39 -188q-166 -63 -367 -63q-226 0 -324 98t-98 287v264q0 84 20.5 150.5t66 122t128.5 86t199 30.5q93 0 163 -21.5t113 -57.5t69 -89t36 -109t10 -125v-213h-555v-51zM348 653v-49h318v49q0 78 -33 119t-119 41
q-166 0 -166 -160zM643 1243l-92 -139q-130 72 -305 188l98 152q132 -98 299 -201z" />
    <glyph glyph-name="eacute" unicode="&#xe9;" horiz-adv-x="985" 
d="M348 352q0 -93 41.5 -130.5t153.5 -37.5q150 0 305 47l39 -188q-166 -63 -367 -63q-226 0 -324 98t-98 287v264q0 84 20.5 150.5t66 122t128.5 86t199 30.5q93 0 163 -21.5t113 -57.5t69 -89t36 -109t10 -125v-213h-555v-51zM348 653v-49h318v49q0 78 -33 119t-119 41
q-166 0 -166 -160zM428 1104l-90 139q151 93 299 201l98 -152q-183 -121 -307 -188z" />
    <glyph glyph-name="ecircumflex" unicode="&#xea;" horiz-adv-x="985" 
d="M348 352q0 -93 41.5 -130.5t153.5 -37.5q150 0 305 47l39 -188q-166 -63 -367 -63q-226 0 -324 98t-98 287v264q0 84 20.5 150.5t66 122t128.5 86t199 30.5q93 0 163 -21.5t113 -57.5t69 -89t36 -109t10 -125v-213h-555v-51zM348 653v-49h318v49q0 78 -33 119t-119 41
q-166 0 -166 -160zM303 1092l-80 110q157 115 287 223q142 -117 285 -223l-78 -110q-96 55 -207 133q-100 -70 -207 -133z" />
    <glyph glyph-name="edieresis" unicode="&#xeb;" horiz-adv-x="985" 
d="M348 352q0 -93 41.5 -130.5t153.5 -37.5q150 0 305 47l39 -188q-166 -63 -367 -63q-226 0 -324 98t-98 287v264q0 84 20.5 150.5t66 122t128.5 86t199 30.5q93 0 163 -21.5t113 -57.5t69 -89t36 -109t10 -125v-213h-555v-51zM348 653v-49h318v49q0 78 -33 119t-119 41
q-166 0 -166 -160zM217 1135v215h207v-215h-207zM604 1135v215h207v-215h-207z" />
    <glyph glyph-name="igrave" unicode="&#xec;" horiz-adv-x="536" 
d="M393 0h-250v997h250v-997zM373 1243l-92 -139q-136 76 -306 188l99 152q132 -98 299 -201z" />
    <glyph glyph-name="iacute" unicode="&#xed;" horiz-adv-x="536" 
d="M393 0h-250v997h250v-997zM260 1104l-90 139q151 93 299 201l98 -152q-183 -121 -307 -188z" />
    <glyph glyph-name="icircumflex" unicode="&#xee;" horiz-adv-x="536" 
d="M393 0h-250v997h250v-997zM63 1092l-79 110q148 109 286 223q142 -117 285 -223l-78 -110q-96 55 -207 133q-100 -70 -207 -133z" />
    <glyph glyph-name="idieresis" unicode="&#xef;" horiz-adv-x="536" 
d="M393 0h-250v997h250v-997zM-29 1135v215h207v-215h-207zM358 1135v215h207v-215h-207z" />
    <glyph glyph-name="eth" unicode="&#xf0;" horiz-adv-x="1032" 
d="M291 1024l137 109q-78 37 -227 73l43 197q208 -35 356 -119l119 92l78 -88l-95 -74q109 -91 158 -197t49 -288v-387q0 -65 -10 -116.5t-37.5 -99t-71.5 -78.5t-115.5 -49.5t-166.5 -18.5q-97 0 -169 16.5t-117 44.5t-72 72.5t-37.5 94t-10.5 114.5v143q0 193 76 284
t262 91q109 0 217 -43q-1 94 -30.5 156.5t-89.5 111.5l-168 -131zM504 193q93 0 124 33t31 130v224q-84 47 -182 47q-66 0 -97.5 -30.5t-31.5 -100.5v-156q0 -86 31 -116.5t125 -30.5z" />
    <glyph glyph-name="ntilde" unicode="&#xf1;" horiz-adv-x="1116" 
d="M983 0h-250v696q0 80 -80 80q-45 0 -118 -24t-142 -60v-692h-250v997h191l24 -84q96 47 205 76t195 29q225 0 225 -295v-723zM547 1161q-34 24 -55 33.5t-46 9.5q-10 0 -19 -2t-18 -8.5t-15 -10.5t-15 -14.5t-12.5 -14.5t-13 -17t-11.5 -15l-102 84q38 69 90 113.5
t112 44.5q64 0 129 -41q73 -43 107 -43q31 0 50.5 18.5t33.5 57.5l119 -62q-27 -81 -79.5 -126.5t-123.5 -45.5q-69 0 -131 39z" />
    <glyph glyph-name="ograve" unicode="&#xf2;" horiz-adv-x="1064" 
d="M967 373q0 -82 -20.5 -148.5t-68 -124t-135.5 -89t-211 -31.5q-99 0 -176 21.5t-125 57.5t-78.5 87.5t-42.5 106.5t-12 120v252q0 65 12 120t42.5 106.5t78.5 87.5t125 57.5t176 21.5q123 0 211 -31.5t135.5 -89t68 -124t20.5 -148.5v-252zM717 633q0 87 -43.5 129.5
t-141.5 42.5q-97 0 -140.5 -42.5t-43.5 -129.5v-268q0 -87 43.5 -129.5t140.5 -42.5q98 0 141.5 42.5t43.5 129.5v268zM657 1243l-92 -139q-130 72 -305 188l98 152q132 -98 299 -201z" />
    <glyph glyph-name="oacute" unicode="&#xf3;" horiz-adv-x="1064" 
d="M967 373q0 -82 -20.5 -148.5t-68 -124t-135.5 -89t-211 -31.5q-99 0 -176 21.5t-125 57.5t-78.5 87.5t-42.5 106.5t-12 120v252q0 65 12 120t42.5 106.5t78.5 87.5t125 57.5t176 21.5q123 0 211 -31.5t135.5 -89t68 -124t20.5 -148.5v-252zM717 633q0 87 -43.5 129.5
t-141.5 42.5q-97 0 -140.5 -42.5t-43.5 -129.5v-268q0 -87 43.5 -129.5t140.5 -42.5q98 0 141.5 42.5t43.5 129.5v268zM481 1104l-90 139q151 93 299 201l98 -152q-183 -121 -307 -188z" />
    <glyph glyph-name="ocircumflex" unicode="&#xf4;" horiz-adv-x="1064" 
d="M967 373q0 -82 -20.5 -148.5t-68 -124t-135.5 -89t-211 -31.5q-99 0 -176 21.5t-125 57.5t-78.5 87.5t-42.5 106.5t-12 120v252q0 65 12 120t42.5 106.5t78.5 87.5t125 57.5t176 21.5q123 0 211 -31.5t135.5 -89t68 -124t20.5 -148.5v-252zM717 633q0 87 -43.5 129.5
t-141.5 42.5q-97 0 -140.5 -42.5t-43.5 -129.5v-268q0 -87 43.5 -129.5t140.5 -42.5q98 0 141.5 42.5t43.5 129.5v268zM328 1092l-80 110q157 115 287 223q151 -124 284 -223l-78 -110q-90 52 -206 133q-100 -70 -207 -133z" />
    <glyph glyph-name="otilde" unicode="&#xf5;" horiz-adv-x="1064" 
d="M967 373q0 -82 -20.5 -148.5t-68 -124t-135.5 -89t-211 -31.5q-99 0 -176 21.5t-125 57.5t-78.5 87.5t-42.5 106.5t-12 120v252q0 65 12 120t42.5 106.5t78.5 87.5t125 57.5t176 21.5q123 0 211 -31.5t135.5 -89t68 -124t20.5 -148.5v-252zM717 633q0 87 -43.5 129.5
t-141.5 42.5q-97 0 -140.5 -42.5t-43.5 -129.5v-268q0 -87 43.5 -129.5t140.5 -42.5q98 0 141.5 42.5t43.5 129.5v268zM522 1161q-24 16 -36 23.5t-29 13.5t-35 6q-9 0 -17.5 -2.5t-15 -5t-14.5 -9.5t-12.5 -10.5t-13 -13.5t-11 -13t-11.5 -14.5t-10 -13.5l-102 84
q38 68 90.5 113t112.5 45q64 0 129 -41q73 -43 106 -43q31 0 50.5 18.5t33.5 57.5l119 -62q-27 -81 -79.5 -126.5t-123.5 -45.5q-69 0 -131 39z" />
    <glyph glyph-name="odieresis" unicode="&#xf6;" horiz-adv-x="1064" 
d="M967 373q0 -82 -20.5 -148.5t-68 -124t-135.5 -89t-211 -31.5q-99 0 -176 21.5t-125 57.5t-78.5 87.5t-42.5 106.5t-12 120v252q0 65 12 120t42.5 106.5t78.5 87.5t125 57.5t176 21.5q123 0 211 -31.5t135.5 -89t68 -124t20.5 -148.5v-252zM717 633q0 87 -43.5 129.5
t-141.5 42.5q-97 0 -140.5 -42.5t-43.5 -129.5v-268q0 -87 43.5 -129.5t140.5 -42.5q98 0 141.5 42.5t43.5 129.5v268zM236 1135v215h206v-215h-206zM623 1135v215h206v-215h-206z" />
    <glyph glyph-name="divide" unicode="&#xf7;" horiz-adv-x="1110" 
d="M977 584v-168h-844v168h844zM436 23v247h238v-247h-238zM436 727v248h238v-248h-238z" />
    <glyph glyph-name="oslash" unicode="&#xf8;" horiz-adv-x="1064" 
d="M98 -45l95 137q-95 100 -95 281v252q0 65 12 120t42.5 106.5t78.5 87.5t125 57.5t176 21.5q157 0 254 -51l91 131l88 -58l-95 -137q97 -100 97 -278v-252q0 -82 -20.5 -148.5t-68 -124t-135.5 -89t-211 -31.5q-159 0 -256 51l-90 -133zM717 633q0 29 -2 41l-307 -453
q45 -28 124 -28q98 0 141.5 42.5t43.5 129.5v268zM348 365q0 -29 2 -41l307 450q-45 31 -125 31q-97 0 -140.5 -42.5t-43.5 -129.5v-268z" />
    <glyph glyph-name="ugrave" unicode="&#xf9;" horiz-adv-x="1116" 
d="M133 997h250v-696q0 -80 80 -80q45 0 118 24t142 60v692h250v-997h-191l-24 84q-95 -46 -204.5 -75t-195.5 -29q-225 0 -225 294v723zM684 1243l-92 -139q-130 72 -305 188l98 152q132 -98 299 -201z" />
    <glyph glyph-name="uacute" unicode="&#xfa;" horiz-adv-x="1116" 
d="M133 997h250v-696q0 -80 80 -80q45 0 118 24t142 60v692h250v-997h-191l-24 84q-95 -46 -204.5 -75t-195.5 -29q-225 0 -225 294v723zM508 1104l-90 139q151 93 299 201l98 -152q-183 -121 -307 -188z" />
    <glyph glyph-name="ucircumflex" unicode="&#xfb;" horiz-adv-x="1116" 
d="M133 997h250v-696q0 -80 80 -80q45 0 118 24t142 60v692h250v-997h-191l-24 84q-95 -46 -204.5 -75t-195.5 -29q-225 0 -225 294v723zM354 1092l-80 110q157 115 287 223q142 -117 285 -223l-78 -110q-96 55 -207 133q-100 -70 -207 -133z" />
    <glyph glyph-name="udieresis" unicode="&#xfc;" horiz-adv-x="1116" 
d="M133 997h250v-696q0 -80 80 -80q45 0 118 24t142 60v692h250v-997h-191l-24 84q-95 -46 -204.5 -75t-195.5 -29q-225 0 -225 294v723zM268 1135v215h207v-215h-207zM655 1135v215h207v-215h-207z" />
    <glyph glyph-name="yacute" unicode="&#xfd;" horiz-adv-x="978" 
d="M979 997l-320 -997l-133 -403h-237l125 403h-88l-316 997h256l228 -757l229 757h256zM469 1104l-90 139q151 93 299 201l98 -152q-183 -121 -307 -188z" />
    <glyph glyph-name="thorn" unicode="&#xfe;" horiz-adv-x="1091" 
d="M989 672v-340q0 -352 -330 -352q-129 0 -266 28v-411l-250 -35v1843l250 35v-504q122 82 289 82q151 0 229 -88t78 -258zM393 715v-496q123 -26 221 -26q66 0 95.5 32t29.5 101v352q0 64 -28 95.5t-95 31.5q-58 0 -118.5 -26.5t-104.5 -63.5z" />
    <glyph glyph-name="ydieresis" unicode="&#xff;" horiz-adv-x="978" 
d="M979 997l-320 -997l-133 -403h-237l125 403h-88l-316 997h256l228 -757l229 757h256zM188 1135v215h207v-215h-207zM575 1135v215h207v-215h-207z" />
    <glyph glyph-name="Amacron" unicode="&#x100;" horiz-adv-x="1323" 
d="M1001 0l-88 283h-505l-86 -283h-271l430 1364h361l430 -1364h-271zM662 1151l-191 -645h377zM406 1499v166h512v-166h-512z" />
    <glyph glyph-name="amacron" unicode="&#x101;" horiz-adv-x="1005" 
d="M883 657v-657h-205l-19 68q-134 -88 -297 -88q-131 0 -195.5 80t-64.5 216q0 151 68.5 216t222.5 65h240v105q0 86 -37.5 117.5t-153.5 31.5q-124 0 -276 -31l-31 191q152 47 342 47q117 0 195.5 -20.5t125 -66.5t66 -111.5t19.5 -162.5zM633 229v148h-184
q-61 0 -83 -20.5t-22 -77.5q0 -54 21.5 -77.5t78.5 -23.5q100 0 189 51zM260 1141v166h512v-166h-512z" />
    <glyph glyph-name="Abreve" unicode="&#x102;" horiz-adv-x="1323" 
d="M1001 0l-88 283h-505l-86 -283h-271l430 1364h361l430 -1364h-271zM662 1151l-191 -645h377zM825 1733l119 -66q-23 -88 -95.5 -145.5t-186.5 -57.5t-187 57.5t-96 145.5l121 66q45 -129 162 -129q115 0 163 129z" />
    <glyph glyph-name="abreve" unicode="&#x103;" horiz-adv-x="1005" 
d="M883 657v-657h-205l-19 68q-134 -88 -297 -88q-131 0 -195.5 80t-64.5 216q0 151 68.5 216t222.5 65h240v105q0 86 -37.5 117.5t-153.5 31.5q-124 0 -276 -31l-31 191q152 47 342 47q117 0 195.5 -20.5t125 -66.5t66 -111.5t19.5 -162.5zM633 229v148h-184
q-61 0 -83 -20.5t-22 -77.5q0 -54 21.5 -77.5t78.5 -23.5q100 0 189 51zM698 1386l121 -63q-21 -93 -99.5 -159t-201.5 -66q-122 0 -200 66t-99 159l121 63q22 -62 67.5 -100.5t110.5 -38.5q66 0 111 38.5t69 100.5z" />
    <glyph glyph-name="Aogonek" unicode="&#x104;" horiz-adv-x="1323" 
d="M1001 0l-88 283h-505l-86 -283h-271l430 1364h361l430 -1364h-66q-99 -76 -139.5 -125t-40.5 -94q0 -66 76 -66q33 0 63 9l29 -119q-69 -29 -141 -29q-97 0 -150 43.5t-53 120.5q0 81 64.5 141.5t185.5 118.5h-99zM662 1151l-191 -645h377z" />
    <glyph glyph-name="aogonek" unicode="&#x105;" horiz-adv-x="1005" 
d="M883 657v-657q-99 -76 -140 -125t-41 -94q0 -66 76 -66q34 0 64 9l28 -119q-69 -29 -141 -29q-97 0 -150 43.5t-53 120.5q0 59 44 113t101 88t126 59h-119l-19 68q-134 -88 -297 -88q-131 0 -195.5 80t-64.5 216q0 151 68.5 216t222.5 65h240v105q0 86 -37.5 117.5
t-153.5 31.5q-124 0 -276 -31l-31 191q152 47 342 47q117 0 195.5 -20.5t125 -66.5t66 -111.5t19.5 -162.5zM633 229v148h-184q-61 0 -83 -20.5t-22 -77.5q0 -54 21.5 -77.5t78.5 -23.5q100 0 189 51z" />
    <glyph glyph-name="Cacute" unicode="&#x106;" horiz-adv-x="1071" 
d="M123 375v614q0 395 485 395q196 0 371 -45l-29 -223q-194 35 -334 35q-131 0 -183 -48t-52 -159v-524q0 -111 52 -159t183 -48q140 0 334 35l29 -223q-175 -45 -371 -45q-485 0 -485 395zM520 1452l-90 139q169 104 272 183l97 -152q-118 -88 -279 -170z" />
    <glyph glyph-name="cacute" unicode="&#x107;" horiz-adv-x="858" 
d="M528 -20q-233 0 -331.5 89.5t-98.5 292.5v273q0 203 99 293t331 90q134 0 244 -37l-31 -205q-102 27 -206 27q-106 0 -146.5 -36.5t-40.5 -129.5v-277q0 -93 40 -129t147 -36q102 0 206 26l31 -205q-103 -36 -244 -36zM389 1104l-90 139q151 93 299 201l98 -152
q-183 -121 -307 -188z" />
    <glyph glyph-name="Ccircumflex" unicode="&#x108;" horiz-adv-x="1071" 
d="M123 375v614q0 395 485 395q196 0 371 -45l-29 -223q-194 35 -334 35q-131 0 -183 -48t-52 -159v-524q0 -111 52 -159t183 -48q140 0 334 35l29 -223q-175 -45 -371 -45q-485 0 -485 395zM436 1452l-71 115q137 92 260 186q125 -95 260 -186l-70 -115q-92 42 -190 100
q-92 -53 -189 -100z" />
    <glyph glyph-name="ccircumflex" unicode="&#x109;" horiz-adv-x="858" 
d="M528 -20q-233 0 -331.5 89.5t-98.5 292.5v273q0 203 99 293t331 90q134 0 244 -37l-31 -205q-102 27 -206 27q-106 0 -146.5 -36.5t-40.5 -129.5v-277q0 -93 40 -129t147 -36q102 0 206 26l31 -205q-103 -36 -244 -36zM276 1092l-79 110q148 109 286 223
q142 -117 285 -223l-78 -110q-96 55 -207 133q-100 -70 -207 -133z" />
    <glyph glyph-name="Cdotaccent" unicode="&#x10a;" horiz-adv-x="1071" 
d="M123 375v614q0 395 485 395q196 0 371 -45l-29 -223q-194 35 -334 35q-131 0 -183 -48t-52 -159v-524q0 -111 52 -159t183 -48q140 0 334 35l29 -223q-175 -45 -371 -45q-485 0 -485 395zM737 1475h-250v288h250v-288z" />
    <glyph glyph-name="cdotaccent" unicode="&#x10b;" horiz-adv-x="858" 
d="M528 -20q-233 0 -331.5 89.5t-98.5 292.5v273q0 203 99 293t331 90q134 0 244 -37l-31 -205q-102 27 -206 27q-106 0 -146.5 -36.5t-40.5 -129.5v-277q0 -93 40 -129t147 -36q102 0 206 26l31 -205q-103 -36 -244 -36zM614 1139h-249v288h249v-288z" />
    <glyph glyph-name="Ccaron" unicode="&#x10c;" horiz-adv-x="1071" 
d="M123 375v614q0 395 485 395q196 0 371 -45l-29 -223q-194 35 -334 35q-131 0 -183 -48t-52 -159v-524q0 -111 52 -159t183 -48q140 0 334 35l29 -223q-175 -45 -371 -45q-485 0 -485 395zM365 1638l71 115q97 -47 189 -100q98 58 190 100l70 -115q-135 -91 -260 -186
q-123 94 -260 186z" />
    <glyph glyph-name="ccaron" unicode="&#x10d;" horiz-adv-x="858" 
d="M528 -20q-233 0 -331.5 89.5t-98.5 292.5v273q0 203 99 293t331 90q134 0 244 -37l-31 -205q-102 27 -206 27q-106 0 -146.5 -36.5t-40.5 -129.5v-277q0 -93 40 -129t147 -36q102 0 206 26l31 -205q-103 -36 -244 -36zM213 1305l80 110q107 -63 207 -133q111 78 207 133
l77 -110q-122 -90 -284 -224q-140 116 -287 224z" />
    <glyph glyph-name="Dcaron" unicode="&#x10e;" horiz-adv-x="1236" 
d="M154 1364h508q122 0 212 -29t141 -81t75 -116t24 -141v-630q0 -76 -24 -140t-75 -116t-141 -81.5t-212 -29.5h-508v1364zM412 1137v-910h223q125 0 173 48.5t48 152.5v508q0 104 -48 152.5t-173 48.5h-223zM342 1638l72 115q90 -44 188 -100q95 55 191 100l69 -115
q-135 -91 -260 -186q-123 94 -260 186z" />
    <glyph glyph-name="dcaron" unicode="&#x10f;" horiz-adv-x="1331" 
d="M1133 1178v227h198v-242l-125 -209l-88 54l88 170h-73zM102 326v340q0 352 330 352q125 0 266 -29v416l250 35v-1440h-198l-25 84q-145 -104 -315 -104q-151 0 -229.5 88t-78.5 258zM698 283v495q-127 27 -221 27q-66 0 -95.5 -32t-29.5 -101v-353q0 -64 28 -95t95 -31
q59 0 120 25.5t103 64.5z" />
    <glyph glyph-name="Dcroat" unicode="&#x110;" horiz-adv-x="1306" 
d="M82 586v207h141v571h508q122 0 212 -29t141.5 -81t75.5 -116t24 -141v-630q0 -76 -24.5 -140t-75.5 -116t-141 -81.5t-212 -29.5h-508v586h-141zM481 1137v-344h209v-207h-209v-359h224q125 0 173 48.5t48 152.5v508q0 104 -48 152.5t-173 48.5h-224z" />
    <glyph glyph-name="dcroat" unicode="&#x111;" horiz-adv-x="1089" 
d="M518 1118v133h180v154l250 35v-189h121v-133h-121v-1118h-198l-25 84q-145 -104 -315 -104q-151 0 -229.5 88t-78.5 258v340q0 352 330 352q125 0 266 -29v129h-180zM698 283v495q-127 27 -221 27q-66 0 -95.5 -32t-29.5 -101v-353q0 -64 28 -95t95 -31q59 0 120 25.5
t103 64.5z" />
    <glyph glyph-name="Emacron" unicode="&#x112;" horiz-adv-x="1101" 
d="M154 0v1364h835v-227h-577v-330h532v-227h-532v-353h577v-227h-835zM328 1499v166h512v-166h-512z" />
    <glyph glyph-name="emacron" unicode="&#x113;" horiz-adv-x="985" 
d="M348 352q0 -93 41.5 -130.5t153.5 -37.5q150 0 305 47l39 -188q-166 -63 -367 -63q-226 0 -324 98t-98 287v264q0 84 20.5 150.5t66 122t128.5 86t199 30.5q93 0 163 -21.5t113 -57.5t69 -89t36 -109t10 -125v-213h-555v-51zM348 653v-49h318v49q0 78 -33 119t-119 41
q-166 0 -166 -160zM252 1141v166h512v-166h-512z" />
    <glyph glyph-name="Ebreve" unicode="&#x114;" horiz-adv-x="1101" 
d="M154 0v1364h835v-227h-577v-330h532v-227h-532v-353h577v-227h-835zM762 1733l119 -66q-23 -88 -96 -145.5t-187 -57.5t-187 57.5t-96 145.5l121 66q45 -129 162 -129q116 0 164 129z" />
    <glyph glyph-name="ebreve" unicode="&#x115;" horiz-adv-x="985" 
d="M348 352q0 -93 41.5 -130.5t153.5 -37.5q150 0 305 47l39 -188q-166 -63 -367 -63q-226 0 -324 98t-98 287v264q0 84 20.5 150.5t66 122t128.5 86t199 30.5q93 0 163 -21.5t113 -57.5t69 -89t36 -109t10 -125v-213h-555v-51zM348 653v-49h318v49q0 78 -33 119t-119 41
q-166 0 -166 -160zM686 1386l121 -63q-21 -93 -99.5 -159t-201.5 -66q-122 0 -200 66t-99 159l121 63q22 -62 67.5 -100.5t110.5 -38.5q66 0 111 38.5t69 100.5z" />
    <glyph glyph-name="Edotaccent" unicode="&#x116;" horiz-adv-x="1101" 
d="M154 0v1364h835v-227h-577v-330h532v-227h-532v-353h577v-227h-835zM717 1475h-250v288h250v-288z" />
    <glyph glyph-name="edotaccent" unicode="&#x117;" horiz-adv-x="985" 
d="M348 352q0 -93 41.5 -130.5t153.5 -37.5q150 0 305 47l39 -188q-166 -63 -367 -63q-226 0 -324 98t-98 287v264q0 84 20.5 150.5t66 122t128.5 86t199 30.5q93 0 163 -21.5t113 -57.5t69 -89t36 -109t10 -125v-213h-555v-51zM348 653v-49h318v49q0 78 -33 119t-119 41
q-166 0 -166 -160zM633 1139h-250v288h250v-288z" />
    <glyph glyph-name="Eogonek" unicode="&#x118;" horiz-adv-x="1101" 
d="M154 0v1364h835v-227h-577v-330h532v-227h-532v-353h577v-227h-84q-99 -76 -139.5 -125t-40.5 -94q0 -66 76 -66q33 0 63 9l29 -119q-69 -29 -141 -29q-97 0 -150 43.5t-53 120.5q0 81 64.5 141.5t185.5 118.5h-645z" />
    <glyph glyph-name="eogonek" unicode="&#x119;" horiz-adv-x="985" 
d="M772 -276l29 -119q-69 -29 -142 -29q-202 0 -202 152q0 74 67 140.5t205 131.5q-100 -20 -209 -20q-226 0 -324 98t-98 287v264q0 84 20.5 150.5t66 122t128.5 86t199 30.5q93 0 163 -21.5t113 -57.5t69 -89t36 -109t10 -125v-213h-555v-51q0 -93 41.5 -130.5
t153.5 -37.5q150 0 305 47l39 -188q-141 -98 -197.5 -157.5t-56.5 -112.5q0 -30 17 -44t59 -14q25 0 63 9zM348 653v-49h318v49q0 78 -33 119t-119 41q-166 0 -166 -160z" />
    <glyph glyph-name="Ecaron" unicode="&#x11a;" horiz-adv-x="1101" 
d="M154 0v1364h835v-227h-577v-330h532v-227h-532v-353h577v-227h-835zM332 1638l71 115q97 -47 189 -100q98 58 190 100l70 -115q-135 -91 -260 -186q-123 94 -260 186z" />
    <glyph glyph-name="ecaron" unicode="&#x11b;" horiz-adv-x="985" 
d="M348 352q0 -93 41.5 -130.5t153.5 -37.5q150 0 305 47l39 -188q-166 -63 -367 -63q-226 0 -324 98t-98 287v264q0 84 20.5 150.5t66 122t128.5 86t199 30.5q93 0 163 -21.5t113 -57.5t69 -89t36 -109t10 -125v-213h-555v-51zM348 653v-49h318v49q0 78 -33 119t-119 41
q-166 0 -166 -160zM229 1305l80 110q107 -63 207 -133q111 78 207 133l78 -110q-131 -97 -285 -224q-140 116 -287 224z" />
    <glyph glyph-name="Gcircumflex" unicode="&#x11c;" horiz-adv-x="1196" 
d="M381 938v-516q0 -105 54 -158t183 -53q99 0 211 16v414h244v-600q-213 -61 -457 -61q-493 0 -493 411v582q0 211 126 311t392 100q223 0 391 -45l-28 -225q-171 37 -383 37q-131 0 -185.5 -52.5t-54.5 -160.5zM453 1452l-72 115q137 92 260 186q125 -95 260 -186
l-70 -115q-92 42 -190 100q-98 -56 -188 -100z" />
    <glyph glyph-name="gcircumflex" unicode="&#x11d;" horiz-adv-x="1001" 
d="M483 266q-39 0 -57 2q-59 -36 -59 -80q0 -20 13 -30t42 -13q65 -7 289 -30q117 -13 165 -71.5t48 -170.5q0 -84 -18 -137t-67.5 -91t-137.5 -53.5t-228 -15.5q-220 0 -385 51l31 187q169 -43 336 -43q149 0 193 14.5t44 64.5q0 45 -18 59.5t-76 20.5q-62 7 -148 17
t-141 16q-107 12 -151.5 54.5t-44.5 136.5q0 96 104 170q-135 81 -135 268v94q3 162 97.5 247t303.5 85q84 0 170 -21h308v-125q-18 -5 -55.5 -15t-55.5 -15q35 -65 35 -156v-94q0 -157 -99 -241.5t-303 -84.5zM651 678q0 72 -38 105.5t-130 33.5q-90 0 -128 -33.5
t-38 -105.5v-76q0 -73 39 -104t127 -31q89 0 128.5 31.5t39.5 103.5v76zM301 1092l-80 110q157 115 287 223q142 -117 285 -223l-78 -110q-96 55 -207 133q-100 -70 -207 -133z" />
    <glyph glyph-name="Gbreve" unicode="&#x11e;" horiz-adv-x="1196" 
d="M381 938v-516q0 -105 54 -158t183 -53q99 0 211 16v414h244v-600q-213 -61 -457 -61q-493 0 -493 411v582q0 211 126 311t392 100q223 0 391 -45l-28 -225q-171 37 -383 37q-131 0 -185.5 -52.5t-54.5 -160.5zM786 1733l119 -66q-23 -88 -95.5 -145.5t-186.5 -57.5
t-187 57.5t-96 145.5l121 66q45 -129 162 -129q115 0 163 129z" />
    <glyph glyph-name="gbreve" unicode="&#x11f;" horiz-adv-x="1001" 
d="M483 266q-39 0 -57 2q-59 -36 -59 -80q0 -20 13 -30t42 -13q65 -7 289 -30q117 -13 165 -71.5t48 -170.5q0 -84 -18 -137t-67.5 -91t-137.5 -53.5t-228 -15.5q-220 0 -385 51l31 187q169 -43 336 -43q149 0 193 14.5t44 64.5q0 45 -18 59.5t-76 20.5q-62 7 -148 17
t-141 16q-107 12 -151.5 54.5t-44.5 136.5q0 96 104 170q-135 81 -135 268v94q3 162 97.5 247t303.5 85q84 0 170 -21h308v-125q-18 -5 -55.5 -15t-55.5 -15q35 -65 35 -156v-94q0 -157 -99 -241.5t-303 -84.5zM651 678q0 72 -38 105.5t-130 33.5q-90 0 -128 -33.5
t-38 -105.5v-76q0 -73 39 -104t127 -31q89 0 128.5 31.5t39.5 103.5v76zM696 1386l121 -63q-21 -93 -99.5 -159t-201.5 -66q-122 0 -200 66t-99 159l121 63q22 -62 67.5 -100.5t110.5 -38.5q66 0 111 38.5t69 100.5z" />
    <glyph glyph-name="Gdotaccent" unicode="&#x120;" horiz-adv-x="1196" 
d="M381 938v-516q0 -105 54 -158t183 -53q99 0 211 16v414h244v-600q-213 -61 -457 -61q-493 0 -493 411v582q0 211 126 311t392 100q223 0 391 -45l-28 -225q-171 37 -383 37q-131 0 -185.5 -52.5t-54.5 -160.5zM739 1475h-250v288h250v-288z" />
    <glyph glyph-name="gdotaccent" unicode="&#x121;" horiz-adv-x="1001" 
d="M483 266q-39 0 -57 2q-59 -36 -59 -80q0 -20 13 -30t42 -13q65 -7 289 -30q117 -13 165 -71.5t48 -170.5q0 -84 -18 -137t-67.5 -91t-137.5 -53.5t-228 -15.5q-220 0 -385 51l31 187q169 -43 336 -43q149 0 193 14.5t44 64.5q0 45 -18 59.5t-76 20.5q-62 7 -148 17
t-141 16q-107 12 -151.5 54.5t-44.5 136.5q0 96 104 170q-135 81 -135 268v94q3 162 97.5 247t303.5 85q84 0 170 -21h308v-125q-18 -5 -55.5 -15t-55.5 -15q35 -65 35 -156v-94q0 -157 -99 -241.5t-303 -84.5zM651 678q0 72 -38 105.5t-130 33.5q-90 0 -128 -33.5
t-38 -105.5v-76q0 -73 39 -104t127 -31q89 0 128.5 31.5t39.5 103.5v76zM602 1139h-250v288h250v-288z" />
    <glyph glyph-name="Gcommaaccent" unicode="&#x122;" horiz-adv-x="1196" 
d="M381 938v-516q0 -105 54 -158t183 -53q99 0 211 16v414h244v-600q-213 -61 -457 -61q-493 0 -493 411v582q0 211 126 311t392 100q223 0 391 -45l-28 -225q-171 37 -383 37q-131 0 -185.5 -52.5t-54.5 -160.5zM535 -375v271h239v-287l-131 -213l-108 59l88 170h-88z" />
    <glyph glyph-name="gcommaaccent" unicode="&#x123;" horiz-adv-x="1001" 
d="M584 1339v-227h-205v242l125 209l88 -54l-88 -170h80zM483 266q-39 0 -57 2q-59 -36 -59 -80q0 -20 13 -30t42 -13q65 -7 289 -30q117 -13 165 -71.5t48 -170.5q0 -84 -18 -137t-67.5 -91t-137.5 -53.5t-228 -15.5q-220 0 -385 51l31 187q169 -43 336 -43q149 0 193 14.5
t44 64.5q0 45 -18 59.5t-76 20.5q-62 7 -148 17t-141 16q-107 12 -151.5 54.5t-44.5 136.5q0 96 104 170q-135 81 -135 268v94q3 162 97.5 247t303.5 85q84 0 170 -21h308v-125q-18 -5 -55.5 -15t-55.5 -15q35 -65 35 -156v-94q0 -157 -99 -241.5t-303 -84.5zM651 678
q0 72 -38 105.5t-130 33.5q-90 0 -128 -33.5t-38 -105.5v-76q0 -73 39 -104t127 -31q89 0 128.5 31.5t39.5 103.5v76z" />
    <glyph glyph-name="Hcircumflex" unicode="&#x124;" horiz-adv-x="1329" 
d="M1176 0h-258v575h-506v-575h-258v1364h258v-561h506v561h258v-1364zM475 1452l-72 115q145 97 261 186q125 -95 260 -186l-70 -115q-92 42 -190 100q-92 -53 -189 -100z" />
    <glyph glyph-name="hcircumflex" unicode="&#x125;" horiz-adv-x="1116" 
d="M983 0h-250v696q0 80 -80 80q-45 0 -118 -24t-142 -60v-692h-250v1405l250 35v-518q83 43 184.5 69.5t180.5 26.5q225 0 225 -295v-723zM92 1513l-72 115q135 90 261 187q136 -104 260 -187l-70 -115q-83 39 -190 101q-104 -59 -189 -101z" />
    <glyph glyph-name="Hbar" unicode="&#x126;" horiz-adv-x="1349" 
d="M41 1026v135h123v203h258v-203h506v203h258v-203h123v-135h-123v-1026h-258v575h-506v-575h-258v1026h-123zM422 803h506v223h-506v-223z" />
    <glyph glyph-name="hbar" unicode="&#x127;" horiz-adv-x="1116" 
d="M27 1118v133h116v154l250 35v-189h199v-133h-199v-196q83 43 184.5 69.5t180.5 26.5q225 0 225 -295v-723h-250v696q0 80 -80 80q-45 0 -118 -24t-142 -60v-692h-250v1118h-116z" />
    <glyph glyph-name="Itilde" unicode="&#x128;" horiz-adv-x="585" 
d="M422 1364v-1364h-258v1364h258zM289 1513q-55 35 -78 41q-11 2 -23 2q-17 0 -31 -6t-30 -23.5t-20.5 -23.5l-22.5 -30l-102 83q37 70 89.5 115t112.5 45t129 -41q76 -45 107 -45t50.5 18.5t33.5 57.5l119 -61q-27 -81 -79.5 -126.5t-123.5 -45.5q-72 0 -131 40z" />
    <glyph glyph-name="itilde" unicode="&#x129;" horiz-adv-x="536" 
d="M393 0h-250v997h250v-997zM266 1161q-24 16 -36 23.5t-29 13.5t-35 6q-9 0 -17.5 -2.5t-15 -5t-14.5 -9.5t-12.5 -10.5t-13 -13.5t-11 -13t-11.5 -14.5t-10 -13.5l-102 84q38 68 90.5 113t112.5 45q64 0 129 -41q73 -43 106 -43q31 0 50.5 18.5t33.5 57.5l119 -62
q-27 -81 -79.5 -126.5t-123.5 -45.5q-69 0 -131 39z" />
    <glyph glyph-name="Imacron" unicode="&#x12a;" horiz-adv-x="585" 
d="M422 1364v-1364h-258v1364h258zM37 1499v166h512v-166h-512z" />
    <glyph glyph-name="imacron" unicode="&#x12b;" horiz-adv-x="536" 
d="M393 0h-250v997h250v-997zM12 1141v166h512v-166h-512z" />
    <glyph glyph-name="Ibreve" unicode="&#x12c;" horiz-adv-x="585" 
d="M422 1364v-1364h-258v1364h258zM457 1733l118 -66q-23 -88 -95.5 -145.5t-186.5 -57.5t-187 57.5t-96 145.5l121 66q45 -129 162 -129q116 0 164 129z" />
    <glyph glyph-name="ibreve" unicode="&#x12d;" horiz-adv-x="536" 
d="M393 0h-250v997h250v-997zM449 1386l120 -63q-21 -93 -99.5 -159t-201.5 -66q-122 0 -200 66t-99 159l121 63q22 -62 67.5 -100.5t110.5 -38.5q66 0 111.5 38.5t69.5 100.5z" />
    <glyph glyph-name="Iogonek" unicode="&#x12e;" horiz-adv-x="585" 
d="M375 -268l28 -119q-90 -37 -184 -37q-96 0 -153.5 50t-57.5 128q0 61 38.5 120t117.5 126v1364h258v-1364h-152q-94 -125 -94 -213q0 -36 19.5 -54t66.5 -18q46 0 113 17z" />
    <glyph glyph-name="iogonek" unicode="&#x12f;" horiz-adv-x="536" 
d="M354 -268l29 -119q-90 -37 -184 -37q-96 0 -153.5 50t-57.5 128q0 61 38 120.5t117 125.5v997h250v-997h-143q-94 -125 -94 -213q0 -36 19.5 -54t66.5 -18q45 0 112 17zM393 1139h-250v288h250v-288z" />
    <glyph glyph-name="Idotaccent" unicode="&#x130;" horiz-adv-x="585" 
d="M422 1364v-1364h-258v1364h258zM418 1475h-250v288h250v-288z" />
    <glyph glyph-name="dotlessi" unicode="&#x131;" horiz-adv-x="536" 
d="M393 0h-250v997h250v-997z" />
    <glyph glyph-name="IJ" unicode="&#x132;" horiz-adv-x="1140" 
d="M422 1364v-1364h-258v1364h258zM739 1364h258v-1387q0 -72 -25 -127t-80.5 -113.5t-172.5 -158.5l-154 174q119 114 140 141q31 39 34 88v19v1364z" />
    <glyph glyph-name="ij" unicode="&#x133;" horiz-adv-x="1101" 
d="M393 0h-250v997h250v-997zM393 1139h-250v288h250v-288zM676 997h250v-1050q0 -94 -48.5 -163t-211.5 -208l-146 160q103 96 124 123q29 38 31 93q1 11 1 28v1017zM926 1139h-250v288h250v-288z" />
    <glyph glyph-name="Jcircumflex" unicode="&#x134;" horiz-adv-x="555" 
d="M154 1364h258v-1387q0 -103 -54 -178.5t-225 -220.5l-153 174q119 114 140 141q31 39 34 88v19v1364zM96 1452l-71 115q137 92 260 186q125 -95 260 -186l-70 -115q-92 42 -190 100q-92 -53 -189 -100z" />
    <glyph glyph-name="jcircumflex" unicode="&#x135;" horiz-adv-x="522" 
d="M139 997h250v-1050q0 -94 -48.5 -163t-211.5 -208l-145 160q47 44 62.5 58t40.5 40.5t29.5 35.5t13 30t9 36.5t0.5 43.5v1017zM57 1092l-80 110q157 115 287 223q142 -117 285 -223l-78 -110q-96 55 -207 133q-100 -70 -207 -133z" />
    <glyph glyph-name="Kcommaaccent" unicode="&#x136;" horiz-adv-x="1253" 
d="M412 1364v-1364h-258v1364h258zM1163 1364l-430 -674l459 -690h-297l-446 690l421 674h293zM516 -375v271h240v-287l-131 -213l-109 59l88 170h-88z" />
    <glyph glyph-name="kcommaaccent" unicode="&#x137;" horiz-adv-x="1040" 
d="M393 0h-250v1405l250 35v-1440zM713 997h278l-293 -493l306 -504h-275l-301 504zM434 -375v271h240v-287l-131 -213l-109 59l88 170h-88z" />
    <glyph glyph-name="kgreenlandic" unicode="&#x138;" horiz-adv-x="1040" 
d="M393 0h-250v997h250v-997zM713 997h278l-293 -493l306 -504h-275l-301 504z" />
    <glyph glyph-name="Lacute" unicode="&#x139;" horiz-adv-x="1034" 
d="M412 1364v-1137h561v-227h-819v1364h258zM287 1452l-90 139q169 104 272 183l96 -152q-121 -89 -278 -170z" />
    <glyph glyph-name="lacute" unicode="&#x13a;" horiz-adv-x="536" 
d="M393 0h-250v1405l250 35v-1440zM233 1534l-90 139q180 111 273 182l96 -151q-118 -88 -279 -170z" />
    <glyph glyph-name="Lcommaaccent" unicode="&#x13b;" horiz-adv-x="1034" 
d="M412 1364v-1137h561v-227h-819v1364h258zM465 -375v271h240v-287l-132 -213l-108 59l88 170h-88z" />
    <glyph glyph-name="lcommaaccent" unicode="&#x13c;" horiz-adv-x="536" 
d="M393 0h-250v1405l250 35v-1440zM147 -375v271h240v-287l-131 -213l-109 59l89 170h-89z" />
    <glyph glyph-name="Lcaron" unicode="&#x13d;" horiz-adv-x="1034" 
d="M412 1364v-1137h561v-227h-819v1364h258zM692 1178v227h199v-242l-125 -209l-88 54l88 170h-74z" />
    <glyph glyph-name="lcaron" unicode="&#x13e;" horiz-adv-x="772" 
d="M393 0h-250v1405l250 35v-1440zM573 1178v227h199v-242l-125 -209l-88 54l88 170h-74z" />
    <glyph glyph-name="Ldot" unicode="&#x13f;" horiz-adv-x="1034" 
d="M412 1364v-1137h561v-227h-819v1364h258zM641 608v287h254v-287h-254z" />
    <glyph glyph-name="ldot" unicode="&#x140;" horiz-adv-x="815" 
d="M541 440v287h254v-287h-254zM393 0h-250v1405l250 35v-1440z" />
    <glyph glyph-name="Lslash" unicode="&#x141;" horiz-adv-x="1112" 
d="M106 473l-65 158l190 84v649h258v-537l285 123l66 -159l-351 -152v-412h562v-227h-820v526z" />
    <glyph glyph-name="lslash" unicode="&#x142;" horiz-adv-x="669" 
d="M117 492l-66 157l160 70v686l250 35v-613l143 62l66 -160l-209 -90v-639h-250v532z" />
    <glyph glyph-name="Nacute" unicode="&#x143;" horiz-adv-x="1421" 
d="M924 0l-518 1034v-1034h-252v1364h344l518 -1036v1036h252v-1364h-344zM680 1452l-90 139q169 104 272 183l96 -152q-121 -89 -278 -170z" />
    <glyph glyph-name="nacute" unicode="&#x144;" horiz-adv-x="1116" 
d="M983 0h-250v696q0 80 -80 80q-45 0 -118 -24t-142 -60v-692h-250v997h191l24 -84q96 47 205 76t195 29q225 0 225 -295v-723zM489 1104l-90 139q151 93 299 201l99 -152q-178 -118 -308 -188z" />
    <glyph glyph-name="Ncommaaccent" unicode="&#x145;" horiz-adv-x="1421" 
d="M924 0l-518 1034v-1034h-252v1364h344l518 -1036v1036h252v-1364h-344zM571 -375v271h240v-287l-131 -213l-109 59l88 170h-88z" />
    <glyph glyph-name="ncommaaccent" unicode="&#x146;" horiz-adv-x="1116" 
d="M983 0h-250v696q0 80 -80 80q-45 0 -118 -24t-142 -60v-692h-250v997h191l24 -84q96 47 205 76t195 29q225 0 225 -295v-723zM455 -375v271h239v-287l-131 -213l-108 59l88 170h-88z" />
    <glyph glyph-name="Ncaron" unicode="&#x147;" horiz-adv-x="1421" 
d="M924 0l-518 1034v-1034h-252v1364h344l518 -1036v1036h252v-1364h-344zM475 1638l72 115q90 -44 188 -100q95 55 191 100l69 -115q-135 -91 -260 -186q-123 94 -260 186z" />
    <glyph glyph-name="ncaron" unicode="&#x148;" horiz-adv-x="1116" 
d="M983 0h-250v696q0 80 -80 80q-45 0 -118 -24t-142 -60v-692h-250v997h191l24 -84q96 47 205 76t195 29q225 0 225 -295v-723zM283 1305l79 110q107 -63 207 -133q111 78 207 133l78 -110q-131 -97 -285 -224q-148 123 -286 224z" />
    <glyph glyph-name="Eng" unicode="&#x14a;" horiz-adv-x="1421" 
d="M924 0l-518 1034v-1034h-252v1364h344l518 -1036v1036h252v-1417q0 -44 -11 -76.5t-43.5 -71t-83 -84t-135.5 -119.5q-16 -13 -24 -20l-140 164q20 18 47.5 43t40 36t30.5 28t25 24.5t17.5 20.5t13.5 20.5t7 19.5t5 23t1 25v20h-94z" />
    <glyph glyph-name="eng" unicode="&#x14b;" horiz-adv-x="1116" 
d="M733 696q0 80 -80 80q-45 0 -118 -24t-142 -60v-692h-250v997h191l24 -84q96 47 205 76t195 29q225 0 225 -295v-776q0 -44 -11 -76.5t-43.5 -71t-83 -84t-135.5 -119.5q-16 -13 -24 -20l-139 164l47.5 42.5t40 36t30.5 28t25 25t17 20.5t13.5 20.5t7 19.5t5 22.5
t0.5 25.5v716z" />
    <glyph glyph-name="Omacron" unicode="&#x14c;" horiz-adv-x="1277" 
d="M1155 965v-566q0 -89 -27.5 -162t-85.5 -132t-160.5 -92t-242.5 -33t-242.5 33t-160.5 92t-85.5 132t-27.5 162v566q0 89 27.5 162t85.5 132t160.5 92t242.5 33t242.5 -33t160.5 -92t85.5 -132t27.5 -162zM381 950v-536q0 -102 59.5 -154.5t198.5 -52.5t198.5 52.5
t59.5 154.5v536q0 102 -59.5 154.5t-198.5 52.5t-198.5 -52.5t-59.5 -154.5zM383 1499v166h512v-166h-512z" />
    <glyph glyph-name="omacron" unicode="&#x14d;" horiz-adv-x="1064" 
d="M967 373q0 -82 -20.5 -148.5t-68 -124t-135.5 -89t-211 -31.5q-99 0 -176 21.5t-125 57.5t-78.5 87.5t-42.5 106.5t-12 120v252q0 65 12 120t42.5 106.5t78.5 87.5t125 57.5t176 21.5q123 0 211 -31.5t135.5 -89t68 -124t20.5 -148.5v-252zM717 633q0 87 -43.5 129.5
t-141.5 42.5q-97 0 -140.5 -42.5t-43.5 -129.5v-268q0 -87 43.5 -129.5t140.5 -42.5q98 0 141.5 42.5t43.5 129.5v268zM276 1141v166h512v-166h-512z" />
    <glyph glyph-name="Obreve" unicode="&#x14e;" horiz-adv-x="1277" 
d="M1155 965v-566q0 -89 -27.5 -162t-85.5 -132t-160.5 -92t-242.5 -33t-242.5 33t-160.5 92t-85.5 132t-27.5 162v566q0 89 27.5 162t85.5 132t160.5 92t242.5 33t242.5 -33t160.5 -92t85.5 -132t27.5 -162zM381 950v-536q0 -102 59.5 -154.5t198.5 -52.5t198.5 52.5
t59.5 154.5v536q0 102 -59.5 154.5t-198.5 52.5t-198.5 -52.5t-59.5 -154.5zM803 1733l119 -66q-23 -88 -96 -145.5t-187 -57.5t-187 57.5t-96 145.5l121 66q45 -129 162 -129q116 0 164 129z" />
    <glyph glyph-name="obreve" unicode="&#x14f;" horiz-adv-x="1064" 
d="M967 373q0 -82 -20.5 -148.5t-68 -124t-135.5 -89t-211 -31.5q-99 0 -176 21.5t-125 57.5t-78.5 87.5t-42.5 106.5t-12 120v252q0 65 12 120t42.5 106.5t78.5 87.5t125 57.5t176 21.5q123 0 211 -31.5t135.5 -89t68 -124t20.5 -148.5v-252zM717 633q0 87 -43.5 129.5
t-141.5 42.5q-97 0 -140.5 -42.5t-43.5 -129.5v-268q0 -87 43.5 -129.5t140.5 -42.5q98 0 141.5 42.5t43.5 129.5v268zM713 1386l121 -63q-21 -93 -100 -159t-202 -66q-122 0 -200 66t-99 159l121 63q22 -62 67.5 -100.5t110.5 -38.5q66 0 111.5 38.5t69.5 100.5z" />
    <glyph glyph-name="Ohungarumlaut" unicode="&#x150;" horiz-adv-x="1277" 
d="M1155 965v-566q0 -89 -27.5 -162t-85.5 -132t-160.5 -92t-242.5 -33t-242.5 33t-160.5 92t-85.5 132t-27.5 162v566q0 89 27.5 162t85.5 132t160.5 92t242.5 33t242.5 -33t160.5 -92t85.5 -132t27.5 -162zM381 950v-536q0 -102 59.5 -154.5t198.5 -52.5t198.5 52.5
t59.5 154.5v536q0 102 -59.5 154.5t-198.5 52.5t-198.5 -52.5t-59.5 -154.5zM475 1434l-117 116q91 79 215 211l125 -129q-123 -127 -223 -198zM827 1434l-116 116q91 79 215 211l125 -129q-121 -125 -224 -198z" />
    <glyph glyph-name="ohungarumlaut" unicode="&#x151;" horiz-adv-x="1079" 
d="M967 373q0 -82 -20.5 -148.5t-68 -124t-135.5 -89t-211 -31.5q-99 0 -176 21.5t-125 57.5t-78.5 87.5t-42.5 106.5t-12 120v252q0 65 12 120t42.5 106.5t78.5 87.5t125 57.5t176 21.5q123 0 211 -31.5t135.5 -89t68 -124t20.5 -148.5v-252zM717 633q0 87 -43.5 129.5
t-141.5 42.5q-97 0 -140.5 -42.5t-43.5 -129.5v-268q0 -87 43.5 -129.5t140.5 -42.5q98 0 141.5 42.5t43.5 129.5v268zM350 1085l-114 117q110 97 241 240l125 -131q-130 -130 -252 -226zM719 1085l-115 117q116 102 242 240l125 -131q-130 -130 -252 -226z" />
    <glyph glyph-name="OE" unicode="&#x152;" horiz-adv-x="1835" 
d="M1722 0h-1083q-112 0 -201 22t-147.5 60t-96.5 92t-54.5 114.5t-16.5 131.5v524q0 71 16.5 131.5t54.5 114.5t96.5 92t147.5 60t201 22h1083v-227h-577v-330h532v-227h-532v-353h577v-227zM887 1137h-248q-139 0 -198.5 -52.5t-59.5 -154.5v-496q0 -102 59.5 -154.5
t198.5 -52.5h248v910z" />
    <glyph glyph-name="oe" unicode="&#x153;" horiz-adv-x="1603" 
d="M967 352q0 -93 41 -130.5t153 -37.5q150 0 305 47l39 -188q-166 -63 -366 -63q-190 0 -305 96q-117 -96 -302 -96q-99 0 -176 21.5t-125 57.5t-78.5 87.5t-42.5 106.5t-12 120v252q0 65 12 120t42.5 106.5t78.5 87.5t125 57.5t176 21.5q95 0 166 -25t140 -75
q121 100 292 100q93 0 163 -21.5t113 -57.5t69.5 -89t36.5 -109t10 -125v-213h-555v-51zM717 633q0 87 -43.5 129.5t-141.5 42.5q-97 0 -140.5 -42.5t-43.5 -129.5v-268q0 -87 43.5 -129.5t140.5 -42.5q93 0 136.5 38.5t48.5 116.5v285zM967 653v-49h317v49q0 78 -32.5 119
t-118.5 41q-166 0 -166 -160z" />
    <glyph glyph-name="Racute" unicode="&#x154;" horiz-adv-x="1331" 
d="M1280 0h-309l-314 451h-245v-451h-258v1364h559q231 0 332.5 -91.5t101.5 -277.5v-178q0 -257 -205 -330zM889 975q0 87 -42.5 124.5t-144.5 37.5h-290v-463h290q104 0 145.5 39t41.5 127v135zM571 1452l-90 139q174 107 273 183l96 -152q-118 -88 -279 -170z" />
    <glyph glyph-name="racute" unicode="&#x155;" horiz-adv-x="681" 
d="M633 1018l24 -230q-120 -54 -264 -145v-643h-250v997h211l17 -110q52 35 127.5 74.5t134.5 56.5zM279 1104l-91 139q151 93 299 201l99 -152q-183 -121 -307 -188z" />
    <glyph glyph-name="Rcommaaccent" unicode="&#x156;" horiz-adv-x="1331" 
d="M1280 0h-309l-314 451h-245v-451h-258v1364h559q231 0 332.5 -91.5t101.5 -277.5v-178q0 -257 -205 -330zM889 975q0 87 -42.5 124.5t-144.5 37.5h-290v-463h290q104 0 145.5 39t41.5 127v135zM565 -375v271h240v-287l-131 -213l-109 59l88 170h-88z" />
    <glyph glyph-name="rcommaaccent" unicode="&#x157;" horiz-adv-x="681" 
d="M633 1018l24 -230q-120 -54 -264 -145v-643h-250v997h211l17 -110q52 35 127.5 74.5t134.5 56.5zM147 -375v271h240v-287l-131 -213l-109 59l89 170h-89z" />
    <glyph glyph-name="Rcaron" unicode="&#x158;" horiz-adv-x="1331" 
d="M1280 0h-309l-314 451h-245v-451h-258v1364h559q231 0 332.5 -91.5t101.5 -277.5v-178q0 -257 -205 -330zM889 975q0 87 -42.5 124.5t-144.5 37.5h-290v-463h290q104 0 145.5 39t41.5 127v135zM371 1638l71 115q97 -47 189 -100q98 58 190 100l70 -115
q-135 -91 -260 -186q-123 94 -260 186z" />
    <glyph glyph-name="rcaron" unicode="&#x159;" horiz-adv-x="681" 
d="M633 1018l24 -230q-120 -54 -264 -145v-643h-250v997h211l17 -110q52 35 127.5 74.5t134.5 56.5zM98 1305l80 110q107 -63 207 -133q111 78 207 133l78 -110q-131 -97 -285 -224q-140 116 -287 224z" />
    <glyph glyph-name="Sacute" unicode="&#x15a;" horiz-adv-x="1105" 
d="M1004 371q0 -68 -7.5 -119t-27 -97t-54.5 -76.5t-87.5 -54t-128 -34t-175.5 -10.5q-114 0 -235 24t-191 57l45 203q205 -63 385 -63q94 0 140 16t61.5 50t15.5 104q0 46 -0.5 66t-10 45.5t-21.5 35t-44 24t-68.5 23t-104.5 23.5q-86 19 -142.5 36.5t-101 43t-68 52.5
t-39 72t-20 95t-4.5 127q0 128 42 207t144 121t273 42q201 0 397 -45l-29 -217q-185 41 -364 41q-88 0 -131.5 -15t-58.5 -46t-15 -94v-52t4.5 -39.5t8 -31t19 -23t27.5 -19.5t43.5 -16t58 -17t78.5 -19q71 -17 122 -31.5t93 -33.5t68.5 -34.5t47 -42t30.5 -49t16 -62
t7.5 -74.5t1.5 -93zM512 1452l-90 139q169 104 272 183l97 -152q-118 -88 -279 -170z" />
    <glyph glyph-name="sacute" unicode="&#x15b;" horiz-adv-x="915" 
d="M813 291q0 -62 -8.5 -107t-31.5 -85.5t-63 -65t-104 -39t-153 -14.5q-80 0 -177.5 16t-166.5 41l34 190q144 -43 297 -43q80 0 103.5 20.5t23.5 80.5q0 35 -9 53.5t-47.5 38.5t-117.5 39q-75 18 -122.5 37.5t-78.5 42t-46 58t-20 74t-5 101.5q0 155 82 222t291 67
q168 0 299 -35l-25 -199q-157 29 -274 29q-78 0 -102.5 -18.5t-24.5 -67.5q0 -34 2 -48.5t18.5 -28.5t40.5 -21.5t80 -22.5q74 -20 120 -34.5t83 -35t55 -38.5t29.5 -51t14.5 -66.5t3 -89.5zM406 1104l-91 139q151 93 299 201l99 -152q-183 -121 -307 -188z" />
    <glyph glyph-name="Scircumflex" unicode="&#x15c;" horiz-adv-x="1105" 
d="M1004 371q0 -68 -7.5 -119t-27 -97t-54.5 -76.5t-87.5 -54t-128 -34t-175.5 -10.5q-114 0 -235 24t-191 57l45 203q205 -63 385 -63q94 0 140 16t61.5 50t15.5 104q0 46 -0.5 66t-10 45.5t-21.5 35t-44 24t-68.5 23t-104.5 23.5q-86 19 -142.5 36.5t-101 43t-68 52.5
t-39 72t-20 95t-4.5 127q0 128 42 207t144 121t273 42q201 0 397 -45l-29 -217q-185 41 -364 41q-88 0 -131.5 -15t-58.5 -46t-15 -94v-52t4.5 -39.5t8 -31t19 -23t27.5 -19.5t43.5 -16t58 -17t78.5 -19q71 -17 122 -31.5t93 -33.5t68.5 -34.5t47 -42t30.5 -49t16 -62
t7.5 -74.5t1.5 -93zM401 1452l-71 115q137 92 260 186q125 -95 260 -186l-70 -115q-92 42 -190 100q-92 -53 -189 -100z" />
    <glyph glyph-name="scircumflex" unicode="&#x15d;" horiz-adv-x="915" 
d="M813 291q0 -62 -8.5 -107t-31.5 -85.5t-63 -65t-104 -39t-153 -14.5q-80 0 -177.5 16t-166.5 41l34 190q144 -43 297 -43q80 0 103.5 20.5t23.5 80.5q0 35 -9 53.5t-47.5 38.5t-117.5 39q-75 18 -122.5 37.5t-78.5 42t-46 58t-20 74t-5 101.5q0 155 82 222t291 67
q168 0 299 -35l-25 -199q-157 29 -274 29q-78 0 -102.5 -18.5t-24.5 -67.5q0 -34 2 -48.5t18.5 -28.5t40.5 -21.5t80 -22.5q74 -20 120 -34.5t83 -35t55 -38.5t29.5 -51t14.5 -66.5t3 -89.5zM287 1092l-80 110q157 115 287 223q150 -124 284 -223l-78 -110q-90 52 -206 133
q-100 -70 -207 -133z" />
    <glyph glyph-name="Scedilla" unicode="&#x15e;" horiz-adv-x="1105" 
d="M782 -244q0 -77 -54.5 -121.5t-164.5 -44.5q-89 0 -170 31l21 96q63 -18 133 -18q59 0 79.5 14t20.5 45q0 26 -17.5 37.5t-60.5 11.5q-27 0 -63 -4l-60 29l31 150q-106 4 -212 26.5t-167 52.5l45 203q205 -63 385 -63q94 0 140 16t61.5 50t15.5 104q0 46 -0.5 66
t-10 45.5t-21.5 35t-44 24t-68.5 23t-104.5 23.5q-86 19 -142.5 36.5t-101 43t-68 52.5t-39 72t-20 95t-4.5 127q0 128 42 207t144 121t273 42q201 0 397 -45l-29 -217q-185 41 -364 41q-88 0 -131.5 -15t-58.5 -46t-15 -94v-52t4.5 -39.5t8 -31t19 -23t27.5 -19.5t43.5 -16
t58 -17t78.5 -19q71 -17 122 -31.5t93 -33.5t68.5 -34.5t47 -42t30.5 -49t16 -62t7.5 -74.5t1.5 -93q0 -77 -10 -132.5t-36 -104t-71.5 -79t-117.5 -49.5t-173 -24l-16 -91q40 5 57 5q71 1 108 -37.5t37 -102.5z" />
    <glyph glyph-name="scedilla" unicode="&#x15f;" horiz-adv-x="915" 
d="M813 291q0 -74 -13 -125.5t-47 -93.5t-99 -64t-162 -26l-17 -91q40 5 57 5q71 1 108.5 -37.5t37.5 -102.5q0 -77 -54.5 -121.5t-164.5 -44.5q-89 0 -170 31l20 96q63 -18 133 -18q59 0 80 14t21 45q0 26 -17.5 37.5t-60.5 11.5q-28 0 -64 -4l-59 29l33 152
q-162 14 -266 53l34 190q144 -43 297 -43q80 0 103.5 20.5t23.5 80.5q0 35 -9 53.5t-47.5 38.5t-117.5 39q-75 18 -122.5 37.5t-78.5 42t-46 58t-20 74t-5 101.5q0 155 82 222t291 67q168 0 299 -35l-25 -199q-157 29 -274 29q-78 0 -102.5 -18.5t-24.5 -67.5q0 -34 2 -48.5
t18.5 -28.5t40.5 -21.5t80 -22.5q74 -20 120 -34.5t83 -35t55 -38.5t29.5 -51t14.5 -66.5t3 -89.5z" />
    <glyph glyph-name="Scaron" unicode="&#x160;" horiz-adv-x="1105" 
d="M1004 371q0 -68 -7.5 -119t-27 -97t-54.5 -76.5t-87.5 -54t-128 -34t-175.5 -10.5q-114 0 -235 24t-191 57l45 203q205 -63 385 -63q94 0 140 16t61.5 50t15.5 104q0 46 -0.5 66t-10 45.5t-21.5 35t-44 24t-68.5 23t-104.5 23.5q-86 19 -142.5 36.5t-101 43t-68 52.5
t-39 72t-20 95t-4.5 127q0 128 42 207t144 121t273 42q201 0 397 -45l-29 -217q-185 41 -364 41q-88 0 -131.5 -15t-58.5 -46t-15 -94v-52t4.5 -39.5t8 -31t19 -23t27.5 -19.5t43.5 -16t58 -17t78.5 -19q71 -17 122 -31.5t93 -33.5t68.5 -34.5t47 -42t30.5 -49t16 -62
t7.5 -74.5t1.5 -93zM309 1638l72 115q90 -44 188 -100q95 55 191 100l69 -115q-135 -91 -260 -186q-123 94 -260 186z" />
    <glyph glyph-name="scaron" unicode="&#x161;" horiz-adv-x="915" 
d="M813 291q0 -62 -8.5 -107t-31.5 -85.5t-63 -65t-104 -39t-153 -14.5q-80 0 -177.5 16t-166.5 41l34 190q144 -43 297 -43q80 0 103.5 20.5t23.5 80.5q0 35 -9 53.5t-47.5 38.5t-117.5 39q-75 18 -122.5 37.5t-78.5 42t-46 58t-20 74t-5 101.5q0 155 82 222t291 67
q168 0 299 -35l-25 -199q-157 29 -274 29q-78 0 -102.5 -18.5t-24.5 -67.5q0 -34 2 -48.5t18.5 -28.5t40.5 -21.5t80 -22.5q74 -20 120 -34.5t83 -35t55 -38.5t29.5 -51t14.5 -66.5t3 -89.5zM186 1305l80 110q107 -63 207 -133q111 78 207 133l78 -110q-132 -97 -285 -224
q-140 116 -287 224z" />
    <glyph glyph-name="Tcommaaccent" unicode="&#x162;" horiz-adv-x="1122" 
d="M432 0v1137h-381v227h1020v-227h-381v-1137h-258zM438 -375v271h240v-287l-131 -213l-109 59l88 170h-88z" />
    <glyph glyph-name="Tcommaaccent" unicode="&#x21a;" horiz-adv-x="1122" 
d="M432 0v1137h-381v227h1020v-227h-381v-1137h-258zM438 -375v271h240v-287l-131 -213l-109 59l88 170h-88z" />
    <glyph glyph-name="tcommaaccent" unicode="&#x163;" horiz-adv-x="727" 
d="M645 209l29 -191q-38 -16 -103.5 -27t-115.5 -11q-275 0 -275 264v555h-149v198h149v248l250 35v-283h256l-16 -198h-240v-523q0 -88 90 -88q50 0 125 21zM324 -375v271h239v-287l-131 -213l-108 59l88 170h-88z" />
    <glyph glyph-name="tcommaaccent" unicode="&#x21b;" horiz-adv-x="727" 
d="M645 209l29 -191q-38 -16 -103.5 -27t-115.5 -11q-275 0 -275 264v555h-149v198h149v248l250 35v-283h256l-16 -198h-240v-523q0 -88 90 -88q50 0 125 21zM324 -375v271h239v-287l-131 -213l-108 59l88 170h-88z" />
    <glyph glyph-name="Tcaron" unicode="&#x164;" horiz-adv-x="1122" 
d="M432 0v1137h-381v227h1020v-227h-381v-1137h-258zM301 1638l72 115q90 -44 188 -100q95 55 191 100l69 -115q-135 -91 -260 -186q-123 94 -260 186z" />
    <glyph glyph-name="tcaron" unicode="&#x165;" horiz-adv-x="761" 
d="M645 209l29 -191q-38 -16 -103.5 -27t-115.5 -11q-275 0 -275 264v555h-149v198h149v248l250 35v-283h256l-16 -198h-240v-523q0 -88 90 -88q50 0 125 21zM573 1237v188h199v-202l-90 -154l-88 53l65 115h-86z" />
    <glyph glyph-name="Tbar" unicode="&#x166;" horiz-adv-x="1122" 
d="M154 592v143h278v402h-381v227h1020v-227h-381v-402h279v-143h-279v-592h-258v592h-278z" />
    <glyph glyph-name="tbar" unicode="&#x167;" horiz-adv-x="727" 
d="M31 446v138h149v215h-149v198h149v248l250 35v-283h256l-16 -198h-240v-215h223v-138h-223v-170q0 -88 90 -88q50 0 125 21l29 -191q-38 -16 -103.5 -27t-115.5 -11q-275 0 -275 264v202h-149z" />
    <glyph glyph-name="Utilde" unicode="&#x168;" horiz-adv-x="1294" 
d="M893 1364h258v-969q0 -67 -15.5 -126t-52 -113t-93 -92t-144.5 -61t-199 -23t-199 23t-144.5 61t-93 92t-52 113t-15.5 126v969h258v-948q0 -104 57 -156.5t189 -52.5t189 52.5t57 156.5v948zM649 1513q-2 1 -13.5 8.5t-13.5 9t-11.5 7t-12.5 6.5t-11 4.5t-12.5 4.5
t-11.5 2t-14 1q-22 0 -43.5 -15.5t-31 -27.5t-30.5 -40l-102 83q37 70 90 115t113 45t129 -41q76 -45 106 -45q31 0 50.5 18.5t33.5 57.5l119 -61q-27 -81 -79.5 -126.5t-123.5 -45.5q-72 0 -131 40z" />
    <glyph glyph-name="utilde" unicode="&#x169;" horiz-adv-x="1116" 
d="M133 997h250v-696q0 -80 80 -80q45 0 118 24t142 60v692h250v-997h-191l-24 84q-95 -46 -204.5 -75t-195.5 -29q-225 0 -225 294v723zM569 1161q-24 16 -36 23.5t-29 13.5t-35 6q-10 0 -19 -2t-18 -8.5t-15 -10.5t-15 -14.5t-12.5 -14.5t-13 -17t-11.5 -15l-103 84
q38 68 90.5 113t112.5 45q64 0 129 -41q73 -43 106 -43q31 0 50.5 18.5t33.5 57.5l119 -62q-27 -81 -79.5 -126.5t-123.5 -45.5q-69 0 -131 39z" />
    <glyph glyph-name="Umacron" unicode="&#x16a;" horiz-adv-x="1294" 
d="M893 1364h258v-969q0 -67 -15.5 -126t-52 -113t-93 -92t-144.5 -61t-199 -23t-199 23t-144.5 61t-93 92t-52 113t-15.5 126v969h258v-948q0 -104 57 -156.5t189 -52.5t189 52.5t57 156.5v948zM391 1499v166h512v-166h-512z" />
    <glyph glyph-name="umacron" unicode="&#x16b;" horiz-adv-x="1116" 
d="M133 997h250v-696q0 -80 80 -80q45 0 118 24t142 60v692h250v-997h-191l-24 84q-95 -46 -204.5 -75t-195.5 -29q-225 0 -225 294v723zM313 1141v166h512v-166h-512z" />
    <glyph glyph-name="Ubreve" unicode="&#x16c;" horiz-adv-x="1294" 
d="M893 1364h258v-969q0 -67 -15.5 -126t-52 -113t-93 -92t-144.5 -61t-199 -23t-199 23t-144.5 61t-93 92t-52 113t-15.5 126v969h258v-948q0 -104 57 -156.5t189 -52.5t189 52.5t57 156.5v948zM809 1733l119 -66q-23 -88 -96 -145.5t-187 -57.5t-187 57.5t-96 145.5
l121 66q45 -129 162 -129q116 0 164 129z" />
    <glyph glyph-name="ubreve" unicode="&#x16d;" horiz-adv-x="1116" 
d="M133 997h250v-696q0 -80 80 -80q45 0 118 24t142 60v692h250v-997h-191l-24 84q-95 -46 -204.5 -75t-195.5 -29q-225 0 -225 294v723zM754 1386l120 -63q-21 -93 -99.5 -159t-201.5 -66q-122 0 -200 66t-99 159l121 63q22 -62 67.5 -100.5t110.5 -38.5q66 0 111.5 38.5
t69.5 100.5z" />
    <glyph glyph-name="Uring" unicode="&#x16e;" horiz-adv-x="1294" 
d="M893 1364h258v-969q0 -67 -15.5 -126t-52 -113t-93 -92t-144.5 -61t-199 -23t-199 23t-144.5 61t-93 92t-52 113t-15.5 126v969h258v-948q0 -104 57 -156.5t189 -52.5t189 52.5t57 156.5v948zM813 1602q0 -68 -46 -114t-122 -46q-77 0 -122.5 44.5t-45.5 115.5
q0 69 46 115t122 46t122 -46t46 -115zM713 1602q0 34 -18 52.5t-50 18.5t-49.5 -18.5t-17.5 -52.5q0 -31 17.5 -50.5t49.5 -19.5t50 19.5t18 50.5z" />
    <glyph glyph-name="uring" unicode="&#x16f;" horiz-adv-x="1116" 
d="M133 997h250v-696q0 -80 80 -80q45 0 118 24t142 60v692h250v-997h-191l-24 84q-95 -46 -204.5 -75t-195.5 -29q-225 0 -225 294v723zM745 1260q0 -76 -48 -126.5t-134 -50.5t-134 49t-48 128q0 75 48.5 124.5t133.5 49.5q86 0 134 -49.5t48 -124.5zM637 1260
q0 35 -20 56t-54 21t-54 -21t-20 -56q0 -36 20.5 -58t53.5 -22t53.5 22t20.5 58z" />
    <glyph glyph-name="Uhungarumlaut" unicode="&#x170;" horiz-adv-x="1294" 
d="M893 1364h258v-969q0 -67 -15.5 -126t-52 -113t-93 -92t-144.5 -61t-199 -23t-199 23t-144.5 61t-93 92t-52 113t-15.5 126v969h258v-948q0 -104 57 -156.5t189 -52.5t189 52.5t57 156.5v948zM473 1434l-117 116q91 79 215 211l125 -129q-123 -127 -223 -198zM825 1434
l-116 116q91 79 215 211l125 -129q-121 -125 -224 -198z" />
    <glyph glyph-name="uhungarumlaut" unicode="&#x171;" horiz-adv-x="1116" 
d="M133 997h250v-696q0 -80 80 -80q45 0 118 24t142 60v692h250v-997h-191l-24 84q-95 -46 -204.5 -75t-195.5 -29q-225 0 -225 294v723zM373 1085l-115 117q116 102 242 240l125 -131q-130 -130 -252 -226zM741 1085l-114 117q110 97 241 240l125 -131q-130 -130 -252 -226
z" />
    <glyph glyph-name="Uogonek" unicode="&#x172;" horiz-adv-x="1294" 
d="M807 -276l29 -119q-69 -29 -142 -29q-97 0 -149.5 43.5t-52.5 120.5q0 144 204 242q-16 -2 -49 -2q-111 0 -199 23t-144.5 61t-93 92t-52 113t-15.5 126v969h258v-948q0 -104 57 -156.5t189 -52.5t189 52.5t57 156.5v948h258v-969q0 -128 -60 -227.5t-190 -149.5
q-233 -125 -233 -237q0 -66 75 -66q34 0 64 9z" />
    <glyph glyph-name="uogonek" unicode="&#x173;" horiz-adv-x="1116" 
d="M932 -276l29 -119q-69 -29 -142 -29q-97 0 -150 43.5t-53 120.5q0 147 250 260h-84l-24 84q-95 -46 -204.5 -75t-195.5 -29q-225 0 -225 294v723h250v-696q0 -80 80 -80q45 0 118 24t142 60v692h250v-997q-99 -76 -139.5 -125t-40.5 -94q0 -66 75 -66q34 0 64 9z" />
    <glyph glyph-name="Wcircumflex" unicode="&#x174;" horiz-adv-x="1933" 
d="M1139 1364l247 -1057l261 1057h256l-338 -1364h-348l-250 1098l-250 -1098h-348l-338 1364h256l260 -1057l248 1057h344zM778 1452l-71 115q137 92 260 186q125 -95 260 -186l-70 -115q-92 42 -190 100q-92 -53 -189 -100z" />
    <glyph glyph-name="wcircumflex" unicode="&#x175;" horiz-adv-x="1441" 
d="M510 0h-289l-184 997h233l123 -667l199 667h260l197 -667l122 667h234l-184 -997h-289l-211 717zM516 1092l-80 110q157 115 287 223q142 -117 285 -223l-78 -110q-96 55 -207 133q-100 -70 -207 -133z" />
    <glyph glyph-name="Ycircumflex" unicode="&#x176;" horiz-adv-x="1159" 
d="M580 676l294 688h275l-440 -969v-395h-258v395l-441 969h275zM391 1452l-72 115q145 97 261 186q125 -95 260 -186l-70 -115q-92 42 -190 100q-92 -53 -189 -100z" />
    <glyph glyph-name="ycircumflex" unicode="&#x177;" horiz-adv-x="978" 
d="M979 997l-320 -997l-133 -403h-237l125 403h-88l-316 997h256l228 -757l229 757h256zM291 1092l-80 110q157 115 287 223q150 -124 284 -223l-77 -110q-96 55 -207 133q-100 -70 -207 -133z" />
    <glyph glyph-name="Ydieresis" unicode="&#x178;" horiz-adv-x="1159" 
d="M580 676l294 688h275l-440 -969v-395h-258v395l-441 969h275zM264 1487v199h209v-199h-209zM659 1487v199h209v-199h-209z" />
    <glyph glyph-name="Zacute" unicode="&#x179;" horiz-adv-x="1177" 
d="M1049 1145l-627 -926h633v-219h-922v217l631 928h-606v219h891v-219zM547 1452l-90 139q169 104 272 183l96 -152q-121 -89 -278 -170z" />
    <glyph glyph-name="zacute" unicode="&#x17a;" horiz-adv-x="942" 
d="M119 805v192h727v-192l-445 -612h459v-193h-747v193l444 612h-438zM426 1104l-90 139q151 93 299 201l98 -152q-183 -121 -307 -188z" />
    <glyph glyph-name="Zdotaccent" unicode="&#x17b;" horiz-adv-x="1177" 
d="M1049 1145l-627 -926h633v-219h-922v217l631 928h-606v219h891v-219zM733 1475h-250v288h250v-288z" />
    <glyph glyph-name="zdotaccent" unicode="&#x17c;" horiz-adv-x="942" 
d="M119 805v192h727v-192l-445 -612h459v-193h-747v193l444 612h-438zM629 1139h-250v288h250v-288z" />
    <glyph glyph-name="Zcaron" unicode="&#x17d;" horiz-adv-x="1177" 
d="M1049 1145l-627 -926h633v-219h-922v217l631 928h-606v219h891v-219zM350 1638l72 115q90 -44 188 -100q95 55 191 100l69 -115q-135 -91 -260 -186q-123 94 -260 186z" />
    <glyph glyph-name="zcaron" unicode="&#x17e;" horiz-adv-x="942" 
d="M119 805v192h727v-192l-445 -612h459v-193h-747v193l444 612h-438zM211 1305l80 110q107 -63 207 -133q111 78 207 133l77 -110q-122 -90 -284 -224q-140 116 -287 224z" />
    <glyph glyph-name="florin" unicode="&#x192;" horiz-adv-x="999" 
d="M328 668h-168l16 206h168l23 267q15 160 96.5 228.5t249.5 68.5q96 0 215 -29l-27 -197q-100 17 -164 17q-69 0 -92.5 -27.5t-28.5 -91.5l-20 -236h258l-27 -206h-249l-68 -781q-12 -150 -89.5 -220t-242.5 -70q-86 0 -166 22l33 199q54 -13 105 -13q60 0 82.5 22
t27.5 77z" />
    <glyph glyph-name="Aringacute" unicode="&#x1fa;" horiz-adv-x="1323" 
d="M1001 0l-88 283h-505l-86 -283h-271l430 1364h361l430 -1364h-271zM662 1151l-191 -645h377zM829 1581q0 -68 -45.5 -114t-121.5 -46q-77 0 -122.5 44.5t-45.5 115.5q0 69 46 115.5t122 46.5t121.5 -46.5t45.5 -115.5zM729 1581q0 34 -17.5 53t-49.5 19t-50 -19t-18 -53
q0 -31 18 -50.5t50 -19.5t49.5 19.5t17.5 50.5zM670 1784l-80 125q150 90 235 155l86 -137q-99 -71 -241 -143z" />
    <glyph glyph-name="aringacute" unicode="&#x1fb;" horiz-adv-x="1005" 
d="M688 1253q0 -68 -46 -113.5t-122 -45.5q-77 0 -122.5 44t-45.5 115q0 69 46 115.5t122 46.5t122 -46.5t46 -115.5zM588 1253q0 34 -18 53t-50 19t-49.5 -19t-17.5 -53q0 -31 17.5 -50t49.5 -19t50 19t18 50zM518 1456l-80 125q149 89 236 156l86 -138q-97 -69 -242 -143z
M883 657v-657h-205l-19 68q-134 -88 -297 -88q-131 0 -195.5 80t-64.5 216q0 151 68.5 216t222.5 65h240v105q0 86 -37.5 117.5t-153.5 31.5q-124 0 -276 -31l-31 191q152 47 342 47q117 0 195.5 -20.5t125 -66.5t66 -111.5t19.5 -162.5zM633 229v148h-184q-61 0 -83 -20.5
t-22 -77.5q0 -54 21.5 -77.5t78.5 -23.5q100 0 189 51z" />
    <glyph glyph-name="AEacute" unicode="&#x1fc;" horiz-adv-x="1765" 
d="M1001 0l-88 283h-505l-86 -283h-271l430 1364h1172v-227h-740l105 -330h590v-227h-518l110 -353h453v-227h-652zM662 1151l-191 -645h377zM715 1452l-90 139q169 104 272 183l96 -152q-121 -89 -278 -170z" />
    <glyph glyph-name="aeacute" unicode="&#x1fd;" horiz-adv-x="1519" 
d="M883 352q0 -93 41 -130.5t153 -37.5q150 0 305 47l39 -188q-166 -63 -366 -63q-225 0 -328 100q-158 -100 -342 -100q-143 0 -213 80t-70 216q0 151 68.5 216t222.5 65h240v105q0 86 -37.5 117.5t-153.5 31.5q-124 0 -276 -31l-31 191q152 47 342 47q97 0 164.5 -23
t132.5 -69q128 92 273 92q93 0 163 -21.5t113 -57.5t69 -89t36 -109t10 -125v-213h-555v-51zM883 653v-49h317v49q0 78 -32.5 119t-118.5 41q-166 0 -166 -160zM444 178q109 0 201 53q-12 58 -12 134v12h-184q-61 0 -83 -20.5t-22 -77.5q0 -54 21.5 -77.5t78.5 -23.5z
M762 1104l-90 139q151 93 299 201l98 -152q-183 -121 -307 -188z" />
    <glyph glyph-name="Oslashacute" unicode="&#x1fe;" horiz-adv-x="1277" 
d="M123 -61l104 174q-104 107 -104 286v566q0 89 27.5 162t85.5 132t160.5 92t242.5 33q189 0 311 -61l99 164l106 -62l-104 -176q104 -107 104 -284v-566q0 -89 -27.5 -162t-85.5 -132t-160.5 -92t-242.5 -33q-192 0 -311 61l-99 -164zM897 950q0 27 -2 39l-442 -739
q61 -43 186 -43q139 0 198.5 52.5t59.5 154.5v536zM381 950v-536q0 -27 2 -39l442 739q-65 43 -186 43q-139 0 -198.5 -52.5t-59.5 -154.5zM602 1452l-90 139q169 104 272 183l97 -152q-118 -88 -279 -170z" />
    <glyph glyph-name="oslashacute" unicode="&#x1ff;" horiz-adv-x="1064" 
d="M98 -45l95 137q-95 100 -95 281v252q0 65 12 120t42.5 106.5t78.5 87.5t125 57.5t176 21.5q157 0 254 -51l91 131l88 -58l-95 -137q97 -100 97 -278v-252q0 -82 -20.5 -148.5t-68 -124t-135.5 -89t-211 -31.5q-159 0 -256 51l-90 -133zM717 633q0 29 -2 41l-307 -453
q45 -28 124 -28q98 0 141.5 42.5t43.5 129.5v268zM348 365q0 -29 2 -41l307 450q-45 31 -125 31q-97 0 -140.5 -42.5t-43.5 -129.5v-268zM479 1104l-90 139q151 93 299 201l98 -152q-183 -121 -307 -188z" />
    <glyph glyph-name="Scommaaccent" unicode="&#x218;" horiz-adv-x="1105" 
d="M1004 371q0 -68 -7.5 -119t-27 -97t-54.5 -76.5t-87.5 -54t-128 -34t-175.5 -10.5q-114 0 -235 24t-191 57l45 203q205 -63 385 -63q94 0 140 16t61.5 50t15.5 104q0 46 -0.5 66t-10 45.5t-21.5 35t-44 24t-68.5 23t-104.5 23.5q-86 19 -142.5 36.5t-101 43t-68 52.5
t-39 72t-20 95t-4.5 127q0 128 42 207t144 121t273 42q201 0 397 -45l-29 -217q-185 41 -364 41q-88 0 -131.5 -15t-58.5 -46t-15 -94v-52t4.5 -39.5t8 -31t19 -23t27.5 -19.5t43.5 -16t58 -17t78.5 -19q71 -17 122 -31.5t93 -33.5t68.5 -34.5t47 -42t30.5 -49t16 -62
t7.5 -74.5t1.5 -93zM440 -375v271h240v-287l-131 -213l-109 59l88 170h-88z" />
    <glyph glyph-name="scommaaccent" unicode="&#x219;" horiz-adv-x="915" 
d="M813 291q0 -62 -8.5 -107t-31.5 -85.5t-63 -65t-104 -39t-153 -14.5q-80 0 -177.5 16t-166.5 41l34 190q144 -43 297 -43q80 0 103.5 20.5t23.5 80.5q0 35 -9 53.5t-47.5 38.5t-117.5 39q-75 18 -122.5 37.5t-78.5 42t-46 58t-20 74t-5 101.5q0 155 82 222t291 67
q168 0 299 -35l-25 -199q-157 29 -274 29q-78 0 -102.5 -18.5t-24.5 -67.5q0 -34 2 -48.5t18.5 -28.5t40.5 -21.5t80 -22.5q74 -20 120 -34.5t83 -35t55 -38.5t29.5 -51t14.5 -66.5t3 -89.5zM365 -375v271h239v-287l-131 -213l-108 59l88 170h-88z" />
    <glyph glyph-name="circumflex" unicode="&#x2c6;" horiz-adv-x="796" 
d="M193 1092l-80 110q148 109 286 223q142 -117 285 -223l-78 -110q-96 55 -207 133q-105 -74 -206 -133z" />
    <glyph glyph-name="caron" unicode="&#x2c7;" horiz-adv-x="796" 
d="M113 1305l80 110q101 -59 206 -133q111 78 207 133l78 -110q-131 -97 -285 -224q-148 123 -286 224z" />
    <glyph glyph-name="breve" unicode="&#x2d8;" horiz-adv-x="825" 
d="M592 1386l121 -63q-21 -93 -99.5 -159t-201.5 -66q-122 0 -200 66t-99 159l120 63q22 -61 68 -100t111 -39q66 0 111 38.5t69 100.5z" />
    <glyph glyph-name="dotaccent" unicode="&#x2d9;" horiz-adv-x="475" 
d="M362 1139h-249v288h249v-288z" />
    <glyph glyph-name="ring" unicode="&#x2da;" horiz-adv-x="589" 
d="M477 1260q0 -76 -48 -126.5t-134 -50.5t-134 49t-48 128q0 75 48.5 124.5t133.5 49.5q86 0 134 -49.5t48 -124.5zM369 1260q0 35 -20 56t-54 21t-54 -21t-20 -56q0 -36 20.5 -58t53.5 -22t53.5 22t20.5 58z" />
    <glyph glyph-name="ogonek" unicode="&#x2db;" horiz-adv-x="581" 
d="M428 -276l29 -119q-69 -29 -142 -29q-97 0 -149.5 43.5t-52.5 120.5q0 81 64.5 141.5t184.5 118.5h107q-99 -76 -139.5 -125t-40.5 -94q0 -66 76 -66q33 0 63 9z" />
    <glyph glyph-name="tilde" unicode="&#x2dc;" horiz-adv-x="866" 
d="M420 1161q-34 24 -55 33.5t-46 9.5q-10 0 -19 -2t-18 -8.5t-15 -10.5t-15 -14.5t-12.5 -14.5t-13 -17t-11.5 -15l-102 84q38 69 90 113.5t112 44.5q64 0 129 -41q73 -43 107 -43q31 0 50.5 18.5t33.5 57.5l119 -62q-27 -81 -79.5 -126.5t-123.5 -45.5q-69 0 -131 39z" />
    <glyph glyph-name="hungarumlaut" unicode="&#x2dd;" horiz-adv-x="960" 
d="M227 1085l-114 117q110 97 241 240l125 -131q-130 -130 -252 -226zM596 1085l-115 117q116 102 242 240l125 -131q-130 -130 -252 -226z" />
    <glyph glyph-name="Omega" unicode="&#x3a9;" horiz-adv-x="1449" 
d="M1241 973v-567q0 -74 -22 -128t-68 -106h176v-172h-477v172q68 35 99.5 84.5t31.5 142.5v559q0 97 -64.5 148t-191.5 51t-191.5 -51t-64.5 -148v-559q0 -93 31.5 -142.5t99.5 -84.5v-172h-477v172h176q-46 52 -68 106t-22 128v567q0 82 29 153.5t88.5 130.5t161.5 93
t237 34t237 -34t161.5 -93t88.5 -130.5t29 -153.5z" />
    <glyph glyph-name="pi" unicode="&#x3c0;" horiz-adv-x="1376" 
d="M1266 788h-209v-544q0 -39 15 -53.5t56 -14.5q49 0 111 19l35 -181q-94 -34 -191 -34q-138 0 -205 64.5t-67 184.5v559h-283v-788h-241v788h-215v209h1194v-209z" />
    <glyph glyph-name="Wgrave" unicode="&#x1e80;" horiz-adv-x="1933" 
d="M1139 1364l247 -1057l261 1057h256l-338 -1364h-348l-250 1098l-250 -1098h-348l-338 1364h256l260 -1057l248 1057h344zM1075 1591l-90 -139q-164 86 -278 170l98 152q99 -78 270 -183z" />
    <glyph glyph-name="wgrave" unicode="&#x1e81;" horiz-adv-x="1441" 
d="M510 0h-289l-184 997h233l123 -667l199 667h260l197 -667l122 667h234l-184 -997h-289l-211 717zM823 1243l-92 -139q-130 72 -305 188l98 152q132 -98 299 -201z" />
    <glyph glyph-name="Wacute" unicode="&#x1e82;" horiz-adv-x="1933" 
d="M1139 1364l247 -1057l261 1057h256l-338 -1364h-348l-250 1098l-250 -1098h-348l-338 1364h256l260 -1057l248 1057h344zM958 1452l-90 139q174 107 273 183l96 -152q-118 -88 -279 -170z" />
    <glyph glyph-name="wacute" unicode="&#x1e83;" horiz-adv-x="1441" 
d="M510 0h-289l-184 997h233l123 -667l199 667h260l197 -667l122 667h234l-184 -997h-289l-211 717zM717 1104l-90 139q151 93 299 201l98 -152q-183 -121 -307 -188z" />
    <glyph glyph-name="Wdieresis" unicode="&#x1e84;" horiz-adv-x="1933" 
d="M1139 1364l247 -1057l261 1057h256l-338 -1364h-348l-250 1098l-250 -1098h-348l-338 1364h256l260 -1057l248 1057h344zM666 1487v199h208v-199h-208zM1061 1487v199h209v-199h-209z" />
    <glyph glyph-name="wdieresis" unicode="&#x1e85;" horiz-adv-x="1441" 
d="M510 0h-289l-184 997h233l123 -667l199 667h260l197 -667l122 667h234l-184 -997h-289l-211 717zM422 1135v215h207v-215h-207zM809 1135v215h207v-215h-207z" />
    <glyph glyph-name="Ygrave" unicode="&#x1ef2;" horiz-adv-x="1159" 
d="M580 676l294 688h275l-440 -969v-395h-258v395l-441 969h275zM692 1591l-90 -139q-164 86 -278 170l98 152q99 -78 270 -183z" />
    <glyph glyph-name="ygrave" unicode="&#x1ef3;" horiz-adv-x="978" 
d="M979 997l-320 -997l-133 -403h-237l125 403h-88l-316 997h256l228 -757l229 757h256zM631 1243l-92 -139q-136 76 -306 188l99 152q132 -98 299 -201z" />
    <glyph glyph-name="endash" unicode="&#x2013;" horiz-adv-x="1024" 
d="M133 469v209h758v-209h-758z" />
    <glyph glyph-name="emdash" unicode="&#x2014;" horiz-adv-x="1320" 
d="M133 469v209h1055v-209h-1055z" />
    <glyph glyph-name="quoteleft" unicode="&#x2018;" horiz-adv-x="561" 
d="M408 1155v-287h-254v303l159 269l115 -64l-115 -221h95z" />
    <glyph glyph-name="quoteright" unicode="&#x2019;" horiz-adv-x="540" 
d="M154 1118v287h254v-303l-160 -268l-115 63l115 221h-94z" />
    <glyph glyph-name="quotesinglbase" unicode="&#x201a;" horiz-adv-x="561" 
d="M154 0v287h254v-303l-160 -269l-115 64l115 221h-94z" />
    <glyph glyph-name="quotedblleft" unicode="&#x201c;" horiz-adv-x="970" 
d="M408 1155v-287h-254v303l159 269l115 -64l-115 -221h95zM817 1155v-287h-254v303l160 269l115 -64l-115 -221h94z" />
    <glyph glyph-name="quotedblright" unicode="&#x201d;" horiz-adv-x="970" 
d="M563 1118v287h254v-303l-160 -268l-114 63l114 221h-94zM154 1118v287h254v-303l-160 -268l-115 63l115 221h-94z" />
    <glyph glyph-name="quotedblbase" unicode="&#x201e;" horiz-adv-x="970" 
d="M563 0v287h254v-303l-160 -269l-114 64l114 221h-94zM154 0v287h254v-303l-160 -269l-115 64l115 221h-94z" />
    <glyph glyph-name="dagger" unicode="&#x2020;" horiz-adv-x="993" 
d="M102 844v174h299v346h191v-346h299v-174h-299v-987h-191v987h-299z" />
    <glyph glyph-name="daggerdbl" unicode="&#x2021;" horiz-adv-x="993" 
d="M102 203v174h299v467h-299v174h299v346h191v-346h299v-174h-299v-467h299v-174h-299v-346h-191v346h-299z" />
    <glyph glyph-name="bullet" unicode="&#x2022;" horiz-adv-x="755" 
d="M113 662q0 110 77.5 188t186.5 78q110 0 188 -78t78 -188q0 -109 -78 -187t-188 -78q-109 0 -186.5 78t-77.5 187z" />
    <glyph glyph-name="ellipsis" unicode="&#x2026;" horiz-adv-x="1683" 
d="M154 0v287h254v-287h-254zM715 0v287h254v-287h-254zM1276 0v287h254v-287h-254z" />
    <glyph glyph-name="perthousand" unicode="&#x2030;" horiz-adv-x="2576" 
d="M1243 1321l-551 -1341l-157 63l550 1341zM741 930q0 -139 -72.5 -215t-246.5 -76t-247 76.5t-73 214.5v164q0 138 73 214t247 76t246.5 -76t72.5 -214v-164zM545 1108q0 57 -27 81.5t-96 24.5t-96 -24.5t-27 -81.5v-193q0 -57 27 -81.5t96 -24.5t96 24.5t27 81.5v193z
M1683 270q0 -138 -72.5 -214t-246.5 -76t-247 76t-73 214v164q0 138 73 214.5t247 76.5t246.5 -76t72.5 -215v-164zM1487 449q0 57 -27 81.5t-96 24.5t-96 -24.5t-27 -81.5v-193q0 -57 27 -81.5t96 -24.5t96 24.5t27 81.5v193zM2464 270q0 -138 -73 -214t-247 -76t-246.5 76
t-72.5 214v164q0 139 72.5 215t246.5 76t247 -76.5t73 -214.5v-164zM2267 449q0 57 -27 81.5t-96 24.5t-96 -24.5t-27 -81.5v-193q0 -57 27 -81.5t96 -24.5t96 24.5t27 81.5v193z" />
    <glyph glyph-name="guilsinglleft" unicode="&#x2039;" horiz-adv-x="610" 
d="M72 500l260 395l166 -104l-191 -291l191 -291l-166 -105z" />
    <glyph glyph-name="guilsinglright" unicode="&#x203a;" horiz-adv-x="610" 
d="M279 895l260 -395l-260 -396l-166 105l190 291l-190 291z" />
    <glyph glyph-name="fraction" unicode="&#x2044;" horiz-adv-x="753" 
d="M754 1343l-611 -1425l-143 62l612 1425z" />
    <glyph glyph-name="Euro" unicode="&#x20ac;" horiz-adv-x="1101" 
d="M211 365v79h-150v140h150v168h-150v139h150v67q0 191 117.5 288t367.5 97q166 0 314 -38l-29 -213q-155 28 -276 28q-138 0 -187 -47t-49 -160v-22h412v-139h-412v-168h412v-140h-412v-34q0 -113 49 -160t187 -47q121 0 276 28l29 -213q-148 -38 -314 -38
q-250 0 -367.5 97t-117.5 288z" />
    <glyph glyph-name="uni2113" unicode="&#x2113;" horiz-adv-x="1056" 
d="M623 -20q-111 0 -189 26.5t-121.5 77t-63.5 109.5t-26 137q-54 -32 -127 -68l-96 168q59 33 219 129v496q0 192 90 291.5t285 99.5q164 0 257 -88.5t93 -229.5q0 -197 -115 -350t-362 -305v-127q0 -86 40.5 -123t129.5 -37q122 0 274 74l64 -182q-181 -98 -352 -98z
M467 1098v-383q121 95 181.5 188.5t60.5 218.5q0 58 -31 89.5t-84 31.5q-127 0 -127 -145z" />
    <glyph glyph-name="uni2116" unicode="&#x2116;" horiz-adv-x="2027" 
d="M825 0l-430 977v-977h-241v1364h305l432 -1010v1010h239v-1364h-305zM1335 350v152h611v-152h-611zM1966 899q0 -135 -78 -213t-248 -78q-169 0 -246 78t-77 213v195q0 135 76.5 212.5t246.5 77.5t248 -77.5t78 -212.5v-195zM1774 1098q0 62 -31.5 93.5t-102.5 31.5
t-102 -31.5t-31 -93.5v-203q0 -62 31 -93.5t102 -31.5t102.5 31.5t31.5 93.5v203z" />
    <glyph glyph-name="trademark" unicode="&#x2122;" horiz-adv-x="1026" 
d="M825 946l-4 242l-73 -191h-91l-71 189l-6 -240h-86l14 418h94l100 -268l103 268h92l16 -418h-88zM217 946v336h-115v82h320v-82h-115v-336h-90z" />
    <glyph glyph-name="estimated" unicode="&#x212e;" horiz-adv-x="1626" 
d="M1544 616h-1171v-411q180 -156 440 -156q180 0 318.5 63.5t277.5 202.5l49 -49q-87 -89 -173 -148.5t-208 -98.5t-264 -39q-152 0 -288.5 54.5t-233 147t-153 218t-56.5 262.5q0 184 99.5 341t268 248.5t363.5 91.5t363.5 -91.5t268 -248.5t99.5 -341v-46zM813 1274
q-251 0 -440 -164v-428h880v428q-189 164 -440 164z" />
    <glyph glyph-name="partialdiff" unicode="&#x2202;" horiz-adv-x="1193" 
d="M811 827l10 60q10 72 10 112q0 109 -56.5 158t-192.5 49q-130 0 -275 -51l-53 193q167 77 367 77q240 0 350 -105t110 -306q0 -82 -16 -178l-86 -488q-13 -75 -32 -128t-54 -101.5t-87.5 -77t-133 -45t-189.5 -16.5q-197 0 -289 76.5t-92 209.5q0 21 9 82l28 158
q12 62 24 104t33 88t51.5 75t75 53.5t108.5 36t147 11.5q142 0 233 -47zM586 662q-100 0 -140 -31t-55 -115l-31 -174q-6 -30 -6 -53q0 -54 36.5 -75t129.5 -21q105 0 147.5 31t57.5 118l47 272q-31 21 -83 34.5t-103 13.5z" />
    <glyph glyph-name="Delta" unicode="&#x2206;" horiz-adv-x="1499" 
d="M877 1364l509 -1364h-1273l510 1364h254zM750 1075l-310 -858h617z" />
    <glyph glyph-name="product" unicode="&#x220f;" horiz-adv-x="1613" 
d="M1532 1133h-256v-1338h-250v1338h-438v-1338h-250v1338h-256v231h1450v-231z" />
    <glyph glyph-name="summation" unicode="&#x2211;" horiz-adv-x="1112" 
d="M133 -205v232l426 561l-426 545v231h846v-231h-530l417 -541l-417 -565h530v-232h-846z" />
    <glyph glyph-name="minus" unicode="&#x2212;" horiz-adv-x="823" 
d="M123 469v209h577v-209h-577z" />
    <glyph glyph-name="radical" unicode="&#x221a;" horiz-adv-x="1392" 
d="M686 0h-278l-316 950l217 68l232 -731l336 1208h495v-203h-311z" />
    <glyph glyph-name="infinity" unicode="&#x221e;" horiz-adv-x="1820" 
d="M1739 571q0 -176 -110 -271t-290 -95q-65 0 -124 17.5t-114.5 54.5t-95 70t-96.5 89q-55 -54 -95.5 -88.5t-95.5 -71t-114.5 -54t-124.5 -17.5q-178 0 -287.5 95t-109.5 271q0 178 108 274.5t289 96.5q65 0 124.5 -17.5t114 -53t96 -71t95.5 -89.5q56 55 96.5 89.5
t95.5 70.5t114 53.5t124 17.5q183 0 291.5 -96.5t108.5 -274.5zM303 571q0 -79 47.5 -121t128.5 -42q75 0 139 41.5t144 123.5q-79 81 -144 123.5t-139 42.5q-72 0 -124 -44.5t-52 -123.5zM1518 571q0 79 -53 123.5t-126 44.5q-74 0 -138 -42t-144 -124q80 -82 143.5 -123.5
t138.5 -41.5q81 0 130 42t49 121z" />
    <glyph glyph-name="integral" unicode="&#x222b;" horiz-adv-x="782" 
d="M483 -150q0 -274 -258 -274q-93 0 -184 37l39 178q50 -16 84 -16q42 0 55.5 16.5t13.5 54.5v1266q0 272 256 272q114 0 211 -41l-43 -192q-58 20 -108 20q-66 0 -66 -71v-1250z" />
    <glyph glyph-name="approxequal" unicode="&#x2248;" horiz-adv-x="1128" 
d="M391 471q59 0 114.5 -18.5t91 -41t79 -41t80.5 -18.5q81 0 153 72l97 -145q-115 -123 -261 -123q-48 0 -95 18t-79.5 40t-79.5 40t-94 18q-88 0 -184 -77l-90 151q48 48 122.5 86.5t145.5 38.5zM391 844q59 0 114.5 -18.5t91 -41t79 -41t80.5 -18.5q81 0 153 72l97 -146
q-115 -123 -261 -123q-48 0 -95 18.5t-79.5 40t-79.5 40t-94 18.5q-87 0 -184 -78l-90 152q48 48 122.5 86.5t145.5 38.5z" />
    <glyph glyph-name="notequal" unicode="&#x2260;" horiz-adv-x="1103" 
d="M143 618v173h461l141 272l146 -76l-103 -196h173v-173h-263l-110 -212h373v-173h-463l-136 -262l-145 76l96 186h-170v173h260l111 212h-371z" />
    <glyph glyph-name="lessequal" unicode="&#x2264;" horiz-adv-x="1095" 
d="M123 0v174h840v-174h-840zM915 971l-536 -269l536 -276l-77 -150l-682 357v137l682 350z" />
    <glyph glyph-name="greaterequal" unicode="&#x2265;" horiz-adv-x="1095" 
d="M973 174v-174h-840v174h840zM717 702l-537 269l78 149l682 -350v-137l-682 -357l-78 150z" />
    <glyph glyph-name="lozenge" unicode="&#x25ca;" horiz-adv-x="1193" 
d="M72 684l448 680h154l448 -680l-448 -684h-154zM596 1159l-317 -475l317 -479l319 479z" />
    <glyph glyph-name="apple" unicode="&#xf8ff;" horiz-adv-x="1794" 
d="M1610 682h-682v-682h-682v1364h1364v-682z" />
    <glyph glyph-name="Acute" horiz-adv-x="614" 
d="M213 1452l-90 139q169 104 272 183l97 -152q-118 -88 -279 -170z" />
    <glyph glyph-name="Breve" horiz-adv-x="790" 
d="M559 1733l119 -66q-23 -88 -96 -145.5t-187 -57.5t-186.5 57.5t-95.5 145.5l120 66q45 -129 162 -129q116 0 164 129z" />
    <glyph glyph-name="Caron" horiz-adv-x="745" 
d="M113 1638l71 115q97 -47 189 -100q98 58 190 100l70 -115q-135 -91 -260 -186q-123 94 -260 186z" />
    <glyph glyph-name="Cedilla" horiz-adv-x="614" 
d="M502 -244q0 -77 -54.5 -121.5t-164.5 -44.5q-89 0 -170 31l20 96q63 -18 133 -18q59 0 80 14t21 45q0 26 -17.5 37.5t-60.5 11.5q-28 0 -64 -4l-59 29l43 199h117l-27 -140q40 5 57 5q71 1 108.5 -37.5t37.5 -102.5z" />
    <glyph glyph-name="Circumflex" horiz-adv-x="745" 
d="M184 1452l-71 115q137 92 260 186q125 -95 260 -186l-70 -115q-92 42 -190 100q-92 -53 -189 -100z" />
    <glyph glyph-name="commaaccent" horiz-adv-x="669" 
d="M225 -375v271h240v-287l-131 -213l-109 59l88 170h-88z" />
    <glyph glyph-name="Dieresis" horiz-adv-x="849" 
d="M123 1487v199h209v-199h-209zM518 1487v199h209v-199h-209z" />
    <glyph glyph-name="Dotaccent" horiz-adv-x="475" 
d="M362 1475h-249v288h249v-288z" />
    <glyph glyph-name="Grave" horiz-adv-x="614" 
d="M492 1591l-91 -139q-164 86 -278 170l98 152q95 -75 271 -183z" />
    <glyph glyph-name="Hungarumlaut" horiz-adv-x="917" 
d="M229 1434l-116 116q91 79 215 211l125 -129q-121 -125 -224 -198zM582 1434l-117 116q91 79 215 211l125 -129q-123 -127 -223 -198z" />
    <glyph glyph-name="Macron" horiz-adv-x="737" 
d="M113 1499v166h512v-166h-512z" />
    <glyph glyph-name="Ogonek" horiz-adv-x="581" 
d="M428 -276l29 -119q-69 -29 -142 -29q-97 0 -149.5 43.5t-52.5 120.5q0 81 64.5 141.5t184.5 118.5h107q-99 -76 -139.5 -125t-40.5 -94q0 -66 76 -66q33 0 63 9z" />
    <glyph glyph-name="Ring" horiz-adv-x="561" 
d="M449 1602q0 -68 -46 -114t-122 -46q-77 0 -122.5 44.5t-45.5 115.5q0 69 46 115t122 46t122 -46t46 -115zM348 1602q0 34 -17.5 52.5t-49.5 18.5t-50 -18.5t-18 -52.5q0 -31 18 -50.5t50 -19.5t49.5 19.5t17.5 50.5z" />
    <glyph glyph-name="Tilde" horiz-adv-x="866" 
d="M420 1513q-55 35 -78 41q-11 2 -23 2q-17 0 -31 -6t-30 -23.5t-20.5 -23.5l-22.5 -30l-102 83q37 70 89.5 115t112.5 45t129 -41q76 -45 107 -45t50.5 18.5t33.5 57.5l119 -61q-27 -81 -79.5 -126.5t-123.5 -45.5q-72 0 -131 40z" />
    <glyph glyph-name="ampersand.salt" horiz-adv-x="1386" 
d="M590 389v197h366q113 0 185.5 20t134.5 64l90 -162q-109 -98 -301 -113v-43q0 -90 -22.5 -155t-75 -115.5t-146.5 -76t-231 -25.5q-248 0 -357.5 92.5t-109.5 300.5v264q0 201 115 291t360 90q189 0 313 -31l-18 -207q-164 23 -295 23q-125 0 -175 -36t-50 -128v-285
q0 -96 48.5 -133t168.5 -37q104 0 158.5 17t74 49.5t19.5 93.5v45h-252z" />
    <glyph glyph-name="minus.onum" horiz-adv-x="823" 
d="M123 469v209h577v-209h-577z" />
    <glyph glyph-name="multiply.onum" horiz-adv-x="1013" 
d="M745 874l146 -145l-240 -237l240 -240l-146 -146l-239 240l-238 -240l-145 146l239 240l-239 237l145 145l238 -239z" />
    <glyph glyph-name="numbersign.onum" horiz-adv-x="1296" 
d="M1163 236h-221l-14 -236h-170l16 236h-289l-14 -236h-170l16 236h-215l11 159h215l16 262h-213l10 162h213l17 225h168l-15 -225h287l16 225h168l-14 -225h223l-10 -162h-223l-19 -262h222zM514 657l-18 -262h288l17 262h-287z" />
    <glyph glyph-name="dollar.onum" horiz-adv-x="1003" 
d="M401 -211v195q-170 14 -288 67l39 187q173 -52 329 -52q94 0 127 23.5t33 83.5q0 28 -0.5 39.5t-8.5 27.5t-17 21.5t-38 16.5t-58 18t-89 20q-54 12 -95 24t-72.5 27t-53.5 29.5t-37.5 36t-24 40.5t-13 50t-6 58t-1.5 69q0 136 69 206t224 85v194h207v-194
q134 -10 237 -37l-26 -199q-162 33 -310 33q-93 0 -122 -20t-29 -82q0 -23 1 -36t9.5 -26.5t17.5 -19.5t36 -16t53 -16.5t79 -18.5q73 -16 121.5 -31t85.5 -35.5t57.5 -41.5t33 -54.5t16.5 -69.5t4 -92q0 -142 -62.5 -217.5t-220.5 -93.5v-199h-207z" />
    <glyph glyph-name="percent.onum" horiz-adv-x="1591" 
d="M477 51l463 1014l156 -72l-463 -1013zM653 819v-100q0 -116 -62 -181t-218 -65t-218.5 65t-62.5 181v100q0 116 62.5 181t218.5 65t218 -65t62 -181zM274 836v-134q0 -75 99 -75q98 0 98 75v134q0 75 -98 75q-99 0 -99 -75zM1489 326v-101q0 -116 -62.5 -180.5
t-218.5 -64.5t-218 64.5t-62 180.5v101q0 116 62 180.5t218 64.5t218.5 -64.5t62.5 -180.5zM1110 342v-133q0 -76 98 -76q99 0 99 76v133q0 76 -99 76q-98 0 -98 -76z" />
    <glyph glyph-name="plus.onum" horiz-adv-x="1081" 
d="M123 399v197h315v317h205v-317h315v-197h-315v-317h-205v317h-315z" />
    <glyph glyph-name="zero.onum" horiz-adv-x="1146" 
d="M1014 338q0 -358 -441 -358q-440 0 -440 358v369q0 358 440 358q441 0 441 -358v-369zM379 690v-336q0 -88 45.5 -124.5t148.5 -36.5t149 36.5t46 124.5v336q0 88 -46 125t-149 37t-148.5 -37t-45.5 -125z" />
    <glyph glyph-name="one.onum" horiz-adv-x="796" 
d="M383 764l-244 -135l-108 198l377 217h225v-1044h-250v764z" />
    <glyph glyph-name="two.onum" horiz-adv-x="1052" 
d="M129 0v178q80 67 170 144.5t145 123.5q76 64 114 100t58.5 68t23.5 51.5t3 59.5v8q0 68 -35.5 90.5t-136.5 22.5q-150 0 -309 -51l-49 204q72 28 176 47t196 19q118 0 197.5 -19t124.5 -59t63.5 -93t18.5 -130v-23q0 -47 -2 -74t-11.5 -65t-29 -69.5t-54 -72.5t-87.5 -89
q-55 -49 -181 -160h406v-211h-801z" />
    <glyph glyph-name="three.onum" horiz-adv-x="987" 
d="M113 -262l20 199q136 -25 264 -25q119 0 168 32t49 111v84q0 135 -168 135h-268v218h230q101 0 141.5 35.5t40.5 115.5v84q0 73 -40.5 99t-148.5 26q-99 0 -260 -23l-26 205q145 31 309 31q119 0 200.5 -20t128.5 -60.5t67 -93.5t20 -127v-129q0 -90 -35 -147.5
t-121 -96.5q90 -30 135 -90t45 -162v-114q0 -81 -21.5 -138t-72.5 -100.5t-141 -64.5t-223 -21q-150 0 -293 37z" />
    <glyph glyph-name="four.onum" horiz-adv-x="1179" 
d="M1128 51h-188v-330h-246v330h-612v230l530 763h328v-782h188v-211zM338 262h356v522z" />
    <glyph glyph-name="five.onum" horiz-adv-x="997" 
d="M143 293v751h729v-217h-479v-325q105 -5 221 -15q142 -12 211.5 -94t69.5 -225v-113q0 -183 -101 -268.5t-343 -85.5q-80 0 -182.5 12t-155.5 29l20 205q159 -27 313 -27q118 0 158.5 34.5t40.5 125.5v51q0 34 -3.5 53t-18.5 42t-51 35t-95 15q-307 16 -334 17z" />
    <glyph glyph-name="six.onum" horiz-adv-x="1087" 
d="M383 879v-127q104 36 244 36q185 0 266.5 -79.5t81.5 -257.5v-99q0 -84 -21 -148.5t-68 -116.5t-130.5 -79.5t-200.5 -27.5q-104 0 -179 18.5t-121.5 50.5t-74 83t-37.5 107t-10 132v497q0 134 35 226t108.5 146.5t175.5 78.5t246 24q123 0 236 -22l-16 -209
q-98 16 -193 16q-97 0 -156.5 -9.5t-104 -36.5t-63 -76t-18.5 -127zM588 573q-107 0 -205 -43v-186q0 -84 37.5 -116.5t134.5 -32.5q95 0 132.5 34.5t37.5 114.5v100q0 71 -33.5 100t-103.5 29z" />
    <glyph glyph-name="seven.onum" horiz-adv-x="1001" 
d="M92 823v221h828v-213l-541 -1110l-207 103l487 999h-567z" />
    <glyph glyph-name="eight.onum" horiz-adv-x="1138" 
d="M973 928q0 -81 -35 -141t-127 -113q111 -55 153 -117t42 -151v-87q0 -183 -99.5 -261t-337.5 -78t-337 78t-99 261v87q0 89 42.5 151t152.5 117q-91 53 -126.5 113.5t-35.5 140.5v92q0 157 95 240t308 83t308.5 -83t95.5 -240v-92zM764 379q0 47 -12.5 74t-54 54.5
t-128.5 61.5q-66 -26 -104 -46t-58 -43t-26 -44.5t-6 -56.5v-55q0 -76 42.5 -107t151.5 -31t152 31t43 107v55zM408 928q0 -59 29 -89.5t132 -70.5q103 40 132.5 70.5t29.5 89.5v86q0 65 -34.5 95t-127.5 30q-92 0 -126.5 -30t-34.5 -95v-86z" />
    <glyph glyph-name="nine.onum" horiz-adv-x="1087" 
d="M705 166v127q-107 -37 -244 -37q-185 0 -266.5 80t-81.5 258v98q0 181 97.5 277t321.5 96q104 0 179 -18.5t121.5 -50.5t74 -83t37.5 -107t10 -132v-498q0 -134 -35 -226t-108.5 -146.5t-175.5 -78.5t-246 -24q-126 0 -235 25l22 208q88 -18 186 -18q137 0 210.5 24
t103 76.5t29.5 149.5zM500 471q107 0 205 43v186q0 85 -38 117.5t-135 32.5q-95 0 -132.5 -35t-37.5 -115v-100q0 -71 34 -100t104 -29z" />
    <glyph glyph-name="less.onum" horiz-adv-x="1200" 
d="M102 432v135l885 451l78 -152l-727 -366l729 -367l-80 -153z" />
    <glyph glyph-name="equal.onum" horiz-adv-x="1103" 
d="M143 618v173h818v-173h-818zM143 233v173h818v-173h-818z" />
    <glyph glyph-name="greater.onum" horiz-adv-x="1200" 
d="M1098 567v-135l-885 -452l-80 153l729 367l-727 366l78 152z" />
    <glyph glyph-name="cent.onum" horiz-adv-x="993" 
d="M440 -152v224q-161 21 -234 103t-73 226v263q0 144 73 226t234 103v224h207v-220q102 -6 203 -30l-27 -205q-115 24 -262 24q-96 0 -137 -32.5t-41 -110.5v-221q0 -78 41 -110.5t137 -32.5q152 0 262 26l27 -207q-100 -26 -203 -32v-218h-207z" />
    <glyph glyph-name="sterling.onum" horiz-adv-x="1097" 
d="M133 434v172h154q-54 108 -54 199q0 260 383 260q185 0 338 -55l-28 -181q-175 35 -328 35q-61 0 -87 -20.5t-26 -63.5q0 -82 56 -174h354l-10 -172h-303q6 -139 -105 -235h508v-199h-819v188q79 43 121.5 106.5t42.5 139.5h-197z" />
    <glyph glyph-name="section.onum" horiz-adv-x="1046" 
d="M551 70l-176 -90q-110 183 -181 395t-71 426q0 131 74 197.5t231 66.5q165 0 342 -57l-35 -168q-172 45 -291 45q-62 0 -84 -21t-22 -73q0 -345 213 -721zM537 616l176 91q110 -183 181 -395.5t71 -426.5q0 -131 -74.5 -197.5t-231.5 -66.5q-165 0 -342 57l35 168
q172 -45 291 -45q62 0 84.5 21.5t22.5 73.5q0 344 -213 720z" />
    <glyph glyph-name="yen.onum" horiz-adv-x="1138" 
d="M129 461v147h162l-219 436h256l239 -501l242 501h258l-225 -436h166v-147h-238l-59 -115v-22h297v-146h-312v-178h-258v178h-309v146h293v22l-60 115h-233z" />
    <glyph glyph-name="florin.onum" horiz-adv-x="968" 
d="M297 346h-170l18 207h168l19 217q14 153 96.5 224t247.5 71q128 0 221 -37l-39 -194q-74 22 -156 22q-60 0 -87 -23.5t-31 -80.5l-19 -199h262l-26 -207h-254l-41 -477q-11 -133 -78 -202.5t-217 -69.5q-40 0 -101 8t-100 22l35 195q71 -17 111 -17q57 0 77 21.5t25 77.5
z" />
    <glyph glyph-name="endash.onum" horiz-adv-x="1024" 
d="M133 469v209h758v-209h-758z" />
    <glyph glyph-name="divide.onum" horiz-adv-x="1110" 
d="M977 584v-168h-844v168h844zM436 23v247h238v-247h-238zM436 727v248h238v-248h-238z" />
    <glyph glyph-name="Euro.onum" horiz-adv-x="1017" 
d="M213 580h-131v112h131v35q0 168 101.5 253t328.5 85q149 0 283 -35l-23 -205q-129 25 -223 25q-134 0 -175.5 -26.5t-41.5 -116.5v-15h287v-112h-287v-115h287v-113h-287v-14q0 -90 41.5 -116.5t175.5 -26.5q100 0 223 24l23 -205q-131 -34 -283 -34q-227 0 -328.5 84.5
t-101.5 252.5v35h-131v113h131v115z" />
    <glyph glyph-name="perthousand.onum" horiz-adv-x="2256" 
d="M477 51l463 1014l156 -72l-463 -1013zM653 819v-100q0 -116 -62 -181t-218 -65t-218.5 65t-62.5 181v100q0 116 62.5 181t218.5 65t218 -65t62 -181zM274 836v-134q0 -75 99 -75q98 0 98 75v134q0 75 -98 75q-99 0 -99 -75zM1489 326v-101q0 -116 -62.5 -180.5
t-218.5 -64.5t-218 64.5t-62 180.5v101q0 116 62 180.5t218 64.5t218.5 -64.5t62.5 -180.5zM1110 342v-133q0 -76 98 -76q99 0 99 76v133q0 76 -99 76q-98 0 -98 -76zM2154 326v-101q0 -116 -62 -180.5t-218 -64.5t-218.5 64.5t-62.5 180.5v101q0 116 62.5 180.5t218.5 64.5
t218 -64.5t62 -180.5zM1776 342v-133q0 -76 98 -76t98 76v133q0 76 -98 76t-98 -76z" />
    <glyph glyph-name="minus.tnum" 
d="M248 387v209h577v-209h-577z" />
    <glyph glyph-name="multiply.tnum" 
d="M776 874l144 -145l-238 -237l238 -240l-144 -146l-239 240l-240 -240l-143 146l237 240l-237 237l143 145l240 -239z" />
    <glyph glyph-name="numbersign.tnum" 
d="M950 336h-155l-23 -336h-162l23 336h-256l-23 -336h-161l22 336h-162l13 153h159l25 357h-162l10 153h162l23 324h161l-22 -324h256l20 324h162l-20 -324h155l-10 -153h-156l-24 -357h156zM412 846l-25 -357h256l25 357h-256z" />
    <glyph glyph-name="dollar.tnum" 
d="M639 -242h-205v226q-167 10 -299 57l35 203q158 -47 338 -47q64 0 100 7.5t55 30t24 50.5t5 82q0 41 -1 59.5t-8 41.5t-17.5 32.5t-37 23t-57.5 22t-86 21.5q-77 18 -129.5 36.5t-91 44t-60 52t-34.5 70t-16.5 88.5t-3.5 115q0 85 15.5 146.5t52.5 110t103.5 75.5
t163.5 34v230h205v-230q142 -10 242 -34l-25 -213q-167 32 -336 32q-110 0 -140 -28t-30 -129q0 -37 1 -56.5t9 -39.5t17 -29.5t35 -22t52 -20t77 -21.5q89 -25 146.5 -46t98 -50t61 -51t31.5 -68.5t13 -82.5t2 -111q0 -90 -12.5 -151.5t-45.5 -112.5t-93.5 -79.5
t-153.5 -39.5v-228z" />
    <glyph glyph-name="percent.tnum" horiz-adv-x="1796" 
d="M1243 1321l-551 -1341l-157 63l550 1341zM741 930q0 -139 -72.5 -215t-246.5 -76t-247 76.5t-73 214.5v164q0 138 73 214t247 76t246.5 -76t72.5 -214v-164zM545 1108q0 57 -27 81.5t-96 24.5t-96 -24.5t-27 -81.5v-193q0 -57 27 -81.5t96 -24.5t96 24.5t27 81.5v193z
M1683 270q0 -138 -72.5 -214t-246.5 -76t-247 76t-73 214v164q0 138 73 214.5t247 76.5t246.5 -76t72.5 -215v-164zM1487 449q0 57 -27 81.5t-96 24.5t-96 -24.5t-27 -81.5v-193q0 -57 27 -81.5t96 -24.5t96 24.5t27 81.5v193z" />
    <glyph glyph-name="plus.tnum" 
d="M137 399v197h297v305h207v-305h297v-197h-297v-303h-207v303h-297z" />
    <glyph glyph-name="zero.tnum" 
d="M979 977v-631q0 -80 -22.5 -144t-72.5 -115t-138 -79t-209 -28t-209.5 28t-138 79t-72.5 115t-23 144v631q0 80 23 144t72.5 115t138 79t209.5 28t209 -28t138 -79t72.5 -115t22.5 -144zM344 952v-581q0 -94 39.5 -133t153.5 -39t153 39t39 133v581q0 94 -39 133t-153 39
t-153.5 -39t-39.5 -133z" />
    <glyph glyph-name="one.tnum" 
d="M154 0v213h268v866l-254 -73l-53 213l331 104h226v-1110h274v-213h-792z" />
    <glyph glyph-name="two.tnum" 
d="M131 0v215q32 34 78 84t62.5 68.5t47.5 53t59.5 67t70.5 81.5q62 71 85 98t57.5 71t43 61t21 47.5t14.5 53.5t2 58v35q0 75 -39.5 102t-151.5 27q-139 0 -321 -41l-35 209q181 53 371 53q230 0 328 -78t98 -243v-47q0 -77 -5 -119.5t-28.5 -96.5t-60.5 -105t-113 -144
q-137 -168 -244 -291h455v-219h-795z" />
    <glyph glyph-name="three.tnum" 
d="M135 23l27 206q150 -30 293 -30q131 0 172 30t41 113v80q0 73 -34.5 102t-113.5 29h-293v223h248q98 0 133 33.5t35 110.5v79q0 73 -40 99t-148 26q-133 0 -283 -28l-27 211q141 36 332 36q119 0 200.5 -19t128.5 -59t67 -93.5t20 -129.5v-127q0 -99 -34 -155.5
t-114 -91.5q90 -30 131.5 -88t41.5 -160v-117q0 -80 -21.5 -137.5t-72.5 -100.5t-140.5 -64t-220.5 -21q-75 0 -173 12t-155 31z" />
    <glyph glyph-name="four.tnum" 
d="M1034 295h-164v-295h-245v295h-580v227l471 801h354v-819h164v-209zM297 504h328v581z" />
    <glyph glyph-name="five.tnum" 
d="M176 571v752h729v-217h-479v-330q59 -2 184 -8q172 -9 245 -89t73 -224v-125q0 -69 -11 -119.5t-40 -96t-78.5 -74t-128.5 -44.5t-187 -16q-186 0 -348 49l31 204q148 -34 313 -34q69 0 109.5 7.5t60 29t24.5 45.5t5 71v66q0 75 -35.5 107t-140.5 36q-179 7 -326 10z" />
    <glyph glyph-name="six.tnum" 
d="M373 879v-127q104 36 243 36q185 0 267 -79.5t82 -257.5v-99q0 -84 -21 -148.5t-68 -116.5t-130.5 -79.5t-200.5 -27.5q-104 0 -179 18.5t-121.5 50.5t-74 83t-37.5 107t-10 132v497q0 134 35 226t108.5 146.5t175.5 78.5t246 24q131 0 236 -24l-17 -209q-89 18 -192 18
q-97 0 -156.5 -9.5t-104 -36.5t-63 -76t-18.5 -127zM578 573q-107 0 -205 -43v-186q0 -84 37.5 -116.5t134.5 -32.5q95 0 132.5 34.5t37.5 114.5v100q0 71 -33.5 100t-103.5 29z" />
    <glyph glyph-name="seven.tnum" 
d="M115 1102v221h862v-213l-541 -1110h-258l537 1102h-600z" />
    <glyph glyph-name="eight.tnum" 
d="M942 928q0 -81 -35 -141t-127 -113q111 -55 153 -117t42 -151v-87q0 -183 -99 -261t-337 -78t-337.5 78t-99.5 261v87q0 89 42.5 151t152.5 117q-91 53 -126.5 113.5t-35.5 140.5v92q0 157 95.5 240t308.5 83t308 -83t95 -240v-92zM733 379q0 35 -6 56.5t-26 44.5t-58 43
t-104 46q-87 -34 -128.5 -61.5t-54 -54.5t-12.5 -74v-55q0 -76 43 -107t152 -31t151.5 31t42.5 107v55zM377 928q0 -59 29.5 -89.5t132.5 -70.5q103 40 132 70.5t29 89.5v86q0 65 -34.5 95t-126.5 30q-93 0 -127.5 -30t-34.5 -95v-86z" />
    <glyph glyph-name="nine.tnum" 
d="M702 444v127q-104 -36 -243 -36q-185 0 -266.5 79.5t-81.5 257.5v99q0 181 97.5 276.5t321.5 95.5q104 0 179 -18.5t121.5 -50.5t74 -83t37.5 -107t10 -132v-497q0 -134 -35 -226t-108.5 -146.5t-175.5 -78.5t-246 -24q-130 0 -235 24l22 209q88 -18 186 -18
q197 0 269.5 53.5t72.5 195.5zM498 750q106 0 204 43v186q0 85 -37.5 117t-134.5 32q-95 0 -132.5 -34.5t-37.5 -114.5v-100q0 -71 34 -100t104 -29z" />
    <glyph glyph-name="less.tnum" 
d="M98 432v135l758 451l82 -152l-629 -366l631 -367l-84 -153z" />
    <glyph glyph-name="equal.tnum" 
d="M166 618v173h743v-173h-743zM166 233v173h743v-173h-743z" />
    <glyph glyph-name="greater.tnum" 
d="M977 567v-135l-758 -452l-84 153l631 367l-629 366l82 152z" />
    <glyph glyph-name="cent.tnum" 
d="M489 -20v190q-162 23 -232.5 113t-70.5 264v272q0 173 70.5 263.5t232.5 111.5v190h173v-184q53 0 123 -10.5t116 -24.5l-24 -204q-116 26 -254 26q-106 0 -146.5 -36.5t-40.5 -129.5v-276q0 -93 40.5 -129.5t146.5 -36.5q128 0 254 27l24 -205q-89 -29 -239 -37v-184
h-173z" />
    <glyph glyph-name="sterling.tnum" 
d="M100 567v199h166q-57 148 -57 246q0 91 30.5 156.5t88.5 103t133.5 54.5t173.5 17q173 0 340 -47l-31 -206q-150 34 -317 34q-88 0 -128 -28t-40 -101q0 -36 10 -79t20.5 -72t30.5 -78h385l-14 -199h-336q2 -16 2 -39q0 -86 -30 -159.5t-97 -149.5h524v-219h-833v219
q84 55 135 138.5t51 172.5v37h-207z" />
    <glyph glyph-name="section.tnum" 
d="M545 59l-195 -59q-233 705 -233 1130q0 254 297 254q167 0 350 -57l-33 -168q-198 45 -293 45q-58 0 -82 -20.5t-24 -73.5q0 -356 213 -1051zM575 942l195 59q234 -708 234 -1130q0 -254 -297 -254q-168 0 -351 57l33 168q198 -45 293 -45q58 0 82 20.5t24 73.5
q0 356 -213 1051z" />
    <glyph glyph-name="yen.tnum" 
d="M113 608v162h157l-204 553h253l218 -655l219 655h256l-209 -553h162v-162h-222l-65 -188h287v-158h-297v-262h-260v262h-295v158h282l-67 188h-215z" />
    <glyph glyph-name="florin.tnum" 
d="M371 668h-168l16 206h168l23 267q15 160 96.5 228.5t249.5 68.5q96 0 215 -29l-27 -197q-100 17 -164 17q-69 0 -92.5 -27.5t-28.5 -91.5l-20 -236h258l-27 -206h-249l-68 -781q-12 -150 -89.5 -220t-242.5 -70q-86 0 -166 22l33 199q54 -13 105 -13q60 0 82.5 22
t27.5 77z" />
    <glyph glyph-name="endash.tnum" 
d="M158 469v209h757v-209h-757z" />
    <glyph glyph-name="divide.tnum" 
d="M936 584v-168h-799v168h799zM418 23v247h237v-247h-237zM418 727v248h237v-248h-237z" />
    <glyph glyph-name="Euro.tnum" 
d="M477 575h393v-139h-393v-35q0 -40 2.5 -66t10 -51.5t21.5 -40.5t37.5 -26.5t57.5 -16.5t82 -5q153 0 262 28l29 -205q-116 -38 -287 -38q-258 0 -365.5 91t-107.5 285v80h-137v139h137v173h-137v139h137v80q0 194 107.5 285t365.5 91q171 0 287 -38l-29 -205
q-115 28 -262 28q-48 0 -82 -5t-57.5 -16.5t-37.5 -26.5t-21.5 -40.5t-10 -51.5t-2.5 -66v-35h393v-139h-393v-173z" />
    <glyph glyph-name="perthousand.tnum" horiz-adv-x="2576" 
d="M1243 1321l-551 -1341l-157 63l550 1341zM741 930q0 -139 -72.5 -215t-246.5 -76t-247 76.5t-73 214.5v164q0 138 73 214t247 76t246.5 -76t72.5 -214v-164zM545 1108q0 57 -27 81.5t-96 24.5t-96 -24.5t-27 -81.5v-193q0 -57 27 -81.5t96 -24.5t96 24.5t27 81.5v193z
M1683 270q0 -138 -72.5 -214t-246.5 -76t-247 76t-73 214v164q0 138 73 214.5t247 76.5t246.5 -76t72.5 -215v-164zM1487 449q0 57 -27 81.5t-96 24.5t-96 -24.5t-27 -81.5v-193q0 -57 27 -81.5t96 -24.5t96 24.5t27 81.5v193zM2464 270q0 -138 -73 -214t-247 -76t-246.5 76
t-72.5 214v164q0 139 72.5 215t246.5 76t247 -76.5t73 -214.5v-164zM2267 449q0 57 -27 81.5t-96 24.5t-96 -24.5t-27 -81.5v-193q0 -57 27 -81.5t96 -24.5t96 24.5t27 81.5v193z" />
    <glyph glyph-name="minusonum.tnum" 
d="M248 387v209h577v-209h-577z" />
    <glyph glyph-name="multiplyonum.tnum" 
d="M776 874l144 -145l-238 -237l238 -240l-144 -146l-239 240l-240 -240l-143 146l237 240l-237 237l143 145l240 -239z" />
    <glyph glyph-name="numbersignonum.tnum" 
d="M963 242h-152l-16 -242h-162l16 242h-248l-16 -242h-162l17 242h-158l10 153h158l16 264h-157l12 154h155l17 231h162l-17 -231h248l16 231h162l-16 -231h156l-13 -154h-153l-17 -264h152zM428 659l-16 -264h247l17 264h-248z" />
    <glyph glyph-name="dollaronum.tnum" 
d="M442 -211v195q-170 14 -288 67l39 187q173 -52 329 -52q94 0 127 23.5t33 83.5q0 28 -0.5 39.5t-8.5 27.5t-17 21.5t-38 16.5t-58 18t-89 20q-54 12 -95 24t-72.5 27t-53.5 29.5t-37.5 36t-24 40.5t-13 50t-6 58t-1.5 69q0 136 69 206t224 85v194h207v-194
q134 -10 237 -37l-26 -199q-162 33 -310 33q-93 0 -122 -20t-29 -82q0 -23 1 -36t9.5 -26.5t17.5 -19.5t36 -16t53 -16.5t79 -18.5q73 -16 121.5 -31t85.5 -35.5t57.5 -41.5t33 -54.5t16.5 -69.5t4 -92q0 -142 -62.5 -217.5t-220.5 -93.5v-199h-207z" />
    <glyph glyph-name="percentonum.tnum" horiz-adv-x="1591" 
d="M477 51l463 1014l156 -72l-463 -1013zM653 819v-100q0 -116 -62 -181t-218 -65t-218.5 65t-62.5 181v100q0 116 62.5 181t218.5 65t218 -65t62 -181zM274 836v-134q0 -75 99 -75q98 0 98 75v134q0 75 -98 75q-99 0 -99 -75zM1489 326v-101q0 -116 -62.5 -180.5
t-218.5 -64.5t-218 64.5t-62 180.5v101q0 116 62 180.5t218 64.5t218.5 -64.5t62.5 -180.5zM1110 342v-133q0 -76 98 -76q99 0 99 76v133q0 76 -99 76q-98 0 -98 -76z" />
    <glyph glyph-name="plusonum.tnum" 
d="M137 399v197h297v305h207v-305h297v-197h-297v-303h-207v303h-297z" />
    <glyph glyph-name="zeroonum.tnum" 
d="M977 338q0 -358 -440 -358q-441 0 -441 358v369q0 358 441 358q440 0 440 -358v-369zM342 690v-336q0 -88 46 -124.5t149 -36.5t148.5 36.5t45.5 124.5v336q0 88 -45.5 125t-148.5 37t-149 -37t-46 -125z" />
    <glyph glyph-name="oneonum.tnum" 
d="M174 0v213h275v588l-248 -76l-58 213l330 106h225v-831h267v-213h-791z" />
    <glyph glyph-name="twoonum.tnum" 
d="M137 0v178q80 67 170.5 144.5t145.5 123.5q99 84 139.5 128.5t49.5 71.5t9 79v8q0 68 -35.5 90.5t-136.5 22.5q-150 0 -309 -51l-49 204q72 28 176.5 47t196.5 19q118 0 197.5 -19t124 -59t63 -93t18.5 -130v-23q0 -47 -2 -74t-11.5 -65t-29 -69.5t-54 -72.5t-87.5 -89
q-55 -49 -181 -160h406v-211h-801z" />
    <glyph glyph-name="threeonum.tnum" 
d="M143 -258l21 195q136 -25 289 -25q119 0 168 32t49 111v84q0 135 -168 135h-293v218h254q101 0 141.5 35.5t40.5 115.5v84q0 73 -40 99t-148 26q-124 0 -285 -23l-25 199q174 37 332 37q119 0 200.5 -20t128.5 -60.5t67 -93.5t20 -127v-129q0 -90 -35 -147.5t-121 -96.5
q91 -30 136 -90.5t45 -161.5v-114q0 -81 -21.5 -138t-72.5 -100.5t-141.5 -64.5t-223.5 -21q-184 0 -318 41z" />
    <glyph glyph-name="fouronum.tnum" 
d="M1034 59h-180v-338h-246v338h-571v222l489 763h328v-782h180v-203zM276 262h332v531z" />
    <glyph glyph-name="fiveonum.tnum" 
d="M180 293v751h729v-217h-479v-325q105 -5 221 -15q142 -12 211.5 -94t69.5 -225v-113q0 -183 -101.5 -268.5t-343.5 -85.5q-80 0 -182 12t-155 29l20 205q159 -27 313 -27q118 0 158.5 34.5t40.5 125.5v51q0 34 -3.5 53t-18.5 42t-51 35t-95 15q-307 16 -334 17z" />
    <glyph glyph-name="sixonum.tnum" 
d="M369 879v-127q104 36 243 36q185 0 267 -79.5t82 -257.5v-99q0 -84 -21 -148.5t-68 -116.5t-130.5 -79.5t-200.5 -27.5q-104 0 -179 18.5t-121.5 50.5t-74 83t-37.5 107t-10 132v497q0 134 35 226t108.5 146.5t175.5 78.5t246 24q123 0 236 -22l-17 -209q-98 16 -192 16
q-97 0 -156.5 -9.5t-104 -36.5t-63 -76t-18.5 -127zM573 573q-106 0 -204 -43v-186q0 -84 37.5 -116.5t134.5 -32.5q95 0 132.5 34.5t37.5 114.5v100q0 71 -34 100t-104 29z" />
    <glyph glyph-name="sevenonum.tnum" 
d="M125 823v221h864v-213l-567 -1110l-203 109l510 993h-604z" />
    <glyph glyph-name="eightonum.tnum" 
d="M940 928q0 -81 -35 -141t-127 -113q111 -55 153 -117t42 -151v-87q0 -183 -99 -261t-337 -78t-337.5 78t-99.5 261v87q0 89 42.5 151t152.5 117q-91 53 -126.5 113.5t-35.5 140.5v92q0 157 95.5 240t308.5 83t308 -83t95 -240v-92zM731 379q0 35 -6 56.5t-26 44.5t-58 43
t-104 46q-87 -34 -128.5 -61.5t-54 -54.5t-12.5 -74v-55q0 -76 43 -107t152 -31t151.5 31t42.5 107v55zM375 928q0 -59 29.5 -89.5t132.5 -70.5q103 40 132 70.5t29 89.5v86q0 65 -34.5 95t-126.5 30q-93 0 -127.5 -30t-34.5 -95v-86z" />
    <glyph glyph-name="nineonum.tnum" 
d="M707 166v127q-107 -37 -244 -37q-185 0 -266.5 80t-81.5 258v98q0 181 98 277t322 96q104 0 179 -18.5t121.5 -50.5t73.5 -83t37 -107t10 -132v-498q0 -134 -35 -226t-108.5 -146.5t-175.5 -78.5t-246 -24q-126 0 -235 25l22 208q88 -18 187 -18q137 0 210.5 24
t102.5 76.5t29 149.5zM502 471q107 0 205 43v186q0 85 -37.5 117.5t-134.5 32.5q-95 0 -132.5 -35t-37.5 -115v-100q0 -71 33.5 -100t103.5 -29z" />
    <glyph glyph-name="lessonum.tnum" 
d="M98 432v135l758 451l82 -152l-629 -366l631 -367l-84 -153z" />
    <glyph glyph-name="equalonum.tnum" 
d="M166 618v173h743v-173h-743zM166 233v173h743v-173h-743z" />
    <glyph glyph-name="greateronum.tnum" 
d="M977 567v-135l-758 -452l-84 153l631 367l-629 366l82 152z" />
    <glyph glyph-name="centonum.tnum" 
d="M475 -152v224q-161 21 -234 103t-73 226v263q0 144 73 226t234 103v224h207v-220q123 -7 219 -30l-27 -205q-115 24 -278 24q-96 0 -137 -32.5t-41 -110.5v-221q0 -78 41 -110.5t137 -32.5q168 0 278 26l27 -207q-96 -25 -219 -32v-218h-207z" />
    <glyph glyph-name="sterlingonum.tnum" 
d="M115 434v172h153q-53 106 -53 199q0 260 383 260q185 0 338 -55l-29 -181q-175 35 -327 35q-61 0 -87 -20.5t-26 -63.5q0 -84 55 -174h355l-11 -172h-303q6 -139 -104 -235h508v-199h-820v188q79 43 121.5 106.5t42.5 139.5h-196z" />
    <glyph glyph-name="sectiononum.tnum" 
d="M565 70l-176 -90q-110 183 -181 395t-71 426q0 131 74 197.5t231 66.5q165 0 342 -57l-34 -168q-172 45 -291 45q-62 0 -84.5 -21t-22.5 -73q0 -345 213 -721zM551 616l176 91q110 -183 181 -395.5t71 -426.5q0 -131 -74 -197.5t-231 -66.5q-165 0 -342 57l35 168
q172 -45 290 -45q62 0 84.5 21.5t22.5 73.5q0 344 -213 720z" />
    <glyph glyph-name="yenonum.tnum" 
d="M98 461v147h162l-219 436h256l240 -501l241 501h258l-225 -436h166v-147h-238l-59 -115v-22h297v-146h-311v-178h-258v178h-310v146h293v22l-59 115h-234z" />
    <glyph glyph-name="florinonum.tnum" 
d="M344 346h-170l19 207h167l19 217q14 153 96.5 224t247.5 71q128 0 221 -37l-39 -194q-74 22 -155 22q-60 0 -87.5 -23.5t-31.5 -80.5l-19 -199h262l-26 -207h-254l-41 -477q-11 -133 -78 -202.5t-217 -69.5q-40 0 -101 8t-100 22l35 195q71 -17 111 -17q57 0 77 21.5
t25 77.5z" />
    <glyph glyph-name="endashonum.tnum" 
d="M158 461v207h757v-207h-757z" />
    <glyph glyph-name="divideonum.tnum" 
d="M930 584v-168h-787v168h787zM418 23v247h237v-247h-237zM418 727v248h237v-248h-237z" />
    <glyph glyph-name="Euroonum.tnum" 
d="M227 580h-131v112h131v35q0 168 101.5 253t328.5 85q149 0 283 -35l-22 -205q-129 25 -224 25q-134 0 -175.5 -26.5t-41.5 -116.5v-15h287v-112h-287v-115h287v-113h-287v-14q0 -90 41.5 -116.5t175.5 -26.5q101 0 224 24l22 -205q-131 -34 -283 -34q-227 0 -328.5 84.5
t-101.5 252.5v35h-131v113h131v115z" />
    <glyph glyph-name="perthousandonum.tnum" horiz-adv-x="2256" 
d="M477 51l463 1014l156 -72l-463 -1013zM653 819v-100q0 -116 -62 -181t-218 -65t-218.5 65t-62.5 181v100q0 116 62.5 181t218.5 65t218 -65t62 -181zM274 836v-134q0 -75 99 -75q98 0 98 75v134q0 75 -98 75q-99 0 -99 -75zM1489 326v-101q0 -116 -62.5 -180.5
t-218.5 -64.5t-218 64.5t-62 180.5v101q0 116 62 180.5t218 64.5t218.5 -64.5t62.5 -180.5zM1110 342v-133q0 -76 98 -76q99 0 99 76v133q0 76 -99 76q-98 0 -98 -76zM2154 326v-101q0 -116 -62 -180.5t-218 -64.5t-218.5 64.5t-62.5 180.5v101q0 116 62.5 180.5t218.5 64.5
t218 -64.5t62 -180.5zM1776 342v-133q0 -76 98 -76t98 76v133q0 76 -98 76t-98 -76z" />
    <glyph glyph-name="minussmcp.tnum" 
d="M248 469v209h577v-209h-577z" />
    <glyph glyph-name="multiplysmcp.tnum" 
d="M776 874l146 -145l-240 -237l240 -240l-146 -146l-239 240l-238 -240l-145 146l239 240l-239 237l145 145l238 -239z" />
    <glyph glyph-name="numbersignsmcp.tnum" 
d="M965 252h-152l-16 -252h-162l18 252h-252l-16 -252h-160l17 252h-158l10 151h158l18 267h-157l10 153h158l14 242h162l-17 -242h250l17 242h159l-16 -242h156l-13 -153h-153l-17 -267h152zM430 670l-16 -267h250l16 267h-250z" />
    <glyph glyph-name="dollarsmcp.tnum" 
d="M442 -211v195q-162 13 -280 65l37 187q175 -54 331 -54q97 0 128.5 25t31.5 90v33.5t-4 25.5t-7.5 20.5t-16.5 15t-24 13t-38 11t-51.5 12.5t-69.5 14q-61 12 -107 27.5t-78.5 32t-55 41t-35 47t-19 57.5t-8.5 65t-2 76q0 143 67.5 210.5t227.5 82.5v195h201v-195
q124 -7 243 -39l-26 -196q-158 37 -312 37q-101 0 -127 -19t-26 -90q0 -39 3 -56t24.5 -34t56.5 -26t112 -25q77 -17 130.5 -33.5t89 -39.5t55.5 -44t30 -57.5t12.5 -67t2.5 -84.5q0 -74 -11.5 -124.5t-42.5 -94t-91 -68.5t-152 -34v-197h-199z" />
    <glyph glyph-name="percentsmcp.tnum" horiz-adv-x="1597" 
d="M485 51l476 1034l153 -71l-475 -1034zM662 842v-115q0 -114 -62 -179t-217 -65t-218 65t-63 179v115q0 114 63 178.5t218 64.5t217 -64.5t62 -178.5zM483 860q0 74 -100 74q-102 0 -102 -74v-151q0 -74 102 -74q100 0 100 74v151zM1495 338v-115q0 -114 -61.5 -178.5
t-216.5 -64.5t-218 64.5t-63 178.5v115q0 114 63 179t218 65q154 0 216 -64.5t62 -179.5zM1317 356q0 74 -100 74q-103 0 -103 -74v-151q0 -74 103 -74q100 0 100 74v151z" />
    <glyph glyph-name="plussmcp.tnum" 
d="M119 399v197h315v317h205v-317h315v-197h-315v-317h-205v317h-315z" />
    <glyph glyph-name="zerosmcp.tnum" 
d="M973 317q0 -74 -22.5 -132.5t-72 -106t-136 -73t-205.5 -25.5q-96 0 -171 18t-124.5 49t-82 75t-46 94t-13.5 108v424q0 74 23 132.5t72 106t136 73t206 25.5t205.5 -25.5t136 -73t72 -106t22.5 -132.5v-431zM723 715q0 82 -42.5 116.5t-143.5 34.5t-144 -34.5
t-43 -116.5v-365q0 -82 43 -116.5t144 -34.5t143.5 34.5t42.5 116.5v365z" />
    <glyph glyph-name="onesmcp.tnum" 
d="M147 0v211h304v612l-271 -69l-55 207l350 104h225v-854h273v-211h-826z" />
    <glyph glyph-name="twosmcp.tnum" 
d="M133 0v203q118 100 256 215q180 150 217 191.5t37 99.5v47q0 67 -37 86.5t-157 19.5q-103 0 -283 -39l-37 209q157 53 344 53q159 0 250.5 -31.5t130.5 -97t39 -176.5v-45q0 -122 -31.5 -185.5t-140.5 -160.5q-150 -133 -205 -178h404v-211h-787z" />
    <glyph glyph-name="threesmcp.tnum" 
d="M154 27l24 188q136 -31 287 -31q109 0 154 22t45 79v43q0 54 -35.5 78t-116.5 24h-270v209h237q89 0 120.5 21t31.5 75v49q0 57 -35.5 77t-140.5 20q-125 0 -267 -27l-20 195q59 15 147.5 25.5t157.5 10.5q225 0 316.5 -59.5t91.5 -204.5v-65q0 -78 -26 -127.5t-93 -85.5
q77 -22 114 -70.5t37 -132.5v-64q0 -76 -20 -128.5t-69.5 -91.5t-136.5 -57.5t-216 -18.5q-174 0 -317 47z" />
    <glyph glyph-name="foursmcp.tnum" 
d="M1012 242h-150v-242h-235v242h-555v198l481 625h309v-641h150v-182zM319 424h308v416z" />
    <glyph glyph-name="fivesmcp.tnum" 
d="M197 446v619h704v-209h-455v-209q78 0 195 -6q85 -4 142.5 -24.5t90 -57.5t45.5 -85t13 -116v-71q-1 -113 -39.5 -177.5t-134 -97t-264.5 -32.5q-76 0 -170.5 13t-167.5 38l32 194q151 -37 306 -37q108 0 148 22.5t40 84.5v41q0 56 -30 77.5t-117 24.5q-122 4 -338 8z
" />
    <glyph glyph-name="sixsmcp.tnum" 
d="M389 705v-87q91 31 215 31q174 0 256 -65.5t82 -208.5v-88q0 -66 -18 -118t-61 -96.5t-124.5 -68.5t-197.5 -24q-115 0 -195 21.5t-124.5 64t-63.5 95.5t-19 124v428q0 207 119.5 289.5t374.5 82.5q140 0 272 -30l-24 -201q-121 23 -230 23q-152 0 -207 -35t-55 -137z
M575 444q-101 0 -186 -32v-125q0 -56 36.5 -79.5t115.5 -23.5q82 0 116.5 24.5t34.5 78.5v75q0 45 -27 63.5t-90 18.5z" />
    <glyph glyph-name="sevensmcp.tnum" 
d="M156 854v211h823v-199l-533 -866h-266l537 854h-561z" />
    <glyph glyph-name="eightsmcp.tnum" 
d="M930 754q0 -66 -31.5 -117t-114.5 -92q89 -41 133 -91t44 -124v-76q0 -144 -102.5 -209t-321.5 -65q-223 0 -321.5 64.5t-98.5 209.5v76q0 75 43.5 125t132.5 90q-81 42 -113.5 93.5t-32.5 115.5v69q0 125 97 193.5t293 68.5q199 0 296 -68.5t97 -193.5v-69zM717 317
q0 49 -37.5 75t-142.5 61q-100 -34 -138.5 -60.5t-38.5 -75.5v-38q0 -56 40.5 -80.5t136.5 -24.5t138 24.5t42 80.5v38zM389 750q0 -44 32 -68t116 -57q84 31 117.5 56t33.5 69v51q0 48 -36 71t-115 23q-78 0 -113 -23t-35 -71v-51z" />
    <glyph glyph-name="ninesmcp.tnum" 
d="M686 360v86q-88 -30 -215 -30q-174 0 -256 65.5t-82 208.5v88q0 52 10.5 95t38.5 83.5t72 68t115.5 44t165.5 16.5q115 0 195 -21.5t124 -64t63 -95.5t19 -124v-428q0 -107 -29 -179t-92 -114.5t-152.5 -60.5t-220.5 -18q-154 0 -272 36l25 199q106 -27 229 -27
q152 0 207 35t55 137zM500 621q101 0 186 32v125q0 56 -35 79.5t-116 23.5q-83 0 -117.5 -23t-34.5 -80v-76q0 -45 27 -63t90 -18z" />
    <glyph glyph-name="lesssmcp.tnum" 
d="M111 432v135l768 451l79 -148l-645 -370l652 -373l-86 -147z" />
    <glyph glyph-name="equalsmcp.tnum" 
d="M176 618v170h723v-170h-723zM176 233v170h723v-170h-723z" />
    <glyph glyph-name="greatersmcp.tnum" 
d="M965 567v-135l-768 -452l-86 147l651 373l-645 370l80 148z" />
    <glyph glyph-name="centsmcp.tnum" 
d="M477 43q-159 23 -229 100t-70 228v323q0 151 70 228t229 100v240h209v-232q134 -12 219 -33l-24 -204q-121 26 -277 26q-101 0 -140.5 -32.5t-39.5 -112.5v-283q0 -80 39.5 -112.5t140.5 -32.5q156 0 277 26l24 -204q-85 -21 -219 -33v-232h-209v240z" />
    <glyph glyph-name="sterlingsmcp.tnum" 
d="M129 434v172h154q-54 94 -54 207q0 137 94 204.5t304 67.5q71 0 161.5 -14t161.5 -39l-30 -182q-135 37 -302 37q-77 0 -109 -23.5t-32 -81.5q0 -92 55 -176h357l-10 -172h-304q3 -146 -104 -237h487v-197h-796v186q170 101 170 248h-203z" />
    <glyph glyph-name="sectionsmcp.tnum" 
d="M524 68l-178 -88q-112 202 -171.5 425t-59.5 429q0 126 73.5 188.5t229.5 62.5q176 0 342 -57l-31 -166q-184 45 -299 45q-59 0 -81.5 -21.5t-22.5 -74.5q0 -190 50 -366.5t148 -376.5zM571 637l179 88q112 -202 171.5 -425t59.5 -429q0 -126 -73.5 -189t-229.5 -63
q-176 0 -342 57l31 166q184 -45 299 -45q59 0 81.5 22t22.5 75q0 190 -50.5 366t-148.5 377z" />
    <glyph glyph-name="yensmcp.tnum" 
d="M100 461v145h158l-227 459h258l248 -520l247 520h258l-229 -459h160v-145h-232l-69 -139h301v-142h-309v-180h-254v180h-310v142h301l-69 139h-232z" />
    <glyph glyph-name="florinsmcp.tnum" 
d="M350 354h-168l19 205h168l20 234q14 151 96 221.5t246 70.5q124 0 223 -36l-36 -193q-87 23 -160 23q-61 0 -88.5 -25.5t-32.5 -81.5l-19 -213h256l-20 -205h-254l-43 -493q-11 -134 -75.5 -199t-217.5 -65q-41 0 -104 9t-103 23l33 191q76 -17 119 -17q57 0 77 21.5
t25 81.5z" />
    <glyph glyph-name="endashsmcp.tnum" 
d="M158 469v209h757v-209h-757z" />
    <glyph glyph-name="dividesmcp.tnum" 
d="M958 584v-168h-843v168h843zM418 23v247h237v-247h-237zM418 727v248h237v-248h-237z" />
    <glyph glyph-name="Eurosmcp.tnum" 
d="M256 596h-131v115h131v43q0 86 19.5 145.5t66 102.5t127.5 63t201 20q162 0 303 -36l-25 -195q-145 29 -268 29q-58 0 -92.5 -7t-53 -26t-24.5 -43.5t-6 -67.5v-28h299v-115h-299v-127h299v-115h-299v-28q0 -43 6 -67.5t24.5 -43.5t53 -26t92.5 -7q129 0 268 29l25 -195
q-125 -36 -303 -36q-120 0 -201 20t-127.5 63t-66 102.5t-19.5 145.5v43h-131v115h131v127z" />
    <glyph glyph-name="perthousandsmcp.tnum" horiz-adv-x="2254" 
d="M485 51l476 1034l153 -71l-475 -1034zM662 842v-115q0 -114 -62 -179t-217 -65t-218 65t-63 179v115q0 114 63 178.5t218 64.5t217 -64.5t62 -178.5zM483 860q0 74 -100 74q-102 0 -102 -74v-151q0 -74 102 -74q100 0 100 74v151zM1495 338v-115q0 -114 -61.5 -178.5
t-216.5 -64.5t-218 64.5t-63 178.5v115q0 114 63 179t218 65q154 0 216 -64.5t62 -179.5zM1317 356q0 74 -100 74q-103 0 -103 -74v-151q0 -74 103 -74q100 0 100 74v151zM2152 338v-115q0 -114 -61.5 -178.5t-216.5 -64.5t-218 64.5t-63 178.5v115q0 114 63 179t218 65
q154 0 216 -64.5t62 -179.5zM1974 356q0 74 -100 74q-102 0 -102 -74v-151q0 -74 102 -74q100 0 100 74v151z" />
    <glyph glyph-name="minus.smcp" horiz-adv-x="823" 
d="M123 469v209h577v-209h-577z" />
    <glyph glyph-name="multiply.smcp" horiz-adv-x="1013" 
d="M745 874l146 -145l-240 -237l240 -240l-146 -146l-239 240l-238 -240l-145 146l239 240l-239 237l145 145l238 -239z" />
    <glyph glyph-name="exclam.smcp" horiz-adv-x="602" 
d="M371 367h-140l-59 249v449h258v-449zM170 0v252h262v-252h-262z" />
    <glyph glyph-name="numbersign.smcp" horiz-adv-x="1288" 
d="M1157 246h-207l-14 -246h-168l14 246h-288l-17 -246h-166l15 246h-217l12 160h215l16 264h-215l10 157h215l15 238h168l-17 -238h291l17 238h165l-14 -238h209l-12 -157h-207l-16 -264h208zM518 670l-14 -264h291l14 264h-291z" />
    <glyph glyph-name="dollar.smcp" horiz-adv-x="991" 
d="M393 -211v195q-162 13 -280 65l37 187q175 -54 331 -54q97 0 128.5 25t31.5 90v33.5t-4 25.5t-7.5 20.5t-16.5 15t-24 13t-38 11t-51.5 12.5t-69.5 14q-61 12 -107 27.5t-78.5 32t-55 41t-35 47t-19 57.5t-8.5 65t-2 76q0 143 67.5 210.5t227.5 82.5v195h201v-195
q124 -7 243 -39l-26 -196q-158 37 -312 37q-101 0 -127 -19t-26 -90q0 -39 3 -56t24.5 -34t56.5 -26t112 -25q77 -17 130.5 -33.5t89 -39.5t55.5 -44t30 -57.5t12.5 -67t2.5 -84.5q0 -74 -11.5 -124.5t-42.5 -94t-91 -68.5t-152 -34v-197h-199z" />
    <glyph glyph-name="percent.smcp" horiz-adv-x="1597" 
d="M485 51l476 1034l153 -71l-475 -1034zM662 842v-115q0 -114 -62 -179t-217 -65t-218 65t-63 179v115q0 114 63 178.5t218 64.5t217 -64.5t62 -178.5zM483 860q0 74 -100 74q-102 0 -102 -74v-151q0 -74 102 -74q100 0 100 74v151zM1495 338v-115q0 -114 -61.5 -178.5
t-216.5 -64.5t-218 64.5t-63 178.5v115q0 114 63 179t218 65q154 0 216 -64.5t62 -179.5zM1317 356q0 74 -100 74q-103 0 -103 -74v-151q0 -74 103 -74q100 0 100 74v151z" />
    <glyph glyph-name="ampersand.smcp" horiz-adv-x="1210" 
d="M1149 438h-172v-395q-195 -63 -424 -63q-119 0 -200 17.5t-126.5 53.5t-64.5 83.5t-19 115.5v92q0 154 136 207q-113 60 -113 186v88q0 137 90.5 199.5t296.5 62.5q216 0 381 -41l-23 -194q-191 31 -358 31q-77 0 -107 -18.5t-30 -65.5v-80q0 -45 24 -66.5t82 -21.5h627
v-191zM553 176q99 0 199 23v239h-236q-65 0 -94 -24t-29 -78v-57q0 -55 36 -79t124 -24z" />
    <glyph glyph-name="plus.smcp" horiz-adv-x="1081" 
d="M123 399v197h315v317h205v-317h315v-197h-315v-317h-205v317h-315z" />
    <glyph glyph-name="zero.smcp" horiz-adv-x="1138" 
d="M1006 317q0 -74 -23 -132.5t-72 -106t-136 -73t-206 -25.5t-206 27t-136 75.5t-71.5 108t-22.5 133.5v424q0 74 22.5 132.5t72 106t136 73t205.5 25.5t206 -25.5t136 -73t72 -106t23 -132.5v-431zM756 715q0 82 -43 116.5t-144 34.5t-143.5 -34.5t-42.5 -116.5v-365
q0 -82 42.5 -116.5t143.5 -34.5t144 34.5t43 116.5v365z" />
    <glyph glyph-name="one.smcp" horiz-adv-x="788" 
d="M139 649l-108 199l362 217h232v-1065h-250v784z" />
    <glyph glyph-name="two.smcp" horiz-adv-x="1019" 
d="M111 0v203q118 100 256 215q180 150 217 191.5t37 99.5v47q0 67 -37.5 86.5t-157.5 19.5q-103 0 -283 -39l-37 209q157 53 345 53q234 0 326.5 -69.5t92.5 -235.5v-45q0 -122 -31.5 -185.5t-140.5 -160.5q-162 -144 -204 -178h403v-211h-786z" />
    <glyph glyph-name="three.smcp" horiz-adv-x="999" 
d="M113 27l24 188q136 -31 287 -31q109 0 154 22t45 79v43q0 54 -35.5 78t-116.5 24h-270v209h237q89 0 120.5 21t31.5 75v49q0 57 -35.5 77t-140.5 20q-125 0 -267 -27l-20 195q59 15 147.5 25.5t157.5 10.5q225 0 316.5 -59.5t91.5 -204.5v-65q0 -78 -26 -127.5t-93 -85.5
q77 -22 114 -70.5t37 -132.5v-64q0 -76 -20 -128.5t-69.5 -91.5t-136.5 -57.5t-216 -18.5q-174 0 -317 47z" />
    <glyph glyph-name="four.smcp" horiz-adv-x="1089" 
d="M1028 236h-172v-236h-235v236h-560v204l494 625h301v-641h172v-188zM309 424h312v416z" />
    <glyph glyph-name="five.smcp" horiz-adv-x="1026" 
d="M164 446v619h704v-209h-454v-209q77 0 194 -6q85 -4 142.5 -24.5t90 -57.5t45.5 -85t13 -116v-71q-1 -113 -39.5 -177.5t-134 -97t-264.5 -32.5q-76 0 -170.5 13t-167.5 38l33 194q151 -37 305 -37q108 0 148 22.5t40 84.5v41q0 56 -30 77.5t-117 24.5q-122 4 -338 8z
" />
    <glyph glyph-name="six.smcp" horiz-adv-x="1042" 
d="M373 705v-87q91 31 215 31q174 0 256 -65.5t82 -208.5v-88q0 -52 -10.5 -95t-38.5 -83.5t-72 -68t-115.5 -44t-165.5 -16.5q-115 0 -195 21.5t-124 64t-63 95.5t-19 124v428q0 106 30.5 179t95 115t153 60t214.5 18q141 0 273 -30l-25 -201q-121 23 -229 23
q-152 0 -207 -35t-55 -137zM559 444q-101 0 -186 -32v-125q0 -56 36.5 -79.5t114.5 -23.5q82 0 117 24.5t35 78.5v75q0 45 -27 63.5t-90 18.5z" />
    <glyph glyph-name="seven.smcp" horiz-adv-x="940" 
d="M72 848v217h811v-205l-459 -860h-272l460 848h-540z" />
    <glyph glyph-name="eight.smcp" horiz-adv-x="1101" 
d="M942 754q0 -66 -31 -117t-114 -92q88 -41 132 -91t44 -124v-76q0 -144 -102.5 -209t-321.5 -65q-223 0 -321.5 64.5t-98.5 209.5v76q0 75 43.5 125t132.5 90q-81 41 -113 93t-32 116v69q0 125 96.5 193.5t292.5 68.5q199 0 296 -68.5t97 -193.5v-69zM729 317
q0 49 -37.5 75t-142.5 61q-100 -34 -138 -60.5t-38 -75.5v-38q0 -56 40 -80.5t136 -24.5t138 24.5t42 80.5v38zM401 750q0 -44 32 -68t116 -57q84 31 117.5 56t33.5 69v51q0 48 -36 71t-115 23q-78 0 -113 -23t-35 -71v-51z" />
    <glyph glyph-name="nine.smcp" horiz-adv-x="1036" 
d="M664 360v86q-88 -30 -215 -30q-174 0 -256 65.5t-82 208.5v88q0 66 18 118t61 96.5t124.5 68.5t197.5 24q115 0 195 -21.5t124 -64t63 -95.5t19 -124v-428q0 -107 -29 -179t-91.5 -114.5t-152 -60.5t-220.5 -18q-155 0 -273 36l25 199q106 -27 229 -27q153 0 208 35
t55 137zM477 621q102 0 187 32v125q0 56 -35.5 79.5t-116.5 23.5q-83 0 -117.5 -23t-34.5 -80v-76q0 -45 27 -63t90 -18z" />
    <glyph glyph-name="less.smcp" horiz-adv-x="1200" 
d="M102 432v135l885 451l78 -152l-727 -366l729 -367l-80 -153z" />
    <glyph glyph-name="equal.smcp" horiz-adv-x="1103" 
d="M143 618v173h818v-173h-818zM143 233v173h818v-173h-818z" />
    <glyph glyph-name="greater.smcp" horiz-adv-x="1200" 
d="M1098 567v-135l-885 -452l-80 153l729 367l-727 366l78 152z" />
    <glyph glyph-name="question.smcp" horiz-adv-x="976" 
d="M473 338l-131 182q35 24 72.5 49t66.5 45q77 53 92 75.5t15 86.5q0 69 -34.5 85t-150.5 16q-118 0 -243 -27l-27 201q153 34 318 34q217 0 300 -65t83 -227q0 -66 -2.5 -97.5t-15.5 -70t-40 -67.5t-76 -64q-118 -84 -227 -156zM322 0v256h258v-256h-258z" />
    <glyph glyph-name="at.smcp" horiz-adv-x="1294" 
d="M428 477l31 172q14 82 66 120t163 38q44 0 106.5 -15t104.5 -36l-59 -338q24 -12 55 -12q78 0 120 55t42 160q0 142 -100 232.5t-273 90.5q-192 0 -305 -113t-113 -301q0 -193 117 -299t344 -106q145 0 285 47l37 -129q-64 -31 -154.5 -47t-173.5 -16q-301 0 -460 148.5
t-159 401.5q0 252 158.5 403.5t425.5 151.5q127 0 229 -38t166 -103t97.5 -146.5t33.5 -172.5q0 -159 -78 -249.5t-225 -90.5q-116 0 -182 77q-72 -45 -166 -45q-73 0 -108.5 48t-24.5 112zM719 475l35 201q-40 12 -82 12q-72 0 -80 -59l-25 -142q-5 -25 4.5 -37t36.5 -12
q57 0 111 37z" />
    <glyph glyph-name="a.smcp" horiz-adv-x="1183" 
d="M750 1065l372 -1065h-254l-61 190h-430l-62 -190h-254l373 1065h316zM748 389l-156 483l-156 -483h312z" />
    <glyph glyph-name="b.smcp" horiz-adv-x="1120" 
d="M721 0h-557v1065h532q157 0 226 -60.5t69 -177.5v-100q0 -62 -29 -103.5t-96 -70.5q79 -19 122.5 -71.5t43.5 -129.5v-98q0 -254 -311 -254zM786 285v71q0 44 -22.5 64t-73.5 20h-272v-243h270q54 0 76 22.5t22 65.5zM745 713v88q0 67 -81 67h-246v-237h233q94 0 94 82z
" />
    <glyph glyph-name="c.smcp" horiz-adv-x="1005" 
d="M557 -20q-220 0 -322 83.5t-102 251.5v435q0 168 102 251.5t322 83.5q179 0 336 -34l-21 -213q-150 26 -307 26q-98 0 -138 -32.5t-40 -112.5v-373q0 -80 40 -112.5t138 -32.5q157 0 307 26l21 -213q-157 -34 -336 -34z" />
    <glyph glyph-name="d.smcp" horiz-adv-x="1159" 
d="M1036 705v-345q0 -82 -17.5 -143.5t-59.5 -112.5t-121.5 -77.5t-194.5 -26.5h-479v1065h479q115 0 194.5 -26.5t121.5 -77.5t59.5 -112.5t17.5 -143.5zM418 850v-635h211q85 0 121 34t36 109v349q0 75 -36 109t-121 34h-211z" />
    <glyph glyph-name="e.smcp" horiz-adv-x="1034" 
d="M164 0v1065h747v-209h-493v-207h456v-211h-456v-229h493v-209h-747z" />
    <glyph glyph-name="f.smcp" horiz-adv-x="1009" 
d="M418 0h-254v1065h754v-209h-500v-252h471v-211h-471v-393z" />
    <glyph glyph-name="g.smcp" horiz-adv-x="1122" 
d="M387 729v-385q0 -40 6.5 -65t25.5 -45t56 -28.5t96 -8.5q88 0 170 16v307h238v-485q-189 -55 -416 -55q-158 0 -254.5 39t-136 109.5t-39.5 180.5v447q0 171 102.5 250t342.5 79q193 0 370 -36l-22 -213q-182 30 -359 30q-99 0 -139.5 -30t-40.5 -107z" />
    <glyph glyph-name="h.smcp" horiz-adv-x="1259" 
d="M1096 0h-254v430h-424v-430h-254v1065h254v-416h424v416h254v-1065z" />
    <glyph glyph-name="i.smcp" horiz-adv-x="602" 
d="M428 1065v-1065h-254v1065h254z" />
    <glyph glyph-name="j.smcp" horiz-adv-x="565" 
d="M158 1065h254v-1049q0 -65 -15 -104t-65 -95.5t-174 -170.5l-158 166q79 77 110.5 113t39.5 54.5t8 49.5v1036z" />
    <glyph glyph-name="k.smcp" horiz-adv-x="1177" 
d="M1083 1065l-362 -520l395 -545h-293l-383 545l363 520h280zM418 1065v-1065h-254v1065h254z" />
    <glyph glyph-name="l.smcp" horiz-adv-x="958" 
d="M418 1065v-846h469v-219h-723v1065h254z" />
    <glyph glyph-name="m.smcp" horiz-adv-x="1499" 
d="M1110 0l-23 641l-198 -508h-279l-198 508l-23 -641h-246l60 1065h266l281 -703l280 703h266l60 -1065h-246z" />
    <glyph glyph-name="n.smcp" horiz-adv-x="1298" 
d="M825 0l-419 748v-748h-242v1065h309l420 -750v750h242v-1065h-310z" />
    <glyph glyph-name="o.smcp" horiz-adv-x="1179" 
d="M1047 748v-431q0 -71 -25.5 -130t-78 -106.5t-143 -74t-210.5 -26.5t-210.5 26.5t-143 74t-78 106.5t-25.5 130v431q0 71 25.5 130t78 106.5t143 74t210.5 26.5t210.5 -26.5t143 -74t78 -106.5t25.5 -130zM793 719q0 73 -47 110t-156 37t-156 -37t-47 -110v-373
q0 -73 47 -110t156 -37t156 37t47 110v373z" />
    <glyph glyph-name="p.smcp" horiz-adv-x="1087" 
d="M637 301h-219v-301h-254v1065h485q203 0 288 -75t85 -224v-164q0 -150 -90.5 -225.5t-294.5 -75.5zM639 506q71 0 101 25.5t30 82.5v140q0 55 -30 79.5t-101 24.5h-221v-352h221z" />
    <glyph glyph-name="q.smcp" horiz-adv-x="1179" 
d="M649 -315l-135 299q-194 14 -287.5 105.5t-93.5 227.5v431q0 71 25.5 130t78 106.5t143 74t210.5 26.5t210.5 -26.5t143 -74t78 -106.5t25.5 -130v-431q0 -116 -69 -201.5t-212 -117.5l100 -221zM793 719q0 73 -47 110t-156 37t-156 -37t-47 -110v-373q0 -73 47 -110
t156 -37t156 37t47 110v373z" />
    <glyph glyph-name="r.smcp" horiz-adv-x="1202" 
d="M852 0l-209 311h-225v-311h-254v1065h500q202 0 287 -75t85 -224v-154q0 -93 -30.5 -150t-110.5 -100l246 -362h-289zM657 514q71 0 101 27.5t30 85.5v127q0 57 -28 80.5t-94 23.5h-248v-344h239z" />
    <glyph glyph-name="s.smcp" horiz-adv-x="1021" 
d="M913 307q0 -87 -18 -144.5t-64.5 -100.5t-129.5 -62.5t-209 -19.5q-214 0 -379 67l41 193q172 -52 340 -52q99 0 132 23t33 86q0 45 -11 65t-56.5 38.5t-151.5 41.5q-73 15 -124.5 32t-87 40t-56 46t-32 60t-14.5 72.5t-3 91.5q0 166 97 233.5t315 67.5q203 0 354 -43
l-31 -202q-167 37 -319 37q-102 0 -132 -19t-30 -82q0 -26 1 -39t9.5 -27.5t18.5 -21t38.5 -17t58 -18t87.5 -20.5q78 -18 129 -33.5t88.5 -37t57 -41.5t31 -54.5t14.5 -68.5t3 -91z" />
    <glyph glyph-name="t.smcp" horiz-adv-x="1028" 
d="M387 0v846h-326v219h906v-219h-326v-846h-254z" />
    <glyph glyph-name="u.smcp" horiz-adv-x="1208" 
d="M801 1065h254v-750q0 -68 -22.5 -125t-72 -105.5t-140.5 -76.5t-216 -28t-215.5 28t-140 76.5t-72 105.5t-22.5 125v750h254v-723q0 -71 44 -107t152 -36t152.5 36t44.5 107v723z" />
    <glyph glyph-name="v.smcp" horiz-adv-x="1089" 
d="M1063 1065l-344 -1065h-348l-344 1065h249l269 -848l268 848h250z" />
    <glyph glyph-name="w.smcp" horiz-adv-x="1691" 
d="M987 1065l213 -758l207 758h244l-299 -1065h-303l-203 784l-203 -784h-303l-299 1065h244l207 -758l213 758h282z" />
    <glyph glyph-name="x.smcp" horiz-adv-x="1155" 
d="M61 0l371 539l-356 526h270l232 -346l231 346h274l-360 -526l371 -539h-273l-243 354l-242 -354h-275z" />
    <glyph glyph-name="y.smcp" horiz-adv-x="1052" 
d="M399 0v305l-379 760h259l247 -520l248 520h258l-379 -760v-305h-254z" />
    <glyph glyph-name="z.smcp" horiz-adv-x="1105" 
d="M965 879l-523 -678h531v-201h-830v186l525 678h-521v201h818v-186z" />
    <glyph glyph-name="cent.smcp" horiz-adv-x="962" 
d="M412 43q-159 23 -229 100t-70 228v323q0 151 70 228t229 100v240h209v-232q117 -10 208 -33l-24 -204q-121 26 -266 26q-101 0 -141 -32.5t-40 -112.5v-283q0 -80 40 -112.5t141 -32.5q145 0 266 26l24 -204q-91 -23 -208 -33v-232h-209v240z" />
    <glyph glyph-name="sterling.smcp" horiz-adv-x="1085" 
d="M123 434v172h153q-53 92 -53 207q0 137 94 204.5t304 67.5q71 0 161.5 -14t161.5 -39l-31 -182q-135 37 -301 37q-77 0 -109 -23.5t-32 -81.5q0 -92 55 -176h357l-11 -172h-303q3 -146 -104 -237h487v-197h-796v186q170 101 170 248h-203z" />
    <glyph glyph-name="section.smcp" horiz-adv-x="1091" 
d="M532 68l-178 -88q-112 202 -171.5 425t-59.5 429q0 126 73.5 188.5t229.5 62.5q176 0 342 -57l-31 -166q-184 45 -299 45q-59 0 -81.5 -21.5t-22.5 -74.5q0 -190 50 -366.5t148 -376.5zM580 637l178 88q112 -202 171.5 -425t59.5 -429q0 -126 -73.5 -189t-229.5 -63
q-176 0 -342 57l31 166q184 -45 299 -45q59 0 81.5 22t22.5 75q0 190 -50 366.5t-148 376.5z" />
    <glyph glyph-name="paragraph.smcp" horiz-adv-x="1081" 
d="M713 1065h194v-1090q0 -87 -39 -139t-229 -226q-24 -22 -37 -34l-121 137q119 107 165 155t56.5 72.5t10.5 67.5v1057zM102 616q0 192 128.5 320.5t320.5 128.5v-895q-192 0 -320.5 127.5t-128.5 318.5z" />
    <glyph glyph-name="germandbls.smcp" horiz-adv-x="2043" 
d="M913 307q0 -87 -18 -144.5t-64.5 -100.5t-129.5 -62.5t-209 -19.5q-214 0 -379 67l41 193q172 -52 340 -52q99 0 132 23t33 86q0 45 -11 65t-56.5 38.5t-151.5 41.5q-73 15 -124.5 32t-87 40t-56 46t-32 60t-14.5 72.5t-3 91.5q0 166 97 233.5t315 67.5q203 0 354 -43
l-31 -202q-167 37 -319 37q-102 0 -132 -19t-30 -82q0 -26 1 -39t9.5 -27.5t18.5 -21t38.5 -17t58 -18t87.5 -20.5q78 -18 129 -33.5t88.5 -37t57 -41.5t31 -54.5t14.5 -68.5t3 -91zM1935 307q0 -86 -18.5 -144t-65 -101t-129.5 -62.5t-209 -19.5q-213 0 -378 67l41 193
q172 -52 340 -52q99 0 132 23t33 86q0 45 -11 65t-56.5 38.5t-151.5 41.5q-73 15 -124.5 32t-87 40t-56 46t-32 60t-14.5 72.5t-3 91.5q0 166 96.5 233.5t314.5 67.5q204 0 355 -43l-31 -202q-167 37 -319 37q-102 0 -132 -19t-30 -82q0 -26 1 -39t9.5 -27.5t18.5 -21
t38.5 -17t58 -18t87.5 -20.5q78 -18 129 -33.5t88.5 -37t57 -41.5t31 -54.5t14.5 -68.5t3 -91z" />
    <glyph glyph-name="yen.smcp" horiz-adv-x="1093" 
d="M111 461v145h157l-227 459h258l248 -520l248 520h258l-230 -459h160v-145h-231l-70 -139h301v-142h-309v-180h-254v180h-309v142h301l-70 139h-231z" />
    <glyph glyph-name="ae.smcp" horiz-adv-x="1560" 
d="M868 0l-61 190h-430l-62 -190h-254l373 1065h1004v-209h-617l74 -207h506v-211h-432l80 -229h389v-209h-570zM748 389l-156 483l-156 -483h312z" />
    <glyph glyph-name="oslash.smcp" horiz-adv-x="1179" 
d="M133 -66l98 150q-98 85 -98 233v431q0 71 25.5 130t78 106.5t143 74t210.5 26.5q159 0 270 -49l101 152l86 -58l-101 -149q101 -88 101 -233v-431q0 -71 -25.5 -130t-78 -106.5t-143 -74t-210.5 -26.5q-164 0 -271 49l-100 -152zM387 346q0 -16 2 -24l340 518
q-50 26 -139 26q-109 0 -156 -37t-47 -110v-373zM793 719q0 4 -1 12t-1 12l-342 -518q48 -26 141 -26q109 0 156 37t47 110v373z" />
    <glyph glyph-name="questiondown.smcp" horiz-adv-x="976" 
d="M504 727l131 -182q-35 -24 -72.5 -49t-66.5 -45q-77 -53 -92 -75.5t-15 -86.5q0 -69 34 -85t150 -16q119 0 244 27l27 -201q-153 -34 -318 -34q-217 0 -300 65t-83 227q0 54 1.5 80t7.5 60.5t20.5 56.5t39.5 48t64 54q105 75 228 156zM655 1065v-256h-258v256h258z" />
    <glyph glyph-name="exclamdown.smcp" horiz-adv-x="602" 
d="M231 698h140l59 -249v-449h-258v449zM170 813v252h262v-252h-262z" />
    <glyph glyph-name="florin.smcp" horiz-adv-x="1009" 
d="M313 354h-168l19 205h168l20 234q14 151 96 221.5t246 70.5q125 0 224 -36l-37 -193q-87 23 -160 23q-61 0 -88.5 -25.5t-32.5 -81.5l-18 -213h256l-21 -205h-254l-43 -493q-11 -134 -75.5 -199t-217.5 -65q-41 0 -104 9t-103 23l33 191q76 -17 119 -17q57 0 77 21.5
t25 81.5z" />
    <glyph glyph-name="oe.smcp" horiz-adv-x="1673" 
d="M133 727q0 71 25.5 130t78 106.5t143 74.5t210.5 27h960v-209h-493v-207h456v-211h-456v-229h493v-209h-960q-120 0 -210.5 27t-143 74.5t-78 106.5t-25.5 130v389zM590 846q-109 0 -156 -37t-47 -111v-331q0 -74 47 -111t156 -37h213v627h-213z" />
    <glyph glyph-name="endash.smcp" horiz-adv-x="1024" 
d="M133 469v209h758v-209h-758z" />
    <glyph glyph-name="divide.smcp" horiz-adv-x="1110" 
d="M977 584v-168h-844v168h844zM436 23v247h238v-247h-238zM436 727v248h238v-248h-238z" />
    <glyph glyph-name="Euro.smcp" horiz-adv-x="1021" 
d="M203 596h-131v115h131v43q0 86 19 145.5t65.5 102.5t127.5 63t201 20q163 0 304 -36l-25 -195q-145 29 -268 29q-58 0 -92.5 -7t-53 -26t-24.5 -43.5t-6 -67.5v-28h299v-115h-299v-127h299v-115h-299v-28q0 -43 6 -67.5t24.5 -43.5t53 -26t92.5 -7q129 0 268 29l25 -195
q-125 -36 -304 -36q-120 0 -201 20t-127.5 63t-65.5 102.5t-19 145.5v43h-131v115h131v127z" />
    <glyph glyph-name="fi.smcp" horiz-adv-x="1611" 
d="M418 0h-254v1065h754v-209h-500v-252h471v-211h-471v-393zM1438 1065v-1065h-254v1065h254z" />
    <glyph glyph-name="fl.smcp" horiz-adv-x="1968" 
d="M418 0h-254v1065h754v-209h-500v-252h471v-211h-471v-393zM1427 1065v-846h469v-219h-722v1065h253z" />
    <glyph glyph-name="perthousand.smcp" horiz-adv-x="2254" 
d="M485 51l476 1034l153 -71l-475 -1034zM662 842v-115q0 -114 -62 -179t-217 -65t-218 65t-63 179v115q0 114 63 178.5t218 64.5t217 -64.5t62 -178.5zM483 860q0 74 -100 74q-102 0 -102 -74v-151q0 -74 102 -74q100 0 100 74v151zM1495 338v-115q0 -114 -61.5 -178.5
t-216.5 -64.5t-218 64.5t-63 178.5v115q0 114 63 179t218 65q154 0 216 -64.5t62 -179.5zM1317 356q0 74 -100 74q-103 0 -103 -74v-151q0 -74 103 -74q100 0 100 74v151zM2152 338v-115q0 -114 -61.5 -178.5t-216.5 -64.5t-218 64.5t-63 178.5v115q0 114 63 179t218 65
q154 0 216 -64.5t62 -179.5zM1974 356q0 74 -100 74q-102 0 -102 -74v-151q0 -74 102 -74q100 0 100 74v151z" />
    <glyph glyph-name="dotlessi.smcp" horiz-adv-x="602" 
d="M428 1065v-1065h-254v1065h254z" />
    <glyph glyph-name="acute.smcp" horiz-adv-x="614" 
d="M215 1161l-92 139q154 90 272 183l97 -150q-104 -77 -277 -172z" />
    <glyph glyph-name="breve.smcp" horiz-adv-x="770" 
d="M539 1405l118 -64q-22 -85 -91 -137.5t-181 -52.5t-181 52.5t-91 137.5l118 64q45 -107 154 -107t154 107z" />
    <glyph glyph-name="caron.smcp" horiz-adv-x="704" 
d="M522 1432l70 -117q-124 -76 -240 -172q-119 98 -239 172l69 117q75 -29 170 -89q95 60 170 89z" />
    <glyph glyph-name="cedilla.smcp" horiz-adv-x="614" 
d="M502 -244q0 -77 -54.5 -121.5t-164.5 -44.5q-89 0 -170 31l20 96q63 -18 133 -18q59 0 80 14t21 45q0 26 -17.5 37.5t-60.5 11.5q-28 0 -64 -4l-59 29l43 199h117l-27 -140q40 5 57 5q71 1 108.5 -37.5t37.5 -102.5z" />
    <glyph glyph-name="circumflex.smcp" horiz-adv-x="704" 
d="M592 1284l-70 -117q-79 31 -170 88q-91 -57 -170 -88l-69 117q120 74 239 172q116 -96 240 -172z" />
    <glyph glyph-name="commaaccent.smcp" horiz-adv-x="649" 
d="M205 -375v271h239v-287l-131 -213l-108 59l88 170h-88z" />
    <glyph glyph-name="dieresis.smcp" horiz-adv-x="831" 
d="M123 1186v196h203v-196h-203zM508 1186v196h201v-196h-201z" />
    <glyph glyph-name="dotaccent.smcp" horiz-adv-x="475" 
d="M362 1186h-249v289h249v-289z" />
    <glyph glyph-name="grave.smcp" horiz-adv-x="614" 
d="M492 1300l-93 -139q-158 74 -276 172l96 150q113 -90 273 -183z" />
    <glyph glyph-name="hungarumlaut.smcp" horiz-adv-x="870" 
d="M227 1151l-114 113q114 118 174 202l133 -116q-35 -51 -90 -106.5t-103 -92.5zM565 1151l-114 113q114 118 174 202l133 -116q-35 -51 -90 -106.5t-103 -92.5z" />
    <glyph glyph-name="macron.smcp" horiz-adv-x="724" 
d="M113 1210v152h499v-152h-499z" />
    <glyph glyph-name="ogonek.smcp" horiz-adv-x="581" 
d="M428 -276l29 -119q-69 -29 -142 -29q-97 0 -149.5 43.5t-52.5 120.5q0 81 64.5 141.5t184.5 118.5h107q-99 -76 -139.5 -125t-40.5 -94q0 -66 76 -66q33 0 63 9z" />
    <glyph glyph-name="ring.smcp" horiz-adv-x="579" 
d="M467 1307q0 -74 -46 -122t-130 -48q-86 0 -132 46.5t-46 123.5q0 75 46.5 122.5t131.5 47.5t130.5 -47.5t45.5 -122.5zM358 1307q0 75 -67 75q-34 0 -52 -20t-18 -55q0 -34 18.5 -54t51.5 -20t50 19.5t17 54.5z" />
    <glyph glyph-name="tilde.smcp" horiz-adv-x="864" 
d="M420 1210q-36 24 -56.5 33.5t-44.5 9.5q-22 0 -43.5 -15.5t-30.5 -27t-30 -39.5l-102 84q37 68 89.5 112t112.5 44q64 0 127 -39q76 -45 109 -45q57 0 84 76l117 -62q-27 -79 -79.5 -124.5t-121.5 -45.5t-131 39z" />
    <glyph glyph-name="aacute.smcp" horiz-adv-x="1183" 
d="M750 1065l372 -1065h-254l-61 190h-430l-62 -190h-254l373 1065h316zM748 389l-156 483l-156 -483h312zM592 1161l-92 139q154 90 272 183l96 -150q-107 -79 -276 -172z" />
    <glyph glyph-name="aeacute.smcp" horiz-adv-x="1560" 
d="M868 0l-61 190h-430l-62 -190h-254l373 1065h1004v-209h-617l74 -207h506v-211h-432l80 -229h389v-209h-570zM748 389l-156 483l-156 -483h312zM680 1161l-92 139q154 90 272 183l96 -150q-107 -79 -276 -172z" />
    <glyph glyph-name="abreve.smcp" horiz-adv-x="1183" 
d="M750 1065l372 -1065h-254l-61 190h-430l-62 -190h-254l373 1065h316zM748 389l-156 483l-156 -483h312zM745 1405l119 -64q-22 -85 -91 -137.5t-181 -52.5t-181.5 53t-91.5 137l119 64q45 -107 154 -107q108 0 153 107z" />
    <glyph glyph-name="acircumflex.smcp" horiz-adv-x="1183" 
d="M750 1065l372 -1065h-254l-61 190h-430l-62 -190h-254l373 1065h316zM748 389l-156 483l-156 -483h312zM831 1284l-69 -117q-79 31 -170 88q-91 -57 -170 -88l-70 117q124 76 240 172q119 -98 239 -172z" />
    <glyph glyph-name="adieresis.smcp" horiz-adv-x="1183" 
d="M750 1065l372 -1065h-254l-61 190h-430l-62 -190h-254l373 1065h316zM748 389l-156 483l-156 -483h312zM299 1186v196h203v-196h-203zM684 1186v196h201v-196h-201z" />
    <glyph glyph-name="agrave.smcp" horiz-adv-x="1183" 
d="M750 1065l372 -1065h-254l-61 190h-430l-62 -190h-254l373 1065h316zM748 389l-156 483l-156 -483h312zM690 1298l-92 -139q-158 74 -276 172l96 150q116 -92 272 -183z" />
    <glyph glyph-name="amacron.smcp" horiz-adv-x="1183" 
d="M750 1065l372 -1065h-254l-61 190h-430l-62 -190h-254l373 1065h316zM748 389l-156 483l-156 -483h312zM342 1210v152h500v-152h-500z" />
    <glyph glyph-name="aogonek.smcp" horiz-adv-x="1183" 
d="M1020 -276l29 -119q-69 -29 -142 -29q-97 0 -149.5 43.5t-52.5 120.5q0 82 66 143t192 117h-95l-61 190h-430l-62 -190h-254l373 1065h316l372 -1065h-61q-99 -76 -139.5 -125t-40.5 -94q0 -66 75 -66q34 0 64 9zM748 389l-156 483l-156 -483h312z" />
    <glyph glyph-name="atilde.smcp" horiz-adv-x="1183" 
d="M750 1065l372 -1065h-254l-61 190h-430l-62 -190h-254l373 1065h316zM748 389l-156 483l-156 -483h312zM578 1210q-36 24 -56.5 33.5t-44.5 9.5q-22 0 -43.5 -15.5t-30.5 -27t-30 -39.5l-103 84q37 68 90 112t113 44q64 0 127 -39q76 -45 109 -45q57 0 84 76l116 -62
q-27 -79 -79 -124.5t-121 -45.5t-131 39z" />
    <glyph glyph-name="aring.smcp" horiz-adv-x="1183" 
d="M750 1065l372 -1065h-254l-61 190h-430l-62 -190h-254l373 1065h316zM748 389l-156 483l-156 -483h312zM770 1307q0 -74 -46 -122t-130 -48q-86 0 -132 46.5t-46 123.5q0 75 46.5 122.5t131.5 47.5t130.5 -47.5t45.5 -122.5zM662 1307q0 75 -68 75q-34 0 -52 -20t-18 -55
q0 -34 18.5 -54t51.5 -20t50.5 20t17.5 54z" />
    <glyph glyph-name="aringacute.smcp" horiz-adv-x="1183" 
d="M750 1065l372 -1065h-254l-61 190h-430l-62 -190h-254l373 1065h316zM748 389l-156 483l-156 -483h312zM760 1288q0 -68 -46 -114t-122 -46q-77 0 -122.5 44.5t-45.5 115.5q0 69 46 115.5t122 46.5t122 -46.5t46 -115.5zM659 1288q0 34 -17.5 53t-49.5 19t-50 -19
t-18 -53q0 -31 18 -50t50 -19t49.5 19t17.5 50zM590 1487l-80 125q150 90 235 155l86 -137q-99 -71 -241 -143z" />
    <glyph glyph-name="cacute.smcp" horiz-adv-x="1005" 
d="M557 -20q-220 0 -322 83.5t-102 251.5v435q0 168 102 251.5t322 83.5q179 0 336 -34l-21 -213q-150 26 -307 26q-98 0 -138 -32.5t-40 -112.5v-373q0 -80 40 -112.5t138 -32.5q157 0 307 26l21 -213q-157 -34 -336 -34zM467 1161l-92 139q154 90 272 183l96 -150
q-107 -79 -276 -172z" />
    <glyph glyph-name="ccaron.smcp" horiz-adv-x="1005" 
d="M557 -20q-220 0 -322 83.5t-102 251.5v435q0 168 102 251.5t322 83.5q179 0 336 -34l-21 -213q-150 26 -307 26q-98 0 -138 -32.5t-40 -112.5v-373q0 -80 40 -112.5t138 -32.5q157 0 307 26l21 -213q-157 -34 -336 -34zM731 1432l70 -117q-124 -76 -240 -172
q-119 98 -239 172l69 117q75 -29 170 -89q95 60 170 89z" />
    <glyph glyph-name="ccedilla.smcp" horiz-adv-x="1005" 
d="M797 -244q0 -77 -54.5 -121.5t-164.5 -44.5q-89 0 -170 31l20 96q63 -18 133 -18q59 0 80 14t21 45q0 26 -18 37.5t-60 11.5q-28 0 -64 -4l-59 29l33 150q-187 12 -274 95t-87 238v435q0 168 102 251.5t322 83.5q179 0 336 -34l-21 -213q-150 26 -307 26
q-98 0 -138 -32.5t-40 -112.5v-373q0 -80 40 -112.5t138 -32.5q157 0 307 26l21 -213q-145 -29 -283 -32l-16 -91q40 5 57 5q71 0 108.5 -38t37.5 -102z" />
    <glyph glyph-name="ccircumflex.smcp" horiz-adv-x="1005" 
d="M557 -20q-220 0 -322 83.5t-102 251.5v435q0 168 102 251.5t322 83.5q179 0 336 -34l-21 -213q-150 26 -307 26q-98 0 -138 -32.5t-40 -112.5v-373q0 -80 40 -112.5t138 -32.5q157 0 307 26l21 -213q-157 -34 -336 -34zM809 1284l-70 -117q-79 31 -170 88
q-91 -57 -170 -88l-69 117q120 74 239 172q116 -96 240 -172z" />
    <glyph glyph-name="cdotaccent.smcp" horiz-adv-x="1005" 
d="M557 -20q-220 0 -322 83.5t-102 251.5v435q0 168 102 251.5t322 83.5q179 0 336 -34l-21 -213q-150 26 -307 26q-98 0 -138 -32.5t-40 -112.5v-373q0 -80 40 -112.5t138 -32.5q157 0 307 26l21 -213q-157 -34 -336 -34zM684 1186h-250v289h250v-289z" />
    <glyph glyph-name="dcaron.smcp" horiz-adv-x="1159" 
d="M1036 705v-345q0 -82 -17.5 -143.5t-59.5 -112.5t-121.5 -77.5t-194.5 -26.5h-479v1065h479q115 0 194.5 -26.5t121.5 -77.5t59.5 -112.5t17.5 -143.5zM418 850v-635h211q85 0 121 34t36 109v349q0 75 -36 109t-121 34h-211zM737 1432l70 -117q-124 -76 -240 -172
q-119 98 -239 172l69 117q75 -29 170 -89q95 60 170 89z" />
    <glyph glyph-name="dcroat.smcp" horiz-adv-x="1159" 
d="M92 446v177h111v442h479q115 0 194.5 -26.5t121.5 -77.5t59.5 -112.5t17.5 -143.5v-345q0 -82 -17.5 -143.5t-59.5 -112.5t-121.5 -77.5t-194.5 -26.5h-479v446h-111zM457 850v-227h172v-177h-172v-231h211q85 0 121 34t36 109v349q0 75 -36 109t-121 34h-211z" />
    <glyph glyph-name="eacute.smcp" horiz-adv-x="1034" 
d="M164 0v1065h747v-209h-493v-207h456v-211h-456v-229h493v-209h-747zM481 1161l-92 139q158 92 273 183l96 -150q-104 -77 -277 -172z" />
    <glyph glyph-name="ebreve.smcp" horiz-adv-x="1034" 
d="M164 0v1065h747v-209h-493v-207h456v-211h-456v-229h493v-209h-747zM711 1405l118 -64q-22 -85 -91 -137.5t-181 -52.5t-181 52.5t-91 137.5l118 64q45 -107 154 -107t154 107z" />
    <glyph glyph-name="ecaron.smcp" horiz-adv-x="1034" 
d="M164 0v1065h747v-209h-493v-207h456v-211h-456v-229h493v-209h-747zM733 1432l70 -117q-124 -76 -240 -172q-119 98 -239 172l69 117q75 -29 170 -89q95 60 170 89z" />
    <glyph glyph-name="ecircumflex.smcp" horiz-adv-x="1034" 
d="M164 0v1065h747v-209h-493v-207h456v-211h-456v-229h493v-209h-747zM786 1284l-69 -117q-79 31 -170 88q-91 -57 -170 -88l-70 117q124 76 240 172q119 -98 239 -172z" />
    <glyph glyph-name="edieresis.smcp" horiz-adv-x="1034" 
d="M164 0v1065h747v-209h-493v-207h456v-211h-456v-229h493v-209h-747zM248 1186v196h203v-196h-203zM633 1186v196h201v-196h-201z" />
    <glyph glyph-name="edotaccent.smcp" horiz-adv-x="1034" 
d="M164 0v1065h747v-209h-493v-207h456v-211h-456v-229h493v-209h-747zM657 1186h-249v289h249v-289z" />
    <glyph glyph-name="egrave.smcp" horiz-adv-x="1034" 
d="M164 0v1065h747v-209h-493v-207h456v-211h-456v-229h493v-209h-747zM670 1300l-92 -139q-160 75 -277 172l96 150q113 -90 273 -183z" />
    <glyph glyph-name="emacron.smcp" horiz-adv-x="1034" 
d="M164 0v1065h747v-209h-493v-207h456v-211h-456v-229h493v-209h-747zM293 1210v152h500v-152h-500z" />
    <glyph glyph-name="eng.smcp" horiz-adv-x="1298" 
d="M825 0l-419 748v-748h-242v1065h309l420 -750v750h242v-1118q0 -44 -11 -76.5t-43.5 -71t-83 -84t-135.5 -119.5q-16 -13 -24 -20l-140 164q20 18 47.5 43t40 36t30.5 28t25 24.5t17.5 20.5t13.5 20.5t7 19.5t5 23t1 25v20h-60z" />
    <glyph glyph-name="eogonek.smcp" horiz-adv-x="1056" 
d="M164 0v1065h747v-209h-493v-207h456v-211h-456v-229h493v-209h-84q-99 -76 -139.5 -125t-40.5 -94q0 -66 76 -66q33 0 63 9l29 -119q-69 -29 -141 -29q-97 0 -150 43.5t-53 120.5q0 81 64.5 141.5t185.5 118.5h-557z" />
    <glyph glyph-name="eth.smcp" horiz-adv-x="1198" 
d="M92 446v177h111v442h479q115 0 194.5 -26.5t121.5 -77.5t59.5 -112.5t17.5 -143.5v-345q0 -82 -17.5 -143.5t-59.5 -112.5t-121.5 -77.5t-194.5 -26.5h-479v446h-111zM457 850v-227h172v-177h-172v-231h211q85 0 121 34t36 109v349q0 75 -36 109t-121 34h-211z" />
    <glyph glyph-name="gbreve.smcp" horiz-adv-x="1122" 
d="M387 729v-385q0 -40 6.5 -65t25.5 -45t56 -28.5t96 -8.5q88 0 170 16v307h238v-485q-189 -55 -416 -55q-158 0 -254.5 39t-136 109.5t-39.5 180.5v447q0 171 102.5 250t342.5 79q193 0 370 -36l-22 -213q-182 30 -359 30q-99 0 -139.5 -30t-40.5 -107zM748 1405l118 -64
q-22 -85 -91 -137.5t-181 -52.5t-181 52.5t-91 137.5l118 64q45 -107 154 -107t154 107z" />
    <glyph glyph-name="gcircumflex.smcp" horiz-adv-x="1122" 
d="M387 729v-385q0 -40 6.5 -65t25.5 -45t56 -28.5t96 -8.5q88 0 170 16v307h238v-485q-189 -55 -416 -55q-158 0 -254.5 39t-136 109.5t-39.5 180.5v447q0 171 102.5 250t342.5 79q193 0 370 -36l-22 -213q-182 30 -359 30q-99 0 -139.5 -30t-40.5 -107zM827 1284l-69 -117
q-79 31 -170 88q-91 -57 -170 -88l-70 117q124 76 240 172q119 -98 239 -172z" />
    <glyph glyph-name="gcommaaccent.smcp" horiz-adv-x="1122" 
d="M387 729v-385q0 -40 6.5 -65t25.5 -45t56 -28.5t96 -8.5q88 0 170 16v307h238v-485q-189 -55 -416 -55q-158 0 -254.5 39t-136 109.5t-39.5 180.5v447q0 171 102.5 250t342.5 79q193 0 370 -36l-22 -213q-182 30 -359 30q-99 0 -139.5 -30t-40.5 -107zM492 -375v271h239
v-287l-131 -213l-108 59l88 170h-88z" />
    <glyph glyph-name="gdotaccent.smcp" horiz-adv-x="1122" 
d="M387 729v-385q0 -40 6.5 -65t25.5 -45t56 -28.5t96 -8.5q88 0 170 16v307h238v-485q-189 -55 -416 -55q-158 0 -254.5 39t-136 109.5t-39.5 180.5v447q0 171 102.5 250t342.5 79q193 0 370 -36l-22 -213q-182 30 -359 30q-99 0 -139.5 -30t-40.5 -107zM707 1186h-250v289
h250v-289z" />
    <glyph glyph-name="hbar.smcp" horiz-adv-x="1259" 
d="M49 793v112h115v160h254v-160h424v160h254v-160h114v-112h-114v-793h-254v430h-424v-430h-254v793h-115zM418 649h424v144h-424v-144z" />
    <glyph glyph-name="hcircumflex.smcp" horiz-adv-x="1259" 
d="M1096 0h-254v430h-424v-430h-254v1065h254v-416h424v416h254v-1065zM870 1284l-69 -117q-79 31 -170 88q-91 -57 -170 -88l-70 117q124 76 240 172q119 -98 239 -172z" />
    <glyph glyph-name="iacute.smcp" horiz-adv-x="602" 
d="M428 1065v-1065h-254v1065h254zM289 1161l-92 139q154 90 272 183l96 -150q-107 -79 -276 -172z" />
    <glyph glyph-name="ibreve.smcp" horiz-adv-x="602" 
d="M453 1405l118 -64q-22 -85 -91 -137.5t-181 -52.5t-181 52.5t-91 137.5l118 64q45 -107 154 -107t154 107zM428 1065v-1065h-254v1065h254z" />
    <glyph glyph-name="icircumflex.smcp" horiz-adv-x="602" 
d="M428 1065v-1065h-254v1065h254zM541 1284l-70 -117q-79 31 -170 88q-91 -57 -170 -88l-70 117q124 76 240 172q116 -96 240 -172z" />
    <glyph glyph-name="idieresis.smcp" horiz-adv-x="602" 
d="M428 1065v-1065h-254v1065h254zM8 1186v196h203v-196h-203zM393 1186v196h201v-196h-201z" />
    <glyph glyph-name="igrave.smcp" horiz-adv-x="602" 
d="M428 1065v-1065h-254v1065h254zM406 1300l-93 -139q-158 74 -276 172l96 150q113 -90 273 -183z" />
    <glyph glyph-name="imacron.smcp" horiz-adv-x="602" 
d="M51 1210v152h500v-152h-500zM428 1065v-1065h-254v1065h254z" />
    <glyph glyph-name="iogonek.smcp" horiz-adv-x="602" 
d="M383 -268l29 -119q-90 -37 -185 -37q-96 0 -153.5 50t-57.5 128q0 61 38.5 120t117.5 126v1065h254v-1065h-147q-48 -63 -71.5 -113t-23.5 -100q0 -36 19.5 -54t66.5 -18q46 0 113 17z" />
    <glyph glyph-name="itilde.smcp" horiz-adv-x="602" 
d="M295 1210q-26 17 -37.5 24t-28.5 13t-34 6q-22 0 -43.5 -15t-31.5 -27.5t-30 -39.5l-102 84q37 68 89.5 112t112.5 44q64 0 127 -39q76 -45 109 -45q57 0 84 76l117 -62q-27 -79 -79.5 -124.5t-121.5 -45.5t-131 39zM428 1065v-1065h-254v1065h254z" />
    <glyph glyph-name="ij.smcp" horiz-adv-x="1167" 
d="M428 1065v-1065h-254v1065h254zM760 1065h254v-1049q0 -65 -15 -104t-65 -95.5t-174 -170.5l-158 166q79 77 110.5 113t39.5 54.5t8 49.5v1036z" />
    <glyph glyph-name="jcircumflex.smcp" horiz-adv-x="565" 
d="M158 1065h254v-1049q0 -65 -15 -104t-65 -95.5t-174 -170.5l-158 166q79 77 110.5 113t39.5 54.5t8 49.5v1036zM528 1284l-69 -117q-79 31 -170 88q-91 -57 -170 -88l-70 117q124 76 240 172q119 -98 239 -172z" />
    <glyph glyph-name="kcommaaccent.smcp" horiz-adv-x="1187" 
d="M1083 1065l-362 -520l395 -545h-293l-383 545l363 520h280zM418 1065v-1065h-254v1065h254zM498 -375v271h239v-287l-131 -213l-108 59l88 170h-88z" />
    <glyph glyph-name="lacute.smcp" horiz-adv-x="958" 
d="M418 1065v-846h469v-219h-723v1065h254zM297 1161l-92 139q154 90 272 183l96 -150q-107 -79 -276 -172z" />
    <glyph glyph-name="lcaron.smcp" horiz-adv-x="958" 
d="M418 1065v-846h469v-219h-723v1065h254zM623 838v227h198v-242l-125 -209l-88 54l88 170h-73z" />
    <glyph glyph-name="lcommaaccent.smcp" horiz-adv-x="958" 
d="M418 1065v-846h469v-219h-723v1065h254zM442 -375v271h240v-287l-131 -213l-109 59l88 170h-88z" />
    <glyph glyph-name="ldot.smcp" horiz-adv-x="958" 
d="M418 1065v-846h469v-219h-723v1065h254zM563 457v272h234v-272h-234z" />
    <glyph glyph-name="lslash.smcp" horiz-adv-x="1009" 
d="M104 344l-63 154l184 82v485h254v-377l264 117l64 -152l-328 -145v-289h469v-219h-723v399z" />
    <glyph glyph-name="nacute.smcp" horiz-adv-x="1298" 
d="M825 0l-419 748v-748h-242v1065h309l420 -750v750h242v-1065h-310zM623 1161l-93 139q158 92 273 183l96 -150q-107 -79 -276 -172z" />
    <glyph glyph-name="ncaron.smcp" horiz-adv-x="1298" 
d="M825 0l-419 748v-748h-242v1065h309l420 -750v750h242v-1065h-310zM831 1432l70 -117q-120 -74 -239 -172q-116 96 -240 172l70 117q75 -29 170 -89q97 61 169 89z" />
    <glyph glyph-name="ncommaaccent.smcp" horiz-adv-x="1298" 
d="M825 0l-419 748v-748h-242v1065h309l420 -750v750h242v-1065h-310zM526 -375v271h240v-287l-131 -213l-109 59l88 170h-88z" />
    <glyph glyph-name="ntilde.smcp" horiz-adv-x="1298" 
d="M825 0l-419 748v-748h-242v1065h309l420 -750v750h242v-1065h-310zM645 1210q-26 17 -37.5 24t-28.5 13t-34 6q-22 0 -43.5 -15t-31.5 -27.5t-30 -39.5l-102 84q37 68 90 112t113 44q64 0 127 -39q76 -45 108 -45q57 0 84 76l117 -62q-27 -79 -79.5 -124.5t-121.5 -45.5
t-131 39z" />
    <glyph glyph-name="oacute.smcp" horiz-adv-x="1179" 
d="M1047 748v-431q0 -71 -25.5 -130t-78 -106.5t-143 -74t-210.5 -26.5t-210.5 26.5t-143 74t-78 106.5t-25.5 130v431q0 71 25.5 130t78 106.5t143 74t210.5 26.5t210.5 -26.5t143 -74t78 -106.5t25.5 -130zM793 719q0 73 -47 110t-156 37t-156 -37t-47 -110v-373
q0 -73 47 -110t156 -37t156 37t47 110v373zM557 1161l-92 139q154 90 272 183l97 -150q-104 -77 -277 -172z" />
    <glyph glyph-name="obreve.smcp" horiz-adv-x="1179" 
d="M1047 748v-431q0 -71 -25.5 -130t-78 -106.5t-143 -74t-210.5 -26.5t-210.5 26.5t-143 74t-78 106.5t-25.5 130v431q0 71 25.5 130t78 106.5t143 74t210.5 26.5t210.5 -26.5t143 -74t78 -106.5t25.5 -130zM793 719q0 73 -47 110t-156 37t-156 -37t-47 -110v-373
q0 -73 47 -110t156 -37t156 37t47 110v373zM741 1405l119 -64q-22 -85 -91 -137.5t-181 -52.5t-181.5 53t-91.5 137l119 64q45 -107 154 -107q108 0 153 107z" />
    <glyph glyph-name="ocircumflex.smcp" horiz-adv-x="1179" 
d="M1047 748v-431q0 -71 -25.5 -130t-78 -106.5t-143 -74t-210.5 -26.5t-210.5 26.5t-143 74t-78 106.5t-25.5 130v431q0 71 25.5 130t78 106.5t143 74t210.5 26.5t210.5 -26.5t143 -74t78 -106.5t25.5 -130zM793 719q0 73 -47 110t-156 37t-156 -37t-47 -110v-373
q0 -73 47 -110t156 -37t156 37t47 110v373zM829 1284l-69 -117q-79 31 -170 88q-91 -57 -170 -88l-70 117q124 76 240 172q119 -98 239 -172z" />
    <glyph glyph-name="odieresis.smcp" horiz-adv-x="1179" 
d="M1047 748v-431q0 -71 -25.5 -130t-78 -106.5t-143 -74t-210.5 -26.5t-210.5 26.5t-143 74t-78 106.5t-25.5 130v431q0 71 25.5 130t78 106.5t143 74t210.5 26.5t210.5 -26.5t143 -74t78 -106.5t25.5 -130zM793 719q0 73 -47 110t-156 37t-156 -37t-47 -110v-373
q0 -73 47 -110t156 -37t156 37t47 110v373zM297 1186v196h203v-196h-203zM682 1186v196h201v-196h-201z" />
    <glyph glyph-name="ograve.smcp" horiz-adv-x="1179" 
d="M1047 748v-431q0 -71 -25.5 -130t-78 -106.5t-143 -74t-210.5 -26.5t-210.5 26.5t-143 74t-78 106.5t-25.5 130v431q0 71 25.5 130t78 106.5t143 74t210.5 26.5t210.5 -26.5t143 -74t78 -106.5t25.5 -130zM793 719q0 73 -47 110t-156 37t-156 -37t-47 -110v-373
q0 -73 47 -110t156 -37t156 37t47 110v373zM705 1300l-93 -139q-158 74 -276 172l96 150q113 -90 273 -183z" />
    <glyph glyph-name="ohungarumlaut.smcp" horiz-adv-x="1179" 
d="M1047 748v-431q0 -71 -25.5 -130t-78 -106.5t-143 -74t-210.5 -26.5t-210.5 26.5t-143 74t-78 106.5t-25.5 130v431q0 71 25.5 130t78 106.5t143 74t210.5 26.5t210.5 -26.5t143 -74t78 -106.5t25.5 -130zM793 719q0 73 -47 110t-156 37t-156 -37t-47 -110v-373
q0 -73 47 -110t156 -37t156 37t47 110v373zM434 1151l-115 113q118 122 175 202l133 -116q-35 -51 -90 -106.5t-103 -92.5zM772 1151l-115 113q114 118 174 202l134 -116q-35 -51 -90 -106.5t-103 -92.5z" />
    <glyph glyph-name="omacron.smcp" horiz-adv-x="1179" 
d="M1047 748v-431q0 -71 -25.5 -130t-78 -106.5t-143 -74t-210.5 -26.5t-210.5 26.5t-143 74t-78 106.5t-25.5 130v431q0 71 25.5 130t78 106.5t143 74t210.5 26.5t210.5 -26.5t143 -74t78 -106.5t25.5 -130zM793 719q0 73 -47 110t-156 37t-156 -37t-47 -110v-373
q0 -73 47 -110t156 -37t156 37t47 110v373zM340 1210v152h500v-152h-500z" />
    <glyph glyph-name="oslashacute.smcp" horiz-adv-x="1179" 
d="M133 -66l98 150q-98 85 -98 233v431q0 71 25.5 130t78 106.5t143 74t210.5 26.5q159 0 270 -49l101 152l86 -58l-101 -149q101 -88 101 -233v-431q0 -71 -25.5 -130t-78 -106.5t-143 -74t-210.5 -26.5q-164 0 -271 49l-100 -152zM387 346q0 -16 2 -24l340 518
q-50 26 -139 26q-109 0 -156 -37t-47 -110v-373zM793 719q0 4 -1 12t-1 12l-342 -518q48 -26 141 -26q109 0 156 37t47 110v373zM553 1161l-92 139q154 90 272 183l96 -150q-107 -79 -276 -172z" />
    <glyph glyph-name="otilde.smcp" horiz-adv-x="1179" 
d="M1047 748v-431q0 -71 -25.5 -130t-78 -106.5t-143 -74t-210.5 -26.5t-210.5 26.5t-143 74t-78 106.5t-25.5 130v431q0 71 25.5 130t78 106.5t143 74t210.5 26.5t210.5 -26.5t143 -74t78 -106.5t25.5 -130zM793 719q0 73 -47 110t-156 37t-156 -37t-47 -110v-373
q0 -73 47 -110t156 -37t156 37t47 110v373zM586 1210q-36 24 -56.5 33.5t-44.5 9.5q-22 0 -43.5 -15.5t-30.5 -27t-30 -39.5l-102 84q37 68 89.5 112t112.5 44q64 0 127 -39q76 -45 109 -45q57 0 84 76l117 -62q-27 -79 -79.5 -124.5t-121.5 -45.5t-131 39z" />
    <glyph glyph-name="racute.smcp" horiz-adv-x="1202" 
d="M852 0l-209 311h-225v-311h-254v1065h500q202 0 287 -75t85 -224v-154q0 -93 -30.5 -150t-110.5 -100l246 -362h-289zM657 514q71 0 101 27.5t30 85.5v127q0 57 -28 80.5t-94 23.5h-248v-344h239zM508 1161l-92 139q154 90 272 183l96 -150q-107 -79 -276 -172z" />
    <glyph glyph-name="rcaron.smcp" horiz-adv-x="1202" 
d="M852 0l-209 311h-225v-311h-254v1065h500q202 0 287 -75t85 -224v-154q0 -93 -30.5 -150t-110.5 -100l246 -362h-289zM657 514q71 0 101 27.5t30 85.5v127q0 57 -28 80.5t-94 23.5h-248v-344h239zM756 1432l69 -117q-120 -74 -239 -172q-116 96 -240 172l70 117
q75 -29 170 -89q95 60 170 89z" />
    <glyph glyph-name="rcommaaccent.smcp" horiz-adv-x="1202" 
d="M852 0l-209 311h-225v-311h-254v1065h500q202 0 287 -75t85 -224v-154q0 -93 -30.5 -150t-110.5 -100l246 -362h-289zM657 514q71 0 101 27.5t30 85.5v127q0 57 -28 80.5t-94 23.5h-248v-344h239zM512 -375v271h240v-287l-131 -213l-109 59l88 170h-88z" />
    <glyph glyph-name="sacute.smcp" horiz-adv-x="1021" 
d="M913 307q0 -87 -18 -144.5t-64.5 -100.5t-129.5 -62.5t-209 -19.5q-214 0 -379 67l41 193q172 -52 340 -52q99 0 132 23t33 86q0 45 -11 65t-56.5 38.5t-151.5 41.5q-73 15 -124.5 32t-87 40t-56 46t-32 60t-14.5 72.5t-3 91.5q0 166 97 233.5t315 67.5q203 0 354 -43
l-31 -202q-167 37 -319 37q-102 0 -132 -19t-30 -82q0 -26 1 -39t9.5 -27.5t18.5 -21t38.5 -17t58 -18t87.5 -20.5q78 -18 129 -33.5t88.5 -37t57 -41.5t31 -54.5t14.5 -68.5t3 -91zM467 1161l-92 139q154 90 272 183l96 -150q-107 -79 -276 -172z" />
    <glyph glyph-name="scaron.smcp" horiz-adv-x="1021" 
d="M913 307q0 -87 -18 -144.5t-64.5 -100.5t-129.5 -62.5t-209 -19.5q-214 0 -379 67l41 193q172 -52 340 -52q99 0 132 23t33 86q0 45 -11 65t-56.5 38.5t-151.5 41.5q-73 15 -124.5 32t-87 40t-56 46t-32 60t-14.5 72.5t-3 91.5q0 166 97 233.5t315 67.5q203 0 354 -43
l-31 -202q-167 37 -319 37q-102 0 -132 -19t-30 -82q0 -26 1 -39t9.5 -27.5t18.5 -21t38.5 -17t58 -18t87.5 -20.5q78 -18 129 -33.5t88.5 -37t57 -41.5t31 -54.5t14.5 -68.5t3 -91zM709 1432l69 -117q-120 -74 -239 -172q-116 96 -240 172l70 117q75 -29 170 -89
q95 60 170 89z" />
    <glyph glyph-name="scedilla.smcp" horiz-adv-x="1021" 
d="M733 -244q0 -77 -54.5 -121.5t-164.5 -44.5q-89 0 -170 31l21 96q63 -18 133 -18q59 0 79.5 14t20.5 45q0 26 -18 37.5t-60 11.5q-27 0 -63 -4l-60 29l31 150q-187 11 -315 65l41 193q172 -52 340 -52q99 0 132 23t33 86q0 45 -11 65t-56.5 38.5t-151.5 41.5
q-73 15 -124.5 32t-87 40t-56 46t-32 60t-14.5 72.5t-3 91.5q0 166 97 233.5t315 67.5q203 0 354 -43l-31 -202q-167 37 -319 37q-102 0 -132 -19t-30 -82q0 -26 1 -39t9.5 -27.5t18.5 -21t38.5 -17t58 -18t87.5 -20.5q78 -18 129 -33.5t88.5 -37t57 -41.5t31 -54.5
t14.5 -68.5t3 -91q0 -82 -16 -137.5t-57 -97.5t-112.5 -64t-180.5 -26l-17 -91q40 5 58 5q71 1 108 -37.5t37 -102.5z" />
    <glyph glyph-name="scircumflex.smcp" horiz-adv-x="1021" 
d="M913 307q0 -87 -18 -144.5t-64.5 -100.5t-129.5 -62.5t-209 -19.5q-214 0 -379 67l41 193q172 -52 340 -52q99 0 132 23t33 86q0 45 -11 65t-56.5 38.5t-151.5 41.5q-73 15 -124.5 32t-87 40t-56 46t-32 60t-14.5 72.5t-3 91.5q0 166 97 233.5t315 67.5q203 0 354 -43
l-31 -202q-167 37 -319 37q-102 0 -132 -19t-30 -82q0 -26 1 -39t9.5 -27.5t18.5 -21t38.5 -17t58 -18t87.5 -20.5q78 -18 129 -33.5t88.5 -37t57 -41.5t31 -54.5t14.5 -68.5t3 -91zM778 1284l-69 -117q-79 31 -170 88q-91 -57 -170 -88l-70 117q124 76 240 172
q119 -98 239 -172z" />
    <glyph glyph-name="scommaaccent.smcp" horiz-adv-x="1021" 
d="M913 307q0 -87 -18 -144.5t-64.5 -100.5t-129.5 -62.5t-209 -19.5q-214 0 -379 67l41 193q172 -52 340 -52q99 0 132 23t33 86q0 45 -11 65t-56.5 38.5t-151.5 41.5q-73 15 -124.5 32t-87 40t-56 46t-32 60t-14.5 72.5t-3 91.5q0 166 97 233.5t315 67.5q203 0 354 -43
l-31 -202q-167 37 -319 37q-102 0 -132 -19t-30 -82q0 -26 1 -39t9.5 -27.5t18.5 -21t38.5 -17t58 -18t87.5 -20.5q78 -18 129 -33.5t88.5 -37t57 -41.5t31 -54.5t14.5 -68.5t3 -91zM418 -375v271h239v-287l-131 -213l-108 59l88 170h-88z" />
    <glyph glyph-name="tbar.smcp" horiz-adv-x="1028" 
d="M137 403v132h250v311h-326v219h906v-219h-326v-311h250v-132h-250v-403h-254v403h-250z" />
    <glyph glyph-name="tcaron.smcp" horiz-adv-x="1028" 
d="M387 0v846h-326v219h906v-219h-326v-846h-254zM684 1432l70 -117q-124 -76 -240 -172q-116 96 -240 172l70 117q75 -29 170 -89q95 60 170 89z" />
    <glyph glyph-name="tcommaaccent.smcp" horiz-adv-x="1028" 
d="M387 0v846h-326v219h906v-219h-326v-846h-254zM393 -375v271h240v-287l-131 -213l-109 59l88 170h-88z" />
    <glyph glyph-name="thorn.smcp" horiz-adv-x="1087" 
d="M637 158h-219v-158h-254v1065h254v-143h231q203 0 288 -75t85 -224v-164q0 -150 -90.5 -225.5t-294.5 -75.5zM639 362q71 0 101 26t30 83v139q0 55 -30 80t-101 25h-221v-353h221z" />
    <glyph glyph-name="uacute.smcp" horiz-adv-x="1208" 
d="M801 1065h254v-750q0 -68 -22.5 -125t-72 -105.5t-140.5 -76.5t-216 -28t-215.5 28t-140 76.5t-72 105.5t-22.5 125v750h254v-723q0 -71 44 -107t152 -36t152.5 36t44.5 107v723zM557 1161l-92 139q154 90 272 183l97 -150q-104 -77 -277 -172z" />
    <glyph glyph-name="ubreve.smcp" horiz-adv-x="1208" 
d="M801 1065h254v-750q0 -68 -22.5 -125t-72 -105.5t-140.5 -76.5t-216 -28t-215.5 28t-140 76.5t-72 105.5t-22.5 125v750h254v-723q0 -71 44 -107t152 -36t152.5 36t44.5 107v723zM758 1405l119 -64q-22 -84 -91.5 -137t-181.5 -53t-181 52.5t-91 137.5l119 64
q45 -107 153 -107q109 0 154 107z" />
    <glyph glyph-name="ucircumflex.smcp" horiz-adv-x="1208" 
d="M801 1065h254v-750q0 -68 -22.5 -125t-72 -105.5t-140.5 -76.5t-216 -28t-215.5 28t-140 76.5t-72 105.5t-22.5 125v750h254v-723q0 -71 44 -107t152 -36t152.5 36t44.5 107v723zM844 1284l-70 -117q-79 31 -170 88q-91 -57 -170 -88l-69 117q120 74 239 172
q116 -96 240 -172z" />
    <glyph glyph-name="udieresis.smcp" horiz-adv-x="1208" 
d="M801 1065h254v-750q0 -68 -22.5 -125t-72 -105.5t-140.5 -76.5t-216 -28t-215.5 28t-140 76.5t-72 105.5t-22.5 125v750h254v-723q0 -71 44 -107t152 -36t152.5 36t44.5 107v723zM311 1186v196h203v-196h-203zM696 1186v196h201v-196h-201z" />
    <glyph glyph-name="ugrave.smcp" horiz-adv-x="1208" 
d="M801 1065h254v-750q0 -68 -22.5 -125t-72 -105.5t-140.5 -76.5t-216 -28t-215.5 28t-140 76.5t-72 105.5t-22.5 125v750h254v-723q0 -71 44 -107t152 -36t152.5 36t44.5 107v723zM739 1300l-92 -139q-158 74 -276 172l96 150q116 -92 272 -183z" />
    <glyph glyph-name="uhungarumlaut.smcp" horiz-adv-x="1208" 
d="M801 1065h254v-750q0 -68 -22.5 -125t-72 -105.5t-140.5 -76.5t-216 -28t-215.5 28t-140 76.5t-72 105.5t-22.5 125v750h254v-723q0 -71 44 -107t152 -36t152.5 36t44.5 107v723zM446 1151l-114 113q114 118 174 202l133 -116q-35 -51 -90 -106.5t-103 -92.5zM784 1151
l-114 113q114 118 174 202l133 -116q-35 -51 -90 -106.5t-103 -92.5z" />
    <glyph glyph-name="umacron.smcp" horiz-adv-x="1208" 
d="M801 1065h254v-750q0 -68 -22.5 -125t-72 -105.5t-140.5 -76.5t-216 -28t-215.5 28t-140 76.5t-72 105.5t-22.5 125v750h254v-723q0 -71 44 -107t152 -36t152.5 36t44.5 107v723zM354 1210v152h500v-152h-500z" />
    <glyph glyph-name="uogonek.smcp" horiz-adv-x="1208" 
d="M780 -276l29 -119q-69 -29 -141 -29q-97 0 -150 43.5t-53 120.5t63.5 136.5t176.5 109.5q-47 -6 -101 -6q-125 0 -215.5 28t-140 76.5t-72 105.5t-22.5 125v750h254v-723q0 -71 44 -107t152 -36t152.5 36t44.5 107v723h254v-750q0 -95 -45.5 -171.5t-143.5 -118.5
q-126 -76 -175.5 -134.5t-49.5 -109.5q0 -66 76 -66q33 0 63 9z" />
    <glyph glyph-name="uring.smcp" horiz-adv-x="1208" 
d="M801 1065h254v-750q0 -68 -22.5 -125t-72 -105.5t-140.5 -76.5t-216 -28t-215.5 28t-140 76.5t-72 105.5t-22.5 125v750h254v-723q0 -71 44 -107t152 -36t152.5 36t44.5 107v723zM782 1307q0 -74 -46 -122t-130 -48q-86 0 -132 46.5t-46 123.5q0 75 46.5 122.5
t131.5 47.5t130.5 -47.5t45.5 -122.5zM674 1307q0 75 -68 75q-33 0 -51 -19.5t-18 -55.5q0 -34 18 -54t51 -20t50.5 20t17.5 54z" />
    <glyph glyph-name="utilde.smcp" horiz-adv-x="1208" 
d="M586 1210q-36 24 -56.5 33.5t-44.5 9.5q-22 0 -43.5 -15.5t-30.5 -27t-30 -39.5l-102 84q37 68 89.5 112t112.5 44q64 0 127 -39q76 -45 109 -45q57 0 84 76l117 -62q-27 -79 -79.5 -124.5t-121.5 -45.5t-131 39zM801 1065h254v-750q0 -68 -22.5 -125t-72 -105.5
t-140.5 -76.5t-216 -28t-215.5 28t-140 76.5t-72 105.5t-22.5 125v750h254v-723q0 -71 44 -107t152 -36t152.5 36t44.5 107v723z" />
    <glyph glyph-name="wacute.smcp" horiz-adv-x="1691" 
d="M987 1065l213 -758l207 758h244l-299 -1065h-303l-203 784l-203 -784h-303l-299 1065h244l207 -758l213 758h282zM854 1161l-92 139q154 90 272 183l96 -150q-107 -79 -276 -172z" />
    <glyph glyph-name="wcircumflex.smcp" horiz-adv-x="1691" 
d="M987 1065l213 -758l207 758h244l-299 -1065h-303l-203 784l-203 -784h-303l-299 1065h244l207 -758l213 758h282zM1085 1284l-69 -117q-79 31 -170 88q-91 -57 -170 -88l-70 117q124 76 240 172q119 -98 239 -172z" />
    <glyph glyph-name="wdieresis.smcp" horiz-adv-x="1691" 
d="M987 1065l213 -758l207 758h244l-299 -1065h-303l-203 784l-203 -784h-303l-299 1065h244l207 -758l213 758h282zM553 1186v196h203v-196h-203zM938 1186v196h201v-196h-201z" />
    <glyph glyph-name="wgrave.smcp" horiz-adv-x="1691" 
d="M987 1065l213 -758l207 758h244l-299 -1065h-303l-203 784l-203 -784h-303l-299 1065h244l207 -758l213 758h282zM946 1300l-92 -139q-158 74 -276 172l96 150q116 -92 272 -183z" />
    <glyph glyph-name="yacute.smcp" horiz-adv-x="1052" 
d="M399 0v305l-379 760h259l247 -520l248 520h258l-379 -760v-305h-254zM514 1161l-92 139q154 90 272 183l97 -150q-104 -77 -277 -172z" />
    <glyph glyph-name="ycircumflex.smcp" horiz-adv-x="1052" 
d="M399 0v305l-379 760h259l247 -520l248 520h258l-379 -760v-305h-254zM766 1284l-70 -117q-79 31 -170 88q-91 -57 -170 -88l-69 117q120 74 239 172q116 -96 240 -172z" />
    <glyph glyph-name="ydieresis.smcp" horiz-adv-x="1052" 
d="M399 0v305l-379 760h259l247 -520l248 520h258l-379 -760v-305h-254zM233 1186v196h203v-196h-203zM618 1186v196h201v-196h-201z" />
    <glyph glyph-name="ygrave.smcp" horiz-adv-x="1052" 
d="M399 0v305l-379 760h259l247 -520l248 520h258l-379 -760v-305h-254zM647 1300l-92 -139q-158 74 -276 172l96 150q116 -92 272 -183z" />
    <glyph glyph-name="zacute.smcp" horiz-adv-x="1105" 
d="M965 879l-523 -678h531v-201h-830v186l525 678h-521v201h818v-186zM498 1161l-92 139q154 90 272 183l96 -150q-107 -79 -276 -172z" />
    <glyph glyph-name="zcaron.smcp" horiz-adv-x="1105" 
d="M965 879l-523 -678h531v-201h-830v186l525 678h-521v201h818v-186zM748 1432l69 -117q-120 -74 -239 -172q-116 96 -240 172l70 117q75 -29 170 -89q95 60 170 89z" />
    <glyph glyph-name="zdotaccent.smcp" horiz-adv-x="1105" 
d="M965 879l-523 -678h531v-201h-830v186l525 678h-521v201h818v-186zM694 1186h-250v289h250v-289z" />
    <glyph glyph-name="ornm01.ornm" horiz-adv-x="1898" 
d="M784 0l-682 682l682 682l131 -133l-462 -455h1302v-188h-1302l462 -455z" />
    <glyph glyph-name="ornm02.ornm" horiz-adv-x="1898" 
d="M1796 682l-682 -682l-131 133l463 455h-1303v188h1303l-463 455l131 133z" />
    <glyph glyph-name="ornm03.ornm" horiz-adv-x="1564" 
d="M1432 262l-136 -133l-921 920v-650h-180v965h964v-180h-649z" />
    <glyph glyph-name="ornm04.ornm" horiz-adv-x="1564" 
d="M268 129l-135 133l922 922h-649v180h964v-965h-182v650z" />
    <glyph glyph-name="ornm05.ornm" horiz-adv-x="1564" 
d="M1296 1237l136 -135l-922 -922h649v-180h-964v965h180v-650z" />
    <glyph glyph-name="ornm06.ornm" horiz-adv-x="1564" 
d="M133 1102l135 135l920 -922v650h182v-965h-964v180h649z" />
    <glyph glyph-name="ornm07.ornm" horiz-adv-x="1589" 
d="M113 698l682 682l682 -682l-134 -131l-454 463v-1433h-189v1433l-454 -463z" />
    <glyph glyph-name="ornm08.ornm" horiz-adv-x="1589" 
d="M795 -403l-682 682l133 131l454 -463v1417h189v-1417l454 463l134 -131z" />
    <glyph glyph-name="ornm09.ornm" horiz-adv-x="1945" 
d="M1802 780v-196h-1069v196h1069zM915 133l-131 -133l-682 682l682 682l131 -131l-550 -551z" />
    <glyph glyph-name="ornm10.ornm" horiz-adv-x="1945" 
d="M143 584v196h1069v-196h-1069zM1161 0l-131 133l551 549l-551 551l131 131l682 -682z" />
    <glyph glyph-name="ornm11.ornm" horiz-adv-x="1599" 
d="M1466 231l-139 -137l-756 756l140 137zM381 401h-186v963h964v-184h-778v-779z" />
    <glyph glyph-name="ornm12.ornm" horiz-adv-x="1599" 
d="M272 94l-139 137l756 756l139 -137zM1405 399h-186v781h-779v184h965v-965z" />
    <glyph glyph-name="ornm13.ornm" horiz-adv-x="1599" 
d="M1327 1270l139 -137l-755 -756l-140 139zM195 963h186v-777h778v-186h-964v963z" />
    <glyph glyph-name="ornm14.ornm" horiz-adv-x="1599" 
d="M133 1133l139 137l756 -754l-139 -139zM1219 965h186v-965h-965v186h779v779z" />
    <glyph glyph-name="ornm15.ornm" horiz-adv-x="1589" 
d="M893 -403h-197v1157h197v-1157zM246 571l-133 131l682 682l682 -682l-131 -131l-551 551z" />
    <glyph glyph-name="ornm16.ornm" horiz-adv-x="1589" 
d="M696 1364h197v-1137h-197v1137zM113 279l133 131l549 -551l551 551l131 -131l-682 -682z" />
    <glyph glyph-name="ornm17.ornm" horiz-adv-x="1456" 
d="M1313 776v-188h-881l285 -279l-129 -133l-506 506l506 506l129 -133l-285 -279h881z" />
    <glyph glyph-name="ornm18.ornm" horiz-adv-x="1456" 
d="M143 588v188h881l-285 279l129 133l506 -506l-506 -506l-129 133l285 279h-881z" />
    <glyph glyph-name="ornm19.ornm" horiz-adv-x="1243" 
d="M1110 561l-133 -133l-623 623v-402h-180v715h715v-180h-402z" />
    <glyph glyph-name="ornm20.ornm" horiz-adv-x="1243" 
d="M266 428l-133 133l623 623h-402v180h715v-715h-180v402z" />
    <glyph glyph-name="ornm21.ornm" horiz-adv-x="1243" 
d="M977 936l133 -133l-623 -623h402v-180h-715v715h180v-402z" />
    <glyph glyph-name="ornm22.ornm" horiz-adv-x="1243" 
d="M133 803l133 133l623 -623v402h180v-715h-715v180h402z" />
    <glyph glyph-name="ornm23.ornm" horiz-adv-x="1236" 
d="M713 0h-189v1034l-278 -284l-133 129l505 505l506 -505l-133 -129l-278 284v-1034z" />
    <glyph glyph-name="ornm24.ornm" horiz-adv-x="1236" 
d="M524 1364h189v-1034l278 284l133 -129l-506 -505l-505 505l133 129l278 -284v1034z" />
    <glyph glyph-name="ornm25.ornm" horiz-adv-x="1486" 
d="M719 309l-131 -133l-506 506l506 506l131 -131l-375 -375zM1343 780v-196h-739v196h739z" />
    <glyph glyph-name="ornm26.ornm" horiz-adv-x="1486" 
d="M899 176l-131 133l375 373l-375 375l131 131l506 -506zM143 584v196h740v-196h-740z" />
    <glyph glyph-name="ornm27.ornm" horiz-adv-x="1269" 
d="M360 647h-186v717h715v-186h-529v-531zM1137 541l-140 -138l-522 523l137 139z" />
    <glyph glyph-name="ornm28.ornm" horiz-adv-x="1267" 
d="M1094 647h-187v531h-528v186h715v-717zM270 403l-137 138l522 524l140 -139z" />
    <glyph glyph-name="ornm29.ornm" horiz-adv-x="1269" 
d="M174 717h186v-531h529v-186h-715v717zM997 963l140 -140l-525 -524l-137 139z" />
    <glyph glyph-name="ornm30.ornm" horiz-adv-x="1267" 
d="M907 717h187v-717h-715v186h528v531zM133 823l137 140l525 -525l-140 -139z" />
    <glyph glyph-name="ornm31.ornm" horiz-adv-x="1236" 
d="M244 748l-131 131l505 505l506 -505l-133 -131l-373 374zM717 0h-197v862h197v-862z" />
    <glyph glyph-name="ornm32.ornm" horiz-adv-x="1236" 
d="M113 485l131 131l374 -374l373 374l133 -131l-506 -505zM520 1364h197v-862h-197v862z" />
    </font>
</defs>
</svg>
