<svg width="400" height="400" viewBox="0 0 400 400" fill="none" xmlns="http://www.w3.org/2000/svg">
<rect width="400" height="400" fill="#15171C"/>
<path d="M334.362 311.625C352.314 290.026 364.799 264.422 370.763 236.977C376.726 209.533 375.991 181.056 368.621 153.955C361.251 126.855 347.462 101.928 328.421 81.2833C309.379 60.639 285.646 44.8843 259.228 35.3522C232.81 25.8201 204.485 22.7909 176.649 26.5209C148.813 30.2509 122.285 40.6303 99.3089 56.7812C76.3326 72.9321 57.5842 94.3792 44.6498 119.308C31.7153 144.237 24.9753 171.915 24.9999 200C25.0094 240.827 39.3968 280.347 65.6374 311.625L65.3874 311.837C66.2624 312.887 67.2624 313.787 68.1624 314.825C69.2874 316.112 70.4999 317.325 71.6624 318.575C75.1624 322.375 78.7624 326.025 82.5374 329.45C83.6874 330.5 84.8749 331.475 86.0374 332.475C90.0374 335.925 94.1499 339.2 98.4124 342.25C98.9624 342.625 99.4624 343.112 100.012 343.5V343.35C129.289 363.952 164.214 375.009 200.012 375.009C235.811 375.009 270.736 363.952 300.012 343.35V343.5C300.562 343.112 301.05 342.625 301.612 342.25C305.862 339.187 309.987 335.925 313.987 332.475C315.15 331.475 316.337 330.487 317.487 329.45C321.262 326.012 324.862 322.375 328.362 318.575C329.525 317.325 330.725 316.112 331.862 314.825C332.75 313.787 333.762 312.887 334.637 311.825L334.362 311.625ZM200 99.9999C211.125 99.9999 222.001 103.299 231.251 109.48C240.501 115.661 247.711 124.446 251.968 134.724C256.226 145.002 257.34 156.312 255.169 167.224C252.999 178.135 247.641 188.158 239.775 196.025C231.908 203.891 221.885 209.249 210.974 211.419C200.062 213.589 188.752 212.476 178.474 208.218C168.196 203.961 159.411 196.751 153.23 187.501C147.049 178.25 143.75 167.375 143.75 156.25C143.75 141.331 149.676 127.024 160.225 116.475C170.774 105.926 185.082 99.9999 200 99.9999ZM100.087 311.625C100.304 295.212 106.974 279.544 118.654 268.012C130.335 256.479 146.086 250.008 162.5 250H237.5C253.914 250.008 269.665 256.479 281.345 268.012C293.026 279.544 299.696 295.212 299.912 311.625C272.498 336.329 236.903 350.001 200 350.001C163.097 350.001 127.502 336.329 100.087 311.625Z" fill="#929AAD"/>
</svg>
